%TF.GenerationSoftware,KiCad,Pcbnew,8.0.9*%
%TF.CreationDate,2025-12-09T16:00:50+01:00*%
%TF.ProjectId,Feed_network,46656564-5f6e-4657-9477-6f726b2e6b69,rev?*%
%TF.SameCoordinates,Original*%
%TF.FileFunction,Copper,L1,Top*%
%TF.FilePolarity,Positive*%
%FSLAX46Y46*%
G04 Gerber Fmt 4.6, Leading zero omitted, Abs format (unit mm)*
G04 Created by KiCad (PCBNEW 8.0.9) date 2025-12-09 16:00:50*
%MOMM*%
%LPD*%
G01*
G04 APERTURE LIST*
G04 Aperture macros list*
%AMRoundRect*
0 Rectangle with rounded corners*
0 $1 Rounding radius*
0 $2 $3 $4 $5 $6 $7 $8 $9 X,Y pos of 4 corners*
0 Add a 4 corners polygon primitive as box body*
4,1,4,$2,$3,$4,$5,$6,$7,$8,$9,$2,$3,0*
0 Add four circle primitives for the rounded corners*
1,1,$1+$1,$2,$3*
1,1,$1+$1,$4,$5*
1,1,$1+$1,$6,$7*
1,1,$1+$1,$8,$9*
0 Add four rect primitives between the rounded corners*
20,1,$1+$1,$2,$3,$4,$5,0*
20,1,$1+$1,$4,$5,$6,$7,0*
20,1,$1+$1,$6,$7,$8,$9,0*
20,1,$1+$1,$8,$9,$2,$3,0*%
G04 Aperture macros list end*
%TA.AperFunction,EtchedComponent*%
%ADD10C,0.000000*%
%TD*%
%TA.AperFunction,SMDPad,CuDef*%
%ADD11RoundRect,0.237500X0.300000X0.237500X-0.300000X0.237500X-0.300000X-0.237500X0.300000X-0.237500X0*%
%TD*%
%TA.AperFunction,SMDPad,CuDef*%
%ADD12RoundRect,0.237500X0.237500X-0.300000X0.237500X0.300000X-0.237500X0.300000X-0.237500X-0.300000X0*%
%TD*%
%TA.AperFunction,SMDPad,CuDef*%
%ADD13RoundRect,0.237500X0.237500X-0.250000X0.237500X0.250000X-0.237500X0.250000X-0.237500X-0.250000X0*%
%TD*%
%TA.AperFunction,SMDPad,CuDef*%
%ADD14O,0.800000X0.230000*%
%TD*%
%TA.AperFunction,SMDPad,CuDef*%
%ADD15O,0.230000X0.800000*%
%TD*%
%TA.AperFunction,SMDPad,CuDef*%
%ADD16R,2.500000X2.500000*%
%TD*%
%TA.AperFunction,SMDPad,CuDef*%
%ADD17R,1.550000X1.100000*%
%TD*%
%TA.AperFunction,ComponentPad*%
%ADD18C,2.500000*%
%TD*%
%TA.AperFunction,ComponentPad*%
%ADD19R,1.700000X1.700000*%
%TD*%
%TA.AperFunction,ComponentPad*%
%ADD20O,1.700000X1.700000*%
%TD*%
%TA.AperFunction,SMDPad,CuDef*%
%ADD21RoundRect,0.237500X-0.300000X-0.237500X0.300000X-0.237500X0.300000X0.237500X-0.300000X0.237500X0*%
%TD*%
%TA.AperFunction,SMDPad,CuDef*%
%ADD22R,2.000000X1.100000*%
%TD*%
%TA.AperFunction,ViaPad*%
%ADD23C,0.400000*%
%TD*%
%TA.AperFunction,Conductor*%
%ADD24C,0.200000*%
%TD*%
%TA.AperFunction,Conductor*%
%ADD25C,1.100000*%
%TD*%
G04 APERTURE END LIST*
%TA.AperFunction,NonConductor*%
G36*
X101000000Y-74400000D02*
G01*
X101400000Y-74400000D01*
X101400000Y-74800000D01*
X101000000Y-74800000D01*
X101000000Y-74400000D01*
G37*
%TD.AperFunction*%
%TA.AperFunction,NonConductor*%
G36*
X101000000Y-124400000D02*
G01*
X101400000Y-124400000D01*
X101400000Y-124800000D01*
X101000000Y-124800000D01*
X101000000Y-124400000D01*
G37*
%TD.AperFunction*%
%TA.AperFunction,NonConductor*%
G36*
X101000000Y-24400000D02*
G01*
X101400000Y-24400000D01*
X101400000Y-24800000D01*
X101000000Y-24800000D01*
X101000000Y-24400000D01*
G37*
%TD.AperFunction*%
%TA.AperFunction,NonConductor*%
G36*
X101000000Y-174400000D02*
G01*
X101400000Y-174400000D01*
X101400000Y-174800000D01*
X101000000Y-174800000D01*
X101000000Y-174400000D01*
G37*
%TD.AperFunction*%
D10*
%TA.AperFunction,EtchedComponent*%
%TO.C,J3*%
G36*
X122000000Y-80250000D02*
G01*
X122000000Y-80750000D01*
X120750000Y-81050000D01*
X120750000Y-79950000D01*
X122000000Y-80250000D01*
G37*
%TD.AperFunction*%
%TA.AperFunction,EtchedComponent*%
%TO.C,J4*%
G36*
X122000000Y-130250000D02*
G01*
X122000000Y-130750000D01*
X120750000Y-131050000D01*
X120750000Y-129950000D01*
X122000000Y-130250000D01*
G37*
%TD.AperFunction*%
%TA.AperFunction,EtchedComponent*%
%TO.C,J1*%
G36*
X61750000Y-106050000D02*
G01*
X60500000Y-105750000D01*
X60500000Y-105250000D01*
X61750000Y-104950000D01*
X61750000Y-106050000D01*
G37*
%TD.AperFunction*%
%TA.AperFunction,EtchedComponent*%
%TO.C,X1*%
G36*
X70397500Y-98401250D02*
G01*
X69937500Y-98401250D01*
X70397500Y-97941250D01*
X70397500Y-98401250D01*
G37*
%TD.AperFunction*%
%TA.AperFunction,EtchedComponent*%
G36*
X70397500Y-113058750D02*
G01*
X69937500Y-112598750D01*
X70397500Y-112598750D01*
X70397500Y-113058750D01*
G37*
%TD.AperFunction*%
%TA.AperFunction,EtchedComponent*%
G36*
X72857500Y-98401250D02*
G01*
X72397500Y-98401250D01*
X72397500Y-97941250D01*
X72857500Y-98401250D01*
G37*
%TD.AperFunction*%
%TA.AperFunction,EtchedComponent*%
G36*
X72397500Y-113058750D02*
G01*
X72397500Y-112598750D01*
X72857500Y-112598750D01*
X72397500Y-113058750D01*
G37*
%TD.AperFunction*%
%TA.AperFunction,EtchedComponent*%
G36*
X72857500Y-104712500D02*
G01*
X72397500Y-104252500D01*
X72857500Y-104252500D01*
X72857500Y-104712500D01*
G37*
%TD.AperFunction*%
%TA.AperFunction,EtchedComponent*%
G36*
X72857500Y-106747500D02*
G01*
X72397500Y-106747500D01*
X72857500Y-106287500D01*
X72857500Y-106747500D01*
G37*
%TD.AperFunction*%
%TA.AperFunction,EtchedComponent*%
G36*
X74857500Y-104712500D02*
G01*
X74857500Y-103872500D01*
X75697500Y-103872500D01*
X74857500Y-104712500D01*
G37*
%TD.AperFunction*%
%TA.AperFunction,EtchedComponent*%
G36*
X75697500Y-107127500D02*
G01*
X74857500Y-107127500D01*
X74857500Y-106287500D01*
X75697500Y-107127500D01*
G37*
%TD.AperFunction*%
%TA.AperFunction,EtchedComponent*%
G36*
X75697500Y-98572500D02*
G01*
X74857500Y-98572500D01*
X75697500Y-97732500D01*
X75697500Y-98572500D01*
G37*
%TD.AperFunction*%
%TA.AperFunction,EtchedComponent*%
G36*
X75697500Y-113267500D02*
G01*
X74857500Y-112427500D01*
X75697500Y-112427500D01*
X75697500Y-113267500D01*
G37*
%TD.AperFunction*%
%TA.AperFunction,EtchedComponent*%
G36*
X78537500Y-98572500D02*
G01*
X77697500Y-98572500D01*
X77697500Y-97732500D01*
X78537500Y-98572500D01*
G37*
%TD.AperFunction*%
%TA.AperFunction,EtchedComponent*%
G36*
X77697500Y-113267500D02*
G01*
X77697500Y-112427500D01*
X78537500Y-112427500D01*
X77697500Y-113267500D01*
G37*
%TD.AperFunction*%
%TA.AperFunction,EtchedComponent*%
G36*
X78537500Y-104712500D02*
G01*
X77697500Y-103872500D01*
X78537500Y-103872500D01*
X78537500Y-104712500D01*
G37*
%TD.AperFunction*%
%TA.AperFunction,EtchedComponent*%
G36*
X78537500Y-107127500D02*
G01*
X77697500Y-107127500D01*
X78537500Y-106287500D01*
X78537500Y-107127500D01*
G37*
%TD.AperFunction*%
%TA.AperFunction,EtchedComponent*%
G36*
X80537500Y-104712500D02*
G01*
X80537500Y-103612500D01*
X81637500Y-103612500D01*
X80537500Y-104712500D01*
G37*
%TD.AperFunction*%
%TA.AperFunction,EtchedComponent*%
G36*
X81637500Y-107387500D02*
G01*
X80537500Y-107387500D01*
X80537500Y-106287500D01*
X81637500Y-107387500D01*
G37*
%TD.AperFunction*%
%TA.AperFunction,EtchedComponent*%
G36*
X81637500Y-56050000D02*
G01*
X80537500Y-56050000D01*
X81637500Y-54950000D01*
X81637500Y-56050000D01*
G37*
%TD.AperFunction*%
%TA.AperFunction,EtchedComponent*%
G36*
X81637500Y-156050000D02*
G01*
X80537500Y-154950000D01*
X81637500Y-154950000D01*
X81637500Y-156050000D01*
G37*
%TD.AperFunction*%
%TA.AperFunction,EtchedComponent*%
G36*
X87097500Y-48401250D02*
G01*
X86637500Y-48401250D01*
X87097500Y-47941250D01*
X87097500Y-48401250D01*
G37*
%TD.AperFunction*%
%TA.AperFunction,EtchedComponent*%
G36*
X87097500Y-63058750D02*
G01*
X86637500Y-62598750D01*
X87097500Y-62598750D01*
X87097500Y-63058750D01*
G37*
%TD.AperFunction*%
%TA.AperFunction,EtchedComponent*%
G36*
X87097500Y-148401250D02*
G01*
X86637500Y-148401250D01*
X87097500Y-147941250D01*
X87097500Y-148401250D01*
G37*
%TD.AperFunction*%
%TA.AperFunction,EtchedComponent*%
G36*
X87097500Y-163058750D02*
G01*
X86637500Y-162598750D01*
X87097500Y-162598750D01*
X87097500Y-163058750D01*
G37*
%TD.AperFunction*%
%TA.AperFunction,EtchedComponent*%
G36*
X89557500Y-48401250D02*
G01*
X89097500Y-48401250D01*
X89097500Y-47941250D01*
X89557500Y-48401250D01*
G37*
%TD.AperFunction*%
%TA.AperFunction,EtchedComponent*%
G36*
X89097500Y-63058750D02*
G01*
X89097500Y-62598750D01*
X89557500Y-62598750D01*
X89097500Y-63058750D01*
G37*
%TD.AperFunction*%
%TA.AperFunction,EtchedComponent*%
G36*
X89557500Y-148401250D02*
G01*
X89097500Y-148401250D01*
X89097500Y-147941250D01*
X89557500Y-148401250D01*
G37*
%TD.AperFunction*%
%TA.AperFunction,EtchedComponent*%
G36*
X89097500Y-163058750D02*
G01*
X89097500Y-162598750D01*
X89557500Y-162598750D01*
X89097500Y-163058750D01*
G37*
%TD.AperFunction*%
%TA.AperFunction,EtchedComponent*%
G36*
X89557500Y-54712500D02*
G01*
X89097500Y-54252500D01*
X89557500Y-54252500D01*
X89557500Y-54712500D01*
G37*
%TD.AperFunction*%
%TA.AperFunction,EtchedComponent*%
G36*
X89557500Y-56747500D02*
G01*
X89097500Y-56747500D01*
X89557500Y-56287500D01*
X89557500Y-56747500D01*
G37*
%TD.AperFunction*%
%TA.AperFunction,EtchedComponent*%
G36*
X89557500Y-154712500D02*
G01*
X89097500Y-154252500D01*
X89557500Y-154252500D01*
X89557500Y-154712500D01*
G37*
%TD.AperFunction*%
%TA.AperFunction,EtchedComponent*%
G36*
X89557500Y-156747500D02*
G01*
X89097500Y-156747500D01*
X89557500Y-156287500D01*
X89557500Y-156747500D01*
G37*
%TD.AperFunction*%
%TA.AperFunction,EtchedComponent*%
G36*
X91557500Y-54712500D02*
G01*
X91557500Y-53872500D01*
X92397500Y-53872500D01*
X91557500Y-54712500D01*
G37*
%TD.AperFunction*%
%TA.AperFunction,EtchedComponent*%
G36*
X92397500Y-57127500D02*
G01*
X91557500Y-57127500D01*
X91557500Y-56287500D01*
X92397500Y-57127500D01*
G37*
%TD.AperFunction*%
%TA.AperFunction,EtchedComponent*%
G36*
X91557500Y-154712500D02*
G01*
X91557500Y-153872500D01*
X92397500Y-153872500D01*
X91557500Y-154712500D01*
G37*
%TD.AperFunction*%
%TA.AperFunction,EtchedComponent*%
G36*
X92397500Y-157127500D02*
G01*
X91557500Y-157127500D01*
X91557500Y-156287500D01*
X92397500Y-157127500D01*
G37*
%TD.AperFunction*%
%TA.AperFunction,EtchedComponent*%
G36*
X92397500Y-48572500D02*
G01*
X91557500Y-48572500D01*
X92397500Y-47732500D01*
X92397500Y-48572500D01*
G37*
%TD.AperFunction*%
%TA.AperFunction,EtchedComponent*%
G36*
X92397500Y-63267500D02*
G01*
X91557500Y-62427500D01*
X92397500Y-62427500D01*
X92397500Y-63267500D01*
G37*
%TD.AperFunction*%
%TA.AperFunction,EtchedComponent*%
G36*
X92397500Y-148572500D02*
G01*
X91557500Y-148572500D01*
X92397500Y-147732500D01*
X92397500Y-148572500D01*
G37*
%TD.AperFunction*%
%TA.AperFunction,EtchedComponent*%
G36*
X92397500Y-163267500D02*
G01*
X91557500Y-162427500D01*
X92397500Y-162427500D01*
X92397500Y-163267500D01*
G37*
%TD.AperFunction*%
%TA.AperFunction,EtchedComponent*%
G36*
X95237500Y-48572500D02*
G01*
X94397500Y-48572500D01*
X94397500Y-47732500D01*
X95237500Y-48572500D01*
G37*
%TD.AperFunction*%
%TA.AperFunction,EtchedComponent*%
G36*
X94397500Y-63267500D02*
G01*
X94397500Y-62427500D01*
X95237500Y-62427500D01*
X94397500Y-63267500D01*
G37*
%TD.AperFunction*%
%TA.AperFunction,EtchedComponent*%
G36*
X95237500Y-148572500D02*
G01*
X94397500Y-148572500D01*
X94397500Y-147732500D01*
X95237500Y-148572500D01*
G37*
%TD.AperFunction*%
%TA.AperFunction,EtchedComponent*%
G36*
X94397500Y-163267500D02*
G01*
X94397500Y-162427500D01*
X95237500Y-162427500D01*
X94397500Y-163267500D01*
G37*
%TD.AperFunction*%
%TA.AperFunction,EtchedComponent*%
G36*
X95237500Y-54712500D02*
G01*
X94397500Y-53872500D01*
X95237500Y-53872500D01*
X95237500Y-54712500D01*
G37*
%TD.AperFunction*%
%TA.AperFunction,EtchedComponent*%
G36*
X95237500Y-57127500D02*
G01*
X94397500Y-57127500D01*
X95237500Y-56287500D01*
X95237500Y-57127500D01*
G37*
%TD.AperFunction*%
%TA.AperFunction,EtchedComponent*%
G36*
X95237500Y-154712500D02*
G01*
X94397500Y-153872500D01*
X95237500Y-153872500D01*
X95237500Y-154712500D01*
G37*
%TD.AperFunction*%
%TA.AperFunction,EtchedComponent*%
G36*
X95237500Y-157127500D02*
G01*
X94397500Y-157127500D01*
X95237500Y-156287500D01*
X95237500Y-157127500D01*
G37*
%TD.AperFunction*%
%TA.AperFunction,EtchedComponent*%
G36*
X97237500Y-54712500D02*
G01*
X97237500Y-53612500D01*
X98337500Y-53612500D01*
X97237500Y-54712500D01*
G37*
%TD.AperFunction*%
%TA.AperFunction,EtchedComponent*%
G36*
X98337500Y-57387500D02*
G01*
X97237500Y-57387500D01*
X97237500Y-56287500D01*
X98337500Y-57387500D01*
G37*
%TD.AperFunction*%
%TA.AperFunction,EtchedComponent*%
G36*
X97237500Y-154712500D02*
G01*
X97237500Y-153612500D01*
X98337500Y-153612500D01*
X97237500Y-154712500D01*
G37*
%TD.AperFunction*%
%TA.AperFunction,EtchedComponent*%
G36*
X98337500Y-157387500D02*
G01*
X97237500Y-157387500D01*
X97237500Y-156287500D01*
X98337500Y-157387500D01*
G37*
%TD.AperFunction*%
%TA.AperFunction,EtchedComponent*%
G36*
X98337500Y-31050000D02*
G01*
X97237500Y-31050000D01*
X98337500Y-29950000D01*
X98337500Y-31050000D01*
G37*
%TD.AperFunction*%
%TA.AperFunction,EtchedComponent*%
G36*
X98337500Y-81050000D02*
G01*
X97237500Y-79950000D01*
X98337500Y-79950000D01*
X98337500Y-81050000D01*
G37*
%TD.AperFunction*%
%TA.AperFunction,EtchedComponent*%
G36*
X98337500Y-131050000D02*
G01*
X97237500Y-131050000D01*
X98337500Y-129950000D01*
X98337500Y-131050000D01*
G37*
%TD.AperFunction*%
%TA.AperFunction,EtchedComponent*%
G36*
X98337500Y-181050000D02*
G01*
X97237500Y-179950000D01*
X98337500Y-179950000D01*
X98337500Y-181050000D01*
G37*
%TD.AperFunction*%
%TA.AperFunction,EtchedComponent*%
G36*
X70397500Y-104950000D02*
G01*
X69937500Y-104950000D01*
X69937500Y-98401250D01*
X70397500Y-98401250D01*
X70397500Y-104950000D01*
G37*
%TD.AperFunction*%
%TA.AperFunction,EtchedComponent*%
G36*
X70397500Y-106050000D02*
G01*
X69937500Y-106050000D01*
X69937500Y-104950000D01*
X70397500Y-104950000D01*
X70397500Y-106050000D01*
G37*
%TD.AperFunction*%
%TA.AperFunction,EtchedComponent*%
G36*
X70397500Y-112598750D02*
G01*
X69937500Y-112598750D01*
X69937500Y-106050000D01*
X70397500Y-106050000D01*
X70397500Y-112598750D01*
G37*
%TD.AperFunction*%
%TA.AperFunction,EtchedComponent*%
G36*
X72397500Y-98401250D02*
G01*
X70397500Y-98401250D01*
X70397500Y-97941250D01*
X72397500Y-97941250D01*
X72397500Y-98401250D01*
G37*
%TD.AperFunction*%
%TA.AperFunction,EtchedComponent*%
G36*
X72397500Y-113058750D02*
G01*
X70397500Y-113058750D01*
X70397500Y-112598750D01*
X72397500Y-112598750D01*
X72397500Y-113058750D01*
G37*
%TD.AperFunction*%
%TA.AperFunction,EtchedComponent*%
G36*
X72857500Y-104252500D02*
G01*
X72397500Y-104252500D01*
X72397500Y-98401250D01*
X72857500Y-98401250D01*
X72857500Y-104252500D01*
G37*
%TD.AperFunction*%
%TA.AperFunction,EtchedComponent*%
G36*
X72857500Y-112598750D02*
G01*
X72397500Y-112598750D01*
X72397500Y-106747500D01*
X72857500Y-106747500D01*
X72857500Y-112598750D01*
G37*
%TD.AperFunction*%
%TA.AperFunction,EtchedComponent*%
G36*
X73857500Y-104712500D02*
G01*
X72857500Y-104712500D01*
X72857500Y-104252500D01*
X73857500Y-104252500D01*
X73857500Y-104712500D01*
G37*
%TD.AperFunction*%
%TA.AperFunction,EtchedComponent*%
G36*
X73857500Y-106747500D02*
G01*
X72857500Y-106747500D01*
X72857500Y-106287500D01*
X73857500Y-106287500D01*
X73857500Y-106747500D01*
G37*
%TD.AperFunction*%
%TA.AperFunction,EtchedComponent*%
G36*
X73782500Y-104825000D02*
G01*
X72932500Y-104825000D01*
X72932500Y-104712500D01*
X73782500Y-104712500D01*
X73782500Y-104825000D01*
G37*
%TD.AperFunction*%
%TA.AperFunction,EtchedComponent*%
G36*
X73782500Y-106287500D02*
G01*
X72932500Y-106287500D01*
X72932500Y-106175000D01*
X73782500Y-106175000D01*
X73782500Y-106287500D01*
G37*
%TD.AperFunction*%
%TA.AperFunction,EtchedComponent*%
G36*
X74857500Y-104712500D02*
G01*
X73857500Y-104712500D01*
X73857500Y-103872500D01*
X74857500Y-103872500D01*
X74857500Y-104712500D01*
G37*
%TD.AperFunction*%
%TA.AperFunction,EtchedComponent*%
G36*
X74857500Y-107127500D02*
G01*
X73857500Y-107127500D01*
X73857500Y-106287500D01*
X74857500Y-106287500D01*
X74857500Y-107127500D01*
G37*
%TD.AperFunction*%
%TA.AperFunction,EtchedComponent*%
G36*
X75697500Y-103872500D02*
G01*
X74857500Y-103872500D01*
X74857500Y-98572500D01*
X75697500Y-98572500D01*
X75697500Y-103872500D01*
G37*
%TD.AperFunction*%
%TA.AperFunction,EtchedComponent*%
G36*
X75697500Y-112427500D02*
G01*
X74857500Y-112427500D01*
X74857500Y-107127500D01*
X75697500Y-107127500D01*
X75697500Y-112427500D01*
G37*
%TD.AperFunction*%
%TA.AperFunction,EtchedComponent*%
G36*
X77697500Y-98572500D02*
G01*
X75697500Y-98572500D01*
X75697500Y-97732500D01*
X77697500Y-97732500D01*
X77697500Y-98572500D01*
G37*
%TD.AperFunction*%
%TA.AperFunction,EtchedComponent*%
G36*
X77697500Y-113267500D02*
G01*
X75697500Y-113267500D01*
X75697500Y-112427500D01*
X77697500Y-112427500D01*
X77697500Y-113267500D01*
G37*
%TD.AperFunction*%
%TA.AperFunction,EtchedComponent*%
G36*
X78537500Y-103872500D02*
G01*
X77697500Y-103872500D01*
X77697500Y-98572500D01*
X78537500Y-98572500D01*
X78537500Y-103872500D01*
G37*
%TD.AperFunction*%
%TA.AperFunction,EtchedComponent*%
G36*
X78537500Y-112427500D02*
G01*
X77697500Y-112427500D01*
X77697500Y-107127500D01*
X78537500Y-107127500D01*
X78537500Y-112427500D01*
G37*
%TD.AperFunction*%
%TA.AperFunction,EtchedComponent*%
G36*
X79537500Y-104712500D02*
G01*
X78537500Y-104712500D01*
X78537500Y-103872500D01*
X79537500Y-103872500D01*
X79537500Y-104712500D01*
G37*
%TD.AperFunction*%
%TA.AperFunction,EtchedComponent*%
G36*
X79537500Y-107127500D02*
G01*
X78537500Y-107127500D01*
X78537500Y-106287500D01*
X79537500Y-106287500D01*
X79537500Y-107127500D01*
G37*
%TD.AperFunction*%
%TA.AperFunction,EtchedComponent*%
G36*
X79462500Y-104825000D02*
G01*
X78612500Y-104825000D01*
X78612500Y-104712500D01*
X79462500Y-104712500D01*
X79462500Y-104825000D01*
G37*
%TD.AperFunction*%
%TA.AperFunction,EtchedComponent*%
G36*
X79462500Y-106287500D02*
G01*
X78612500Y-106287500D01*
X78612500Y-106175000D01*
X79462500Y-106175000D01*
X79462500Y-106287500D01*
G37*
%TD.AperFunction*%
%TA.AperFunction,EtchedComponent*%
G36*
X80537500Y-104712500D02*
G01*
X79537500Y-104712500D01*
X79537500Y-103612500D01*
X80537500Y-103612500D01*
X80537500Y-104712500D01*
G37*
%TD.AperFunction*%
%TA.AperFunction,EtchedComponent*%
G36*
X80537500Y-107387500D02*
G01*
X79537500Y-107387500D01*
X79537500Y-106287500D01*
X80537500Y-106287500D01*
X80537500Y-107387500D01*
G37*
%TD.AperFunction*%
%TA.AperFunction,EtchedComponent*%
G36*
X81637500Y-100500000D02*
G01*
X80537500Y-100500000D01*
X80537500Y-56050000D01*
X81637500Y-56050000D01*
X81637500Y-100500000D01*
G37*
%TD.AperFunction*%
%TA.AperFunction,EtchedComponent*%
G36*
X81637500Y-103612500D02*
G01*
X80537500Y-103612500D01*
X80537500Y-100500000D01*
X81637500Y-100500000D01*
X81637500Y-103612500D01*
G37*
%TD.AperFunction*%
%TA.AperFunction,EtchedComponent*%
G36*
X81637500Y-110500000D02*
G01*
X80537500Y-110500000D01*
X80537500Y-107387500D01*
X81637500Y-107387500D01*
X81637500Y-110500000D01*
G37*
%TD.AperFunction*%
%TA.AperFunction,EtchedComponent*%
G36*
X81637500Y-154950000D02*
G01*
X80537500Y-154950000D01*
X80537500Y-110500000D01*
X81637500Y-110500000D01*
X81637500Y-154950000D01*
G37*
%TD.AperFunction*%
%TA.AperFunction,EtchedComponent*%
G36*
X83637500Y-56050000D02*
G01*
X81637500Y-56050000D01*
X81637500Y-54950000D01*
X83637500Y-54950000D01*
X83637500Y-56050000D01*
G37*
%TD.AperFunction*%
%TA.AperFunction,EtchedComponent*%
G36*
X83637500Y-156050000D02*
G01*
X81637500Y-156050000D01*
X81637500Y-154950000D01*
X83637500Y-154950000D01*
X83637500Y-156050000D01*
G37*
%TD.AperFunction*%
%TA.AperFunction,EtchedComponent*%
G36*
X86637500Y-56050000D02*
G01*
X83637500Y-56050000D01*
X83637500Y-54950000D01*
X86637500Y-54950000D01*
X86637500Y-56050000D01*
G37*
%TD.AperFunction*%
%TA.AperFunction,EtchedComponent*%
G36*
X86637500Y-156050000D02*
G01*
X83637500Y-156050000D01*
X83637500Y-154950000D01*
X86637500Y-154950000D01*
X86637500Y-156050000D01*
G37*
%TD.AperFunction*%
%TA.AperFunction,EtchedComponent*%
G36*
X87097500Y-54950000D02*
G01*
X86637500Y-54950000D01*
X86637500Y-48401250D01*
X87097500Y-48401250D01*
X87097500Y-54950000D01*
G37*
%TD.AperFunction*%
%TA.AperFunction,EtchedComponent*%
G36*
X87097500Y-56050000D02*
G01*
X86637500Y-56050000D01*
X86637500Y-54950000D01*
X87097500Y-54950000D01*
X87097500Y-56050000D01*
G37*
%TD.AperFunction*%
%TA.AperFunction,EtchedComponent*%
G36*
X87097500Y-62598750D02*
G01*
X86637500Y-62598750D01*
X86637500Y-56050000D01*
X87097500Y-56050000D01*
X87097500Y-62598750D01*
G37*
%TD.AperFunction*%
%TA.AperFunction,EtchedComponent*%
G36*
X87097500Y-154950000D02*
G01*
X86637500Y-154950000D01*
X86637500Y-148401250D01*
X87097500Y-148401250D01*
X87097500Y-154950000D01*
G37*
%TD.AperFunction*%
%TA.AperFunction,EtchedComponent*%
G36*
X87097500Y-156050000D02*
G01*
X86637500Y-156050000D01*
X86637500Y-154950000D01*
X87097500Y-154950000D01*
X87097500Y-156050000D01*
G37*
%TD.AperFunction*%
%TA.AperFunction,EtchedComponent*%
G36*
X87097500Y-162598750D02*
G01*
X86637500Y-162598750D01*
X86637500Y-156050000D01*
X87097500Y-156050000D01*
X87097500Y-162598750D01*
G37*
%TD.AperFunction*%
%TA.AperFunction,EtchedComponent*%
G36*
X89097500Y-48401250D02*
G01*
X87097500Y-48401250D01*
X87097500Y-47941250D01*
X89097500Y-47941250D01*
X89097500Y-48401250D01*
G37*
%TD.AperFunction*%
%TA.AperFunction,EtchedComponent*%
G36*
X89097500Y-63058750D02*
G01*
X87097500Y-63058750D01*
X87097500Y-62598750D01*
X89097500Y-62598750D01*
X89097500Y-63058750D01*
G37*
%TD.AperFunction*%
%TA.AperFunction,EtchedComponent*%
G36*
X89097500Y-148401250D02*
G01*
X87097500Y-148401250D01*
X87097500Y-147941250D01*
X89097500Y-147941250D01*
X89097500Y-148401250D01*
G37*
%TD.AperFunction*%
%TA.AperFunction,EtchedComponent*%
G36*
X89097500Y-163058750D02*
G01*
X87097500Y-163058750D01*
X87097500Y-162598750D01*
X89097500Y-162598750D01*
X89097500Y-163058750D01*
G37*
%TD.AperFunction*%
%TA.AperFunction,EtchedComponent*%
G36*
X89557500Y-54252500D02*
G01*
X89097500Y-54252500D01*
X89097500Y-48401250D01*
X89557500Y-48401250D01*
X89557500Y-54252500D01*
G37*
%TD.AperFunction*%
%TA.AperFunction,EtchedComponent*%
G36*
X89557500Y-62598750D02*
G01*
X89097500Y-62598750D01*
X89097500Y-56747500D01*
X89557500Y-56747500D01*
X89557500Y-62598750D01*
G37*
%TD.AperFunction*%
%TA.AperFunction,EtchedComponent*%
G36*
X89557500Y-154252500D02*
G01*
X89097500Y-154252500D01*
X89097500Y-148401250D01*
X89557500Y-148401250D01*
X89557500Y-154252500D01*
G37*
%TD.AperFunction*%
%TA.AperFunction,EtchedComponent*%
G36*
X89557500Y-162598750D02*
G01*
X89097500Y-162598750D01*
X89097500Y-156747500D01*
X89557500Y-156747500D01*
X89557500Y-162598750D01*
G37*
%TD.AperFunction*%
%TA.AperFunction,EtchedComponent*%
G36*
X90557500Y-54712500D02*
G01*
X89557500Y-54712500D01*
X89557500Y-54252500D01*
X90557500Y-54252500D01*
X90557500Y-54712500D01*
G37*
%TD.AperFunction*%
%TA.AperFunction,EtchedComponent*%
G36*
X90557500Y-56747500D02*
G01*
X89557500Y-56747500D01*
X89557500Y-56287500D01*
X90557500Y-56287500D01*
X90557500Y-56747500D01*
G37*
%TD.AperFunction*%
%TA.AperFunction,EtchedComponent*%
G36*
X90557500Y-154712500D02*
G01*
X89557500Y-154712500D01*
X89557500Y-154252500D01*
X90557500Y-154252500D01*
X90557500Y-154712500D01*
G37*
%TD.AperFunction*%
%TA.AperFunction,EtchedComponent*%
G36*
X90557500Y-156747500D02*
G01*
X89557500Y-156747500D01*
X89557500Y-156287500D01*
X90557500Y-156287500D01*
X90557500Y-156747500D01*
G37*
%TD.AperFunction*%
%TA.AperFunction,EtchedComponent*%
G36*
X90482500Y-54825000D02*
G01*
X89632500Y-54825000D01*
X89632500Y-54712500D01*
X90482500Y-54712500D01*
X90482500Y-54825000D01*
G37*
%TD.AperFunction*%
%TA.AperFunction,EtchedComponent*%
G36*
X90482500Y-56287500D02*
G01*
X89632500Y-56287500D01*
X89632500Y-56175000D01*
X90482500Y-56175000D01*
X90482500Y-56287500D01*
G37*
%TD.AperFunction*%
%TA.AperFunction,EtchedComponent*%
G36*
X90482500Y-154825000D02*
G01*
X89632500Y-154825000D01*
X89632500Y-154712500D01*
X90482500Y-154712500D01*
X90482500Y-154825000D01*
G37*
%TD.AperFunction*%
%TA.AperFunction,EtchedComponent*%
G36*
X90482500Y-156287500D02*
G01*
X89632500Y-156287500D01*
X89632500Y-156175000D01*
X90482500Y-156175000D01*
X90482500Y-156287500D01*
G37*
%TD.AperFunction*%
%TA.AperFunction,EtchedComponent*%
G36*
X91557500Y-54712500D02*
G01*
X90557500Y-54712500D01*
X90557500Y-53872500D01*
X91557500Y-53872500D01*
X91557500Y-54712500D01*
G37*
%TD.AperFunction*%
%TA.AperFunction,EtchedComponent*%
G36*
X91557500Y-57127500D02*
G01*
X90557500Y-57127500D01*
X90557500Y-56287500D01*
X91557500Y-56287500D01*
X91557500Y-57127500D01*
G37*
%TD.AperFunction*%
%TA.AperFunction,EtchedComponent*%
G36*
X91557500Y-154712500D02*
G01*
X90557500Y-154712500D01*
X90557500Y-153872500D01*
X91557500Y-153872500D01*
X91557500Y-154712500D01*
G37*
%TD.AperFunction*%
%TA.AperFunction,EtchedComponent*%
G36*
X91557500Y-157127500D02*
G01*
X90557500Y-157127500D01*
X90557500Y-156287500D01*
X91557500Y-156287500D01*
X91557500Y-157127500D01*
G37*
%TD.AperFunction*%
%TA.AperFunction,EtchedComponent*%
G36*
X92397500Y-53872500D02*
G01*
X91557500Y-53872500D01*
X91557500Y-48572500D01*
X92397500Y-48572500D01*
X92397500Y-53872500D01*
G37*
%TD.AperFunction*%
%TA.AperFunction,EtchedComponent*%
G36*
X92397500Y-62427500D02*
G01*
X91557500Y-62427500D01*
X91557500Y-57127500D01*
X92397500Y-57127500D01*
X92397500Y-62427500D01*
G37*
%TD.AperFunction*%
%TA.AperFunction,EtchedComponent*%
G36*
X92397500Y-153872500D02*
G01*
X91557500Y-153872500D01*
X91557500Y-148572500D01*
X92397500Y-148572500D01*
X92397500Y-153872500D01*
G37*
%TD.AperFunction*%
%TA.AperFunction,EtchedComponent*%
G36*
X92397500Y-162427500D02*
G01*
X91557500Y-162427500D01*
X91557500Y-157127500D01*
X92397500Y-157127500D01*
X92397500Y-162427500D01*
G37*
%TD.AperFunction*%
%TA.AperFunction,EtchedComponent*%
G36*
X94397500Y-48572500D02*
G01*
X92397500Y-48572500D01*
X92397500Y-47732500D01*
X94397500Y-47732500D01*
X94397500Y-48572500D01*
G37*
%TD.AperFunction*%
%TA.AperFunction,EtchedComponent*%
G36*
X94397500Y-63267500D02*
G01*
X92397500Y-63267500D01*
X92397500Y-62427500D01*
X94397500Y-62427500D01*
X94397500Y-63267500D01*
G37*
%TD.AperFunction*%
%TA.AperFunction,EtchedComponent*%
G36*
X94397500Y-148572500D02*
G01*
X92397500Y-148572500D01*
X92397500Y-147732500D01*
X94397500Y-147732500D01*
X94397500Y-148572500D01*
G37*
%TD.AperFunction*%
%TA.AperFunction,EtchedComponent*%
G36*
X94397500Y-163267500D02*
G01*
X92397500Y-163267500D01*
X92397500Y-162427500D01*
X94397500Y-162427500D01*
X94397500Y-163267500D01*
G37*
%TD.AperFunction*%
%TA.AperFunction,EtchedComponent*%
G36*
X95237500Y-53872500D02*
G01*
X94397500Y-53872500D01*
X94397500Y-48572500D01*
X95237500Y-48572500D01*
X95237500Y-53872500D01*
G37*
%TD.AperFunction*%
%TA.AperFunction,EtchedComponent*%
G36*
X95237500Y-62427500D02*
G01*
X94397500Y-62427500D01*
X94397500Y-57127500D01*
X95237500Y-57127500D01*
X95237500Y-62427500D01*
G37*
%TD.AperFunction*%
%TA.AperFunction,EtchedComponent*%
G36*
X95237500Y-153872500D02*
G01*
X94397500Y-153872500D01*
X94397500Y-148572500D01*
X95237500Y-148572500D01*
X95237500Y-153872500D01*
G37*
%TD.AperFunction*%
%TA.AperFunction,EtchedComponent*%
G36*
X95237500Y-162427500D02*
G01*
X94397500Y-162427500D01*
X94397500Y-157127500D01*
X95237500Y-157127500D01*
X95237500Y-162427500D01*
G37*
%TD.AperFunction*%
%TA.AperFunction,EtchedComponent*%
G36*
X96237500Y-54712500D02*
G01*
X95237500Y-54712500D01*
X95237500Y-53872500D01*
X96237500Y-53872500D01*
X96237500Y-54712500D01*
G37*
%TD.AperFunction*%
%TA.AperFunction,EtchedComponent*%
G36*
X96237500Y-57127500D02*
G01*
X95237500Y-57127500D01*
X95237500Y-56287500D01*
X96237500Y-56287500D01*
X96237500Y-57127500D01*
G37*
%TD.AperFunction*%
%TA.AperFunction,EtchedComponent*%
G36*
X96237500Y-154712500D02*
G01*
X95237500Y-154712500D01*
X95237500Y-153872500D01*
X96237500Y-153872500D01*
X96237500Y-154712500D01*
G37*
%TD.AperFunction*%
%TA.AperFunction,EtchedComponent*%
G36*
X96237500Y-157127500D02*
G01*
X95237500Y-157127500D01*
X95237500Y-156287500D01*
X96237500Y-156287500D01*
X96237500Y-157127500D01*
G37*
%TD.AperFunction*%
%TA.AperFunction,EtchedComponent*%
G36*
X96162500Y-54825000D02*
G01*
X95312500Y-54825000D01*
X95312500Y-54712500D01*
X96162500Y-54712500D01*
X96162500Y-54825000D01*
G37*
%TD.AperFunction*%
%TA.AperFunction,EtchedComponent*%
G36*
X96162500Y-56287500D02*
G01*
X95312500Y-56287500D01*
X95312500Y-56175000D01*
X96162500Y-56175000D01*
X96162500Y-56287500D01*
G37*
%TD.AperFunction*%
%TA.AperFunction,EtchedComponent*%
G36*
X96162500Y-154825000D02*
G01*
X95312500Y-154825000D01*
X95312500Y-154712500D01*
X96162500Y-154712500D01*
X96162500Y-154825000D01*
G37*
%TD.AperFunction*%
%TA.AperFunction,EtchedComponent*%
G36*
X96162500Y-156287500D02*
G01*
X95312500Y-156287500D01*
X95312500Y-156175000D01*
X96162500Y-156175000D01*
X96162500Y-156287500D01*
G37*
%TD.AperFunction*%
%TA.AperFunction,EtchedComponent*%
G36*
X97237500Y-54712500D02*
G01*
X96237500Y-54712500D01*
X96237500Y-53612500D01*
X97237500Y-53612500D01*
X97237500Y-54712500D01*
G37*
%TD.AperFunction*%
%TA.AperFunction,EtchedComponent*%
G36*
X97237500Y-57387500D02*
G01*
X96237500Y-57387500D01*
X96237500Y-56287500D01*
X97237500Y-56287500D01*
X97237500Y-57387500D01*
G37*
%TD.AperFunction*%
%TA.AperFunction,EtchedComponent*%
G36*
X97237500Y-154712500D02*
G01*
X96237500Y-154712500D01*
X96237500Y-153612500D01*
X97237500Y-153612500D01*
X97237500Y-154712500D01*
G37*
%TD.AperFunction*%
%TA.AperFunction,EtchedComponent*%
G36*
X97237500Y-157387500D02*
G01*
X96237500Y-157387500D01*
X96237500Y-156287500D01*
X97237500Y-156287500D01*
X97237500Y-157387500D01*
G37*
%TD.AperFunction*%
%TA.AperFunction,EtchedComponent*%
G36*
X98337500Y-50500000D02*
G01*
X97237500Y-50500000D01*
X97237500Y-31050000D01*
X98337500Y-31050000D01*
X98337500Y-50500000D01*
G37*
%TD.AperFunction*%
%TA.AperFunction,EtchedComponent*%
G36*
X98337500Y-53612500D02*
G01*
X97237500Y-53612500D01*
X97237500Y-50500000D01*
X98337500Y-50500000D01*
X98337500Y-53612500D01*
G37*
%TD.AperFunction*%
%TA.AperFunction,EtchedComponent*%
G36*
X98337500Y-60500000D02*
G01*
X97237500Y-60500000D01*
X97237500Y-57387500D01*
X98337500Y-57387500D01*
X98337500Y-60500000D01*
G37*
%TD.AperFunction*%
%TA.AperFunction,EtchedComponent*%
G36*
X98337500Y-79950000D02*
G01*
X97237500Y-79950000D01*
X97237500Y-60500000D01*
X98337500Y-60500000D01*
X98337500Y-79950000D01*
G37*
%TD.AperFunction*%
%TA.AperFunction,EtchedComponent*%
G36*
X98337500Y-150500000D02*
G01*
X97237500Y-150500000D01*
X97237500Y-131050000D01*
X98337500Y-131050000D01*
X98337500Y-150500000D01*
G37*
%TD.AperFunction*%
%TA.AperFunction,EtchedComponent*%
G36*
X98337500Y-153612500D02*
G01*
X97237500Y-153612500D01*
X97237500Y-150500000D01*
X98337500Y-150500000D01*
X98337500Y-153612500D01*
G37*
%TD.AperFunction*%
%TA.AperFunction,EtchedComponent*%
G36*
X98337500Y-160500000D02*
G01*
X97237500Y-160500000D01*
X97237500Y-157387500D01*
X98337500Y-157387500D01*
X98337500Y-160500000D01*
G37*
%TD.AperFunction*%
%TA.AperFunction,EtchedComponent*%
G36*
X98337500Y-179950000D02*
G01*
X97237500Y-179950000D01*
X97237500Y-160500000D01*
X98337500Y-160500000D01*
X98337500Y-179950000D01*
G37*
%TD.AperFunction*%
%TA.AperFunction,EtchedComponent*%
G36*
X102887500Y-31050000D02*
G01*
X98337500Y-31050000D01*
X98337500Y-29950000D01*
X102887500Y-29950000D01*
X102887500Y-31050000D01*
G37*
%TD.AperFunction*%
%TA.AperFunction,EtchedComponent*%
G36*
X102887500Y-81050000D02*
G01*
X98337500Y-81050000D01*
X98337500Y-79950000D01*
X102887500Y-79950000D01*
X102887500Y-81050000D01*
G37*
%TD.AperFunction*%
%TA.AperFunction,EtchedComponent*%
G36*
X102887500Y-131050000D02*
G01*
X98337500Y-131050000D01*
X98337500Y-129950000D01*
X102887500Y-129950000D01*
X102887500Y-131050000D01*
G37*
%TD.AperFunction*%
%TA.AperFunction,EtchedComponent*%
G36*
X103087500Y-181050000D02*
G01*
X98337500Y-181050000D01*
X98337500Y-179950000D01*
X103087500Y-179950000D01*
X103087500Y-181050000D01*
G37*
%TD.AperFunction*%
%TA.AperFunction,EtchedComponent*%
%TO.C,J2*%
G36*
X122000000Y-30250000D02*
G01*
X122000000Y-30750000D01*
X120750000Y-31050000D01*
X120750000Y-29950000D01*
X122000000Y-30250000D01*
G37*
%TD.AperFunction*%
%TA.AperFunction,EtchedComponent*%
%TO.C,J5*%
G36*
X122000000Y-180250000D02*
G01*
X122000000Y-180750000D01*
X120750000Y-181050000D01*
X120750000Y-179950000D01*
X122000000Y-180250000D01*
G37*
%TD.AperFunction*%
%TD*%
D11*
%TO.P,C11,1*%
%TO.N,/J3*%
X115862500Y-80500000D03*
%TO.P,C11,2*%
%TO.N,/OUT2*%
X114137500Y-80500000D03*
%TD*%
D12*
%TO.P,C3,1*%
%TO.N,VEE*%
X105072500Y-77862500D03*
%TO.P,C3,2*%
%TO.N,GND*%
X105072500Y-76137500D03*
%TD*%
D13*
%TO.P,R2,1*%
%TO.N,VCC*%
X103500000Y-77912500D03*
%TO.P,R2,2*%
%TO.N,GND*%
X103500000Y-76087500D03*
%TD*%
D14*
%TO.P,U3,1,VEE*%
%TO.N,VEE*%
X106572500Y-128500000D03*
%TO.P,U3,2,P/S*%
%TO.N,VCC*%
X106572500Y-129000000D03*
%TO.P,U3,3,GND*%
%TO.N,GND*%
X106572500Y-129500000D03*
%TO.P,U3,4,GND*%
X106572500Y-130000000D03*
%TO.P,U3,5,RF_IN*%
%TO.N,/IN3*%
X106572500Y-130500000D03*
%TO.P,U3,6,GND*%
%TO.N,GND*%
X106572500Y-131000000D03*
D15*
%TO.P,U3,7,GND*%
X107322500Y-131750000D03*
%TO.P,U3,8,GND*%
X107822500Y-131750000D03*
%TO.P,U3,9,GND*%
X108322500Y-131750000D03*
D16*
%TO.P,U3,10,GND*%
X108572500Y-129750000D03*
D15*
X108822500Y-131750000D03*
%TO.P,U3,11,GND*%
X109322500Y-131750000D03*
%TO.P,U3,12,GND*%
X109822500Y-131750000D03*
D14*
%TO.P,U3,13,GND*%
X110572500Y-131000000D03*
%TO.P,U3,14,RF_OUT*%
%TO.N,/OUT3*%
X110572500Y-130500000D03*
%TO.P,U3,15,GND*%
%TO.N,GND*%
X110572500Y-130000000D03*
%TO.P,U3,16,GND*%
X110572500Y-129500000D03*
%TO.P,U3,17,SER_OUT*%
%TO.N,/Phase_shifter2/SER_OUT*%
X110572500Y-129000000D03*
%TO.P,U3,18,VCC*%
%TO.N,VCC*%
X110572500Y-128500000D03*
D15*
%TO.P,U3,19,D6*%
%TO.N,unconnected-(U3-D6-Pad19)*%
X109822500Y-127750000D03*
%TO.P,U3,20,D5*%
%TO.N,unconnected-(U3-D5-Pad20)*%
X109322500Y-127750000D03*
%TO.P,U3,21,D4*%
%TO.N,unconnected-(U3-D4-Pad21)*%
X108822500Y-127750000D03*
%TO.P,U3,22,D3/LE*%
%TO.N,/Phase_shifter2/LE*%
X108322500Y-127750000D03*
%TO.P,U3,23,D2/CLK*%
%TO.N,/Phase_shifter2/CLK*%
X107822500Y-127750000D03*
%TO.P,U3,24,D1/SER_IN*%
%TO.N,/Phase_shifter2/SER_IN*%
X107322500Y-127750000D03*
%TD*%
D12*
%TO.P,C8,1*%
%TO.N,VCC*%
X112072500Y-177862500D03*
%TO.P,C8,2*%
%TO.N,GND*%
X112072500Y-176137500D03*
%TD*%
D11*
%TO.P,C10,1*%
%TO.N,/J2*%
X115862500Y-30500000D03*
%TO.P,C10,2*%
%TO.N,/OUT1*%
X114137500Y-30500000D03*
%TD*%
D17*
%TO.P,J3,1*%
%TO.N,/J3*%
X119975000Y-80500000D03*
D18*
%TO.P,J3,2*%
%TO.N,GND*%
X119210000Y-75735000D03*
X119210000Y-85265000D03*
%TD*%
D12*
%TO.P,C1,1*%
%TO.N,VEE*%
X105072500Y-27862500D03*
%TO.P,C1,2*%
%TO.N,GND*%
X105072500Y-26137500D03*
%TD*%
D13*
%TO.P,R3,1*%
%TO.N,VCC*%
X103500000Y-127912500D03*
%TO.P,R3,2*%
%TO.N,GND*%
X103500000Y-126087500D03*
%TD*%
D19*
%TO.P,J6,1,Pin_1*%
%TO.N,/Phase_shifter/SER_IN*%
X104200000Y-23025000D03*
D20*
%TO.P,J6,2,Pin_2*%
%TO.N,VEE*%
X104200000Y-20485000D03*
%TO.P,J6,3,Pin_3*%
%TO.N,/Phase_shifter/CLK*%
X106740000Y-23025000D03*
%TO.P,J6,4,Pin_4*%
%TO.N,GND*%
X106740000Y-20485000D03*
%TO.P,J6,5,Pin_5*%
%TO.N,/Phase_shifter/LE*%
X109280000Y-23025000D03*
%TO.P,J6,6,Pin_6*%
%TO.N,GND*%
X109280000Y-20485000D03*
%TO.P,J6,7,Pin_7*%
%TO.N,VCC*%
X111820000Y-23025000D03*
%TO.P,J6,8,Pin_8*%
%TO.N,/Phase_shifter/SER_OUT*%
X111820000Y-20485000D03*
%TD*%
D11*
%TO.P,C12,1*%
%TO.N,/J4*%
X115862500Y-130500000D03*
%TO.P,C12,2*%
%TO.N,/OUT3*%
X114137500Y-130500000D03*
%TD*%
D21*
%TO.P,C9,1*%
%TO.N,/J1*%
X66637500Y-105500000D03*
%TO.P,C9,2*%
%TO.N,/P1*%
X68362500Y-105500000D03*
%TD*%
D14*
%TO.P,U1,1,VEE*%
%TO.N,VEE*%
X106572500Y-28500000D03*
%TO.P,U1,2,P/S*%
%TO.N,VCC*%
X106572500Y-29000000D03*
%TO.P,U1,3,GND*%
%TO.N,GND*%
X106572500Y-29500000D03*
%TO.P,U1,4,GND*%
X106572500Y-30000000D03*
%TO.P,U1,5,RF_IN*%
%TO.N,/IN1*%
X106572500Y-30500000D03*
%TO.P,U1,6,GND*%
%TO.N,GND*%
X106572500Y-31000000D03*
D15*
%TO.P,U1,7,GND*%
X107322500Y-31750000D03*
%TO.P,U1,8,GND*%
X107822500Y-31750000D03*
%TO.P,U1,9,GND*%
X108322500Y-31750000D03*
D16*
%TO.P,U1,10,GND*%
X108572500Y-29750000D03*
D15*
X108822500Y-31750000D03*
%TO.P,U1,11,GND*%
X109322500Y-31750000D03*
%TO.P,U1,12,GND*%
X109822500Y-31750000D03*
D14*
%TO.P,U1,13,GND*%
X110572500Y-31000000D03*
%TO.P,U1,14,RF_OUT*%
%TO.N,/OUT1*%
X110572500Y-30500000D03*
%TO.P,U1,15,GND*%
%TO.N,GND*%
X110572500Y-30000000D03*
%TO.P,U1,16,GND*%
X110572500Y-29500000D03*
%TO.P,U1,17,SER_OUT*%
%TO.N,/Phase_shifter/SER_OUT*%
X110572500Y-29000000D03*
%TO.P,U1,18,VCC*%
%TO.N,VCC*%
X110572500Y-28500000D03*
D15*
%TO.P,U1,19,D6*%
%TO.N,unconnected-(U1-D6-Pad19)*%
X109822500Y-27750000D03*
%TO.P,U1,20,D5*%
%TO.N,unconnected-(U1-D5-Pad20)*%
X109322500Y-27750000D03*
%TO.P,U1,21,D4*%
%TO.N,unconnected-(U1-D4-Pad21)*%
X108822500Y-27750000D03*
%TO.P,U1,22,D3/LE*%
%TO.N,/Phase_shifter/LE*%
X108322500Y-27750000D03*
%TO.P,U1,23,D2/CLK*%
%TO.N,/Phase_shifter/CLK*%
X107822500Y-27750000D03*
%TO.P,U1,24,D1/SER_IN*%
%TO.N,/Phase_shifter/SER_IN*%
X107322500Y-27750000D03*
%TD*%
D17*
%TO.P,J4,1*%
%TO.N,/J4*%
X119975000Y-130500000D03*
D18*
%TO.P,J4,2*%
%TO.N,GND*%
X119210000Y-125735000D03*
X119210000Y-135265000D03*
%TD*%
D19*
%TO.P,J8,1,Pin_1*%
%TO.N,/Phase_shifter2/SER_IN*%
X104200000Y-123025000D03*
D20*
%TO.P,J8,2,Pin_2*%
%TO.N,VEE*%
X104200000Y-120485000D03*
%TO.P,J8,3,Pin_3*%
%TO.N,/Phase_shifter2/CLK*%
X106740000Y-123025000D03*
%TO.P,J8,4,Pin_4*%
%TO.N,GND*%
X106740000Y-120485000D03*
%TO.P,J8,5,Pin_5*%
%TO.N,/Phase_shifter2/LE*%
X109280000Y-123025000D03*
%TO.P,J8,6,Pin_6*%
%TO.N,GND*%
X109280000Y-120485000D03*
%TO.P,J8,7,Pin_7*%
%TO.N,VCC*%
X111820000Y-123025000D03*
%TO.P,J8,8,Pin_8*%
%TO.N,/Phase_shifter2/SER_OUT*%
X111820000Y-120485000D03*
%TD*%
D13*
%TO.P,R4,1*%
%TO.N,VCC*%
X103500000Y-177912500D03*
%TO.P,R4,2*%
%TO.N,GND*%
X103500000Y-176087500D03*
%TD*%
D17*
%TO.P,J1,1*%
%TO.N,/J1*%
X62525000Y-105500000D03*
D18*
%TO.P,J1,2*%
%TO.N,GND*%
X63290000Y-110265000D03*
X63290000Y-100735000D03*
%TD*%
D12*
%TO.P,C4,1*%
%TO.N,VCC*%
X112072500Y-77862500D03*
%TO.P,C4,2*%
%TO.N,GND*%
X112072500Y-76137500D03*
%TD*%
D22*
%TO.P,X1,1,P1*%
%TO.N,/P1*%
X68937500Y-105500000D03*
%TO.P,X1,2,P2*%
%TO.N,/IN1*%
X103887500Y-30500000D03*
%TO.P,X1,3,P3*%
%TO.N,/IN2*%
X103887500Y-80500000D03*
%TO.P,X1,4,P4*%
%TO.N,/IN3*%
X103887500Y-130500000D03*
%TO.P,X1,5,P5*%
%TO.N,/IN4*%
X104062500Y-180500000D03*
%TD*%
D12*
%TO.P,C2,1*%
%TO.N,VCC*%
X112072500Y-27862500D03*
%TO.P,C2,2*%
%TO.N,GND*%
X112072500Y-26137500D03*
%TD*%
D14*
%TO.P,U2,1,VEE*%
%TO.N,VEE*%
X106572500Y-78500000D03*
%TO.P,U2,2,P/S*%
%TO.N,VCC*%
X106572500Y-79000000D03*
%TO.P,U2,3,GND*%
%TO.N,GND*%
X106572500Y-79500000D03*
%TO.P,U2,4,GND*%
X106572500Y-80000000D03*
%TO.P,U2,5,RF_IN*%
%TO.N,/IN2*%
X106572500Y-80500000D03*
%TO.P,U2,6,GND*%
%TO.N,GND*%
X106572500Y-81000000D03*
D15*
%TO.P,U2,7,GND*%
X107322500Y-81750000D03*
%TO.P,U2,8,GND*%
X107822500Y-81750000D03*
%TO.P,U2,9,GND*%
X108322500Y-81750000D03*
D16*
%TO.P,U2,10,GND*%
X108572500Y-79750000D03*
D15*
X108822500Y-81750000D03*
%TO.P,U2,11,GND*%
X109322500Y-81750000D03*
%TO.P,U2,12,GND*%
X109822500Y-81750000D03*
D14*
%TO.P,U2,13,GND*%
X110572500Y-81000000D03*
%TO.P,U2,14,RF_OUT*%
%TO.N,/OUT2*%
X110572500Y-80500000D03*
%TO.P,U2,15,GND*%
%TO.N,GND*%
X110572500Y-80000000D03*
%TO.P,U2,16,GND*%
X110572500Y-79500000D03*
%TO.P,U2,17,SER_OUT*%
%TO.N,/Phase_shifter1/SER_OUT*%
X110572500Y-79000000D03*
%TO.P,U2,18,VCC*%
%TO.N,VCC*%
X110572500Y-78500000D03*
D15*
%TO.P,U2,19,D6*%
%TO.N,unconnected-(U2-D6-Pad19)*%
X109822500Y-77750000D03*
%TO.P,U2,20,D5*%
%TO.N,unconnected-(U2-D5-Pad20)*%
X109322500Y-77750000D03*
%TO.P,U2,21,D4*%
%TO.N,unconnected-(U2-D4-Pad21)*%
X108822500Y-77750000D03*
%TO.P,U2,22,D3/LE*%
%TO.N,/Phase_shifter1/LE*%
X108322500Y-77750000D03*
%TO.P,U2,23,D2/CLK*%
%TO.N,/Phase_shifter1/CLK*%
X107822500Y-77750000D03*
%TO.P,U2,24,D1/SER_IN*%
%TO.N,/Phase_shifter1/SER_IN*%
X107322500Y-77750000D03*
%TD*%
D17*
%TO.P,J2,1*%
%TO.N,/J2*%
X119975000Y-30500000D03*
D18*
%TO.P,J2,2*%
%TO.N,GND*%
X119210000Y-25735000D03*
X119210000Y-35265000D03*
%TD*%
D12*
%TO.P,C7,1*%
%TO.N,VEE*%
X105072500Y-177862500D03*
%TO.P,C7,2*%
%TO.N,GND*%
X105072500Y-176137500D03*
%TD*%
D14*
%TO.P,U4,1,VEE*%
%TO.N,VEE*%
X106572500Y-178500000D03*
%TO.P,U4,2,P/S*%
%TO.N,VCC*%
X106572500Y-179000000D03*
%TO.P,U4,3,GND*%
%TO.N,GND*%
X106572500Y-179500000D03*
%TO.P,U4,4,GND*%
X106572500Y-180000000D03*
%TO.P,U4,5,RF_IN*%
%TO.N,/IN4*%
X106572500Y-180500000D03*
%TO.P,U4,6,GND*%
%TO.N,GND*%
X106572500Y-181000000D03*
D15*
%TO.P,U4,7,GND*%
X107322500Y-181750000D03*
%TO.P,U4,8,GND*%
X107822500Y-181750000D03*
%TO.P,U4,9,GND*%
X108322500Y-181750000D03*
D16*
%TO.P,U4,10,GND*%
X108572500Y-179750000D03*
D15*
X108822500Y-181750000D03*
%TO.P,U4,11,GND*%
X109322500Y-181750000D03*
%TO.P,U4,12,GND*%
X109822500Y-181750000D03*
D14*
%TO.P,U4,13,GND*%
X110572500Y-181000000D03*
%TO.P,U4,14,RF_OUT*%
%TO.N,/OUT4*%
X110572500Y-180500000D03*
%TO.P,U4,15,GND*%
%TO.N,GND*%
X110572500Y-180000000D03*
%TO.P,U4,16,GND*%
X110572500Y-179500000D03*
%TO.P,U4,17,SER_OUT*%
%TO.N,/Phase_shifter3/SER_OUT*%
X110572500Y-179000000D03*
%TO.P,U4,18,VCC*%
%TO.N,VCC*%
X110572500Y-178500000D03*
D15*
%TO.P,U4,19,D6*%
%TO.N,unconnected-(U4-D6-Pad19)*%
X109822500Y-177750000D03*
%TO.P,U4,20,D5*%
%TO.N,unconnected-(U4-D5-Pad20)*%
X109322500Y-177750000D03*
%TO.P,U4,21,D4*%
%TO.N,unconnected-(U4-D4-Pad21)*%
X108822500Y-177750000D03*
%TO.P,U4,22,D3/LE*%
%TO.N,/Phase_shifter3/LE*%
X108322500Y-177750000D03*
%TO.P,U4,23,D2/CLK*%
%TO.N,/Phase_shifter3/CLK*%
X107822500Y-177750000D03*
%TO.P,U4,24,D1/SER_IN*%
%TO.N,/Phase_shifter3/SER_IN*%
X107322500Y-177750000D03*
%TD*%
D19*
%TO.P,J7,1,Pin_1*%
%TO.N,/Phase_shifter1/SER_IN*%
X104200000Y-73025000D03*
D20*
%TO.P,J7,2,Pin_2*%
%TO.N,VEE*%
X104200000Y-70485000D03*
%TO.P,J7,3,Pin_3*%
%TO.N,/Phase_shifter1/CLK*%
X106740000Y-73025000D03*
%TO.P,J7,4,Pin_4*%
%TO.N,GND*%
X106740000Y-70485000D03*
%TO.P,J7,5,Pin_5*%
%TO.N,/Phase_shifter1/LE*%
X109280000Y-73025000D03*
%TO.P,J7,6,Pin_6*%
%TO.N,GND*%
X109280000Y-70485000D03*
%TO.P,J7,7,Pin_7*%
%TO.N,VCC*%
X111820000Y-73025000D03*
%TO.P,J7,8,Pin_8*%
%TO.N,/Phase_shifter1/SER_OUT*%
X111820000Y-70485000D03*
%TD*%
D17*
%TO.P,J5,1*%
%TO.N,/J5*%
X119975000Y-180500000D03*
D18*
%TO.P,J5,2*%
%TO.N,GND*%
X119210000Y-175735000D03*
X119210000Y-185265000D03*
%TD*%
D19*
%TO.P,J9,1,Pin_1*%
%TO.N,/Phase_shifter3/SER_IN*%
X104200000Y-173025000D03*
D20*
%TO.P,J9,2,Pin_2*%
%TO.N,VEE*%
X104200000Y-170485000D03*
%TO.P,J9,3,Pin_3*%
%TO.N,/Phase_shifter3/CLK*%
X106740000Y-173025000D03*
%TO.P,J9,4,Pin_4*%
%TO.N,GND*%
X106740000Y-170485000D03*
%TO.P,J9,5,Pin_5*%
%TO.N,/Phase_shifter3/LE*%
X109280000Y-173025000D03*
%TO.P,J9,6,Pin_6*%
%TO.N,GND*%
X109280000Y-170485000D03*
%TO.P,J9,7,Pin_7*%
%TO.N,VCC*%
X111820000Y-173025000D03*
%TO.P,J9,8,Pin_8*%
%TO.N,/Phase_shifter3/SER_OUT*%
X111820000Y-170485000D03*
%TD*%
D13*
%TO.P,R1,1*%
%TO.N,VCC*%
X103500000Y-27912500D03*
%TO.P,R1,2*%
%TO.N,GND*%
X103500000Y-26087500D03*
%TD*%
D12*
%TO.P,C5,1*%
%TO.N,VEE*%
X105072500Y-127862500D03*
%TO.P,C5,2*%
%TO.N,GND*%
X105072500Y-126137500D03*
%TD*%
D11*
%TO.P,C13,1*%
%TO.N,/J5*%
X115862500Y-180500000D03*
%TO.P,C13,2*%
%TO.N,/OUT4*%
X114137500Y-180500000D03*
%TD*%
D12*
%TO.P,C6,1*%
%TO.N,VCC*%
X112072500Y-127862500D03*
%TO.P,C6,2*%
%TO.N,GND*%
X112072500Y-126137500D03*
%TD*%
D23*
%TO.N,GND*%
X107772500Y-179800000D03*
X103500000Y-25500000D03*
X108572500Y-179800000D03*
X108572500Y-79000000D03*
X105968875Y-29500000D03*
X106172064Y-29998104D03*
X108572500Y-179800000D03*
X108872506Y-32400000D03*
X108572500Y-79000000D03*
X108870492Y-132364907D03*
X111372500Y-79500000D03*
X107775672Y-182363985D03*
X109372500Y-29800000D03*
X105972500Y-31200000D03*
X109372500Y-79800000D03*
X109372500Y-79800000D03*
X107772500Y-179000000D03*
X107172500Y-82400000D03*
X108572500Y-180600000D03*
X106172064Y-179998104D03*
X107172500Y-32400000D03*
X108572500Y-29800000D03*
X111372500Y-129500000D03*
X112072500Y-25272500D03*
X108572500Y-129800000D03*
X108572500Y-29800000D03*
X110972936Y-129998104D03*
X109372500Y-129000000D03*
X107772500Y-82400000D03*
X107772500Y-80600000D03*
X108322503Y-32400000D03*
X108875678Y-182363985D03*
X109372500Y-180600000D03*
X108322503Y-182400000D03*
X107772500Y-130600000D03*
X112072500Y-75272500D03*
X108572500Y-79800000D03*
X107772500Y-179800000D03*
X109372500Y-32400000D03*
X109372500Y-180600000D03*
X109372500Y-79000000D03*
X109920489Y-132364907D03*
X109372500Y-182400000D03*
X107772500Y-179000000D03*
X107772500Y-79800000D03*
X109372500Y-30600000D03*
X108872506Y-182400000D03*
X109372500Y-179000000D03*
X105072500Y-75327500D03*
X105968875Y-179500000D03*
X108321999Y-82363525D03*
X108572500Y-130600000D03*
X111372500Y-179500000D03*
X103500000Y-75500000D03*
X107772500Y-180600000D03*
X109372500Y-29000000D03*
X107772500Y-79800000D03*
X107771996Y-82363525D03*
X107772500Y-32400000D03*
X107772500Y-29000000D03*
X108572500Y-80600000D03*
X106172064Y-79998104D03*
X108572500Y-179000000D03*
X110972936Y-29998104D03*
X103500000Y-75500000D03*
X109372500Y-30600000D03*
X103500000Y-125500000D03*
X109372500Y-179000000D03*
X106172064Y-129998104D03*
X108322503Y-82400000D03*
X108872002Y-82363525D03*
X112072500Y-75272500D03*
X109371996Y-82363525D03*
X109372500Y-130600000D03*
X112072500Y-175272500D03*
X107772500Y-30600000D03*
X105072500Y-175327500D03*
X112072500Y-25272500D03*
X111172500Y-181200000D03*
X109922503Y-182400000D03*
X105972500Y-181200000D03*
X107172500Y-132400000D03*
X105968875Y-179500000D03*
X110972936Y-29998104D03*
X112072500Y-175272500D03*
X108572500Y-30600000D03*
X109370486Y-132364907D03*
X105072500Y-125327500D03*
X108572500Y-129000000D03*
X107171996Y-82363525D03*
X108872506Y-132400000D03*
X105972500Y-31200000D03*
X109372500Y-179800000D03*
X109922503Y-132400000D03*
X109372500Y-29000000D03*
X105072500Y-25327500D03*
X111172500Y-81200000D03*
X107772500Y-132400000D03*
X111372500Y-29500000D03*
X107170486Y-132364907D03*
X103500000Y-175500000D03*
X106172064Y-79998104D03*
X107772500Y-129800000D03*
X107770486Y-132364907D03*
X105072500Y-25327500D03*
X109372500Y-79000000D03*
X109921999Y-82363525D03*
X107175672Y-182363985D03*
X106172064Y-179998104D03*
X105972500Y-81200000D03*
X111372500Y-79500000D03*
X107772500Y-180600000D03*
X107772500Y-182400000D03*
X105968875Y-79500000D03*
X111372500Y-179500000D03*
X110972936Y-79998104D03*
X105972500Y-131200000D03*
X107772500Y-29000000D03*
X109375672Y-182363985D03*
X111172500Y-131200000D03*
X105072500Y-75327500D03*
X108572500Y-179000000D03*
X108572500Y-79800000D03*
X107772500Y-29800000D03*
X109372500Y-80600000D03*
X108572500Y-29000000D03*
X109372500Y-29800000D03*
X108325675Y-182363985D03*
X109925675Y-182363985D03*
X108572500Y-180600000D03*
X109922503Y-82400000D03*
X107172500Y-182400000D03*
X105968875Y-29500000D03*
X105968875Y-79500000D03*
X107772500Y-80600000D03*
X111372500Y-29500000D03*
X110972936Y-179998104D03*
X108320489Y-132364907D03*
X112072500Y-125272500D03*
X110972936Y-179998104D03*
X111172500Y-31200000D03*
X107772500Y-79000000D03*
X106172064Y-29998104D03*
X108572500Y-30600000D03*
X109372500Y-129800000D03*
X109372500Y-179800000D03*
X108572500Y-29000000D03*
X103500000Y-175500000D03*
X108322503Y-132400000D03*
X105968875Y-129500000D03*
X109922503Y-32400000D03*
X107772500Y-129000000D03*
X111172500Y-31200000D03*
X103500000Y-25500000D03*
X105972500Y-181200000D03*
X108572500Y-80600000D03*
X111172500Y-81200000D03*
X109372500Y-132400000D03*
X107772500Y-30600000D03*
X110972936Y-79998104D03*
X105072500Y-175327500D03*
X107772500Y-29800000D03*
X108872506Y-82400000D03*
X105972500Y-81200000D03*
X111172500Y-181200000D03*
X107772500Y-79000000D03*
X109372500Y-80600000D03*
X109372500Y-82400000D03*
%TD*%
D24*
%TO.N,GND*%
X109825672Y-181713985D02*
X109825672Y-182263982D01*
X107821996Y-82313525D02*
X107771996Y-82363525D01*
X107825672Y-182313985D02*
X107775672Y-182363985D01*
X107822500Y-131750000D02*
X107822500Y-132350000D01*
X108325672Y-181713985D02*
X108325672Y-182363982D01*
X106172500Y-81000000D02*
X105972500Y-81200000D01*
X108322500Y-32399997D02*
X108322503Y-32400000D01*
X109322500Y-81750000D02*
X109322500Y-82350000D01*
X109325672Y-181713985D02*
X109325672Y-182313985D01*
X107320486Y-132214907D02*
X107170486Y-132364907D01*
X107822500Y-82350000D02*
X107772500Y-82400000D01*
X107322500Y-32250000D02*
X107172500Y-32400000D01*
X108322500Y-182399997D02*
X108322503Y-182400000D01*
X107320486Y-131714907D02*
X107320486Y-132214907D01*
X107322500Y-81750000D02*
X107322500Y-82250000D01*
X110972936Y-79998104D02*
X110971040Y-80000000D01*
X103500000Y-176087500D02*
X103500000Y-175500000D01*
X110572500Y-181000000D02*
X110972500Y-181000000D01*
X107822500Y-31750000D02*
X107822500Y-32350000D01*
X109820486Y-131714907D02*
X109820486Y-132264904D01*
X106572500Y-181000000D02*
X106172500Y-181000000D01*
X106572500Y-130000000D02*
X106173960Y-130000000D01*
X106172500Y-131000000D02*
X105972500Y-131200000D01*
X110572500Y-131000000D02*
X110972500Y-131000000D01*
X103500000Y-76087500D02*
X103500000Y-75500000D01*
X110572500Y-81000000D02*
X110972500Y-81000000D01*
X108822500Y-32349994D02*
X108872506Y-32400000D01*
X109822500Y-32299997D02*
X109922503Y-32400000D01*
X107322500Y-181750000D02*
X107322500Y-182250000D01*
X108822500Y-131750000D02*
X108822500Y-132349994D01*
X108322500Y-181750000D02*
X108322500Y-182399997D01*
X110572500Y-31000000D02*
X110972500Y-31000000D01*
X108321996Y-81713525D02*
X108321996Y-82363522D01*
X107322500Y-132250000D02*
X107172500Y-132400000D01*
X112072500Y-25272500D02*
X112072500Y-26137500D01*
X106173960Y-80000000D02*
X106172064Y-79998104D01*
X106572500Y-180000000D02*
X106173960Y-180000000D01*
X106172500Y-31000000D02*
X105972500Y-31200000D01*
X109322500Y-132350000D02*
X109372500Y-132400000D01*
X107820486Y-131714907D02*
X107820486Y-132314907D01*
X109320486Y-131714907D02*
X109320486Y-132314907D01*
X106572500Y-30000000D02*
X106173960Y-30000000D01*
X107821996Y-81713525D02*
X107821996Y-82313525D01*
X106572500Y-29500000D02*
X105968875Y-29500000D01*
X110572500Y-179500000D02*
X111372500Y-179500000D01*
X105072500Y-125327500D02*
X105072500Y-126137500D01*
X109322500Y-182350000D02*
X109372500Y-182400000D01*
X110572500Y-81000000D02*
X110972500Y-81000000D01*
X103500000Y-176087500D02*
X103500000Y-175500000D01*
X110972936Y-129998104D02*
X110971040Y-130000000D01*
X108322500Y-131750000D02*
X108322500Y-132399997D01*
X106173960Y-180000000D02*
X106172064Y-179998104D01*
X107820486Y-132314907D02*
X107770486Y-132364907D01*
X108822500Y-182349994D02*
X108872506Y-182400000D01*
X103500000Y-26087500D02*
X103500000Y-25500000D01*
X112072500Y-175272500D02*
X112072500Y-176137500D01*
X110972936Y-179998104D02*
X110971040Y-180000000D01*
X107321996Y-82213525D02*
X107171996Y-82363525D01*
X106572500Y-31000000D02*
X106172500Y-31000000D01*
X108820486Y-131714907D02*
X108820486Y-132314901D01*
X109822500Y-181750000D02*
X109822500Y-182299997D01*
X108822500Y-31750000D02*
X108822500Y-32349994D01*
X110572500Y-129500000D02*
X111372500Y-129500000D01*
X110972500Y-181000000D02*
X111172500Y-181200000D01*
X103500000Y-76087500D02*
X103500000Y-75500000D01*
X109322500Y-181750000D02*
X109322500Y-182350000D01*
X109820486Y-132264904D02*
X109920489Y-132364907D01*
X106572500Y-180000000D02*
X106173960Y-180000000D01*
X110572500Y-181000000D02*
X110972500Y-181000000D01*
X110572500Y-179500000D02*
X111372500Y-179500000D01*
X108825672Y-182313979D02*
X108875678Y-182363985D01*
X110572500Y-29500000D02*
X111372500Y-29500000D01*
X106572500Y-79500000D02*
X105968875Y-79500000D01*
X108821996Y-82313519D02*
X108872002Y-82363525D01*
X108322500Y-132399997D02*
X108322503Y-132400000D01*
X110572500Y-31000000D02*
X110972500Y-31000000D01*
X106173960Y-180000000D02*
X106172064Y-179998104D01*
X106173960Y-30000000D02*
X106172064Y-29998104D01*
X106172500Y-181000000D02*
X105972500Y-181200000D01*
X110972500Y-31000000D02*
X111172500Y-31200000D01*
X110972936Y-29998104D02*
X110971040Y-30000000D01*
X106572500Y-179500000D02*
X105968875Y-179500000D01*
X106173960Y-130000000D02*
X106172064Y-129998104D01*
X106572500Y-181000000D02*
X106172500Y-181000000D01*
X107822500Y-32350000D02*
X107772500Y-32400000D01*
X108822500Y-132349994D02*
X108872506Y-132400000D01*
X109322500Y-82350000D02*
X109372500Y-82400000D01*
X110972500Y-181000000D02*
X111172500Y-181200000D01*
X110572500Y-29500000D02*
X111372500Y-29500000D01*
X109322500Y-31750000D02*
X109322500Y-32350000D01*
X106572500Y-81000000D02*
X106172500Y-81000000D01*
X112072500Y-175272500D02*
X112072500Y-176137500D01*
X108825672Y-181713985D02*
X108825672Y-182313979D01*
X105072500Y-175327500D02*
X105072500Y-176137500D01*
X112072500Y-75272500D02*
X112072500Y-76137500D01*
X105072500Y-25327500D02*
X105072500Y-26137500D01*
X112072500Y-75272500D02*
X112072500Y-76137500D01*
X105072500Y-75327500D02*
X105072500Y-76137500D01*
X110572500Y-79500000D02*
X111372500Y-79500000D01*
X107322500Y-131750000D02*
X107322500Y-132250000D01*
X106173960Y-30000000D02*
X106172064Y-29998104D01*
X106572500Y-30000000D02*
X106173960Y-30000000D01*
X108322500Y-31750000D02*
X108322500Y-32399997D01*
X107322500Y-182250000D02*
X107172500Y-182400000D01*
X107822500Y-132350000D02*
X107772500Y-132400000D01*
X110971040Y-80000000D02*
X110572500Y-80000000D01*
X105072500Y-75327500D02*
X105072500Y-76137500D01*
X110971040Y-180000000D02*
X110572500Y-180000000D01*
X106172500Y-81000000D02*
X105972500Y-81200000D01*
X112072500Y-25272500D02*
X112072500Y-26137500D01*
X109322500Y-32350000D02*
X109372500Y-32400000D01*
X109322500Y-131750000D02*
X109322500Y-132350000D01*
X110971040Y-180000000D02*
X110572500Y-180000000D01*
X106172500Y-31000000D02*
X105972500Y-31200000D01*
X109320486Y-132314907D02*
X109370486Y-132364907D01*
X110972500Y-31000000D02*
X111172500Y-31200000D01*
X106572500Y-29500000D02*
X105968875Y-29500000D01*
X107322500Y-31750000D02*
X107322500Y-32250000D01*
X107822500Y-182350000D02*
X107772500Y-182400000D01*
X110972500Y-81000000D02*
X111172500Y-81200000D01*
X108820486Y-132314901D02*
X108870492Y-132364907D01*
X108821996Y-81713525D02*
X108821996Y-82313519D01*
X110972500Y-81000000D02*
X111172500Y-81200000D01*
X106572500Y-79500000D02*
X105968875Y-79500000D01*
X106572500Y-31000000D02*
X106172500Y-31000000D01*
X109822500Y-182299997D02*
X109922503Y-182400000D01*
X110971040Y-30000000D02*
X110572500Y-30000000D01*
X110972936Y-79998104D02*
X110971040Y-80000000D01*
X110971040Y-30000000D02*
X110572500Y-30000000D01*
X110971040Y-80000000D02*
X110572500Y-80000000D01*
X106572500Y-129500000D02*
X105968875Y-129500000D01*
X109321996Y-82313525D02*
X109371996Y-82363525D01*
X110572500Y-79500000D02*
X111372500Y-79500000D01*
X108325672Y-182363982D02*
X108325675Y-182363985D01*
X105072500Y-175327500D02*
X105072500Y-176137500D01*
X106572500Y-80000000D02*
X106173960Y-80000000D01*
X106173960Y-80000000D02*
X106172064Y-79998104D01*
X108822500Y-181750000D02*
X108822500Y-182349994D01*
X108322500Y-81750000D02*
X108322500Y-82399997D01*
X107325672Y-181713985D02*
X107325672Y-182213985D01*
X107321996Y-81713525D02*
X107321996Y-82213525D01*
X109821996Y-81713525D02*
X109821996Y-82263522D01*
X109321996Y-81713525D02*
X109321996Y-82313525D01*
X109825672Y-182263982D02*
X109925675Y-182363985D01*
X110972936Y-29998104D02*
X110971040Y-30000000D01*
X107322500Y-82250000D02*
X107172500Y-82400000D01*
X108322500Y-82399997D02*
X108322503Y-82400000D01*
X108321996Y-82363522D02*
X108321999Y-82363525D01*
X106172500Y-181000000D02*
X105972500Y-181200000D01*
X103500000Y-26087500D02*
X103500000Y-25500000D01*
X109822500Y-31750000D02*
X109822500Y-32299997D01*
X109822500Y-132299997D02*
X109922503Y-132400000D01*
X109821996Y-82263522D02*
X109921999Y-82363525D01*
X109822500Y-131750000D02*
X109822500Y-132299997D01*
X106572500Y-131000000D02*
X106172500Y-131000000D01*
X109325672Y-182313985D02*
X109375672Y-182363985D01*
X106572500Y-80000000D02*
X106173960Y-80000000D01*
X108320486Y-132364904D02*
X108320489Y-132364907D01*
X103500000Y-126087500D02*
X103500000Y-125500000D01*
X110972936Y-179998104D02*
X110971040Y-180000000D01*
X108822500Y-82349994D02*
X108872506Y-82400000D01*
X107825672Y-181713985D02*
X107825672Y-182313985D01*
X110971040Y-130000000D02*
X110572500Y-130000000D01*
X106572500Y-81000000D02*
X106172500Y-81000000D01*
X108822500Y-81750000D02*
X108822500Y-82349994D01*
X109822500Y-81750000D02*
X109822500Y-82299997D01*
X107822500Y-181750000D02*
X107822500Y-182350000D01*
X106572500Y-179500000D02*
X105968875Y-179500000D01*
X110972500Y-131000000D02*
X111172500Y-131200000D01*
X108320486Y-131714907D02*
X108320486Y-132364904D01*
X109822500Y-82299997D02*
X109922503Y-82400000D01*
X112072500Y-125272500D02*
X112072500Y-126137500D01*
X107822500Y-81750000D02*
X107822500Y-82350000D01*
X105072500Y-25327500D02*
X105072500Y-26137500D01*
X107325672Y-182213985D02*
X107175672Y-182363985D01*
%TO.N,VEE*%
X105710000Y-128500000D02*
X105072500Y-127862500D01*
X104275000Y-77065000D02*
X105072500Y-77862500D01*
X102765000Y-70485000D02*
X102500000Y-70750000D01*
X104000000Y-24750000D02*
X104275000Y-25025000D01*
X102500000Y-24500000D02*
X102500000Y-20750000D01*
X104000000Y-174750000D02*
X104275000Y-175025000D01*
X104000000Y-124750000D02*
X104275000Y-125025000D01*
X102500000Y-70750000D02*
X102500000Y-74500000D01*
X102750000Y-24750000D02*
X104000000Y-24750000D01*
X105710000Y-78500000D02*
X105072500Y-77862500D01*
X106572500Y-128500000D02*
X105710000Y-128500000D01*
X106572500Y-28500000D02*
X105710000Y-28500000D01*
X104275000Y-75025000D02*
X104275000Y-77065000D01*
X106572500Y-78500000D02*
X105710000Y-78500000D01*
X106572500Y-178500000D02*
X105710000Y-178500000D01*
X104275000Y-175025000D02*
X104275000Y-177065000D01*
X105710000Y-28500000D02*
X105072500Y-27862500D01*
X105710000Y-178500000D02*
X105072500Y-177862500D01*
X102500000Y-20750000D02*
X102765000Y-20485000D01*
X104200000Y-20485000D02*
X102765000Y-20485000D01*
X104275000Y-177065000D02*
X105072500Y-177862500D01*
X102250000Y-121000000D02*
X102250000Y-124250000D01*
X104200000Y-70485000D02*
X102765000Y-70485000D01*
X104275000Y-25025000D02*
X104275000Y-27065000D01*
X102500000Y-174500000D02*
X102750000Y-174750000D01*
X104275000Y-125025000D02*
X104275000Y-127065000D01*
X105710000Y-78500000D02*
X105072500Y-77862500D01*
X102250000Y-124250000D02*
X102750000Y-124750000D01*
X105710000Y-28500000D02*
X105072500Y-27862500D01*
X104200000Y-120485000D02*
X102765000Y-120485000D01*
X104000000Y-74750000D02*
X104275000Y-75025000D01*
X102750000Y-124750000D02*
X104000000Y-124750000D01*
X102750000Y-24750000D02*
X102500000Y-24500000D01*
X102500000Y-170750000D02*
X102500000Y-174500000D01*
X102765000Y-170485000D02*
X102500000Y-170750000D01*
X104200000Y-170485000D02*
X102765000Y-170485000D01*
X102765000Y-120485000D02*
X102250000Y-121000000D01*
X102750000Y-174750000D02*
X104000000Y-174750000D01*
X102750000Y-74750000D02*
X104000000Y-74750000D01*
X106572500Y-28500000D02*
X105710000Y-28500000D01*
X102500000Y-74500000D02*
X102750000Y-74750000D01*
X104275000Y-127065000D02*
X105072500Y-127862500D01*
X106572500Y-78500000D02*
X105710000Y-78500000D01*
X105710000Y-178500000D02*
X105072500Y-177862500D01*
X106572500Y-178500000D02*
X105710000Y-178500000D01*
X104275000Y-27065000D02*
X105072500Y-27862500D01*
%TO.N,VCC*%
X111820000Y-173025000D02*
X111000000Y-173845000D01*
X111435000Y-178500000D02*
X112072500Y-177862500D01*
X111000000Y-76790000D02*
X112072500Y-77862500D01*
X110250000Y-119000000D02*
X110500000Y-119250000D01*
X104587500Y-29000000D02*
X106572500Y-29000000D01*
X110250000Y-19000000D02*
X103000000Y-19000000D01*
X104587500Y-179000000D02*
X106572500Y-179000000D01*
X103000000Y-119000000D02*
X110250000Y-119000000D01*
X103000000Y-169000000D02*
X102000000Y-170000000D01*
X110500000Y-121705000D02*
X111820000Y-123025000D01*
X111435000Y-78500000D02*
X112072500Y-77862500D01*
X110500000Y-19250000D02*
X110250000Y-19000000D01*
X110500000Y-69250000D02*
X110250000Y-69000000D01*
X111435000Y-128500000D02*
X112072500Y-127862500D01*
X110500000Y-119250000D02*
X110500000Y-121705000D01*
X111000000Y-26790000D02*
X112072500Y-27862500D01*
X103500000Y-27912500D02*
X104587500Y-29000000D01*
X102000000Y-76412500D02*
X103500000Y-77912500D01*
X103500000Y-127912500D02*
X104587500Y-129000000D01*
X110572500Y-78500000D02*
X111435000Y-78500000D01*
X102000000Y-20000000D02*
X102000000Y-26412500D01*
X111820000Y-173025000D02*
X110500000Y-171705000D01*
X111820000Y-123025000D02*
X111000000Y-123845000D01*
X103000000Y-69000000D02*
X102000000Y-70000000D01*
X103500000Y-77912500D02*
X104587500Y-79000000D01*
X101800000Y-120200000D02*
X103000000Y-119000000D01*
X110500000Y-21705000D02*
X110500000Y-19250000D01*
X104587500Y-29000000D02*
X106572500Y-29000000D01*
X103500000Y-177912500D02*
X104587500Y-179000000D01*
X111000000Y-73845000D02*
X111000000Y-76790000D01*
X111820000Y-73025000D02*
X111000000Y-73845000D01*
X111000000Y-173845000D02*
X111000000Y-176790000D01*
X104587500Y-179000000D02*
X106572500Y-179000000D01*
X110572500Y-28500000D02*
X111435000Y-28500000D01*
X111000000Y-126790000D02*
X112072500Y-127862500D01*
X111435000Y-178500000D02*
X112072500Y-177862500D01*
X110250000Y-69000000D02*
X103000000Y-69000000D01*
X104587500Y-79000000D02*
X106572500Y-79000000D01*
X111000000Y-176790000D02*
X112072500Y-177862500D01*
X110500000Y-71705000D02*
X110500000Y-69250000D01*
X110572500Y-28500000D02*
X111435000Y-28500000D01*
X102000000Y-170000000D02*
X102000000Y-176412500D01*
X110572500Y-128500000D02*
X111435000Y-128500000D01*
X110500000Y-169250000D02*
X110250000Y-169000000D01*
X111000000Y-123845000D02*
X111000000Y-126790000D01*
X111435000Y-28500000D02*
X112072500Y-27862500D01*
X104587500Y-129000000D02*
X106572500Y-129000000D01*
X110572500Y-178500000D02*
X111435000Y-178500000D01*
X102000000Y-26412500D02*
X103500000Y-27912500D01*
X103500000Y-127912500D02*
X101800000Y-126212500D01*
X111820000Y-23025000D02*
X110500000Y-21705000D01*
X111435000Y-28500000D02*
X112072500Y-27862500D01*
X110572500Y-78500000D02*
X111435000Y-78500000D01*
X104587500Y-79000000D02*
X106572500Y-79000000D01*
X110572500Y-178500000D02*
X111435000Y-178500000D01*
X102000000Y-70000000D02*
X102000000Y-76412500D01*
X110250000Y-169000000D02*
X103000000Y-169000000D01*
X111820000Y-23025000D02*
X111000000Y-23845000D01*
X111435000Y-78500000D02*
X112072500Y-77862500D01*
X103500000Y-27912500D02*
X104587500Y-29000000D01*
X102000000Y-176412500D02*
X103500000Y-177912500D01*
X103500000Y-177912500D02*
X104587500Y-179000000D01*
X103500000Y-77912500D02*
X104587500Y-79000000D01*
X111820000Y-73025000D02*
X110500000Y-71705000D01*
X103000000Y-19000000D02*
X102000000Y-20000000D01*
X110500000Y-171705000D02*
X110500000Y-169250000D01*
X101800000Y-126212500D02*
X101800000Y-120200000D01*
X111000000Y-23845000D02*
X111000000Y-26790000D01*
%TO.N,/Phase_shifter/LE*%
X108322500Y-26402800D02*
X108322500Y-27750000D01*
X109250000Y-23055000D02*
X109250000Y-25475300D01*
X109280000Y-23025000D02*
X109250000Y-23055000D01*
X109250000Y-25475300D02*
X108322500Y-26402800D01*
%TO.N,/Phase_shifter/SER_OUT*%
X113500000Y-27739222D02*
X112239222Y-29000000D01*
X112239222Y-29000000D02*
X110572500Y-29000000D01*
X113500000Y-20750000D02*
X113500000Y-27739222D01*
X111820000Y-20485000D02*
X113235000Y-20485000D01*
X113235000Y-20485000D02*
X113500000Y-20750000D01*
%TO.N,/Phase_shifter/CLK*%
X107822500Y-24107500D02*
X107822500Y-27750000D01*
X106740000Y-23025000D02*
X107822500Y-24107500D01*
%TO.N,/Phase_shifter/SER_IN*%
X104200000Y-23025000D02*
X107322500Y-26147500D01*
X107322500Y-26147500D02*
X107322500Y-27750000D01*
%TO.N,/Phase_shifter1/LE*%
X109280000Y-73025000D02*
X109250000Y-73055000D01*
X109250000Y-75475300D02*
X108322500Y-76402800D01*
X109250000Y-73055000D02*
X109250000Y-75475300D01*
X108322500Y-76402800D02*
X108322500Y-77750000D01*
%TO.N,/Phase_shifter1/SER_OUT*%
X113500000Y-77739222D02*
X112239222Y-79000000D01*
X113500000Y-70750000D02*
X113500000Y-77739222D01*
X113235000Y-70485000D02*
X113500000Y-70750000D01*
X112239222Y-79000000D02*
X110572500Y-79000000D01*
X111820000Y-70485000D02*
X113235000Y-70485000D01*
%TO.N,/Phase_shifter1/CLK*%
X106740000Y-73025000D02*
X107822500Y-74107500D01*
X107822500Y-74107500D02*
X107822500Y-77750000D01*
%TO.N,/Phase_shifter1/SER_IN*%
X107322500Y-76147500D02*
X107322500Y-77750000D01*
X104200000Y-73025000D02*
X107322500Y-76147500D01*
%TO.N,/Phase_shifter2/CLK*%
X106740000Y-123025000D02*
X107822500Y-124107500D01*
X107822500Y-124107500D02*
X107822500Y-127750000D01*
%TO.N,/Phase_shifter2/SER_IN*%
X104200000Y-123025000D02*
X107322500Y-126147500D01*
X107322500Y-126147500D02*
X107322500Y-127750000D01*
%TO.N,/Phase_shifter2/SER_OUT*%
X113500000Y-120750000D02*
X113500000Y-127739222D01*
X112239222Y-129000000D02*
X110572500Y-129000000D01*
X113235000Y-120485000D02*
X113500000Y-120750000D01*
X111820000Y-120485000D02*
X113235000Y-120485000D01*
X113500000Y-127739222D02*
X112239222Y-129000000D01*
%TO.N,/Phase_shifter2/LE*%
X109250000Y-125475300D02*
X108322500Y-126402800D01*
X109250000Y-123055000D02*
X109250000Y-125475300D01*
X109280000Y-123025000D02*
X109250000Y-123055000D01*
X108322500Y-126402800D02*
X108322500Y-127750000D01*
%TO.N,/Phase_shifter3/SER_IN*%
X107322500Y-176147500D02*
X107322500Y-177750000D01*
X104200000Y-173025000D02*
X107322500Y-176147500D01*
%TO.N,/Phase_shifter3/LE*%
X109250000Y-175475300D02*
X108322500Y-176402800D01*
X109280000Y-173025000D02*
X109250000Y-173055000D01*
X108322500Y-176402800D02*
X108322500Y-177750000D01*
X109250000Y-173055000D02*
X109250000Y-175475300D01*
%TO.N,/Phase_shifter3/CLK*%
X107822500Y-174107500D02*
X107822500Y-177750000D01*
X106740000Y-173025000D02*
X107822500Y-174107500D01*
%TO.N,/Phase_shifter3/SER_OUT*%
X113500000Y-177739222D02*
X112239222Y-179000000D01*
X113500000Y-170750000D02*
X113500000Y-177739222D01*
X111820000Y-170485000D02*
X113235000Y-170485000D01*
X112239222Y-179000000D02*
X110572500Y-179000000D01*
X113235000Y-170485000D02*
X113500000Y-170750000D01*
D25*
%TO.N,/OUT1*%
X114137500Y-30500000D02*
X111816003Y-30500000D01*
%TO.N,/OUT2*%
X114137500Y-80500000D02*
X111816003Y-80500000D01*
%TO.N,/OUT3*%
X114137500Y-130500000D02*
X111816003Y-130500000D01*
%TO.N,/OUT4*%
X114137500Y-180500000D02*
X111816003Y-180500000D01*
%TO.N,/IN1*%
X103887500Y-30500000D02*
X105328997Y-30500000D01*
X103887500Y-30500000D02*
X105072500Y-30500000D01*
X103887500Y-30500000D02*
X105072500Y-30500000D01*
X103887500Y-30500000D02*
X105328997Y-30500000D01*
%TO.N,/IN2*%
X103887500Y-80500000D02*
X105328997Y-80500000D01*
X103887500Y-80500000D02*
X105328997Y-80500000D01*
X103887500Y-80500000D02*
X105072500Y-80500000D01*
X103887500Y-80500000D02*
X105072500Y-80500000D01*
%TO.N,/IN3*%
X103887500Y-130500000D02*
X105328997Y-130500000D01*
X103887500Y-130500000D02*
X105072500Y-130500000D01*
%TO.N,/IN4*%
X104062500Y-180500000D02*
X105328997Y-180500000D01*
X103887500Y-180500000D02*
X105072500Y-180500000D01*
X103887500Y-180500000D02*
X105328997Y-180500000D01*
X103887500Y-180500000D02*
X105072500Y-180500000D01*
X103887500Y-180500000D02*
X105328997Y-180500000D01*
%TO.N,/J1*%
X66637500Y-105500000D02*
X62525000Y-105500000D01*
%TO.N,/J2*%
X115862500Y-30500000D02*
X119975000Y-30500000D01*
%TO.N,/J3*%
X115862500Y-80500000D02*
X119975000Y-80500000D01*
%TO.N,/J4*%
X115862500Y-130500000D02*
X119975000Y-130500000D01*
%TO.N,/J5*%
X115862500Y-180500000D02*
X119975000Y-180500000D01*
%TD*%
%TA.AperFunction,Conductor*%
%TO.N,/IN4*%
G36*
X105450137Y-179962068D02*
G01*
X105452478Y-179962532D01*
X105557590Y-179994893D01*
X105559753Y-179995805D01*
X105647160Y-180043507D01*
X105648730Y-180044536D01*
X105708732Y-180091241D01*
X105723538Y-180102766D01*
X105724421Y-180103528D01*
X105791475Y-180167411D01*
X105791653Y-180167585D01*
X105813603Y-180189669D01*
X105825801Y-180201941D01*
X105827928Y-180204877D01*
X105844014Y-180236446D01*
X105933722Y-180326154D01*
X106046760Y-180383750D01*
X106076290Y-180388427D01*
X106172063Y-180403596D01*
X106172063Y-180403595D01*
X106172064Y-180403596D01*
X106288567Y-180385144D01*
X106290397Y-180385000D01*
X106562120Y-180385000D01*
X106570393Y-180388427D01*
X106573737Y-180395306D01*
X106586132Y-180498606D01*
X106586132Y-180501394D01*
X106573737Y-180604694D01*
X106569349Y-180612500D01*
X106562120Y-180615000D01*
X106172500Y-180615000D01*
X106090778Y-180625150D01*
X106074433Y-180627180D01*
X105992148Y-180660240D01*
X105920805Y-180708960D01*
X105855551Y-180768127D01*
X105855550Y-180768128D01*
X105791677Y-180832390D01*
X105791449Y-180832613D01*
X105769797Y-180853241D01*
X105767039Y-180855195D01*
X105734157Y-180871950D01*
X105657882Y-180948224D01*
X105656796Y-180949184D01*
X105648740Y-180955455D01*
X105647158Y-180956492D01*
X105559752Y-181004194D01*
X105557590Y-181005106D01*
X105452485Y-181037465D01*
X105450131Y-181037932D01*
X105332173Y-181048955D01*
X105323616Y-181046313D01*
X105319490Y-181038876D01*
X105308331Y-180956492D01*
X105246709Y-180501565D01*
X105246709Y-180498434D01*
X105319490Y-179961122D01*
X105323996Y-179953384D01*
X105332171Y-179951044D01*
X105450137Y-179962068D01*
G37*
%TD.AperFunction*%
%TD*%
%TA.AperFunction,Conductor*%
%TO.N,/IN1*%
G36*
X105450137Y-29962068D02*
G01*
X105452478Y-29962532D01*
X105557590Y-29994893D01*
X105559753Y-29995805D01*
X105647160Y-30043507D01*
X105648730Y-30044536D01*
X105708732Y-30091241D01*
X105723538Y-30102766D01*
X105724421Y-30103528D01*
X105791475Y-30167411D01*
X105791653Y-30167585D01*
X105813603Y-30189669D01*
X105825801Y-30201941D01*
X105827928Y-30204877D01*
X105844014Y-30236446D01*
X105933722Y-30326154D01*
X106046760Y-30383750D01*
X106076290Y-30388427D01*
X106172063Y-30403596D01*
X106172063Y-30403595D01*
X106172064Y-30403596D01*
X106288567Y-30385144D01*
X106290397Y-30385000D01*
X106562120Y-30385000D01*
X106570393Y-30388427D01*
X106573737Y-30395306D01*
X106586132Y-30498606D01*
X106586132Y-30501394D01*
X106573737Y-30604694D01*
X106569349Y-30612500D01*
X106562120Y-30615000D01*
X106172500Y-30615000D01*
X106090778Y-30625150D01*
X106074433Y-30627180D01*
X105992148Y-30660240D01*
X105920805Y-30708960D01*
X105855551Y-30768127D01*
X105855550Y-30768128D01*
X105791677Y-30832390D01*
X105791449Y-30832613D01*
X105769797Y-30853241D01*
X105767039Y-30855195D01*
X105734157Y-30871950D01*
X105657882Y-30948224D01*
X105656796Y-30949184D01*
X105648740Y-30955455D01*
X105647158Y-30956492D01*
X105559752Y-31004194D01*
X105557590Y-31005106D01*
X105452485Y-31037465D01*
X105450131Y-31037932D01*
X105332173Y-31048955D01*
X105323616Y-31046313D01*
X105319490Y-31038876D01*
X105308331Y-30956492D01*
X105246709Y-30501565D01*
X105246709Y-30498434D01*
X105319490Y-29961122D01*
X105323996Y-29953384D01*
X105332171Y-29951044D01*
X105450137Y-29962068D01*
G37*
%TD.AperFunction*%
%TD*%
%TA.AperFunction,Conductor*%
%TO.N,/IN2*%
G36*
X105450137Y-79962068D02*
G01*
X105452478Y-79962532D01*
X105557590Y-79994893D01*
X105559753Y-79995805D01*
X105647160Y-80043507D01*
X105648730Y-80044536D01*
X105708732Y-80091241D01*
X105723538Y-80102766D01*
X105724421Y-80103528D01*
X105791475Y-80167411D01*
X105791653Y-80167585D01*
X105813603Y-80189669D01*
X105825801Y-80201941D01*
X105827928Y-80204877D01*
X105844014Y-80236446D01*
X105933722Y-80326154D01*
X106046760Y-80383750D01*
X106076290Y-80388427D01*
X106172063Y-80403596D01*
X106172063Y-80403595D01*
X106172064Y-80403596D01*
X106288567Y-80385144D01*
X106290397Y-80385000D01*
X106562120Y-80385000D01*
X106570393Y-80388427D01*
X106573737Y-80395306D01*
X106586132Y-80498606D01*
X106586132Y-80501394D01*
X106573737Y-80604694D01*
X106569349Y-80612500D01*
X106562120Y-80615000D01*
X106172500Y-80615000D01*
X106090778Y-80625150D01*
X106074433Y-80627180D01*
X105992148Y-80660240D01*
X105920805Y-80708960D01*
X105855551Y-80768127D01*
X105855550Y-80768128D01*
X105791677Y-80832390D01*
X105791449Y-80832613D01*
X105769797Y-80853241D01*
X105767039Y-80855195D01*
X105734157Y-80871950D01*
X105657882Y-80948224D01*
X105656796Y-80949184D01*
X105648740Y-80955455D01*
X105647158Y-80956492D01*
X105559752Y-81004194D01*
X105557590Y-81005106D01*
X105452485Y-81037465D01*
X105450131Y-81037932D01*
X105332173Y-81048955D01*
X105323616Y-81046313D01*
X105319490Y-81038876D01*
X105308331Y-80956492D01*
X105246709Y-80501565D01*
X105246709Y-80498434D01*
X105319490Y-79961122D01*
X105323996Y-79953384D01*
X105332171Y-79951044D01*
X105450137Y-79962068D01*
G37*
%TD.AperFunction*%
%TD*%
%TA.AperFunction,Conductor*%
%TO.N,/OUT1*%
G36*
X111821383Y-29953686D02*
G01*
X111825509Y-29961123D01*
X111898290Y-30498430D01*
X111898290Y-30501570D01*
X111825509Y-31038876D01*
X111821003Y-31046615D01*
X111812826Y-31048955D01*
X111694867Y-31037932D01*
X111692513Y-31037465D01*
X111587408Y-31005106D01*
X111585246Y-31004194D01*
X111526970Y-30972391D01*
X111497841Y-30956494D01*
X111496262Y-30955458D01*
X111488204Y-30949185D01*
X111487118Y-30948226D01*
X111410842Y-30871950D01*
X111377957Y-30855194D01*
X111375201Y-30853241D01*
X111353524Y-30832589D01*
X111353344Y-30832414D01*
X111289440Y-30768120D01*
X111289426Y-30768107D01*
X111224197Y-30708962D01*
X111152850Y-30660240D01*
X111070565Y-30627180D01*
X110972500Y-30615000D01*
X110972495Y-30615000D01*
X110582880Y-30615000D01*
X110574607Y-30611573D01*
X110571263Y-30604694D01*
X110558867Y-30501394D01*
X110558867Y-30498606D01*
X110571263Y-30395306D01*
X110575651Y-30387500D01*
X110582880Y-30385000D01*
X110854603Y-30385000D01*
X110856433Y-30385144D01*
X110972936Y-30403596D01*
X111098240Y-30383750D01*
X111211278Y-30326154D01*
X111300986Y-30236446D01*
X111317073Y-30204872D01*
X111319193Y-30201945D01*
X111353344Y-30167585D01*
X111353524Y-30167410D01*
X111420584Y-30103521D01*
X111421452Y-30102772D01*
X111496273Y-30044531D01*
X111497832Y-30043509D01*
X111585249Y-29995803D01*
X111587405Y-29994894D01*
X111692521Y-29962532D01*
X111694859Y-29962068D01*
X111812827Y-29951044D01*
X111821383Y-29953686D01*
G37*
%TD.AperFunction*%
%TD*%
%TA.AperFunction,Conductor*%
%TO.N,/OUT4*%
G36*
X111821383Y-179953686D02*
G01*
X111825509Y-179961123D01*
X111898290Y-180498430D01*
X111898290Y-180501570D01*
X111825509Y-181038876D01*
X111821003Y-181046615D01*
X111812826Y-181048955D01*
X111694867Y-181037932D01*
X111692513Y-181037465D01*
X111587408Y-181005106D01*
X111585246Y-181004194D01*
X111526970Y-180972391D01*
X111497841Y-180956494D01*
X111496262Y-180955458D01*
X111488204Y-180949185D01*
X111487118Y-180948226D01*
X111410842Y-180871950D01*
X111377957Y-180855194D01*
X111375201Y-180853241D01*
X111353524Y-180832589D01*
X111353344Y-180832414D01*
X111289440Y-180768120D01*
X111289426Y-180768107D01*
X111224197Y-180708962D01*
X111152850Y-180660240D01*
X111070565Y-180627180D01*
X110972500Y-180615000D01*
X110972495Y-180615000D01*
X110582880Y-180615000D01*
X110574607Y-180611573D01*
X110571263Y-180604694D01*
X110558867Y-180501394D01*
X110558867Y-180498606D01*
X110571263Y-180395306D01*
X110575651Y-180387500D01*
X110582880Y-180385000D01*
X110854603Y-180385000D01*
X110856433Y-180385144D01*
X110972936Y-180403596D01*
X111098240Y-180383750D01*
X111211278Y-180326154D01*
X111300986Y-180236446D01*
X111317073Y-180204872D01*
X111319193Y-180201945D01*
X111353344Y-180167585D01*
X111353524Y-180167410D01*
X111420584Y-180103521D01*
X111421452Y-180102772D01*
X111496273Y-180044531D01*
X111497832Y-180043509D01*
X111585249Y-179995803D01*
X111587405Y-179994894D01*
X111692521Y-179962532D01*
X111694859Y-179962068D01*
X111812827Y-179951044D01*
X111821383Y-179953686D01*
G37*
%TD.AperFunction*%
%TD*%
%TA.AperFunction,Conductor*%
%TO.N,/IN3*%
G36*
X105450137Y-129962068D02*
G01*
X105452478Y-129962532D01*
X105557590Y-129994893D01*
X105559753Y-129995805D01*
X105647160Y-130043507D01*
X105648730Y-130044536D01*
X105708732Y-130091241D01*
X105723538Y-130102766D01*
X105724421Y-130103528D01*
X105791475Y-130167411D01*
X105791653Y-130167585D01*
X105813603Y-130189669D01*
X105825801Y-130201941D01*
X105827928Y-130204877D01*
X105844014Y-130236446D01*
X105933722Y-130326154D01*
X106046760Y-130383750D01*
X106076290Y-130388427D01*
X106172063Y-130403596D01*
X106172063Y-130403595D01*
X106172064Y-130403596D01*
X106288567Y-130385144D01*
X106290397Y-130385000D01*
X106562120Y-130385000D01*
X106570393Y-130388427D01*
X106573737Y-130395306D01*
X106586132Y-130498606D01*
X106586132Y-130501394D01*
X106573737Y-130604694D01*
X106569349Y-130612500D01*
X106562120Y-130615000D01*
X106172500Y-130615000D01*
X106090778Y-130625150D01*
X106074433Y-130627180D01*
X105992148Y-130660240D01*
X105920805Y-130708960D01*
X105855551Y-130768127D01*
X105855550Y-130768128D01*
X105791677Y-130832390D01*
X105791449Y-130832613D01*
X105769797Y-130853241D01*
X105767039Y-130855195D01*
X105734157Y-130871950D01*
X105657882Y-130948224D01*
X105656796Y-130949184D01*
X105648740Y-130955455D01*
X105647158Y-130956492D01*
X105559752Y-131004194D01*
X105557590Y-131005106D01*
X105452485Y-131037465D01*
X105450131Y-131037932D01*
X105332173Y-131048955D01*
X105323616Y-131046313D01*
X105319490Y-131038876D01*
X105308331Y-130956492D01*
X105246709Y-130501565D01*
X105246709Y-130498434D01*
X105319490Y-129961122D01*
X105323996Y-129953384D01*
X105332171Y-129951044D01*
X105450137Y-129962068D01*
G37*
%TD.AperFunction*%
%TD*%
%TA.AperFunction,Conductor*%
%TO.N,/IN4*%
G36*
X105450137Y-179962068D02*
G01*
X105452478Y-179962532D01*
X105557590Y-179994893D01*
X105559753Y-179995805D01*
X105647160Y-180043507D01*
X105648730Y-180044536D01*
X105708732Y-180091241D01*
X105723538Y-180102766D01*
X105724421Y-180103528D01*
X105791475Y-180167411D01*
X105791653Y-180167585D01*
X105813603Y-180189669D01*
X105825801Y-180201941D01*
X105827928Y-180204877D01*
X105844014Y-180236446D01*
X105933722Y-180326154D01*
X106046760Y-180383750D01*
X106076290Y-180388427D01*
X106172063Y-180403596D01*
X106172063Y-180403595D01*
X106172064Y-180403596D01*
X106288567Y-180385144D01*
X106290397Y-180385000D01*
X106562120Y-180385000D01*
X106570393Y-180388427D01*
X106573737Y-180395306D01*
X106586132Y-180498606D01*
X106586132Y-180501394D01*
X106573737Y-180604694D01*
X106569349Y-180612500D01*
X106562120Y-180615000D01*
X106172500Y-180615000D01*
X106090778Y-180625150D01*
X106074433Y-180627180D01*
X105992148Y-180660240D01*
X105920805Y-180708960D01*
X105855551Y-180768127D01*
X105855550Y-180768128D01*
X105791677Y-180832390D01*
X105791449Y-180832613D01*
X105769797Y-180853241D01*
X105767039Y-180855195D01*
X105734157Y-180871950D01*
X105657882Y-180948224D01*
X105656796Y-180949184D01*
X105648740Y-180955455D01*
X105647158Y-180956492D01*
X105559752Y-181004194D01*
X105557590Y-181005106D01*
X105452485Y-181037465D01*
X105450131Y-181037932D01*
X105332173Y-181048955D01*
X105323616Y-181046313D01*
X105319490Y-181038876D01*
X105308331Y-180956492D01*
X105246709Y-180501565D01*
X105246709Y-180498434D01*
X105319490Y-179961122D01*
X105323996Y-179953384D01*
X105332171Y-179951044D01*
X105450137Y-179962068D01*
G37*
%TD.AperFunction*%
%TD*%
%TA.AperFunction,Conductor*%
%TO.N,/OUT2*%
G36*
X111821383Y-79953686D02*
G01*
X111825509Y-79961123D01*
X111898290Y-80498430D01*
X111898290Y-80501570D01*
X111825509Y-81038876D01*
X111821003Y-81046615D01*
X111812826Y-81048955D01*
X111694867Y-81037932D01*
X111692513Y-81037465D01*
X111587408Y-81005106D01*
X111585246Y-81004194D01*
X111526970Y-80972391D01*
X111497841Y-80956494D01*
X111496262Y-80955458D01*
X111488204Y-80949185D01*
X111487118Y-80948226D01*
X111410842Y-80871950D01*
X111377957Y-80855194D01*
X111375201Y-80853241D01*
X111353524Y-80832589D01*
X111353344Y-80832414D01*
X111289440Y-80768120D01*
X111289426Y-80768107D01*
X111224197Y-80708962D01*
X111152850Y-80660240D01*
X111070565Y-80627180D01*
X110972500Y-80615000D01*
X110972495Y-80615000D01*
X110582880Y-80615000D01*
X110574607Y-80611573D01*
X110571263Y-80604694D01*
X110558867Y-80501394D01*
X110558867Y-80498606D01*
X110571263Y-80395306D01*
X110575651Y-80387500D01*
X110582880Y-80385000D01*
X110854603Y-80385000D01*
X110856433Y-80385144D01*
X110972936Y-80403596D01*
X111098240Y-80383750D01*
X111211278Y-80326154D01*
X111300986Y-80236446D01*
X111317073Y-80204872D01*
X111319193Y-80201945D01*
X111353344Y-80167585D01*
X111353524Y-80167410D01*
X111420584Y-80103521D01*
X111421452Y-80102772D01*
X111496273Y-80044531D01*
X111497832Y-80043509D01*
X111585249Y-79995803D01*
X111587405Y-79994894D01*
X111692521Y-79962532D01*
X111694859Y-79962068D01*
X111812827Y-79951044D01*
X111821383Y-79953686D01*
G37*
%TD.AperFunction*%
%TD*%
%TA.AperFunction,Conductor*%
%TO.N,/OUT3*%
G36*
X111821383Y-129953686D02*
G01*
X111825509Y-129961123D01*
X111898290Y-130498430D01*
X111898290Y-130501570D01*
X111825509Y-131038876D01*
X111821003Y-131046615D01*
X111812826Y-131048955D01*
X111694867Y-131037932D01*
X111692513Y-131037465D01*
X111587408Y-131005106D01*
X111585246Y-131004194D01*
X111526970Y-130972391D01*
X111497841Y-130956494D01*
X111496262Y-130955458D01*
X111488204Y-130949185D01*
X111487118Y-130948226D01*
X111410842Y-130871950D01*
X111377957Y-130855194D01*
X111375201Y-130853241D01*
X111353524Y-130832589D01*
X111353344Y-130832414D01*
X111289440Y-130768120D01*
X111289426Y-130768107D01*
X111224197Y-130708962D01*
X111152850Y-130660240D01*
X111070565Y-130627180D01*
X110972500Y-130615000D01*
X110972495Y-130615000D01*
X110582880Y-130615000D01*
X110574607Y-130611573D01*
X110571263Y-130604694D01*
X110558867Y-130501394D01*
X110558867Y-130498606D01*
X110571263Y-130395306D01*
X110575651Y-130387500D01*
X110582880Y-130385000D01*
X110854603Y-130385000D01*
X110856433Y-130385144D01*
X110972936Y-130403596D01*
X111098240Y-130383750D01*
X111211278Y-130326154D01*
X111300986Y-130236446D01*
X111317073Y-130204872D01*
X111319193Y-130201945D01*
X111353344Y-130167585D01*
X111353524Y-130167410D01*
X111420584Y-130103521D01*
X111421452Y-130102772D01*
X111496273Y-130044531D01*
X111497832Y-130043509D01*
X111585249Y-129995803D01*
X111587405Y-129994894D01*
X111692521Y-129962532D01*
X111694859Y-129962068D01*
X111812827Y-129951044D01*
X111821383Y-129953686D01*
G37*
%TD.AperFunction*%
%TD*%
%TA.AperFunction,Conductor*%
%TO.N,/OUT2*%
G36*
X111821383Y-79953686D02*
G01*
X111825509Y-79961123D01*
X111898290Y-80498430D01*
X111898290Y-80501570D01*
X111825509Y-81038876D01*
X111821003Y-81046615D01*
X111812826Y-81048955D01*
X111694867Y-81037932D01*
X111692513Y-81037465D01*
X111587408Y-81005106D01*
X111585246Y-81004194D01*
X111526970Y-80972391D01*
X111497841Y-80956494D01*
X111496262Y-80955458D01*
X111488204Y-80949185D01*
X111487118Y-80948226D01*
X111410842Y-80871950D01*
X111377957Y-80855194D01*
X111375201Y-80853241D01*
X111353524Y-80832589D01*
X111353344Y-80832414D01*
X111289440Y-80768120D01*
X111289426Y-80768107D01*
X111224197Y-80708962D01*
X111152850Y-80660240D01*
X111070565Y-80627180D01*
X110972500Y-80615000D01*
X110972495Y-80615000D01*
X110582880Y-80615000D01*
X110574607Y-80611573D01*
X110571263Y-80604694D01*
X110558867Y-80501394D01*
X110558867Y-80498606D01*
X110571263Y-80395306D01*
X110575651Y-80387500D01*
X110582880Y-80385000D01*
X110854603Y-80385000D01*
X110856433Y-80385144D01*
X110972936Y-80403596D01*
X111098240Y-80383750D01*
X111211278Y-80326154D01*
X111300986Y-80236446D01*
X111317073Y-80204872D01*
X111319193Y-80201945D01*
X111353344Y-80167585D01*
X111353524Y-80167410D01*
X111420584Y-80103521D01*
X111421452Y-80102772D01*
X111496273Y-80044531D01*
X111497832Y-80043509D01*
X111585249Y-79995803D01*
X111587405Y-79994894D01*
X111692521Y-79962532D01*
X111694859Y-79962068D01*
X111812827Y-79951044D01*
X111821383Y-79953686D01*
G37*
%TD.AperFunction*%
%TD*%
%TA.AperFunction,Conductor*%
%TO.N,/IN2*%
G36*
X105450137Y-79962068D02*
G01*
X105452478Y-79962532D01*
X105557590Y-79994893D01*
X105559753Y-79995805D01*
X105647160Y-80043507D01*
X105648730Y-80044536D01*
X105708732Y-80091241D01*
X105723538Y-80102766D01*
X105724421Y-80103528D01*
X105791475Y-80167411D01*
X105791653Y-80167585D01*
X105813603Y-80189669D01*
X105825801Y-80201941D01*
X105827928Y-80204877D01*
X105844014Y-80236446D01*
X105933722Y-80326154D01*
X106046760Y-80383750D01*
X106076290Y-80388427D01*
X106172063Y-80403596D01*
X106172063Y-80403595D01*
X106172064Y-80403596D01*
X106288567Y-80385144D01*
X106290397Y-80385000D01*
X106562120Y-80385000D01*
X106570393Y-80388427D01*
X106573737Y-80395306D01*
X106586132Y-80498606D01*
X106586132Y-80501394D01*
X106573737Y-80604694D01*
X106569349Y-80612500D01*
X106562120Y-80615000D01*
X106172500Y-80615000D01*
X106090778Y-80625150D01*
X106074433Y-80627180D01*
X105992148Y-80660240D01*
X105920805Y-80708960D01*
X105855551Y-80768127D01*
X105855550Y-80768128D01*
X105791677Y-80832390D01*
X105791449Y-80832613D01*
X105769797Y-80853241D01*
X105767039Y-80855195D01*
X105734157Y-80871950D01*
X105657882Y-80948224D01*
X105656796Y-80949184D01*
X105648740Y-80955455D01*
X105647158Y-80956492D01*
X105559752Y-81004194D01*
X105557590Y-81005106D01*
X105452485Y-81037465D01*
X105450131Y-81037932D01*
X105332173Y-81048955D01*
X105323616Y-81046313D01*
X105319490Y-81038876D01*
X105308331Y-80956492D01*
X105246709Y-80501565D01*
X105246709Y-80498434D01*
X105319490Y-79961122D01*
X105323996Y-79953384D01*
X105332171Y-79951044D01*
X105450137Y-79962068D01*
G37*
%TD.AperFunction*%
%TD*%
%TA.AperFunction,Conductor*%
%TO.N,/IN1*%
G36*
X105450137Y-29962068D02*
G01*
X105452478Y-29962532D01*
X105557590Y-29994893D01*
X105559753Y-29995805D01*
X105647160Y-30043507D01*
X105648730Y-30044536D01*
X105708732Y-30091241D01*
X105723538Y-30102766D01*
X105724421Y-30103528D01*
X105791475Y-30167411D01*
X105791653Y-30167585D01*
X105813603Y-30189669D01*
X105825801Y-30201941D01*
X105827928Y-30204877D01*
X105844014Y-30236446D01*
X105933722Y-30326154D01*
X106046760Y-30383750D01*
X106076290Y-30388427D01*
X106172063Y-30403596D01*
X106172063Y-30403595D01*
X106172064Y-30403596D01*
X106288567Y-30385144D01*
X106290397Y-30385000D01*
X106562120Y-30385000D01*
X106570393Y-30388427D01*
X106573737Y-30395306D01*
X106586132Y-30498606D01*
X106586132Y-30501394D01*
X106573737Y-30604694D01*
X106569349Y-30612500D01*
X106562120Y-30615000D01*
X106172500Y-30615000D01*
X106090778Y-30625150D01*
X106074433Y-30627180D01*
X105992148Y-30660240D01*
X105920805Y-30708960D01*
X105855551Y-30768127D01*
X105855550Y-30768128D01*
X105791677Y-30832390D01*
X105791449Y-30832613D01*
X105769797Y-30853241D01*
X105767039Y-30855195D01*
X105734157Y-30871950D01*
X105657882Y-30948224D01*
X105656796Y-30949184D01*
X105648740Y-30955455D01*
X105647158Y-30956492D01*
X105559752Y-31004194D01*
X105557590Y-31005106D01*
X105452485Y-31037465D01*
X105450131Y-31037932D01*
X105332173Y-31048955D01*
X105323616Y-31046313D01*
X105319490Y-31038876D01*
X105308331Y-30956492D01*
X105246709Y-30501565D01*
X105246709Y-30498434D01*
X105319490Y-29961122D01*
X105323996Y-29953384D01*
X105332171Y-29951044D01*
X105450137Y-29962068D01*
G37*
%TD.AperFunction*%
%TD*%
%TA.AperFunction,Conductor*%
%TO.N,/OUT1*%
G36*
X111821383Y-29953686D02*
G01*
X111825509Y-29961123D01*
X111898290Y-30498430D01*
X111898290Y-30501570D01*
X111825509Y-31038876D01*
X111821003Y-31046615D01*
X111812826Y-31048955D01*
X111694867Y-31037932D01*
X111692513Y-31037465D01*
X111587408Y-31005106D01*
X111585246Y-31004194D01*
X111526970Y-30972391D01*
X111497841Y-30956494D01*
X111496262Y-30955458D01*
X111488204Y-30949185D01*
X111487118Y-30948226D01*
X111410842Y-30871950D01*
X111377957Y-30855194D01*
X111375201Y-30853241D01*
X111353524Y-30832589D01*
X111353344Y-30832414D01*
X111289440Y-30768120D01*
X111289426Y-30768107D01*
X111224197Y-30708962D01*
X111152850Y-30660240D01*
X111070565Y-30627180D01*
X110972500Y-30615000D01*
X110972495Y-30615000D01*
X110582880Y-30615000D01*
X110574607Y-30611573D01*
X110571263Y-30604694D01*
X110558867Y-30501394D01*
X110558867Y-30498606D01*
X110571263Y-30395306D01*
X110575651Y-30387500D01*
X110582880Y-30385000D01*
X110854603Y-30385000D01*
X110856433Y-30385144D01*
X110972936Y-30403596D01*
X111098240Y-30383750D01*
X111211278Y-30326154D01*
X111300986Y-30236446D01*
X111317073Y-30204872D01*
X111319193Y-30201945D01*
X111353344Y-30167585D01*
X111353524Y-30167410D01*
X111420584Y-30103521D01*
X111421452Y-30102772D01*
X111496273Y-30044531D01*
X111497832Y-30043509D01*
X111585249Y-29995803D01*
X111587405Y-29994894D01*
X111692521Y-29962532D01*
X111694859Y-29962068D01*
X111812827Y-29951044D01*
X111821383Y-29953686D01*
G37*
%TD.AperFunction*%
%TD*%
%TA.AperFunction,Conductor*%
%TO.N,/OUT4*%
G36*
X111821383Y-179953686D02*
G01*
X111825509Y-179961123D01*
X111898290Y-180498430D01*
X111898290Y-180501570D01*
X111825509Y-181038876D01*
X111821003Y-181046615D01*
X111812826Y-181048955D01*
X111694867Y-181037932D01*
X111692513Y-181037465D01*
X111587408Y-181005106D01*
X111585246Y-181004194D01*
X111526970Y-180972391D01*
X111497841Y-180956494D01*
X111496262Y-180955458D01*
X111488204Y-180949185D01*
X111487118Y-180948226D01*
X111410842Y-180871950D01*
X111377957Y-180855194D01*
X111375201Y-180853241D01*
X111353524Y-180832589D01*
X111353344Y-180832414D01*
X111289440Y-180768120D01*
X111289426Y-180768107D01*
X111224197Y-180708962D01*
X111152850Y-180660240D01*
X111070565Y-180627180D01*
X110972500Y-180615000D01*
X110972495Y-180615000D01*
X110582880Y-180615000D01*
X110574607Y-180611573D01*
X110571263Y-180604694D01*
X110558867Y-180501394D01*
X110558867Y-180498606D01*
X110571263Y-180395306D01*
X110575651Y-180387500D01*
X110582880Y-180385000D01*
X110854603Y-180385000D01*
X110856433Y-180385144D01*
X110972936Y-180403596D01*
X111098240Y-180383750D01*
X111211278Y-180326154D01*
X111300986Y-180236446D01*
X111317073Y-180204872D01*
X111319193Y-180201945D01*
X111353344Y-180167585D01*
X111353524Y-180167410D01*
X111420584Y-180103521D01*
X111421452Y-180102772D01*
X111496273Y-180044531D01*
X111497832Y-180043509D01*
X111585249Y-179995803D01*
X111587405Y-179994894D01*
X111692521Y-179962532D01*
X111694859Y-179962068D01*
X111812827Y-179951044D01*
X111821383Y-179953686D01*
G37*
%TD.AperFunction*%
%TD*%
M02*
