M48
; DRILL file {KiCad 8.0.9} date 2025-12-09T16:01:21+0100
; FORMAT={-:-/ absolute / metric / decimal}
; #@! TF.CreationDate,2025-12-09T16:01:21+01:00
; #@! TF.GenerationSoftware,Kicad,Pcbnew,8.0.9
; #@! TF.FileFunction,Plated,1,2,PTH
FMAT,2
METRIC
; #@! TA.AperFunction,Plated,PTH,ViaDrill
T1C0.200
; #@! TA.AperFunction,Plated,PTH,ComponentDrill
T2C1.000
; #@! TA.AperFunction,Plated,PTH,ComponentDrill
T3C2.000
%
G90
G05
T1
X103.5Y-25.5
X103.5Y-25.5
X103.5Y-75.5
X103.5Y-75.5
X103.5Y-125.5
X103.5Y-175.5
X103.5Y-175.5
X105.072Y-25.328
X105.072Y-25.328
X105.072Y-75.328
X105.072Y-75.328
X105.072Y-125.328
X105.072Y-175.327
X105.072Y-175.327
X105.969Y-29.5
X105.969Y-29.5
X105.969Y-79.5
X105.969Y-79.5
X105.969Y-129.5
X105.969Y-179.5
X105.969Y-179.5
X105.972Y-31.2
X105.972Y-31.2
X105.972Y-81.2
X105.972Y-81.2
X105.972Y-131.2
X105.972Y-181.2
X105.972Y-181.2
X106.172Y-29.998
X106.172Y-29.998
X106.172Y-79.998
X106.172Y-79.998
X106.172Y-129.998
X106.172Y-179.998
X106.172Y-179.998
X107.17Y-132.365
X107.172Y-82.364
X107.172Y-32.4
X107.172Y-82.4
X107.172Y-132.4
X107.172Y-182.4
X107.176Y-182.364
X107.77Y-132.365
X107.772Y-82.364
X107.772Y-29.0
X107.772Y-29.0
X107.772Y-29.8
X107.772Y-29.8
X107.772Y-30.6
X107.772Y-30.6
X107.772Y-32.4
X107.772Y-79.0
X107.772Y-79.0
X107.772Y-79.8
X107.772Y-79.8
X107.772Y-80.6
X107.772Y-80.6
X107.772Y-82.4
X107.772Y-129.0
X107.772Y-129.8
X107.772Y-130.6
X107.772Y-132.4
X107.772Y-179.0
X107.772Y-179.0
X107.772Y-179.8
X107.772Y-179.8
X107.772Y-180.6
X107.772Y-180.6
X107.772Y-182.4
X107.776Y-182.364
X108.32Y-132.365
X108.322Y-82.364
X108.323Y-32.4
X108.323Y-82.4
X108.323Y-132.4
X108.323Y-182.4
X108.326Y-182.364
X108.572Y-29.0
X108.572Y-29.0
X108.572Y-29.8
X108.572Y-29.8
X108.572Y-30.6
X108.572Y-30.6
X108.572Y-79.0
X108.572Y-79.0
X108.572Y-79.8
X108.572Y-79.8
X108.572Y-80.6
X108.572Y-80.6
X108.572Y-129.0
X108.572Y-129.8
X108.572Y-130.6
X108.572Y-179.0
X108.572Y-179.0
X108.572Y-179.8
X108.572Y-179.8
X108.572Y-180.6
X108.572Y-180.6
X108.87Y-132.365
X108.872Y-82.364
X108.873Y-32.4
X108.873Y-82.4
X108.873Y-132.4
X108.873Y-182.4
X108.876Y-182.364
X109.37Y-132.365
X109.372Y-82.364
X109.372Y-29.0
X109.372Y-29.0
X109.372Y-29.8
X109.372Y-29.8
X109.372Y-30.6
X109.372Y-30.6
X109.372Y-32.4
X109.372Y-79.0
X109.372Y-79.0
X109.372Y-79.8
X109.372Y-79.8
X109.372Y-80.6
X109.372Y-80.6
X109.372Y-82.4
X109.372Y-129.0
X109.372Y-129.8
X109.372Y-130.6
X109.372Y-132.4
X109.372Y-179.0
X109.372Y-179.0
X109.372Y-179.8
X109.372Y-179.8
X109.372Y-180.6
X109.372Y-180.6
X109.372Y-182.4
X109.376Y-182.364
X109.92Y-132.365
X109.922Y-82.364
X109.923Y-32.4
X109.923Y-82.4
X109.923Y-132.4
X109.923Y-182.4
X109.926Y-182.364
X110.973Y-29.998
X110.973Y-29.998
X110.973Y-79.998
X110.973Y-79.998
X110.973Y-129.998
X110.973Y-179.998
X110.973Y-179.998
X111.172Y-31.2
X111.172Y-31.2
X111.172Y-81.2
X111.172Y-81.2
X111.172Y-131.2
X111.172Y-181.2
X111.172Y-181.2
X111.372Y-29.5
X111.372Y-29.5
X111.372Y-79.5
X111.372Y-79.5
X111.372Y-129.5
X111.372Y-179.5
X111.372Y-179.5
X112.072Y-25.272
X112.072Y-25.272
X112.072Y-75.272
X112.072Y-75.272
X112.072Y-125.272
X112.072Y-175.272
X112.072Y-175.272
T2
X104.2Y-20.485
X104.2Y-23.025
X104.2Y-70.485
X104.2Y-73.025
X104.2Y-120.485
X104.2Y-123.025
X104.2Y-170.485
X104.2Y-173.025
X106.74Y-20.485
X106.74Y-23.025
X106.74Y-70.485
X106.74Y-73.025
X106.74Y-120.485
X106.74Y-123.025
X106.74Y-170.485
X106.74Y-173.025
X109.28Y-20.485
X109.28Y-23.025
X109.28Y-70.485
X109.28Y-73.025
X109.28Y-120.485
X109.28Y-123.025
X109.28Y-170.485
X109.28Y-173.025
X111.82Y-20.485
X111.82Y-23.025
X111.82Y-70.485
X111.82Y-73.025
X111.82Y-120.485
X111.82Y-123.025
X111.82Y-170.485
X111.82Y-173.025
T3
X63.29Y-100.735
X63.29Y-110.265
X119.21Y-25.735
X119.21Y-35.265
X119.21Y-75.735
X119.21Y-85.265
X119.21Y-125.735
X119.21Y-135.265
X119.21Y-175.735
X119.21Y-185.265
M30
