<?xml version="1.0" standalone="no"?>
 <!DOCTYPE svg PUBLIC "-//W3C//DTD SVG 1.1//EN" 
 "http://www.w3.org/Graphics/SVG/1.1/DTD/svg11.dtd"> 
<svg
  xmlns:svg="http://www.w3.org/2000/svg"
  xmlns="http://www.w3.org/2000/svg"
  xmlns:xlink="http://www.w3.org/1999/xlink"
  version="1.1"
  width="167.4114mm" height="16.0274mm" viewBox="0.0000 0.0000 167.4114 16.0274">
<title>SVG Image created as Backplane-F_Cu.svg date 2026/01/04 19:12:14 </title>
  <desc>Image generated by PCBNEW </desc>
<g style="fill:#000000; fill-opacity:1.0000;stroke:#000000; stroke-opacity:1.0000;
stroke-linecap:round; stroke-linejoin:round;"
 transform="translate(0 0) scale(1 1)">
<path style="fill:#C83434; fill-opacity:1.0000; stroke:none;fill-rule:evenodd;"
d="M 58.9974,4.8750
58.9974,3.1750
60.6974,3.1750
60.6974,4.8750
Z" /> 
</g>
<g style="fill:#C83434; fill-opacity:1.0000; stroke:none;">
<circle cx="57.3074" cy="4.0250" r="0.8500" /> 
<circle cx="59.8474" cy="6.5650" r="0.8500" /> 
<circle cx="57.3074" cy="6.5650" r="0.8500" /> 
<circle cx="59.8474" cy="9.1050" r="0.8500" /> 
<circle cx="57.3074" cy="9.1050" r="0.8500" /> 
<circle cx="59.8474" cy="11.6450" r="0.8500" /> 
<circle cx="57.3074" cy="11.6450" r="0.8500" /> 
<path style="fill:#C83434; fill-opacity:1.0000; stroke:none;fill-rule:evenodd;"
d="M 158.9974,4.8750
158.9974,3.1750
160.6974,3.1750
160.6974,4.8750
Z" /> 
<circle cx="157.3074" cy="4.0250" r="0.8500" /> 
<circle cx="159.8474" cy="6.5650" r="0.8500" /> 
<circle cx="157.3074" cy="6.5650" r="0.8500" /> 
<circle cx="159.8474" cy="9.1050" r="0.8500" /> 
<circle cx="157.3074" cy="9.1050" r="0.8500" /> 
<circle cx="159.8474" cy="11.6450" r="0.8500" /> 
<circle cx="157.3074" cy="11.6450" r="0.8500" /> 
<path style="fill:#C83434; fill-opacity:1.0000; stroke:none;fill-rule:evenodd;"
d="M 108.9974,4.8750
108.9974,3.1750
110.6974,3.1750
110.6974,4.8750
Z" /> 
<circle cx="107.3074" cy="4.0250" r="0.8500" /> 
<circle cx="109.8474" cy="6.5650" r="0.8500" /> 
<circle cx="107.3074" cy="6.5650" r="0.8500" /> 
<circle cx="109.8474" cy="9.1050" r="0.8500" /> 
<circle cx="107.3074" cy="9.1050" r="0.8500" /> 
<circle cx="109.8474" cy="11.6450" r="0.8500" /> 
<circle cx="107.3074" cy="11.6450" r="0.8500" /> 
<path style="fill:#C83434; fill-opacity:1.0000; stroke:none;fill-rule:evenodd;"
d="M 8.9974,4.8750
8.9974,3.1750
10.6974,3.1750
10.6974,4.8750
Z" /> 
<circle cx="7.3074" cy="4.0250" r="0.8500" /> 
<circle cx="9.8474" cy="6.5650" r="0.8500" /> 
<circle cx="7.3074" cy="6.5650" r="0.8500" /> 
<circle cx="9.8474" cy="9.1050" r="0.8500" /> 
<circle cx="7.3074" cy="9.1050" r="0.8500" /> 
<circle cx="9.8474" cy="11.6450" r="0.8500" /> 
<circle cx="7.3074" cy="11.6450" r="0.8500" /> 
<path style="fill:#C83434; fill-opacity:1.0000; stroke:none;fill-rule:evenodd;"
d="M 144.4574,2.1750
146.1574,2.1750
146.1574,3.8750
144.4574,3.8750
Z" /> 
<circle cx="147.8474" cy="3.0250" r="0.8500" /> 
<circle cx="150.3874" cy="3.0250" r="0.8500" /> 
<path style="fill:#C83434; fill-opacity:1.0000; stroke:none;fill-rule:evenodd;"
d="M 116.4574,2.1750
118.1574,2.1750
118.1574,3.8750
116.4574,3.8750
Z" /> 
<circle cx="119.8474" cy="3.0250" r="0.8500" /> 
<circle cx="122.3874" cy="3.0250" r="0.8500" /> 
</g>
<g style="fill:#ECECEC; fill-opacity:1.0000; stroke:none;">
<circle cx="144.7800" cy="12.7000" r="0.3000" /> 
</g>
<g style="fill:#ECECEC; fill-opacity:1.0000; stroke:none;">
<circle cx="78.7400" cy="2.5400" r="0.3000" /> 
</g>
<g style="fill:#ECECEC; fill-opacity:1.0000; stroke:none;">
<circle cx="88.9000" cy="2.5400" r="0.3000" /> 
</g>
<g style="fill:#ECECEC; fill-opacity:1.0000; stroke:none;">
<circle cx="25.4000" cy="12.7000" r="0.3000" /> 
</g>
<g style="fill:#ECECEC; fill-opacity:1.0000; stroke:none;">
<circle cx="132.0800" cy="10.1600" r="0.3000" /> 
</g>
<g style="fill:#ECECEC; fill-opacity:1.0000; stroke:none;">
<circle cx="114.3000" cy="12.7000" r="0.3000" /> 
</g>
<g style="fill:#ECECEC; fill-opacity:1.0000; stroke:none;">
<circle cx="35.5600" cy="12.7000" r="0.3000" /> 
</g>
<g style="fill:#ECECEC; fill-opacity:1.0000; stroke:none;">
<circle cx="139.7000" cy="12.7000" r="0.3000" /> 
</g>
<g style="fill:#ECECEC; fill-opacity:1.0000; stroke:none;">
<circle cx="132.0800" cy="2.5400" r="0.3000" /> 
</g>
<g style="fill:#ECECEC; fill-opacity:1.0000; stroke:none;">
<circle cx="144.7800" cy="10.1600" r="0.3000" /> 
</g>
<g style="fill:#ECECEC; fill-opacity:1.0000; stroke:none;">
<circle cx="68.5800" cy="12.7000" r="0.3000" /> 
</g>
<g style="fill:#ECECEC; fill-opacity:1.0000; stroke:none;">
<circle cx="5.0800" cy="12.7000" r="0.3000" /> 
</g>
<g style="fill:#ECECEC; fill-opacity:1.0000; stroke:none;">
<circle cx="137.1600" cy="2.5400" r="0.3000" /> 
</g>
<g style="fill:#ECECEC; fill-opacity:1.0000; stroke:none;">
<circle cx="137.1600" cy="10.1600" r="0.3000" /> 
</g>
<g style="fill:#ECECEC; fill-opacity:1.0000; stroke:none;">
<circle cx="162.5600" cy="2.5400" r="0.3000" /> 
</g>
<g style="fill:#ECECEC; fill-opacity:1.0000; stroke:none;">
<circle cx="91.4400" cy="12.7000" r="0.3000" /> 
</g>
<g style="fill:#ECECEC; fill-opacity:1.0000; stroke:none;">
<circle cx="71.1200" cy="2.5400" r="0.3000" /> 
</g>
<g style="fill:#ECECEC; fill-opacity:1.0000; stroke:none;">
<circle cx="81.2800" cy="2.5400" r="0.3000" /> 
</g>
<g style="fill:#ECECEC; fill-opacity:1.0000; stroke:none;">
<circle cx="5.0800" cy="5.0800" r="0.3000" /> 
</g>
<g style="fill:#ECECEC; fill-opacity:1.0000; stroke:none;">
<circle cx="104.1400" cy="2.5400" r="0.3000" /> 
</g>
<g style="fill:#ECECEC; fill-opacity:1.0000; stroke:none;">
<circle cx="83.8200" cy="2.5400" r="0.3000" /> 
</g>
<g style="fill:#ECECEC; fill-opacity:1.0000; stroke:none;">
<circle cx="40.6400" cy="12.7000" r="0.3000" /> 
</g>
<g style="fill:#ECECEC; fill-opacity:1.0000; stroke:none;">
<circle cx="71.1200" cy="12.7000" r="0.3000" /> 
</g>
<g style="fill:#ECECEC; fill-opacity:1.0000; stroke:none;">
<circle cx="25.4000" cy="2.5400" r="0.3000" /> 
</g>
<g style="fill:#ECECEC; fill-opacity:1.0000; stroke:none;">
<circle cx="76.2000" cy="2.5400" r="0.3000" /> 
</g>
<g style="fill:#ECECEC; fill-opacity:1.0000; stroke:none;">
<circle cx="15.2400" cy="2.5400" r="0.3000" /> 
</g>
<g style="fill:#ECECEC; fill-opacity:1.0000; stroke:none;">
<circle cx="88.9000" cy="12.7000" r="0.3000" /> 
</g>
<g style="fill:#ECECEC; fill-opacity:1.0000; stroke:none;">
<circle cx="5.0800" cy="7.6200" r="0.3000" /> 
</g>
<g style="fill:#ECECEC; fill-opacity:1.0000; stroke:none;">
<circle cx="162.5600" cy="5.0800" r="0.3000" /> 
</g>
<g style="fill:#ECECEC; fill-opacity:1.0000; stroke:none;">
<circle cx="33.0200" cy="2.5400" r="0.3000" /> 
</g>
<g style="fill:#ECECEC; fill-opacity:1.0000; stroke:none;">
<circle cx="30.4800" cy="2.5400" r="0.3000" /> 
</g>
<g style="fill:#ECECEC; fill-opacity:1.0000; stroke:none;">
<circle cx="50.8000" cy="2.5400" r="0.3000" /> 
</g>
<g style="fill:#ECECEC; fill-opacity:1.0000; stroke:none;">
<circle cx="101.6000" cy="2.5400" r="0.3000" /> 
</g>
<g style="fill:#ECECEC; fill-opacity:1.0000; stroke:none;">
<circle cx="139.7000" cy="10.1600" r="0.3000" /> 
</g>
<g style="fill:#ECECEC; fill-opacity:1.0000; stroke:none;">
<circle cx="162.5600" cy="7.6200" r="0.3000" /> 
</g>
<g style="fill:#ECECEC; fill-opacity:1.0000; stroke:none;">
<circle cx="96.5200" cy="12.7000" r="0.3000" /> 
</g>
<g style="fill:#ECECEC; fill-opacity:1.0000; stroke:none;">
<circle cx="48.2600" cy="2.5400" r="0.3000" /> 
</g>
<g style="fill:#ECECEC; fill-opacity:1.0000; stroke:none;">
<circle cx="96.5200" cy="2.5400" r="0.3000" /> 
</g>
<g style="fill:#ECECEC; fill-opacity:1.0000; stroke:none;">
<circle cx="99.0600" cy="12.7000" r="0.3000" /> 
</g>
<g style="fill:#ECECEC; fill-opacity:1.0000; stroke:none;">
<circle cx="22.8600" cy="2.5400" r="0.3000" /> 
</g>
<g style="fill:#ECECEC; fill-opacity:1.0000; stroke:none;">
<circle cx="116.8400" cy="10.1600" r="0.3000" /> 
</g>
<g style="fill:#ECECEC; fill-opacity:1.0000; stroke:none;">
<circle cx="162.5600" cy="10.1600" r="0.3000" /> 
</g>
<g style="fill:#ECECEC; fill-opacity:1.0000; stroke:none;">
<circle cx="152.4000" cy="12.7000" r="0.3000" /> 
</g>
<g style="fill:#ECECEC; fill-opacity:1.0000; stroke:none;">
<circle cx="12.7000" cy="12.7000" r="0.3000" /> 
</g>
<g style="fill:#ECECEC; fill-opacity:1.0000; stroke:none;">
<circle cx="101.6000" cy="12.7000" r="0.3000" /> 
</g>
<g style="fill:#ECECEC; fill-opacity:1.0000; stroke:none;">
<circle cx="121.9200" cy="10.1600" r="0.3000" /> 
</g>
<g style="fill:#ECECEC; fill-opacity:1.0000; stroke:none;">
<circle cx="17.7800" cy="12.7000" r="0.3000" /> 
</g>
<g style="fill:#ECECEC; fill-opacity:1.0000; stroke:none;">
<circle cx="119.3800" cy="12.7000" r="0.3000" /> 
</g>
<g style="fill:#ECECEC; fill-opacity:1.0000; stroke:none;">
<circle cx="132.0800" cy="12.7000" r="0.3000" /> 
</g>
<g style="fill:#ECECEC; fill-opacity:1.0000; stroke:none;">
<circle cx="45.7200" cy="12.7000" r="0.3000" /> 
</g>
<g style="fill:#ECECEC; fill-opacity:1.0000; stroke:none;">
<circle cx="30.4800" cy="12.7000" r="0.3000" /> 
</g>
<g style="fill:#ECECEC; fill-opacity:1.0000; stroke:none;">
<circle cx="5.0800" cy="2.5400" r="0.3000" /> 
</g>
<g style="fill:#ECECEC; fill-opacity:1.0000; stroke:none;">
<circle cx="20.3200" cy="2.5400" r="0.3000" /> 
</g>
<g style="fill:#ECECEC; fill-opacity:1.0000; stroke:none;">
<circle cx="162.5600" cy="12.7000" r="0.3000" /> 
</g>
<g style="fill:#ECECEC; fill-opacity:1.0000; stroke:none;">
<circle cx="66.0400" cy="12.7000" r="0.3000" /> 
</g>
<g style="fill:#ECECEC; fill-opacity:1.0000; stroke:none;">
<circle cx="83.8200" cy="12.7000" r="0.3000" /> 
</g>
<g style="fill:#ECECEC; fill-opacity:1.0000; stroke:none;">
<circle cx="129.5400" cy="10.1600" r="0.3000" /> 
</g>
<g style="fill:#ECECEC; fill-opacity:1.0000; stroke:none;">
<circle cx="78.7400" cy="12.7000" r="0.3000" /> 
</g>
<g style="fill:#ECECEC; fill-opacity:1.0000; stroke:none;">
<circle cx="40.6400" cy="2.5400" r="0.3000" /> 
</g>
<g style="fill:#ECECEC; fill-opacity:1.0000; stroke:none;">
<circle cx="76.2000" cy="12.7000" r="0.3000" /> 
</g>
<g style="fill:#ECECEC; fill-opacity:1.0000; stroke:none;">
<circle cx="27.9400" cy="2.5400" r="0.3000" /> 
</g>
<g style="fill:#ECECEC; fill-opacity:1.0000; stroke:none;">
<circle cx="43.1800" cy="2.5400" r="0.3000" /> 
</g>
<g style="fill:#ECECEC; fill-opacity:1.0000; stroke:none;">
<circle cx="38.1000" cy="12.7000" r="0.3000" /> 
</g>
<g style="fill:#ECECEC; fill-opacity:1.0000; stroke:none;">
<circle cx="127.0000" cy="10.1600" r="0.3000" /> 
</g>
<g style="fill:#ECECEC; fill-opacity:1.0000; stroke:none;">
<circle cx="127.0000" cy="12.7000" r="0.3000" /> 
</g>
<g style="fill:#ECECEC; fill-opacity:1.0000; stroke:none;">
<circle cx="35.5600" cy="2.5400" r="0.3000" /> 
</g>
<g style="fill:#ECECEC; fill-opacity:1.0000; stroke:none;">
<circle cx="147.3200" cy="10.1600" r="0.3000" /> 
</g>
<g style="fill:#ECECEC; fill-opacity:1.0000; stroke:none;">
<circle cx="53.3400" cy="2.5400" r="0.3000" /> 
</g>
<g style="fill:#ECECEC; fill-opacity:1.0000; stroke:none;">
<circle cx="149.8600" cy="10.1600" r="0.3000" /> 
</g>
<g style="fill:#ECECEC; fill-opacity:1.0000; stroke:none;">
<circle cx="22.8600" cy="12.7000" r="0.3000" /> 
</g>
<g style="fill:#ECECEC; fill-opacity:1.0000; stroke:none;">
<circle cx="68.5800" cy="2.5400" r="0.3000" /> 
</g>
<g style="fill:#ECECEC; fill-opacity:1.0000; stroke:none;">
<circle cx="137.1600" cy="12.7000" r="0.3000" /> 
</g>
<g style="fill:#ECECEC; fill-opacity:1.0000; stroke:none;">
<circle cx="129.5400" cy="2.5400" r="0.3000" /> 
</g>
<g style="fill:#ECECEC; fill-opacity:1.0000; stroke:none;">
<circle cx="73.6600" cy="2.5400" r="0.3000" /> 
</g>
<g style="fill:#ECECEC; fill-opacity:1.0000; stroke:none;">
<circle cx="15.2400" cy="12.7000" r="0.3000" /> 
</g>
<g style="fill:#ECECEC; fill-opacity:1.0000; stroke:none;">
<circle cx="5.0800" cy="10.1600" r="0.3000" /> 
</g>
<g style="fill:#ECECEC; fill-opacity:1.0000; stroke:none;">
<circle cx="81.2800" cy="12.7000" r="0.3000" /> 
</g>
<g style="fill:#ECECEC; fill-opacity:1.0000; stroke:none;">
<circle cx="134.6200" cy="12.7000" r="0.3000" /> 
</g>
<g style="fill:#ECECEC; fill-opacity:1.0000; stroke:none;">
<circle cx="33.0200" cy="12.7000" r="0.3000" /> 
</g>
<g style="fill:#ECECEC; fill-opacity:1.0000; stroke:none;">
<circle cx="73.6600" cy="12.7000" r="0.3000" /> 
</g>
<g style="fill:#ECECEC; fill-opacity:1.0000; stroke:none;">
<circle cx="50.8000" cy="12.7000" r="0.3000" /> 
</g>
<g style="fill:#ECECEC; fill-opacity:1.0000; stroke:none;">
<circle cx="86.3600" cy="12.7000" r="0.3000" /> 
</g>
<g style="fill:#ECECEC; fill-opacity:1.0000; stroke:none;">
<circle cx="134.6200" cy="2.5400" r="0.3000" /> 
</g>
<g style="fill:#ECECEC; fill-opacity:1.0000; stroke:none;">
<circle cx="38.1000" cy="2.5400" r="0.3000" /> 
</g>
<g style="fill:#ECECEC; fill-opacity:1.0000; stroke:none;">
<circle cx="48.2600" cy="12.7000" r="0.3000" /> 
</g>
<g style="fill:#ECECEC; fill-opacity:1.0000; stroke:none;">
<circle cx="127.0000" cy="2.5400" r="0.3000" /> 
</g>
<g style="fill:#ECECEC; fill-opacity:1.0000; stroke:none;">
<circle cx="142.2400" cy="12.7000" r="0.3000" /> 
</g>
<g style="fill:#ECECEC; fill-opacity:1.0000; stroke:none;">
<circle cx="134.6200" cy="10.1600" r="0.3000" /> 
</g>
<g style="fill:#ECECEC; fill-opacity:1.0000; stroke:none;">
<circle cx="17.7800" cy="2.5400" r="0.3000" /> 
</g>
<g style="fill:#ECECEC; fill-opacity:1.0000; stroke:none;">
<circle cx="45.7200" cy="2.5400" r="0.3000" /> 
</g>
<g style="fill:#ECECEC; fill-opacity:1.0000; stroke:none;">
<circle cx="99.0600" cy="2.5400" r="0.3000" /> 
</g>
<g style="fill:#ECECEC; fill-opacity:1.0000; stroke:none;">
<circle cx="142.2400" cy="10.1600" r="0.3000" /> 
</g>
<g style="fill:#ECECEC; fill-opacity:1.0000; stroke:none;">
<circle cx="116.8400" cy="12.7000" r="0.3000" /> 
</g>
<g style="fill:#ECECEC; fill-opacity:1.0000; stroke:none;">
<circle cx="147.3200" cy="12.7000" r="0.3000" /> 
</g>
<g style="fill:#ECECEC; fill-opacity:1.0000; stroke:none;">
<circle cx="63.5000" cy="12.7000" r="0.3000" /> 
</g>
<g style="fill:#ECECEC; fill-opacity:1.0000; stroke:none;">
<circle cx="149.8600" cy="12.7000" r="0.3000" /> 
</g>
<g style="fill:#ECECEC; fill-opacity:1.0000; stroke:none;">
<circle cx="93.9800" cy="12.7000" r="0.3000" /> 
</g>
<g style="fill:#ECECEC; fill-opacity:1.0000; stroke:none;">
<circle cx="27.9400" cy="12.7000" r="0.3000" /> 
</g>
<g style="fill:#ECECEC; fill-opacity:1.0000; stroke:none;">
<circle cx="129.5400" cy="12.7000" r="0.3000" /> 
</g>
<g style="fill:#ECECEC; fill-opacity:1.0000; stroke:none;">
<circle cx="86.3600" cy="2.5400" r="0.3000" /> 
</g>
<g style="fill:#ECECEC; fill-opacity:1.0000; stroke:none;">
<circle cx="93.9800" cy="2.5400" r="0.3000" /> 
</g>
<g style="fill:#ECECEC; fill-opacity:1.0000; stroke:none;">
<circle cx="119.3800" cy="10.1600" r="0.3000" /> 
</g>
<g style="fill:#ECECEC; fill-opacity:1.0000; stroke:none;">
<circle cx="121.9200" cy="12.7000" r="0.3000" /> 
</g>
<g style="fill:#ECECEC; fill-opacity:1.0000; stroke:none;">
<circle cx="43.1800" cy="12.7000" r="0.3000" /> 
</g>
<g style="fill:#ECECEC; fill-opacity:1.0000; stroke:none;">
<circle cx="124.4600" cy="10.1600" r="0.3000" /> 
</g>
<g style="fill:#ECECEC; fill-opacity:1.0000; stroke:none;">
<circle cx="66.0400" cy="2.5400" r="0.3000" /> 
</g>
<g style="fill:#ECECEC; fill-opacity:1.0000; stroke:none;">
<circle cx="20.3200" cy="12.7000" r="0.3000" /> 
</g>
<g style="fill:#ECECEC; fill-opacity:1.0000; stroke:none;">
<circle cx="124.4600" cy="12.7000" r="0.3000" /> 
</g>
<g style="fill:#ECECEC; fill-opacity:1.0000; stroke:none;">
<circle cx="91.4400" cy="2.5400" r="0.3000" /> 
</g>
<g style="fill:none; 
stroke:#C83434; stroke-width:0.2500; stroke-opacity:1; 
stroke-linecap:round; stroke-linejoin:round;">
<path d="M152.1057 3.0250
L156.8207 7.7400
" />
<path d="M158.4824 7.7400
L159.8474 9.1050
" />
<path d="M156.8207 7.7400
L158.4824 7.7400
" />
<path d="M150.3874 3.0250
L152.1057 3.0250
" />
</g>
<g style="fill:none; 
stroke:#C83434; stroke-width:0.5000; stroke-opacity:1; 
stroke-linecap:round; stroke-linejoin:round;">
<path d="M117.3074 3.0250
L117.3074 4.1850
" />
<path d="M117.3074 4.1850
L109.8474 11.6450
" />
</g>
<g style="fill:none; 
stroke:#C83434; stroke-width:0.2500; stroke-opacity:1; 
stroke-linecap:round; stroke-linejoin:round;">
<path d="M157.3074 11.6450
L156.4674 11.6450
" />
<path d="M112.6474 4.0250
L109.8474 4.0250
" />
<path d="M115.6474 1.0250
L112.6474 4.0250
" />
<path d="M154.8474 10.0250
L154.8474 8.0250
" />
<path d="M139.3474 1.0250
L115.6474 1.0250
" />
<path d="M144.3474 6.0250
L139.3474 1.0250
" />
<path d="M154.8474 8.0250
L152.8474 6.0250
" />
<path d="M152.8474 6.0250
L144.3474 6.0250
" />
<path d="M156.4674 11.6450
L154.8474 10.0250
" />
<path d="M149.0224 1.8500
L153.2807 1.8500
" />
<path d="M153.2807 1.8500
L156.8207 5.3900
" />
<path d="M158.6724 5.3900
L159.8474 6.5650
" />
<path d="M147.8474 3.0250
L149.0224 1.8500
" />
<path d="M156.8207 5.3900
L158.6724 5.3900
" />
<path d="M156.8474 1.0250
L159.8474 4.0250
" />
<path d="M145.3074 3.0250
L147.3074 1.0250
" />
<path d="M147.3074 1.0250
L156.8474 1.0250
" />
<path d="M102.8474 9.0250
L105.4674 11.6450
" />
<path d="M59.8474 4.0250
L99.8474 4.0250
" />
<path d="M102.8474 7.0250
L102.8474 9.0250
" />
<path d="M99.8474 4.0250
L102.8474 7.0250
" />
<path d="M105.4674 11.6450
L107.3074 11.6450
" />
<path d="M9.8474 4.0250
L50.8474 4.0250
" />
<path d="M56.8874 11.6450
L57.3074 11.6450
" />
<path d="M50.8474 4.0250
L55.6874 8.8650
" />
<path d="M55.6874 8.8650
L55.6874 10.0250
" />
<path d="M55.6874 10.0250
L57.3074 11.6450
" />
<path style="fill:#C83434; fill-opacity:1.0000; stroke:none;fill-rule:evenodd;"
d="M 114.4029,0.5445
114.4837,0.5984
114.5376,0.6792
114.5566,0.7745
114.5376,0.8698
114.4837,0.9506
113.2725,2.1618
113.1917,2.2158
113.0964,2.2347
113.0473,2.2250
113.0571,2.2740
113.0381,2.3693
112.9842,2.4501
112.3577,3.0766
112.2769,3.1305
112.1816,3.1495
111.6594,3.1495
111.5641,3.1305
111.4833,3.0766
111.4293,2.9958
111.4230,2.9788
111.3822,2.8557
111.3822,2.8557
111.2901,2.7063
111.1660,2.5823
111.0167,2.4902
111.0167,2.4902
111.0167,2.4902
111.0167,2.4902
110.8502,2.4350
110.8502,2.4350
110.8502,2.4350
110.7474,2.4245
110.7474,2.4245
108.9474,2.4245
108.8446,2.4350
108.6780,2.4902
108.5287,2.5823
108.4728,2.6382
108.3920,2.6922
108.2967,2.7111
108.2014,2.6922
108.1666,2.6744
108.0362,2.5945
108.0362,2.5945
107.8035,2.4981
107.8035,2.4981
107.5585,2.4393
107.3074,2.4196
107.3074,2.4196
107.0562,2.4393
106.8113,2.4981
106.8113,2.4981
106.5785,2.5945
106.5785,2.5945
106.3637,2.7262
106.3637,2.7262
106.1722,2.8898
106.1722,2.8898
106.0085,3.0813
106.0085,3.0813
105.8769,3.2961
105.8769,3.2961
105.7805,3.5289
105.7805,3.5289
105.7217,3.7739
105.7019,4.0250
105.7019,4.0250
105.7217,4.2761
105.7805,4.5211
105.7805,4.5211
105.8769,4.7539
105.8769,4.7539
106.0085,4.9687
106.0085,4.9687
106.0085,4.9687
106.0085,4.9687
106.1722,5.1602
106.2121,5.1943
106.3637,5.3238
106.3637,5.3238
106.4873,5.3996
106.5785,5.4555
106.8113,5.5519
107.0562,5.6107
107.1280,5.6163
107.3074,5.6304
107.3074,5.6304
107.3074,5.6304
107.4643,5.6181
107.5585,5.6107
107.8035,5.5519
108.0362,5.4555
108.1351,5.3949
108.2262,5.3613
108.3233,5.3651
108.4115,5.4058
108.4775,5.4771
108.5111,5.5683
108.5073,5.6653
108.4775,5.7373
108.4169,5.8361
108.4169,5.8361
108.3205,6.0689
108.3205,6.0689
108.2617,6.3139
108.2419,6.5650
108.2419,6.5650
108.2617,6.8161
108.3205,7.0611
108.3205,7.0611
108.4169,7.2939
108.4169,7.2939
108.5485,7.5087
108.5485,7.5087
108.6892,7.6733
108.7366,7.7581
108.7480,7.8545
108.7217,7.9480
108.6892,7.9967
108.5485,8.1613
108.5485,8.1613
108.4169,8.3761
108.4169,8.3761
108.3205,8.6089
108.3205,8.6089
108.2617,8.8539
108.2419,9.1050
108.2419,9.1050
108.2617,9.3561
108.3205,9.6011
108.3205,9.6011
108.4169,9.8339
108.4169,9.8339
108.4775,9.9327
108.5111,10.0238
108.5073,10.1209
108.4666,10.2091
108.3953,10.2751
108.3041,10.3087
108.2070,10.3049
108.1351,10.2751
108.0362,10.2145
108.0362,10.2145
107.8035,10.1181
107.8035,10.1181
107.5585,10.0593
107.3074,10.0396
107.3074,10.0396
107.0562,10.0593
106.8113,10.1181
106.8113,10.1181
106.5785,10.2145
106.5785,10.2145
106.3637,10.3462
106.3637,10.3462
106.1722,10.5098
106.1722,10.5098
106.0699,10.6296
105.9936,10.6897
105.9000,10.7161
105.8036,10.7047
105.7188,10.6572
105.7044,10.6439
103.7958,8.7353
103.7418,8.6545
103.7229,8.5592
103.7229,6.9388
103.7229,6.9388
103.6892,6.7696
103.6232,6.6103
103.5274,6.4669
103.4797,6.4192
103.4055,6.3450
103.4055,6.3450
100.4055,3.3450
100.2621,3.2491
100.2621,3.2491
100.1028,3.1831
100.1028,3.1831
100.1028,3.1831
99.9336,3.1495
99.9336,3.1495
61.6594,3.1495
61.5641,3.1305
61.4833,3.0766
61.4293,2.9958
61.4230,2.9788
61.3822,2.8557
61.3822,2.8557
61.2901,2.7063
61.1660,2.5823
61.0167,2.4902
61.0167,2.4902
61.0167,2.4902
61.0167,2.4902
60.8502,2.4350
60.8502,2.4350
60.8502,2.4350
60.7474,2.4245
60.7474,2.4245
58.9474,2.4245
58.8446,2.4350
58.6780,2.4902
58.5287,2.5823
58.4728,2.6382
58.3920,2.6922
58.2967,2.7111
58.2014,2.6922
58.1666,2.6744
58.0362,2.5945
58.0362,2.5945
57.8035,2.4981
57.8035,2.4981
57.5585,2.4393
57.3074,2.4196
57.3074,2.4196
57.0562,2.4393
56.8113,2.4981
56.8113,2.4981
56.5785,2.5945
56.5785,2.5945
56.3637,2.7262
56.3637,2.7262
56.1722,2.8898
56.1722,2.8898
56.0085,3.0813
56.0085,3.0813
55.8769,3.2961
55.8769,3.2961
55.7805,3.5289
55.7805,3.5289
55.7217,3.7739
55.7019,4.0250
55.7019,4.0250
55.7217,4.2761
55.7805,4.5211
55.7805,4.5211
55.8769,4.7539
55.8769,4.7539
56.0085,4.9687
56.0085,4.9687
56.0085,4.9687
56.0085,4.9687
56.1722,5.1602
56.2121,5.1943
56.3637,5.3238
56.3637,5.3238
56.4873,5.3996
56.5785,5.4555
56.8113,5.5519
57.0562,5.6107
57.1280,5.6163
57.3074,5.6304
57.3074,5.6304
57.3074,5.6304
57.4643,5.6181
57.5585,5.6107
57.8035,5.5519
58.0362,5.4555
58.1351,5.3949
58.2262,5.3613
58.3233,5.3651
58.4115,5.4058
58.4775,5.4771
58.5111,5.5683
58.5073,5.6653
58.4775,5.7373
58.4169,5.8361
58.4169,5.8361
58.3205,6.0689
58.3205,6.0689
58.2617,6.3139
58.2419,6.5650
58.2419,6.5650
58.2617,6.8161
58.3205,7.0611
58.3205,7.0611
58.4169,7.2939
58.4169,7.2939
58.5485,7.5087
58.5485,7.5087
58.6892,7.6733
58.7366,7.7581
58.7480,7.8545
58.7217,7.9480
58.6892,7.9967
58.5485,8.1613
58.5485,8.1613
58.4169,8.3761
58.4169,8.3761
58.3205,8.6089
58.3205,8.6089
58.2617,8.8539
58.2419,9.1050
58.2419,9.1050
58.2617,9.3561
58.3205,9.6011
58.3205,9.6011
58.4169,9.8339
58.4169,9.8339
58.4775,9.9327
58.5111,10.0238
58.5073,10.1209
58.4666,10.2091
58.3953,10.2751
58.3041,10.3087
58.2070,10.3049
58.1351,10.2751
58.0362,10.2145
58.0362,10.2145
57.8035,10.1181
57.8035,10.1181
57.5585,10.0593
57.3074,10.0396
57.3074,10.0396
57.0813,10.0573
56.9848,10.0459
56.9001,9.9985
56.8857,9.9852
56.6358,9.7353
56.5818,9.6545
56.5629,9.5592
56.5629,8.7788
56.5624,8.7761
56.5292,8.6096
56.4632,8.4503
56.3674,8.3069
56.3120,8.2514
56.2455,8.1850
56.2455,8.1850
51.4055,3.3450
51.2621,3.2491
51.2621,3.2491
51.1028,3.1831
51.1028,3.1831
51.1028,3.1831
50.9336,3.1495
50.9336,3.1495
11.6594,3.1495
11.5641,3.1305
11.4833,3.0766
11.4293,2.9958
11.4230,2.9788
11.3822,2.8557
11.3822,2.8557
11.2901,2.7063
11.1660,2.5823
11.0167,2.4902
11.0167,2.4902
11.0167,2.4902
11.0167,2.4902
10.8502,2.4350
10.8502,2.4350
10.8502,2.4350
10.7474,2.4245
10.7474,2.4245
8.9474,2.4245
8.8446,2.4350
8.6780,2.4902
8.5287,2.5823
8.4728,2.6382
8.3920,2.6922
8.2967,2.7111
8.2014,2.6922
8.1666,2.6744
8.0362,2.5945
8.0362,2.5945
7.8035,2.4981
7.8035,2.4981
7.5585,2.4393
7.3074,2.4196
7.3074,2.4196
7.0562,2.4393
6.8113,2.4981
6.8113,2.4981
6.5785,2.5945
6.5785,2.5945
6.3637,2.7262
6.3637,2.7262
6.1722,2.8898
6.1722,2.8898
6.0085,3.0813
6.0085,3.0813
5.8769,3.2961
5.8769,3.2961
5.7805,3.5289
5.7805,3.5289
5.7217,3.7739
5.7019,4.0250
5.7019,4.0250
5.7217,4.2761
5.7805,4.5211
5.7805,4.5211
5.8769,4.7539
5.8769,4.7539
6.0085,4.9687
6.0085,4.9687
6.0085,4.9687
6.0085,4.9687
6.1722,5.1602
6.2121,5.1943
6.3637,5.3238
6.3637,5.3238
6.4873,5.3996
6.5785,5.4555
6.8113,5.5519
7.0562,5.6107
7.1280,5.6163
7.3074,5.6304
7.3074,5.6304
7.3074,5.6304
7.4643,5.6181
7.5585,5.6107
7.8035,5.5519
8.0362,5.4555
8.1351,5.3949
8.2262,5.3613
8.3233,5.3651
8.4115,5.4058
8.4775,5.4771
8.5111,5.5683
8.5073,5.6653
8.4775,5.7373
8.4169,5.8361
8.4169,5.8361
8.3205,6.0689
8.3205,6.0689
8.2617,6.3139
8.2419,6.5650
8.2419,6.5650
8.2617,6.8161
8.3205,7.0611
8.3205,7.0611
8.4169,7.2939
8.4169,7.2939
8.5485,7.5087
8.5485,7.5087
8.6892,7.6733
8.7366,7.7581
8.7480,7.8545
8.7217,7.9480
8.6892,7.9967
8.5485,8.1613
8.5485,8.1613
8.4169,8.3761
8.4169,8.3761
8.3205,8.6089
8.3205,8.6089
8.2617,8.8539
8.2419,9.1050
8.2419,9.1050
8.2617,9.3561
8.3205,9.6011
8.3205,9.6011
8.4169,9.8339
8.4169,9.8339
8.4775,9.9327
8.5111,10.0238
8.5073,10.1209
8.4666,10.2091
8.3953,10.2751
8.3041,10.3087
8.2070,10.3049
8.1351,10.2751
8.0362,10.2145
8.0362,10.2145
7.8035,10.1181
7.8035,10.1181
7.5585,10.0593
7.3074,10.0396
7.3074,10.0396
7.0562,10.0593
6.8113,10.1181
6.8113,10.1181
6.5785,10.2145
6.5785,10.2145
6.3637,10.3462
6.3637,10.3462
6.1722,10.5098
6.1722,10.5098
6.0085,10.7013
6.0085,10.7013
5.8769,10.9161
5.8769,10.9161
5.7805,11.1489
5.7805,11.1489
5.7217,11.3939
5.7019,11.6450
5.7019,11.6450
5.7217,11.8961
5.7805,12.1411
5.7805,12.1411
5.8769,12.3739
5.8769,12.3739
6.0085,12.5887
6.0085,12.5887
6.0085,12.5887
6.0085,12.5887
6.1722,12.7802
6.3637,12.9438
6.3637,12.9438
6.3637,12.9438
6.5364,13.0496
6.5785,13.0755
6.8113,13.1719
7.0562,13.2307
7.1280,13.2363
7.3074,13.2504
7.3074,13.2504
7.3074,13.2504
7.4643,13.2381
7.5585,13.2307
7.8035,13.1719
8.0362,13.0755
8.1584,13.0006
8.2510,12.9438
8.2510,12.9438
8.2510,12.9438
8.2510,12.9438
8.4157,12.8032
8.5004,12.7558
8.5969,12.7443
8.6904,12.7707
8.7391,12.8032
8.9037,12.9438
8.9037,12.9438
8.9037,12.9438
9.0764,13.0496
9.1185,13.0755
9.3513,13.1719
9.5962,13.2307
9.6680,13.2363
9.8474,13.2504
9.8474,13.2504
9.8474,13.2504
10.0043,13.2381
10.0985,13.2307
10.3435,13.1719
10.5762,13.0755
10.6984,13.0006
10.7910,12.9438
10.7910,12.9438
10.7910,12.9438
10.7910,12.9438
10.9826,12.7802
11.1462,12.5887
11.1462,12.5887
11.1462,12.5887
11.2086,12.4869
11.2778,12.3739
11.3743,12.1411
11.4331,11.8961
11.4528,11.6450
11.4331,11.3939
11.3743,11.1489
11.2778,10.9161
11.2520,10.8740
11.1462,10.7013
11.1462,10.7013
11.1462,10.7013
11.0056,10.5367
10.9581,10.4519
10.9467,10.3555
10.9731,10.2620
11.0056,10.2133
11.1462,10.0487
11.1462,10.0487
11.1462,10.0487
11.2173,9.9327
11.2778,9.8339
11.3743,9.6011
11.4331,9.3561
11.4432,9.2276
11.4528,9.1050
11.4528,9.1050
11.4331,8.8539
11.4150,8.7788
11.3743,8.6089
11.2778,8.3761
11.2520,8.3340
11.1462,8.1613
11.1462,8.1613
11.1462,8.1613
11.0056,7.9967
10.9581,7.9119
10.9467,7.8155
10.9731,7.7220
11.0056,7.6733
11.1462,7.5087
11.1462,7.5087
11.1462,7.5087
11.2030,7.4160
11.2778,7.2939
11.3743,7.0611
11.4331,6.8161
11.4493,6.6103
11.4528,6.5650
11.4528,6.5650
11.4331,6.3139
11.4215,6.2655
11.3743,6.0689
11.2778,5.8361
11.1979,5.7057
11.1643,5.6146
11.1681,5.5175
11.2088,5.4293
11.2342,5.3996
11.2901,5.3437
11.3822,5.1943
11.4230,5.0712
11.4710,4.9867
11.5476,4.9270
11.6413,4.9012
11.6594,4.9005
50.3816,4.9005
50.4769,4.9195
50.5577,4.9734
54.7390,9.1547
54.7929,9.2355
54.8119,9.3308
54.8119,9.9388
54.8119,10.1112
54.8328,10.2164
54.8455,10.2804
54.9115,10.4397
54.9115,10.4397
55.0073,10.5831
55.0073,10.5831
55.0073,10.5831
55.6476,11.2233
55.7015,11.3041
55.7205,11.3994
55.7197,11.4189
55.7019,11.6450
55.7019,11.6450
55.7217,11.8961
55.7805,12.1411
55.7805,12.1411
55.8769,12.3739
55.8769,12.3739
56.0085,12.5887
56.0085,12.5887
56.0085,12.5887
56.0085,12.5887
56.1722,12.7802
56.3637,12.9438
56.3637,12.9438
56.3637,12.9438
56.5364,13.0496
56.5785,13.0755
56.8113,13.1719
57.0562,13.2307
57.1280,13.2363
57.3074,13.2504
57.3074,13.2504
57.3074,13.2504
57.4643,13.2381
57.5585,13.2307
57.8035,13.1719
58.0362,13.0755
58.1584,13.0006
58.2510,12.9438
58.2510,12.9438
58.2510,12.9438
58.2510,12.9438
58.4157,12.8032
58.5004,12.7558
58.5969,12.7443
58.6904,12.7707
58.7391,12.8032
58.9037,12.9438
58.9037,12.9438
58.9037,12.9438
59.0764,13.0496
59.1185,13.0755
59.3513,13.1719
59.5962,13.2307
59.6680,13.2363
59.8474,13.2504
59.8474,13.2504
59.8474,13.2504
60.0043,13.2381
60.0985,13.2307
60.3435,13.1719
60.5762,13.0755
60.6984,13.0006
60.7910,12.9438
60.7910,12.9438
60.7910,12.9438
60.7910,12.9438
60.9826,12.7802
61.1462,12.5887
61.1462,12.5887
61.1462,12.5887
61.2086,12.4869
61.2778,12.3739
61.3743,12.1411
61.4331,11.8961
61.4528,11.6450
61.4331,11.3939
61.3743,11.1489
61.2778,10.9161
61.2520,10.8740
61.1462,10.7013
61.1462,10.7013
61.1462,10.7013
61.0056,10.5367
60.9581,10.4519
60.9467,10.3555
60.9731,10.2620
61.0056,10.2133
61.1462,10.0487
61.1462,10.0487
61.1462,10.0487
61.2173,9.9327
61.2778,9.8339
61.3743,9.6011
61.4331,9.3561
61.4432,9.2276
61.4528,9.1050
61.4528,9.1050
61.4331,8.8539
61.4150,8.7788
61.3743,8.6089
61.2778,8.3761
61.2520,8.3340
61.1462,8.1613
61.1462,8.1613
61.1462,8.1613
61.0056,7.9967
60.9581,7.9119
60.9467,7.8155
60.9731,7.7220
61.0056,7.6733
61.1462,7.5087
61.1462,7.5087
61.1462,7.5087
61.2030,7.4160
61.2778,7.2939
61.3743,7.0611
61.4331,6.8161
61.4493,6.6103
61.4528,6.5650
61.4528,6.5650
61.4331,6.3139
61.4215,6.2655
61.3743,6.0689
61.2778,5.8361
61.1979,5.7057
61.1643,5.6146
61.1681,5.5175
61.2088,5.4293
61.2342,5.3996
61.2901,5.3437
61.3822,5.1943
61.4230,5.0712
61.4710,4.9867
61.5476,4.9270
61.6413,4.9012
61.6594,4.9005
99.3816,4.9005
99.4769,4.9195
99.5577,4.9734
101.8990,7.3147
101.9529,7.3955
101.9719,7.4908
101.9719,8.9388
101.9719,9.1112
102.0055,9.2804
102.0055,9.2804
102.0715,9.4397
102.0715,9.4397
102.1673,9.5831
104.7873,12.2031
104.7873,12.2031
104.8653,12.2810
104.9093,12.3250
105.0527,12.4209
105.1187,12.4482
105.2120,12.4869
105.3812,12.5205
105.8355,12.5205
105.9308,12.5395
106.0116,12.5934
106.0249,12.6078
106.1722,12.7802
106.3637,12.9438
106.3637,12.9438
106.3637,12.9438
106.5364,13.0496
106.5785,13.0755
106.8113,13.1719
107.0562,13.2307
107.1280,13.2363
107.3074,13.2504
107.3074,13.2504
107.3074,13.2504
107.4643,13.2381
107.5585,13.2307
107.8035,13.1719
108.0362,13.0755
108.1584,13.0006
108.2510,12.9438
108.2510,12.9438
108.2510,12.9438
108.2510,12.9438
108.4157,12.8032
108.5004,12.7558
108.5969,12.7443
108.6904,12.7707
108.7391,12.8032
108.9037,12.9438
108.9037,12.9438
108.9037,12.9438
109.0764,13.0496
109.1185,13.0755
109.3513,13.1719
109.5962,13.2307
109.6680,13.2363
109.8474,13.2504
109.8474,13.2504
109.8474,13.2504
110.0043,13.2381
110.0985,13.2307
110.3435,13.1719
110.5762,13.0755
110.6984,13.0006
110.7910,12.9438
110.7910,12.9438
110.7910,12.9438
110.7910,12.9438
110.9826,12.7802
111.1462,12.5887
111.1462,12.5887
111.1462,12.5887
111.2086,12.4869
111.2778,12.3739
111.3743,12.1411
111.4331,11.8961
111.4528,11.6450
111.4479,11.5828
111.4594,11.4863
111.5068,11.4016
111.5201,11.3872
117.9452,4.9621
117.9452,4.9621
118.0845,4.8228
118.1136,4.7792
118.1527,4.7207
118.2214,4.6520
118.2975,4.6198
118.2973,4.6193
118.3044,4.6169
118.3077,4.6155
118.3102,4.6150
118.3102,4.6150
118.4767,4.5598
118.6260,4.4677
118.6820,4.4118
118.7627,4.3578
118.8580,4.3389
118.9533,4.3578
118.9881,4.3756
119.1185,4.4555
119.3513,4.5519
119.5962,4.6107
119.6680,4.6163
119.8474,4.6304
119.8474,4.6304
119.8474,4.6304
120.0043,4.6181
120.0985,4.6107
120.3435,4.5519
120.5762,4.4555
120.7066,4.3756
120.7910,4.3238
120.7910,4.3238
120.7910,4.3238
120.7910,4.3238
120.9826,4.1602
121.1462,3.9687
121.1462,3.9687
121.1462,3.9687
121.2030,3.8760
121.2778,3.7539
121.3743,3.5211
121.4331,3.2761
121.4450,3.1250
121.4528,3.0250
121.4528,3.0250
121.4331,2.7739
121.4216,2.7262
121.3743,2.5289
121.2778,2.2961
121.2778,2.2961
121.2677,2.2796
121.2341,2.1884
121.2379,2.0914
121.2786,2.0031
121.3499,1.9372
121.4411,1.9036
121.4800,1.9005
138.8816,1.9005
138.9769,1.9195
139.0577,1.9734
143.6673,6.5831
143.6673,6.5831
143.7748,6.6906
143.7893,6.7050
143.9327,6.8009
143.9327,6.8009
143.9327,6.8009
143.9696,6.8161
144.0920,6.8669
144.2612,6.9005
152.3816,6.9005
152.4769,6.9195
152.5577,6.9734
153.8990,8.3147
153.9529,8.3955
153.9719,8.4908
153.9719,9.9388
153.9719,10.1112
153.9928,10.2164
154.0055,10.2804
154.0715,10.4397
154.0715,10.4397
154.1673,10.5831
154.9781,11.3939
155.7845,12.2003
155.8385,12.2810
155.8769,12.3739
155.8769,12.3739
156.0085,12.5887
156.0085,12.5887
156.0085,12.5887
156.0085,12.5887
156.1722,12.7802
156.3637,12.9438
156.3637,12.9438
156.3637,12.9438
156.5364,13.0496
156.5785,13.0755
156.8113,13.1719
157.0562,13.2307
157.1280,13.2363
157.3074,13.2504
157.3074,13.2504
157.3074,13.2504
157.4643,13.2381
157.5585,13.2307
157.8035,13.1719
158.0362,13.0755
158.1584,13.0006
158.2510,12.9438
158.2510,12.9438
158.2510,12.9438
158.2510,12.9438
158.4157,12.8032
158.5004,12.7558
158.5969,12.7443
158.6904,12.7707
158.7391,12.8032
158.9037,12.9438
158.9037,12.9438
158.9037,12.9438
159.0764,13.0496
159.1185,13.0755
159.3513,13.1719
159.5962,13.2307
159.6680,13.2363
159.8474,13.2504
159.8474,13.2504
159.8474,13.2504
160.0043,13.2381
160.0985,13.2307
160.3435,13.1719
160.5762,13.0755
160.6984,13.0006
160.7910,12.9438
160.7910,12.9438
160.7910,12.9438
160.7910,12.9438
160.9826,12.7802
161.1462,12.5887
161.1462,12.5887
161.1462,12.5887
161.2086,12.4869
161.2778,12.3739
161.3743,12.1411
161.4331,11.8961
161.4528,11.6450
161.4331,11.3939
161.3743,11.1489
161.2778,10.9161
161.2520,10.8740
161.1462,10.7013
161.1462,10.7013
161.1462,10.7013
161.0056,10.5367
160.9581,10.4519
160.9467,10.3555
160.9731,10.2620
161.0056,10.2133
161.1462,10.0487
161.1462,10.0487
161.1462,10.0487
161.2173,9.9327
161.2778,9.8339
161.3743,9.6011
161.4331,9.3561
161.4432,9.2276
161.4528,9.1050
161.4528,9.1050
161.4331,8.8539
161.4150,8.7788
161.3743,8.6089
161.2778,8.3761
161.2520,8.3340
161.1462,8.1613
161.1462,8.1613
161.1462,8.1613
161.0056,7.9967
160.9581,7.9119
160.9467,7.8155
160.9731,7.7220
161.0056,7.6733
161.1462,7.5087
161.1462,7.5087
161.1462,7.5087
161.2030,7.4160
161.2778,7.2939
161.3743,7.0611
161.4331,6.8161
161.4493,6.6103
161.4528,6.5650
161.4528,6.5650
161.4331,6.3139
161.4215,6.2655
161.3743,6.0689
161.2778,5.8361
161.1979,5.7057
161.1643,5.6146
161.1681,5.5175
161.2088,5.4293
161.2342,5.3996
161.2901,5.3437
161.3822,5.1943
161.4374,5.0278
161.4479,4.9250
161.4479,3.1250
161.4374,3.0222
161.4353,3.0159
161.3822,2.8557
161.3822,2.8557
161.2901,2.7063
161.1660,2.5823
161.0167,2.4902
161.0167,2.4902
161.0167,2.4902
161.0167,2.4902
160.8502,2.4350
160.8502,2.4350
160.8502,2.4350
160.7988,2.4297
160.7474,2.4245
160.7474,2.4245
159.5882,2.4245
159.4929,2.4055
159.4121,2.3516
159.0855,2.0250
161.8474,2.0250
161.8474,2.0250
162.8474,2.0250
162.8474,2.0250
162.8474,1.0250
161.8474,1.0250
161.8474,2.0250
159.0855,2.0250
158.0111,0.9506
157.9571,0.8698
157.9382,0.7745
157.9571,0.6792
158.0111,0.5984
158.0919,0.5445
158.1872,0.5255
163.0979,0.5255
163.1932,0.5445
163.2740,0.5984
163.3279,0.6792
163.3469,0.7745
163.3469,15.2755
163.3279,15.3708
163.2740,15.4516
163.1932,15.5055
163.0979,15.5245
3.5969,15.5245
3.5016,15.5055
3.4208,15.4516
3.3668,15.3708
3.3479,15.2755
3.3479,2.0250
11.8474,2.0250
11.8474,2.0250
12.8474,2.0250
12.8474,2.0250
61.8474,2.0250
61.8474,2.0250
62.8474,2.0250
62.8474,2.0250
111.8474,2.0250
111.8474,2.0250
112.8081,2.0250
112.8571,2.0348
112.8474,1.9857
112.8474,1.0250
112.8474,1.0250
111.8474,1.0250
111.8474,2.0250
62.8474,2.0250
62.8474,1.0250
61.8474,1.0250
61.8474,2.0250
12.8474,2.0250
12.8474,1.0250
11.8474,1.0250
11.8474,2.0250
3.3479,2.0250
3.3479,0.7745
3.3668,0.6792
3.4208,0.5984
3.5016,0.5445
3.5969,0.5255
114.3076,0.5255
Z" /> 
<path style="fill:#C83434; fill-opacity:1.0000; stroke:none;fill-rule:evenodd;"
d="M 156.0672,8.2514
156.1479,8.3054
156.2626,8.4200
156.4060,8.5159
156.4060,8.5159
156.4060,8.5159
156.4856,8.5489
156.5653,8.5819
156.7345,8.6155
158.0111,8.6155
158.1064,8.6345
158.1872,8.6884
158.2411,8.7692
158.2601,8.8645
158.2593,8.8840
158.2419,9.1050
158.2419,9.1050
158.2617,9.3561
158.3205,9.6011
158.3205,9.6011
158.4169,9.8339
158.4169,9.8339
158.4775,9.9327
158.5111,10.0238
158.5073,10.1209
158.4666,10.2091
158.3953,10.2751
158.3041,10.3087
158.2070,10.3049
158.1351,10.2751
158.0362,10.2145
158.0362,10.2145
157.8035,10.1181
157.8035,10.1181
157.5585,10.0593
157.3074,10.0396
157.3074,10.0396
157.0562,10.0593
156.8113,10.1181
156.8113,10.1181
156.5785,10.2145
156.5785,10.2145
156.5577,10.2273
156.4666,10.2609
156.3695,10.2571
156.2813,10.2164
156.2516,10.1910
155.7958,9.7353
155.7418,9.6545
155.7229,9.5592
155.7229,8.4815
155.7418,8.3862
155.7958,8.3054
155.8766,8.2514
155.9719,8.2325
Z" /> 
<path style="fill:#C83434; fill-opacity:1.0000; stroke:none;fill-rule:evenodd;"
d="M 158.0914,6.2845
158.1722,6.3384
158.2262,6.4192
158.2451,6.5145
158.2444,6.5340
158.2419,6.5650
158.2434,6.5831
158.2444,6.5960
158.2330,6.6924
158.1855,6.7772
158.1092,6.8374
158.0157,6.8637
157.9961,6.8645
157.2865,6.8645
157.1912,6.8455
157.1104,6.7916
157.0094,6.6906
156.9554,6.6098
156.9365,6.5145
156.9554,6.4192
157.0094,6.3384
157.0902,6.2845
157.1855,6.2655
157.9961,6.2655
Z" /> 
</g>
<g style="fill:#FFFFFF; fill-opacity:1.0000; stroke:none;">
<circle cx="144.7800" cy="12.7000" r="0.1500" /> 
</g>
<g style="fill:#FFFFFF; fill-opacity:1.0000; stroke:none;">
<circle cx="78.7400" cy="2.5400" r="0.1500" /> 
</g>
<g style="fill:#FFFFFF; fill-opacity:1.0000; stroke:none;">
<circle cx="88.9000" cy="2.5400" r="0.1500" /> 
</g>
<g style="fill:#FFFFFF; fill-opacity:1.0000; stroke:none;">
<circle cx="25.4000" cy="12.7000" r="0.1500" /> 
</g>
<g style="fill:#FFFFFF; fill-opacity:1.0000; stroke:none;">
<circle cx="132.0800" cy="10.1600" r="0.1500" /> 
</g>
<g style="fill:#FFFFFF; fill-opacity:1.0000; stroke:none;">
<circle cx="114.3000" cy="12.7000" r="0.1500" /> 
</g>
<g style="fill:#FFFFFF; fill-opacity:1.0000; stroke:none;">
<circle cx="35.5600" cy="12.7000" r="0.1500" /> 
</g>
<g style="fill:#FFFFFF; fill-opacity:1.0000; stroke:none;">
<circle cx="139.7000" cy="12.7000" r="0.1500" /> 
</g>
<g style="fill:#FFFFFF; fill-opacity:1.0000; stroke:none;">
<circle cx="132.0800" cy="2.5400" r="0.1500" /> 
</g>
<g style="fill:#FFFFFF; fill-opacity:1.0000; stroke:none;">
<circle cx="144.7800" cy="10.1600" r="0.1500" /> 
</g>
<g style="fill:#FFFFFF; fill-opacity:1.0000; stroke:none;">
<circle cx="68.5800" cy="12.7000" r="0.1500" /> 
</g>
<g style="fill:#FFFFFF; fill-opacity:1.0000; stroke:none;">
<circle cx="5.0800" cy="12.7000" r="0.1500" /> 
</g>
<g style="fill:#FFFFFF; fill-opacity:1.0000; stroke:none;">
<circle cx="137.1600" cy="2.5400" r="0.1500" /> 
</g>
<g style="fill:#FFFFFF; fill-opacity:1.0000; stroke:none;">
<circle cx="137.1600" cy="10.1600" r="0.1500" /> 
</g>
<g style="fill:#FFFFFF; fill-opacity:1.0000; stroke:none;">
<circle cx="162.5600" cy="2.5400" r="0.1500" /> 
</g>
<g style="fill:#FFFFFF; fill-opacity:1.0000; stroke:none;">
<circle cx="91.4400" cy="12.7000" r="0.1500" /> 
</g>
<g style="fill:#FFFFFF; fill-opacity:1.0000; stroke:none;">
<circle cx="71.1200" cy="2.5400" r="0.1500" /> 
</g>
<g style="fill:#FFFFFF; fill-opacity:1.0000; stroke:none;">
<circle cx="81.2800" cy="2.5400" r="0.1500" /> 
</g>
<g style="fill:#FFFFFF; fill-opacity:1.0000; stroke:none;">
<circle cx="5.0800" cy="5.0800" r="0.1500" /> 
</g>
<g style="fill:#FFFFFF; fill-opacity:1.0000; stroke:none;">
<circle cx="104.1400" cy="2.5400" r="0.1500" /> 
</g>
<g style="fill:#FFFFFF; fill-opacity:1.0000; stroke:none;">
<circle cx="83.8200" cy="2.5400" r="0.1500" /> 
</g>
<g style="fill:#FFFFFF; fill-opacity:1.0000; stroke:none;">
<circle cx="40.6400" cy="12.7000" r="0.1500" /> 
</g>
<g style="fill:#FFFFFF; fill-opacity:1.0000; stroke:none;">
<circle cx="71.1200" cy="12.7000" r="0.1500" /> 
</g>
<g style="fill:#FFFFFF; fill-opacity:1.0000; stroke:none;">
<circle cx="25.4000" cy="2.5400" r="0.1500" /> 
</g>
<g style="fill:#FFFFFF; fill-opacity:1.0000; stroke:none;">
<circle cx="76.2000" cy="2.5400" r="0.1500" /> 
</g>
<g style="fill:#FFFFFF; fill-opacity:1.0000; stroke:none;">
<circle cx="15.2400" cy="2.5400" r="0.1500" /> 
</g>
<g style="fill:#FFFFFF; fill-opacity:1.0000; stroke:none;">
<circle cx="88.9000" cy="12.7000" r="0.1500" /> 
</g>
<g style="fill:#FFFFFF; fill-opacity:1.0000; stroke:none;">
<circle cx="5.0800" cy="7.6200" r="0.1500" /> 
</g>
<g style="fill:#FFFFFF; fill-opacity:1.0000; stroke:none;">
<circle cx="162.5600" cy="5.0800" r="0.1500" /> 
</g>
<g style="fill:#FFFFFF; fill-opacity:1.0000; stroke:none;">
<circle cx="33.0200" cy="2.5400" r="0.1500" /> 
</g>
<g style="fill:#FFFFFF; fill-opacity:1.0000; stroke:none;">
<circle cx="30.4800" cy="2.5400" r="0.1500" /> 
</g>
<g style="fill:#FFFFFF; fill-opacity:1.0000; stroke:none;">
<circle cx="50.8000" cy="2.5400" r="0.1500" /> 
</g>
<g style="fill:#FFFFFF; fill-opacity:1.0000; stroke:none;">
<circle cx="101.6000" cy="2.5400" r="0.1500" /> 
</g>
<g style="fill:#FFFFFF; fill-opacity:1.0000; stroke:none;">
<circle cx="139.7000" cy="10.1600" r="0.1500" /> 
</g>
<g style="fill:#FFFFFF; fill-opacity:1.0000; stroke:none;">
<circle cx="162.5600" cy="7.6200" r="0.1500" /> 
</g>
<g style="fill:#FFFFFF; fill-opacity:1.0000; stroke:none;">
<circle cx="96.5200" cy="12.7000" r="0.1500" /> 
</g>
<g style="fill:#FFFFFF; fill-opacity:1.0000; stroke:none;">
<circle cx="48.2600" cy="2.5400" r="0.1500" /> 
</g>
<g style="fill:#FFFFFF; fill-opacity:1.0000; stroke:none;">
<circle cx="96.5200" cy="2.5400" r="0.1500" /> 
</g>
<g style="fill:#FFFFFF; fill-opacity:1.0000; stroke:none;">
<circle cx="99.0600" cy="12.7000" r="0.1500" /> 
</g>
<g style="fill:#FFFFFF; fill-opacity:1.0000; stroke:none;">
<circle cx="22.8600" cy="2.5400" r="0.1500" /> 
</g>
<g style="fill:#FFFFFF; fill-opacity:1.0000; stroke:none;">
<circle cx="116.8400" cy="10.1600" r="0.1500" /> 
</g>
<g style="fill:#FFFFFF; fill-opacity:1.0000; stroke:none;">
<circle cx="162.5600" cy="10.1600" r="0.1500" /> 
</g>
<g style="fill:#FFFFFF; fill-opacity:1.0000; stroke:none;">
<circle cx="152.4000" cy="12.7000" r="0.1500" /> 
</g>
<g style="fill:#FFFFFF; fill-opacity:1.0000; stroke:none;">
<circle cx="12.7000" cy="12.7000" r="0.1500" /> 
</g>
<g style="fill:#FFFFFF; fill-opacity:1.0000; stroke:none;">
<circle cx="101.6000" cy="12.7000" r="0.1500" /> 
</g>
<g style="fill:#FFFFFF; fill-opacity:1.0000; stroke:none;">
<circle cx="121.9200" cy="10.1600" r="0.1500" /> 
</g>
<g style="fill:#FFFFFF; fill-opacity:1.0000; stroke:none;">
<circle cx="17.7800" cy="12.7000" r="0.1500" /> 
</g>
<g style="fill:#FFFFFF; fill-opacity:1.0000; stroke:none;">
<circle cx="119.3800" cy="12.7000" r="0.1500" /> 
</g>
<g style="fill:#FFFFFF; fill-opacity:1.0000; stroke:none;">
<circle cx="132.0800" cy="12.7000" r="0.1500" /> 
</g>
<g style="fill:#FFFFFF; fill-opacity:1.0000; stroke:none;">
<circle cx="45.7200" cy="12.7000" r="0.1500" /> 
</g>
<g style="fill:#FFFFFF; fill-opacity:1.0000; stroke:none;">
<circle cx="30.4800" cy="12.7000" r="0.1500" /> 
</g>
<g style="fill:#FFFFFF; fill-opacity:1.0000; stroke:none;">
<circle cx="5.0800" cy="2.5400" r="0.1500" /> 
</g>
<g style="fill:#FFFFFF; fill-opacity:1.0000; stroke:none;">
<circle cx="20.3200" cy="2.5400" r="0.1500" /> 
</g>
<g style="fill:#FFFFFF; fill-opacity:1.0000; stroke:none;">
<circle cx="162.5600" cy="12.7000" r="0.1500" /> 
</g>
<g style="fill:#FFFFFF; fill-opacity:1.0000; stroke:none;">
<circle cx="66.0400" cy="12.7000" r="0.1500" /> 
</g>
<g style="fill:#FFFFFF; fill-opacity:1.0000; stroke:none;">
<circle cx="83.8200" cy="12.7000" r="0.1500" /> 
</g>
<g style="fill:#FFFFFF; fill-opacity:1.0000; stroke:none;">
<circle cx="129.5400" cy="10.1600" r="0.1500" /> 
</g>
<g style="fill:#FFFFFF; fill-opacity:1.0000; stroke:none;">
<circle cx="78.7400" cy="12.7000" r="0.1500" /> 
</g>
<g style="fill:#FFFFFF; fill-opacity:1.0000; stroke:none;">
<circle cx="40.6400" cy="2.5400" r="0.1500" /> 
</g>
<g style="fill:#FFFFFF; fill-opacity:1.0000; stroke:none;">
<circle cx="76.2000" cy="12.7000" r="0.1500" /> 
</g>
<g style="fill:#FFFFFF; fill-opacity:1.0000; stroke:none;">
<circle cx="27.9400" cy="2.5400" r="0.1500" /> 
</g>
<g style="fill:#FFFFFF; fill-opacity:1.0000; stroke:none;">
<circle cx="43.1800" cy="2.5400" r="0.1500" /> 
</g>
<g style="fill:#FFFFFF; fill-opacity:1.0000; stroke:none;">
<circle cx="38.1000" cy="12.7000" r="0.1500" /> 
</g>
<g style="fill:#FFFFFF; fill-opacity:1.0000; stroke:none;">
<circle cx="127.0000" cy="10.1600" r="0.1500" /> 
</g>
<g style="fill:#FFFFFF; fill-opacity:1.0000; stroke:none;">
<circle cx="127.0000" cy="12.7000" r="0.1500" /> 
</g>
<g style="fill:#FFFFFF; fill-opacity:1.0000; stroke:none;">
<circle cx="35.5600" cy="2.5400" r="0.1500" /> 
</g>
<g style="fill:#FFFFFF; fill-opacity:1.0000; stroke:none;">
<circle cx="147.3200" cy="10.1600" r="0.1500" /> 
</g>
<g style="fill:#FFFFFF; fill-opacity:1.0000; stroke:none;">
<circle cx="53.3400" cy="2.5400" r="0.1500" /> 
</g>
<g style="fill:#FFFFFF; fill-opacity:1.0000; stroke:none;">
<circle cx="149.8600" cy="10.1600" r="0.1500" /> 
</g>
<g style="fill:#FFFFFF; fill-opacity:1.0000; stroke:none;">
<circle cx="22.8600" cy="12.7000" r="0.1500" /> 
</g>
<g style="fill:#FFFFFF; fill-opacity:1.0000; stroke:none;">
<circle cx="68.5800" cy="2.5400" r="0.1500" /> 
</g>
<g style="fill:#FFFFFF; fill-opacity:1.0000; stroke:none;">
<circle cx="137.1600" cy="12.7000" r="0.1500" /> 
</g>
<g style="fill:#FFFFFF; fill-opacity:1.0000; stroke:none;">
<circle cx="129.5400" cy="2.5400" r="0.1500" /> 
</g>
<g style="fill:#FFFFFF; fill-opacity:1.0000; stroke:none;">
<circle cx="73.6600" cy="2.5400" r="0.1500" /> 
</g>
<g style="fill:#FFFFFF; fill-opacity:1.0000; stroke:none;">
<circle cx="15.2400" cy="12.7000" r="0.1500" /> 
</g>
<g style="fill:#FFFFFF; fill-opacity:1.0000; stroke:none;">
<circle cx="5.0800" cy="10.1600" r="0.1500" /> 
</g>
<g style="fill:#FFFFFF; fill-opacity:1.0000; stroke:none;">
<circle cx="81.2800" cy="12.7000" r="0.1500" /> 
</g>
<g style="fill:#FFFFFF; fill-opacity:1.0000; stroke:none;">
<circle cx="134.6200" cy="12.7000" r="0.1500" /> 
</g>
<g style="fill:#FFFFFF; fill-opacity:1.0000; stroke:none;">
<circle cx="33.0200" cy="12.7000" r="0.1500" /> 
</g>
<g style="fill:#FFFFFF; fill-opacity:1.0000; stroke:none;">
<circle cx="73.6600" cy="12.7000" r="0.1500" /> 
</g>
<g style="fill:#FFFFFF; fill-opacity:1.0000; stroke:none;">
<circle cx="50.8000" cy="12.7000" r="0.1500" /> 
</g>
<g style="fill:#FFFFFF; fill-opacity:1.0000; stroke:none;">
<circle cx="86.3600" cy="12.7000" r="0.1500" /> 
</g>
<g style="fill:#FFFFFF; fill-opacity:1.0000; stroke:none;">
<circle cx="134.6200" cy="2.5400" r="0.1500" /> 
</g>
<g style="fill:#FFFFFF; fill-opacity:1.0000; stroke:none;">
<circle cx="38.1000" cy="2.5400" r="0.1500" /> 
</g>
<g style="fill:#FFFFFF; fill-opacity:1.0000; stroke:none;">
<circle cx="48.2600" cy="12.7000" r="0.1500" /> 
</g>
<g style="fill:#FFFFFF; fill-opacity:1.0000; stroke:none;">
<circle cx="127.0000" cy="2.5400" r="0.1500" /> 
</g>
<g style="fill:#FFFFFF; fill-opacity:1.0000; stroke:none;">
<circle cx="142.2400" cy="12.7000" r="0.1500" /> 
</g>
<g style="fill:#FFFFFF; fill-opacity:1.0000; stroke:none;">
<circle cx="134.6200" cy="10.1600" r="0.1500" /> 
</g>
<g style="fill:#FFFFFF; fill-opacity:1.0000; stroke:none;">
<circle cx="17.7800" cy="2.5400" r="0.1500" /> 
</g>
<g style="fill:#FFFFFF; fill-opacity:1.0000; stroke:none;">
<circle cx="45.7200" cy="2.5400" r="0.1500" /> 
</g>
<g style="fill:#FFFFFF; fill-opacity:1.0000; stroke:none;">
<circle cx="99.0600" cy="2.5400" r="0.1500" /> 
</g>
<g style="fill:#FFFFFF; fill-opacity:1.0000; stroke:none;">
<circle cx="142.2400" cy="10.1600" r="0.1500" /> 
</g>
<g style="fill:#FFFFFF; fill-opacity:1.0000; stroke:none;">
<circle cx="116.8400" cy="12.7000" r="0.1500" /> 
</g>
<g style="fill:#FFFFFF; fill-opacity:1.0000; stroke:none;">
<circle cx="147.3200" cy="12.7000" r="0.1500" /> 
</g>
<g style="fill:#FFFFFF; fill-opacity:1.0000; stroke:none;">
<circle cx="63.5000" cy="12.7000" r="0.1500" /> 
</g>
<g style="fill:#FFFFFF; fill-opacity:1.0000; stroke:none;">
<circle cx="149.8600" cy="12.7000" r="0.1500" /> 
</g>
<g style="fill:#FFFFFF; fill-opacity:1.0000; stroke:none;">
<circle cx="93.9800" cy="12.7000" r="0.1500" /> 
</g>
<g style="fill:#FFFFFF; fill-opacity:1.0000; stroke:none;">
<circle cx="27.9400" cy="12.7000" r="0.1500" /> 
</g>
<g style="fill:#FFFFFF; fill-opacity:1.0000; stroke:none;">
<circle cx="129.5400" cy="12.7000" r="0.1500" /> 
</g>
<g style="fill:#FFFFFF; fill-opacity:1.0000; stroke:none;">
<circle cx="86.3600" cy="2.5400" r="0.1500" /> 
</g>
<g style="fill:#FFFFFF; fill-opacity:1.0000; stroke:none;">
<circle cx="93.9800" cy="2.5400" r="0.1500" /> 
</g>
<g style="fill:#FFFFFF; fill-opacity:1.0000; stroke:none;">
<circle cx="119.3800" cy="10.1600" r="0.1500" /> 
</g>
<g style="fill:#FFFFFF; fill-opacity:1.0000; stroke:none;">
<circle cx="121.9200" cy="12.7000" r="0.1500" /> 
</g>
<g style="fill:#FFFFFF; fill-opacity:1.0000; stroke:none;">
<circle cx="43.1800" cy="12.7000" r="0.1500" /> 
</g>
<g style="fill:#FFFFFF; fill-opacity:1.0000; stroke:none;">
<circle cx="124.4600" cy="10.1600" r="0.1500" /> 
</g>
<g style="fill:#FFFFFF; fill-opacity:1.0000; stroke:none;">
<circle cx="66.0400" cy="2.5400" r="0.1500" /> 
</g>
<g style="fill:#FFFFFF; fill-opacity:1.0000; stroke:none;">
<circle cx="20.3200" cy="12.7000" r="0.1500" /> 
</g>
<g style="fill:#FFFFFF; fill-opacity:1.0000; stroke:none;">
<circle cx="124.4600" cy="12.7000" r="0.1500" /> 
</g>
<g style="fill:#FFFFFF; fill-opacity:1.0000; stroke:none;">
<circle cx="91.4400" cy="2.5400" r="0.1500" /> 
</g>
<g style="fill:#FFFFFF; fill-opacity:1.0000; stroke:none;">
<circle cx="59.8474" cy="4.0250" r="0.5000" /> 
</g>
<g style="fill:#FFFFFF; fill-opacity:1.0000; stroke:none;">
<circle cx="57.3074" cy="4.0250" r="0.5000" /> 
</g>
<g style="fill:#FFFFFF; fill-opacity:1.0000; stroke:none;">
<circle cx="59.8474" cy="6.5650" r="0.5000" /> 
</g>
<g style="fill:#FFFFFF; fill-opacity:1.0000; stroke:none;">
<circle cx="57.3074" cy="6.5650" r="0.5000" /> 
</g>
<g style="fill:#FFFFFF; fill-opacity:1.0000; stroke:none;">
<circle cx="59.8474" cy="9.1050" r="0.5000" /> 
</g>
<g style="fill:#FFFFFF; fill-opacity:1.0000; stroke:none;">
<circle cx="57.3074" cy="9.1050" r="0.5000" /> 
</g>
<g style="fill:#FFFFFF; fill-opacity:1.0000; stroke:none;">
<circle cx="59.8474" cy="11.6450" r="0.5000" /> 
</g>
<g style="fill:#FFFFFF; fill-opacity:1.0000; stroke:none;">
<circle cx="57.3074" cy="11.6450" r="0.5000" /> 
</g>
<g style="fill:#FFFFFF; fill-opacity:1.0000; stroke:none;">
<circle cx="159.8474" cy="4.0250" r="0.5000" /> 
</g>
<g style="fill:#FFFFFF; fill-opacity:1.0000; stroke:none;">
<circle cx="157.3074" cy="4.0250" r="0.5000" /> 
</g>
<g style="fill:#FFFFFF; fill-opacity:1.0000; stroke:none;">
<circle cx="159.8474" cy="6.5650" r="0.5000" /> 
</g>
<g style="fill:#FFFFFF; fill-opacity:1.0000; stroke:none;">
<circle cx="157.3074" cy="6.5650" r="0.5000" /> 
</g>
<g style="fill:#FFFFFF; fill-opacity:1.0000; stroke:none;">
<circle cx="159.8474" cy="9.1050" r="0.5000" /> 
</g>
<g style="fill:#FFFFFF; fill-opacity:1.0000; stroke:none;">
<circle cx="157.3074" cy="9.1050" r="0.5000" /> 
</g>
<g style="fill:#FFFFFF; fill-opacity:1.0000; stroke:none;">
<circle cx="159.8474" cy="11.6450" r="0.5000" /> 
</g>
<g style="fill:#FFFFFF; fill-opacity:1.0000; stroke:none;">
<circle cx="157.3074" cy="11.6450" r="0.5000" /> 
</g>
<g style="fill:#FFFFFF; fill-opacity:1.0000; stroke:none;">
<circle cx="109.8474" cy="4.0250" r="0.5000" /> 
</g>
<g style="fill:#FFFFFF; fill-opacity:1.0000; stroke:none;">
<circle cx="107.3074" cy="4.0250" r="0.5000" /> 
</g>
<g style="fill:#FFFFFF; fill-opacity:1.0000; stroke:none;">
<circle cx="109.8474" cy="6.5650" r="0.5000" /> 
</g>
<g style="fill:#FFFFFF; fill-opacity:1.0000; stroke:none;">
<circle cx="107.3074" cy="6.5650" r="0.5000" /> 
</g>
<g style="fill:#FFFFFF; fill-opacity:1.0000; stroke:none;">
<circle cx="109.8474" cy="9.1050" r="0.5000" /> 
</g>
<g style="fill:#FFFFFF; fill-opacity:1.0000; stroke:none;">
<circle cx="107.3074" cy="9.1050" r="0.5000" /> 
</g>
<g style="fill:#FFFFFF; fill-opacity:1.0000; stroke:none;">
<circle cx="109.8474" cy="11.6450" r="0.5000" /> 
</g>
<g style="fill:#FFFFFF; fill-opacity:1.0000; stroke:none;">
<circle cx="107.3074" cy="11.6450" r="0.5000" /> 
</g>
<g style="fill:#FFFFFF; fill-opacity:1.0000; stroke:none;">
<circle cx="9.8474" cy="4.0250" r="0.5000" /> 
</g>
<g style="fill:#FFFFFF; fill-opacity:1.0000; stroke:none;">
<circle cx="7.3074" cy="4.0250" r="0.5000" /> 
</g>
<g style="fill:#FFFFFF; fill-opacity:1.0000; stroke:none;">
<circle cx="9.8474" cy="6.5650" r="0.5000" /> 
</g>
<g style="fill:#FFFFFF; fill-opacity:1.0000; stroke:none;">
<circle cx="7.3074" cy="6.5650" r="0.5000" /> 
</g>
<g style="fill:#FFFFFF; fill-opacity:1.0000; stroke:none;">
<circle cx="9.8474" cy="9.1050" r="0.5000" /> 
</g>
<g style="fill:#FFFFFF; fill-opacity:1.0000; stroke:none;">
<circle cx="7.3074" cy="9.1050" r="0.5000" /> 
</g>
<g style="fill:#FFFFFF; fill-opacity:1.0000; stroke:none;">
<circle cx="9.8474" cy="11.6450" r="0.5000" /> 
</g>
<g style="fill:#FFFFFF; fill-opacity:1.0000; stroke:none;">
<circle cx="7.3074" cy="11.6450" r="0.5000" /> 
</g>
<g style="fill:#FFFFFF; fill-opacity:1.0000; stroke:none;">
<circle cx="145.3074" cy="3.0250" r="0.5000" /> 
</g>
<g style="fill:#FFFFFF; fill-opacity:1.0000; stroke:none;">
<circle cx="147.8474" cy="3.0250" r="0.5000" /> 
</g>
<g style="fill:#FFFFFF; fill-opacity:1.0000; stroke:none;">
<circle cx="150.3874" cy="3.0250" r="0.5000" /> 
</g>
<g style="fill:#FFFFFF; fill-opacity:1.0000; stroke:none;">
<circle cx="117.3074" cy="3.0250" r="0.5000" /> 
</g>
<g style="fill:#FFFFFF; fill-opacity:1.0000; stroke:none;">
<circle cx="119.8474" cy="3.0250" r="0.5000" /> 
</g>
<g style="fill:#FFFFFF; fill-opacity:1.0000; stroke:none;">
<circle cx="122.3874" cy="3.0250" r="0.5000" /> 
</g> 
</svg>
