  0
SECTION
  2
HEADER
  9
$ANGBASE
  50
0.0
  9
$ANGDIR
  70
1
  9
$MEASUREMENT
  70
0
  0
ENDSEC
  0
SECTION
  2
TABLES
  0
TABLE
  2
LTYPE
  70
4
  0
LTYPE
  5
40F
  2
CONTINUOUS
  70
0
  3
Solid line
  72
65
  73
0
  40
0.0
  0
LTYPE
  5
410
  2
DASHDOT
 70
0
  3
Dash Dot ____ _ ____ _
 72
65
 73
4
 40
2.0
 49
1.25
 49
-0.25
 49
0.25
 49
-0.25
  0
LTYPE
  5
411
  2
DASHED
 70
0
  3
Dashed __ __ __ __ __
 72
65
 73
2
 40
0.75
 49
0.5
 49
-0.25
  0
LTYPE
  5
43B
  2
DOTTED
 70
0
  3
Dotted .  .  .  .
 72
65
 73
2
 40
0.2
 49
0.0
 49
-0.2
  0
ENDTAB
  0
TABLE
  2
STYLE
  70
4
  0
STYLE
  2
KICAD
  70
0
  40
0
  41
1
  42
1
  50
0
  71
0
  3
isocp.shx
  0
STYLE
  2
KICADB
  70
0
  40
0
  41
1
  42
1
  50
0
  71
0
  3
isocp.shx
  0
STYLE
  2
KICADI
  70
0
  40
0
  41
1
  42
1
  50
15
  71
0
  3
isocp.shx
  0
STYLE
  2
KICADBI
  70
0
  40
0
  41
1
  42
1
  50
15
  71
0
  3
isocp.shx
  0
ENDTAB
  0
TABLE
  2
LAYER
  70
1
  0
LAYER
  2
BLACK
  70
0
  62
7
  6
CONTINUOUS
  0
ENDTAB
  0
ENDSEC
  0
SECTION
  2
ENTITIES
0
LINE
8
BLACK
6
CONTINUOUS
10
5.8859909055118109
20
-3.6614370078740155
11
5.8861600000000003
21
-3.6614370078740155
0
LINE
8
BLACK
6
CONTINUOUS
10
5.8861600000000003
20
-3.6614370078740155
11
5.889599645669291
21
-3.6614370078740155
0
LINE
8
BLACK
6
CONTINUOUS
10
5.889599645669291
20
-3.6614370078740155
11
5.8898999999999999
21
-3.6614173228346454
0
LINE
8
BLACK
6
CONTINUOUS
10
5.8898999999999999
20
-3.6614173228346454
11
5.9053755905511807
21
-3.6614173228346454
0
LINE
8
BLACK
6
CONTINUOUS
10
5.9053755905511807
20
-3.6614173228346454
11
5.9056759448818896
21
-3.6614370078740155
0
LINE
8
BLACK
6
CONTINUOUS
10
5.9056759448818896
20
-3.6614370078740155
11
5.905845039370079
21
-3.6614370078740155
0
LINE
8
BLACK
6
CONTINUOUS
10
5.905845039370079
20
-3.6614370078740155
11
5.9092846850393697
21
-3.6614370078740155
0
LINE
8
BLACK
6
CONTINUOUS
10
5.9092846850393697
20
-3.6614370078740155
11
5.9095850393700786
21
-3.6614173228346454
0
LINE
8
BLACK
6
CONTINUOUS
10
5.9095850393700786
20
-3.6614173228346454
11
5.9250606299212594
21
-3.6614173228346454
0
LINE
8
BLACK
6
CONTINUOUS
10
5.9250606299212594
20
-3.6614173228346454
11
5.9253609842519683
21
-3.6614370078740155
0
LINE
8
BLACK
6
CONTINUOUS
10
5.9253609842519683
20
-3.6614370078740155
11
5.9255300787401577
21
-3.6614370078740155
0
LINE
8
BLACK
6
CONTINUOUS
10
5.9255300787401577
20
-3.6614370078740155
11
5.9289697244094484
21
-3.6614370078740155
0
LINE
8
BLACK
6
CONTINUOUS
10
5.9289697244094484
20
-3.6614370078740155
11
5.9292700787401573
21
-3.6614173228346454
0
LINE
8
BLACK
6
CONTINUOUS
10
5.9292700787401573
20
-3.6614173228346454
11
5.9447456692913381
21
-3.6614173228346454
0
LINE
8
BLACK
6
CONTINUOUS
10
5.9447456692913381
20
-3.6614173228346454
11
5.945046023622047
21
-3.6614370078740155
0
LINE
8
BLACK
6
CONTINUOUS
10
5.945046023622047
20
-3.6614370078740155
11
5.9452151181102364
21
-3.6614370078740155
0
LINE
8
BLACK
6
CONTINUOUS
10
5.9452151181102364
20
-3.6614370078740155
11
5.9486547637795271
21
-3.6614370078740155
0
LINE
8
BLACK
6
CONTINUOUS
10
5.9486547637795271
20
-3.6614370078740155
11
5.948955118110236
21
-3.6614173228346454
0
LINE
8
BLACK
6
CONTINUOUS
10
5.948955118110236
20
-3.6614173228346454
11
5.9644307086614168
21
-3.6614173228346454
0
LINE
8
BLACK
6
CONTINUOUS
10
5.9644307086614168
20
-3.6614173228346454
11
5.9647310629921257
21
-3.6614370078740155
0
LINE
8
BLACK
6
CONTINUOUS
10
5.9647310629921257
20
-3.6614370078740155
11
5.9675393700787396
21
-3.6614370078740155
0
LINE
8
BLACK
6
CONTINUOUS
10
5.9675393700787396
20
-3.6614370078740155
11
5.9701787007874012
21
-3.6622120078740155
0
LINE
8
BLACK
6
CONTINUOUS
10
5.9701787007874012
20
-3.6622120078740155
11
5.9719800787401569
21
-3.6642909055118111
0
LINE
8
BLACK
6
CONTINUOUS
10
5.9719800787401569
20
-3.6642909055118111
11
5.9724212598425197
21
-3.6663188976377952
0
LINE
8
BLACK
6
CONTINUOUS
10
5.9724212598425197
20
-3.6663188976377952
11
5.9724212598425197
21
-3.6689581102362205
0
LINE
8
BLACK
6
CONTINUOUS
10
5.9724212598425197
20
-3.6689581102362205
11
5.9732066929133856
21
-3.6718893307086615
0
LINE
8
BLACK
6
CONTINUOUS
10
5.9732066929133856
20
-3.6718893307086615
11
5.9732677952755902
21
-3.6721173622047245
0
LINE
8
BLACK
6
CONTINUOUS
10
5.9732677952755902
20
-3.6721173622047245
11
5.9747729921259838
21
-3.6747244094488187
0
LINE
8
BLACK
6
CONTINUOUS
10
5.9747729921259838
20
-3.6747244094488187
11
5.9754215354330711
21
-3.6773976377952753
0
LINE
8
BLACK
6
CONTINUOUS
10
5.9754215354330711
20
-3.6773976377952753
11
5.9747729921259838
21
-3.6796062992125984
0
LINE
8
BLACK
6
CONTINUOUS
10
5.9747729921259838
20
-3.6796062992125984
11
5.9732677952755902
21
-3.6822133070866139
0
LINE
8
BLACK
6
CONTINUOUS
10
5.9732677952755902
20
-3.6822133070866139
11
5.9732677559055114
21
-3.6822134645669289
0
LINE
8
BLACK
6
CONTINUOUS
10
5.9732677559055114
20
-3.6822134645669289
11
5.9724212598425197
21
-3.6853725984251966
0
LINE
8
BLACK
6
CONTINUOUS
10
5.9724212598425197
20
-3.6853725984251966
11
5.9724212598425197
21
-3.6886431496062992
0
LINE
8
BLACK
6
CONTINUOUS
10
5.9724212598425197
20
-3.6886431496062992
11
5.9731983464566927
21
-3.6915433464566929
0
LINE
8
BLACK
6
CONTINUOUS
10
5.9731983464566927
20
-3.6915433464566929
11
5.9732677952755902
21
-3.691802440944882
0
LINE
8
BLACK
6
CONTINUOUS
10
5.9732677952755902
20
-3.691802440944882
11
5.9732678346456689
21
-3.6918024803149607
0
LINE
8
BLACK
6
CONTINUOUS
10
5.9732678346456689
20
-3.6918024803149607
11
5.9748297637795273
21
-3.694507716535433
0
LINE
8
BLACK
6
CONTINUOUS
10
5.9748297637795273
20
-3.694507716535433
11
5.9749030708661417
21
-3.6946346850393699
0
LINE
8
BLACK
6
CONTINUOUS
10
5.9749030708661417
20
-3.6946346850393699
11
5.9772157086614168
21
-3.6969473228346454
0
LINE
8
BLACK
6
CONTINUOUS
10
5.9772157086614168
20
-3.6969473228346454
11
5.9786318897637791
21
-3.6977649606299212
0
LINE
8
BLACK
6
CONTINUOUS
10
5.9786318897637791
20
-3.6977649606299212
11
5.9800478740157477
21
-3.6985825196850395
0
LINE
8
BLACK
6
CONTINUOUS
10
5.9800478740157477
20
-3.6985825196850395
11
5.9800479133858264
21
-3.6985825590551182
0
LINE
8
BLACK
6
CONTINUOUS
10
5.9800479133858264
20
-3.6985825590551182
11
5.9800479921259839
21
-3.6985825590551182
0
LINE
8
BLACK
6
CONTINUOUS
10
5.9800479921259839
20
-3.6985825590551182
11
5.9800481102362202
21
-3.6985826377952753
0
LINE
8
BLACK
6
CONTINUOUS
10
5.9800481102362202
20
-3.6985826377952753
11
5.9832072440944879
21
-3.6994291338582674
0
LINE
8
BLACK
6
CONTINUOUS
10
5.9832072440944879
20
-3.6994291338582674
11
5.9832073622047242
21
-3.6994291338582674
0
LINE
8
BLACK
6
CONTINUOUS
10
5.9832073622047242
20
-3.6994291338582674
11
5.9990551181102365
21
-3.6994291338582674
0
LINE
8
BLACK
6
CONTINUOUS
10
5.9990551181102365
20
-3.6994291338582674
11
6.0016944488188972
21
-3.7002041338582679
0
LINE
8
BLACK
6
CONTINUOUS
10
6.0016944488188972
20
-3.7002041338582679
11
6.0033938582677164
21
-3.7021653543307087
0
LINE
8
BLACK
6
CONTINUOUS
10
6.0033938582677164
20
-3.7021653543307087
11
6.0072834645669291
21
-3.7021653543307087
0
LINE
8
BLACK
6
CONTINUOUS
10
6.0072834645669291
20
-3.7021653543307087
11
6.0081667322834642
21
-3.7022523622047245
0
LINE
8
BLACK
6
CONTINUOUS
10
6.0081667322834642
20
-3.7022523622047245
11
6.0097988582677164
21
-3.7029283858267714
0
LINE
8
BLACK
6
CONTINUOUS
10
6.0097988582677164
20
-3.7029283858267714
11
6.0110479921259845
21
-3.7041775196850395
0
LINE
8
BLACK
6
CONTINUOUS
10
6.0110479921259845
20
-3.7041775196850395
11
6.0117240157480314
21
-3.7058096456692913
0
LINE
8
BLACK
6
CONTINUOUS
10
6.0117240157480314
20
-3.7058096456692913
11
6.0117240157480314
21
-3.707576181102362
0
LINE
8
BLACK
6
CONTINUOUS
10
6.0117240157480314
20
-3.707576181102362
11
6.0110479921259845
21
-3.7092083070866142
0
LINE
8
BLACK
6
CONTINUOUS
10
6.0110479921259845
20
-3.7092083070866142
11
6.0097988582677164
21
-3.7104574409448818
0
LINE
8
BLACK
6
CONTINUOUS
10
6.0097988582677164
20
-3.7104574409448818
11
6.0081667322834642
21
-3.7111334645669292
0
LINE
8
BLACK
6
CONTINUOUS
10
6.0081667322834642
20
-3.7111334645669292
11
6.0072834645669291
21
-3.711220472440945
0
LINE
8
BLACK
6
CONTINUOUS
10
6.0072834645669291
20
-3.711220472440945
11
6.0039370078740157
21
-3.711220472440945
0
LINE
8
BLACK
6
CONTINUOUS
10
6.0039370078740157
20
-3.711220472440945
11
6.0039370078740157
21
-3.7218503937007874
0
LINE
8
BLACK
6
CONTINUOUS
10
6.0039370078740157
20
-3.7218503937007874
11
6.0072834645669291
21
-3.7218503937007874
0
LINE
8
BLACK
6
CONTINUOUS
10
6.0072834645669291
20
-3.7218503937007874
11
6.0081667322834642
21
-3.7219374015748032
0
LINE
8
BLACK
6
CONTINUOUS
10
6.0081667322834642
20
-3.7219374015748032
11
6.0097988582677164
21
-3.7226134251968501
0
LINE
8
BLACK
6
CONTINUOUS
10
6.0097988582677164
20
-3.7226134251968501
11
6.0110479921259845
21
-3.7238625590551182
0
LINE
8
BLACK
6
CONTINUOUS
10
6.0110479921259845
20
-3.7238625590551182
11
6.0117240157480314
21
-3.72549468503937
0
LINE
8
BLACK
6
CONTINUOUS
10
6.0117240157480314
20
-3.72549468503937
11
6.0117240157480314
21
-3.7272612204724407
0
LINE
8
BLACK
6
CONTINUOUS
10
6.0117240157480314
20
-3.7272612204724407
11
6.0110479921259845
21
-3.7288933464566929
0
LINE
8
BLACK
6
CONTINUOUS
10
6.0110479921259845
20
-3.7288933464566929
11
6.0097988582677164
21
-3.7301424803149605
0
LINE
8
BLACK
6
CONTINUOUS
10
6.0097988582677164
20
-3.7301424803149605
11
6.0081667322834642
21
-3.7308185039370079
0
LINE
8
BLACK
6
CONTINUOUS
10
6.0081667322834642
20
-3.7308185039370079
11
6.0072834645669291
21
-3.7309055118110237
0
LINE
8
BLACK
6
CONTINUOUS
10
6.0072834645669291
20
-3.7309055118110237
11
6.0032491732283466
21
-3.7309055118110237
0
LINE
8
BLACK
6
CONTINUOUS
10
6.0032491732283466
20
-3.7309055118110237
11
6.0031620078740158
21
-3.7312023228346454
0
LINE
8
BLACK
6
CONTINUOUS
10
6.0031620078740158
20
-3.7312023228346454
11
6.0010831102362205
21
-3.7330037007874015
0
LINE
8
BLACK
6
CONTINUOUS
10
6.0010831102362205
20
-3.7330037007874015
11
5.9990551181102365
21
-3.7334448818897639
0
LINE
8
BLACK
6
CONTINUOUS
10
5.9990551181102365
20
-3.7334448818897639
11
5.9964716535433071
21
-3.7334448818897639
0
LINE
8
BLACK
6
CONTINUOUS
10
5.9964716535433071
20
-3.7334448818897639
11
5.9961449606299215
21
-3.7334997637795273
0
LINE
8
BLACK
6
CONTINUOUS
10
5.9961449606299215
20
-3.7334997637795273
11
5.9957016929133857
21
-3.7335742519685038
0
LINE
8
BLACK
6
CONTINUOUS
10
5.9957016929133857
20
-3.7335742519685038
11
5.9948927952755904
21
-3.7336417322834645
0
LINE
8
BLACK
6
CONTINUOUS
10
5.9948927952755904
20
-3.7336417322834645
11
5.9832072440944879
21
-3.7336417322834645
0
LINE
8
BLACK
6
CONTINUOUS
10
5.9832072440944879
20
-3.7336417322834645
11
5.9809865354330709
21
-3.7342367322834646
0
LINE
8
BLACK
6
CONTINUOUS
10
5.9809865354330709
20
-3.7342367322834646
11
5.9800479133858264
21
-3.7344882677165354
0
LINE
8
BLACK
6
CONTINUOUS
10
5.9800479133858264
20
-3.7344882677165354
11
5.9800478740157477
21
-3.7344883070866142
0
LINE
8
BLACK
6
CONTINUOUS
10
5.9800478740157477
20
-3.7344883070866142
11
5.9772159448818893
21
-3.7361233858267715
0
LINE
8
BLACK
6
CONTINUOUS
10
5.9772159448818893
20
-3.7361233858267715
11
5.9772155905511806
21
-3.736123622047244
0
LINE
8
BLACK
6
CONTINUOUS
10
5.9772155905511806
20
-3.736123622047244
11
5.9749031496062992
21
-3.7384360629921258
0
LINE
8
BLACK
6
CONTINUOUS
10
5.9749031496062992
20
-3.7384360629921258
11
5.9749029133858267
21
-3.7384364173228346
0
LINE
8
BLACK
6
CONTINUOUS
10
5.9749029133858267
20
-3.7384364173228346
11
5.9732678346456689
21
-3.7412683464566929
0
LINE
8
BLACK
6
CONTINUOUS
10
5.9732678346456689
20
-3.7412683464566929
11
5.9732677952755902
21
-3.7412683858267717
0
LINE
8
BLACK
6
CONTINUOUS
10
5.9732677952755902
20
-3.7412683858267717
11
5.9732677559055114
21
-3.7412685826771654
0
LINE
8
BLACK
6
CONTINUOUS
10
5.9732677559055114
20
-3.7412685826771654
11
5.9724212598425197
21
-3.7444277165354332
0
LINE
8
BLACK
6
CONTINUOUS
10
5.9724212598425197
20
-3.7444277165354332
11
5.9724212598425197
21
-3.7476982677165354
0
LINE
8
BLACK
6
CONTINUOUS
10
5.9724212598425197
20
-3.7476982677165354
11
5.9731983464566927
21
-3.750598464566929
0
LINE
8
BLACK
6
CONTINUOUS
10
5.9731983464566927
20
-3.750598464566929
11
5.9732677952755902
21
-3.7508575590551181
0
LINE
8
BLACK
6
CONTINUOUS
10
5.9732677952755902
20
-3.7508575590551181
11
5.9732678346456689
21
-3.7508575984251968
0
LINE
8
BLACK
6
CONTINUOUS
10
5.9732678346456689
20
-3.7508575984251968
11
5.9748297637795273
21
-3.7535628346456691
0
LINE
8
BLACK
6
CONTINUOUS
10
5.9748297637795273
20
-3.7535628346456691
11
5.9749030708661417
21
-3.7536898031496064
0
LINE
8
BLACK
6
CONTINUOUS
10
5.9749030708661417
20
-3.7536898031496064
11
5.9772157086614168
21
-3.756002440944882
0
LINE
8
BLACK
6
CONTINUOUS
10
5.9772157086614168
20
-3.756002440944882
11
5.9786318897637791
21
-3.7568200787401573
0
LINE
8
BLACK
6
CONTINUOUS
10
5.9786318897637791
20
-3.7568200787401573
11
5.9800478740157477
21
-3.7576376377952756
0
LINE
8
BLACK
6
CONTINUOUS
10
5.9800478740157477
20
-3.7576376377952756
11
5.9800479133858264
21
-3.7576376771653544
0
LINE
8
BLACK
6
CONTINUOUS
10
5.9800479133858264
20
-3.7576376771653544
11
5.9800479921259839
21
-3.7576376771653544
0
LINE
8
BLACK
6
CONTINUOUS
10
5.9800479921259839
20
-3.7576376771653544
11
5.9800481102362202
21
-3.7576377559055119
0
LINE
8
BLACK
6
CONTINUOUS
10
5.9800481102362202
20
-3.7576377559055119
11
5.9832072440944879
21
-3.758484251968504
0
LINE
8
BLACK
6
CONTINUOUS
10
5.9832072440944879
20
-3.758484251968504
11
5.9950012204724406
21
-3.758484251968504
0
LINE
8
BLACK
6
CONTINUOUS
10
5.9950012204724406
20
-3.758484251968504
11
5.995953622047244
21
-3.7585780314960631
0
LINE
8
BLACK
6
CONTINUOUS
10
5.995953622047244
20
-3.7585780314960631
11
5.9964716535433071
21
-3.7586811023622047
0
LINE
8
BLACK
6
CONTINUOUS
10
5.9964716535433071
20
-3.7586811023622047
11
5.9990551181102365
21
-3.7586811023622047
0
LINE
8
BLACK
6
CONTINUOUS
10
5.9990551181102365
20
-3.7586811023622047
11
6.0016944488188972
21
-3.7594561023622046
0
LINE
8
BLACK
6
CONTINUOUS
10
6.0016944488188972
20
-3.7594561023622046
11
6.0032232677165354
21
-3.7612204724409448
0
LINE
8
BLACK
6
CONTINUOUS
10
6.0032232677165354
20
-3.7612204724409448
11
6.0072834645669291
21
-3.7612204724409448
0
LINE
8
BLACK
6
CONTINUOUS
10
6.0072834645669291
20
-3.7612204724409448
11
6.0081667322834642
21
-3.7613074803149606
0
LINE
8
BLACK
6
CONTINUOUS
10
6.0081667322834642
20
-3.7613074803149606
11
6.0097988582677164
21
-3.761983503937008
0
LINE
8
BLACK
6
CONTINUOUS
10
6.0097988582677164
20
-3.761983503937008
11
6.0110479921259845
21
-3.7632326377952756
0
LINE
8
BLACK
6
CONTINUOUS
10
6.0110479921259845
20
-3.7632326377952756
11
6.0117240157480314
21
-3.7648647637795274
0
LINE
8
BLACK
6
CONTINUOUS
10
6.0117240157480314
20
-3.7648647637795274
11
6.0117240157480314
21
-3.7666312992125985
0
LINE
8
BLACK
6
CONTINUOUS
10
6.0117240157480314
20
-3.7666312992125985
11
6.0110479921259845
21
-3.7682634251968503
0
LINE
8
BLACK
6
CONTINUOUS
10
6.0110479921259845
20
-3.7682634251968503
11
6.0097988582677164
21
-3.769512559055118
0
LINE
8
BLACK
6
CONTINUOUS
10
6.0097988582677164
20
-3.769512559055118
11
6.0081667322834642
21
-3.7701885826771653
0
LINE
8
BLACK
6
CONTINUOUS
10
6.0081667322834642
20
-3.7701885826771653
11
6.0072834645669291
21
-3.7702755905511811
0
LINE
8
BLACK
6
CONTINUOUS
10
6.0072834645669291
20
-3.7702755905511811
11
6.0039370078740157
21
-3.7702755905511811
0
LINE
8
BLACK
6
CONTINUOUS
10
6.0039370078740157
20
-3.7702755905511811
11
6.0039370078740157
21
-3.7992125984251968
0
LINE
8
BLACK
6
CONTINUOUS
10
6.0039370078740157
20
-3.7992125984251968
11
6.0314960629921259
21
-3.8740157480314958
0
LINE
8
BLACK
6
CONTINUOUS
10
6.0314960629921259
20
-3.8740157480314958
11
6.4911811023622041
21
-3.8740157480314958
0
LINE
8
BLACK
6
CONTINUOUS
10
6.4911811023622041
20
-3.8740157480314958
11
6.4938204330708658
21
-3.8747907480314958
0
LINE
8
BLACK
6
CONTINUOUS
10
6.4938204330708658
20
-3.8747907480314958
11
6.4956218110236215
21
-3.876869645669291
0
LINE
8
BLACK
6
CONTINUOUS
10
6.4956218110236215
20
-3.876869645669291
11
6.4960629921259843
21
-3.8788976377952755
0
LINE
8
BLACK
6
CONTINUOUS
10
6.4960629921259843
20
-3.8788976377952755
11
6.4960629921259843
21
-4.0108661417322837
0
LINE
8
BLACK
6
CONTINUOUS
10
6.4960629921259843
20
-4.0108661417322837
11
6.4952879921259843
21
-4.0135054724409445
0
LINE
8
BLACK
6
CONTINUOUS
10
6.4952879921259843
20
-4.0135054724409445
11
6.4932090944881891
21
-4.0153068503937011
0
LINE
8
BLACK
6
CONTINUOUS
10
6.4932090944881891
20
-4.0153068503937011
11
6.4911811023622041
21
-4.015748031496063
0
LINE
8
BLACK
6
CONTINUOUS
10
6.4911811023622041
20
-4.015748031496063
11
5.3434645669291339
21
-4.015748031496063
0
LINE
8
BLACK
6
CONTINUOUS
10
5.3434645669291339
20
-4.015748031496063
11
5.3408252362204722
21
-4.014973031496063
0
LINE
8
BLACK
6
CONTINUOUS
10
5.3408252362204722
20
-4.014973031496063
11
5.3390238582677165
21
-4.0128941338582678
0
LINE
8
BLACK
6
CONTINUOUS
10
5.3390238582677165
20
-4.0128941338582678
11
5.3385826771653546
21
-4.0108661417322837
0
LINE
8
BLACK
6
CONTINUOUS
10
5.3385826771653546
20
-4.0108661417322837
11
5.3385826771653546
21
-3.8788976377952755
0
LINE
8
BLACK
6
CONTINUOUS
10
5.3385826771653546
20
-3.8788976377952755
11
5.3393576771653546
21
-3.8762583070866139
0
LINE
8
BLACK
6
CONTINUOUS
10
5.3393576771653546
20
-3.8762583070866139
11
5.3414365748031498
21
-3.8744569291338582
0
LINE
8
BLACK
6
CONTINUOUS
10
5.3414365748031498
20
-3.8744569291338582
11
5.3434645669291339
21
-3.8740157480314958
0
LINE
8
BLACK
6
CONTINUOUS
10
5.3434645669291339
20
-3.8740157480314958
11
5.8110235826771648
21
-3.8740157480314958
0
LINE
8
BLACK
6
CONTINUOUS
10
5.8110235826771648
20
-3.8740157480314958
11
5.8110236220472435
21
-3.8740157480314958
0
LINE
8
BLACK
6
CONTINUOUS
10
5.8110236220472435
20
-3.8740157480314958
11
5.8366141732283463
21
-3.7992125984251968
0
LINE
8
BLACK
6
CONTINUOUS
10
5.8366141732283463
20
-3.7992125984251968
11
5.8366141732283463
21
-3.7702755905511811
0
LINE
8
BLACK
6
CONTINUOUS
10
5.8366141732283463
20
-3.7702755905511811
11
5.8273622047244089
21
-3.7702755905511811
0
LINE
8
BLACK
6
CONTINUOUS
10
5.8273622047244089
20
-3.7702755905511811
11
5.8264789370078738
21
-3.7701885826771653
0
LINE
8
BLACK
6
CONTINUOUS
10
5.8264789370078738
20
-3.7701885826771653
11
5.8248468110236216
21
-3.769512559055118
0
LINE
8
BLACK
6
CONTINUOUS
10
5.8248468110236216
20
-3.769512559055118
11
5.8235976771653544
21
-3.7682634251968503
0
LINE
8
BLACK
6
CONTINUOUS
10
5.8235976771653544
20
-3.7682634251968503
11
5.8229216535433066
21
-3.7666312992125985
0
LINE
8
BLACK
6
CONTINUOUS
10
5.8229216535433066
20
-3.7666312992125985
11
5.8229216535433066
21
-3.7648647637795274
0
LINE
8
BLACK
6
CONTINUOUS
10
5.8229216535433066
20
-3.7648647637795274
11
5.8235976771653544
21
-3.7632326377952756
0
LINE
8
BLACK
6
CONTINUOUS
10
5.8235976771653544
20
-3.7632326377952756
11
5.8248468110236216
21
-3.761983503937008
0
LINE
8
BLACK
6
CONTINUOUS
10
5.8248468110236216
20
-3.761983503937008
11
5.8264789370078738
21
-3.7613074803149606
0
LINE
8
BLACK
6
CONTINUOUS
10
5.8264789370078738
20
-3.7613074803149606
11
5.8273622047244089
21
-3.7612204724409448
0
LINE
8
BLACK
6
CONTINUOUS
10
5.8273622047244089
20
-3.7612204724409448
11
5.8372442125984252
21
-3.7612204724409448
0
LINE
8
BLACK
6
CONTINUOUS
10
5.8372442125984252
20
-3.7612204724409448
11
5.8373891732283463
21
-3.7607268110236221
0
LINE
8
BLACK
6
CONTINUOUS
10
5.8373891732283463
20
-3.7607268110236221
11
5.8394680708661415
21
-3.7589254330708659
0
LINE
8
BLACK
6
CONTINUOUS
10
5.8394680708661415
20
-3.7589254330708659
11
5.8414960629921255
21
-3.758484251968504
0
LINE
8
BLACK
6
CONTINUOUS
10
5.8414960629921255
20
-3.758484251968504
11
5.8514383070866138
21
-3.758484251968504
0
LINE
8
BLACK
6
CONTINUOUS
10
5.8514383070866138
20
-3.758484251968504
11
5.8514384251968501
21
-3.758484251968504
0
LINE
8
BLACK
6
CONTINUOUS
10
5.8514384251968501
20
-3.758484251968504
11
5.8545975590551178
21
-3.7576377559055119
0
LINE
8
BLACK
6
CONTINUOUS
10
5.8545975590551178
20
-3.7576377559055119
11
5.8545976377952753
21
-3.7576376771653544
0
LINE
8
BLACK
6
CONTINUOUS
10
5.8545976377952753
20
-3.7576376771653544
11
5.8545977165354328
21
-3.7576376771653544
0
LINE
8
BLACK
6
CONTINUOUS
10
5.8545977165354328
20
-3.7576376771653544
11
5.8545977559055116
21
-3.7576376377952756
0
LINE
8
BLACK
6
CONTINUOUS
10
5.8545977559055116
20
-3.7576376377952756
11
5.8574299606299212
21
-3.756002440944882
0
LINE
8
BLACK
6
CONTINUOUS
10
5.8574299606299212
20
-3.756002440944882
11
5.8597425984251963
21
-3.7536898031496064
0
LINE
8
BLACK
6
CONTINUOUS
10
5.8597425984251963
20
-3.7536898031496064
11
5.8613779133858266
21
-3.7508574015748031
0
LINE
8
BLACK
6
CONTINUOUS
10
5.8613779133858266
20
-3.7508574015748031
11
5.8622244094488192
21
-3.7476982677165354
0
LINE
8
BLACK
6
CONTINUOUS
10
5.8622244094488192
20
-3.7476982677165354
11
5.8622244094488192
21
-3.7444277165354332
0
LINE
8
BLACK
6
CONTINUOUS
10
5.8622244094488192
20
-3.7444277165354332
11
5.8613779133858266
21
-3.7412685826771654
0
LINE
8
BLACK
6
CONTINUOUS
10
5.8613779133858266
20
-3.7412685826771654
11
5.8613778346456691
21
-3.7412684645669292
0
LINE
8
BLACK
6
CONTINUOUS
10
5.8613778346456691
20
-3.7412684645669292
11
5.8613778346456691
21
-3.7412683858267717
0
LINE
8
BLACK
6
CONTINUOUS
10
5.8613778346456691
20
-3.7412683858267717
11
5.8613777952755903
21
-3.7412683464566929
0
LINE
8
BLACK
6
CONTINUOUS
10
5.8613777952755903
20
-3.7412683464566929
11
5.8597427165354325
21
-3.7384364173228346
0
LINE
8
BLACK
6
CONTINUOUS
10
5.8597427165354325
20
-3.7384364173228346
11
5.8597425984251963
21
-3.7384361811023621
0
LINE
8
BLACK
6
CONTINUOUS
10
5.8597425984251963
20
-3.7384361811023621
11
5.8574299606299212
21
-3.7361235433070865
0
LINE
8
BLACK
6
CONTINUOUS
10
5.8574299606299212
20
-3.7361235433070865
11
5.8573029921259838
21
-3.7360502362204722
0
LINE
8
BLACK
6
CONTINUOUS
10
5.8573029921259838
20
-3.7360502362204722
11
5.8545977559055116
21
-3.7344883070866142
0
LINE
8
BLACK
6
CONTINUOUS
10
5.8545977559055116
20
-3.7344883070866142
11
5.8545977165354328
21
-3.7344882677165354
0
LINE
8
BLACK
6
CONTINUOUS
10
5.8545977165354328
20
-3.7344882677165354
11
5.8543386220472442
21
-3.7344188188976375
0
LINE
8
BLACK
6
CONTINUOUS
10
5.8543386220472442
20
-3.7344188188976375
11
5.8514384251968501
21
-3.7336417322834645
0
LINE
8
BLACK
6
CONTINUOUS
10
5.8514384251968501
20
-3.7336417322834645
11
5.8514383070866138
21
-3.7336417322834645
0
LINE
8
BLACK
6
CONTINUOUS
10
5.8514383070866138
20
-3.7336417322834645
11
5.8414960629921255
21
-3.7336417322834645
0
LINE
8
BLACK
6
CONTINUOUS
10
5.8414960629921255
20
-3.7336417322834645
11
5.8388567322834648
21
-3.7328667322834646
0
LINE
8
BLACK
6
CONTINUOUS
10
5.8388567322834648
20
-3.7328667322834646
11
5.8371573228346456
21
-3.7309055118110237
0
LINE
8
BLACK
6
CONTINUOUS
10
5.8371573228346456
20
-3.7309055118110237
11
5.8273622047244089
21
-3.7309055118110237
0
LINE
8
BLACK
6
CONTINUOUS
10
5.8273622047244089
20
-3.7309055118110237
11
5.8264789370078738
21
-3.7308185039370079
0
LINE
8
BLACK
6
CONTINUOUS
10
5.8264789370078738
20
-3.7308185039370079
11
5.8248468110236216
21
-3.7301424803149605
0
LINE
8
BLACK
6
CONTINUOUS
10
5.8248468110236216
20
-3.7301424803149605
11
5.8235976771653544
21
-3.7288933464566929
0
LINE
8
BLACK
6
CONTINUOUS
10
5.8235976771653544
20
-3.7288933464566929
11
5.8229216535433066
21
-3.7272612204724407
0
LINE
8
BLACK
6
CONTINUOUS
10
5.8229216535433066
20
-3.7272612204724407
11
5.8229216535433066
21
-3.72549468503937
0
LINE
8
BLACK
6
CONTINUOUS
10
5.8229216535433066
20
-3.72549468503937
11
5.8235976771653544
21
-3.7238625590551182
0
LINE
8
BLACK
6
CONTINUOUS
10
5.8235976771653544
20
-3.7238625590551182
11
5.8248468110236216
21
-3.7226134251968501
0
LINE
8
BLACK
6
CONTINUOUS
10
5.8248468110236216
20
-3.7226134251968501
11
5.8264789370078738
21
-3.7219374015748032
0
LINE
8
BLACK
6
CONTINUOUS
10
5.8264789370078738
20
-3.7219374015748032
11
5.8273622047244089
21
-3.7218503937007874
0
LINE
8
BLACK
6
CONTINUOUS
10
5.8273622047244089
20
-3.7218503937007874
11
5.8366141732283463
21
-3.7218503937007874
0
LINE
8
BLACK
6
CONTINUOUS
10
5.8366141732283463
20
-3.7218503937007874
11
5.8366141732283463
21
-3.711220472440945
0
LINE
8
BLACK
6
CONTINUOUS
10
5.8366141732283463
20
-3.711220472440945
11
5.8273622047244089
21
-3.711220472440945
0
LINE
8
BLACK
6
CONTINUOUS
10
5.8273622047244089
20
-3.711220472440945
11
5.8264789370078738
21
-3.7111334645669292
0
LINE
8
BLACK
6
CONTINUOUS
10
5.8264789370078738
20
-3.7111334645669292
11
5.8248468110236216
21
-3.7104574409448818
0
LINE
8
BLACK
6
CONTINUOUS
10
5.8248468110236216
20
-3.7104574409448818
11
5.8235976771653544
21
-3.7092083070866142
0
LINE
8
BLACK
6
CONTINUOUS
10
5.8235976771653544
20
-3.7092083070866142
11
5.8229216535433066
21
-3.707576181102362
0
LINE
8
BLACK
6
CONTINUOUS
10
5.8229216535433066
20
-3.707576181102362
11
5.8229216535433066
21
-3.7058096456692913
0
LINE
8
BLACK
6
CONTINUOUS
10
5.8229216535433066
20
-3.7058096456692913
11
5.8235976771653544
21
-3.7041775196850395
0
LINE
8
BLACK
6
CONTINUOUS
10
5.8235976771653544
20
-3.7041775196850395
11
5.8248468110236216
21
-3.7029283858267714
0
LINE
8
BLACK
6
CONTINUOUS
10
5.8248468110236216
20
-3.7029283858267714
11
5.8264789370078738
21
-3.7022523622047245
0
LINE
8
BLACK
6
CONTINUOUS
10
5.8264789370078738
20
-3.7022523622047245
11
5.8273622047244089
21
-3.7021653543307087
0
LINE
8
BLACK
6
CONTINUOUS
10
5.8273622047244089
20
-3.7021653543307087
11
5.8372442125984252
21
-3.7021653543307087
0
LINE
8
BLACK
6
CONTINUOUS
10
5.8372442125984252
20
-3.7021653543307087
11
5.8373891732283463
21
-3.7016716929133859
0
LINE
8
BLACK
6
CONTINUOUS
10
5.8373891732283463
20
-3.7016716929133859
11
5.8394680708661415
21
-3.6998703149606298
0
LINE
8
BLACK
6
CONTINUOUS
10
5.8394680708661415
20
-3.6998703149606298
11
5.8414960629921255
21
-3.6994291338582674
0
LINE
8
BLACK
6
CONTINUOUS
10
5.8414960629921255
20
-3.6994291338582674
11
5.8514383070866138
21
-3.6994291338582674
0
LINE
8
BLACK
6
CONTINUOUS
10
5.8514383070866138
20
-3.6994291338582674
11
5.8514384251968501
21
-3.6994291338582674
0
LINE
8
BLACK
6
CONTINUOUS
10
5.8514384251968501
20
-3.6994291338582674
11
5.8545975590551178
21
-3.6985826377952753
0
LINE
8
BLACK
6
CONTINUOUS
10
5.8545975590551178
20
-3.6985826377952753
11
5.8545976377952753
21
-3.6985825590551182
0
LINE
8
BLACK
6
CONTINUOUS
10
5.8545976377952753
20
-3.6985825590551182
11
5.8545977165354328
21
-3.6985825590551182
0
LINE
8
BLACK
6
CONTINUOUS
10
5.8545977165354328
20
-3.6985825590551182
11
5.8545977559055116
21
-3.6985825196850395
0
LINE
8
BLACK
6
CONTINUOUS
10
5.8545977559055116
20
-3.6985825196850395
11
5.8574299606299212
21
-3.6969473228346454
0
LINE
8
BLACK
6
CONTINUOUS
10
5.8574299606299212
20
-3.6969473228346454
11
5.8597425984251963
21
-3.6946346850393699
0
LINE
8
BLACK
6
CONTINUOUS
10
5.8597425984251963
20
-3.6946346850393699
11
5.8613779133858266
21
-3.691802283464567
0
LINE
8
BLACK
6
CONTINUOUS
10
5.8613779133858266
20
-3.691802283464567
11
5.8622244094488192
21
-3.6886431496062992
0
LINE
8
BLACK
6
CONTINUOUS
10
5.8622244094488192
20
-3.6886431496062992
11
5.8622244094488192
21
-3.6853725984251966
0
LINE
8
BLACK
6
CONTINUOUS
10
5.8622244094488192
20
-3.6853725984251966
11
5.8613779133858266
21
-3.6822134645669289
0
LINE
8
BLACK
6
CONTINUOUS
10
5.8613779133858266
20
-3.6822134645669289
11
5.8613778346456691
21
-3.6822133070866139
0
LINE
8
BLACK
6
CONTINUOUS
10
5.8613778346456691
20
-3.6822133070866139
11
5.8613778346456691
21
-3.6822132677165356
0
LINE
8
BLACK
6
CONTINUOUS
10
5.8613778346456691
20
-3.6822132677165356
11
5.8613777952755903
21
-3.6822132283464568
0
LINE
8
BLACK
6
CONTINUOUS
10
5.8613777952755903
20
-3.6822132283464568
11
5.8598726771653542
21
-3.6796063385826772
0
LINE
8
BLACK
6
CONTINUOUS
10
5.8598726771653542
20
-3.6796063385826772
11
5.859224094488189
21
-3.6769331496062989
0
LINE
8
BLACK
6
CONTINUOUS
10
5.859224094488189
20
-3.6769331496062989
11
5.8598726771653542
21
-3.67472437007874
0
LINE
8
BLACK
6
CONTINUOUS
10
5.8598726771653542
20
-3.67472437007874
11
5.8613777952755903
21
-3.672117440944882
0
LINE
8
BLACK
6
CONTINUOUS
10
5.8613777952755903
20
-3.672117440944882
11
5.8613778346456691
21
-3.6721174015748033
0
LINE
8
BLACK
6
CONTINUOUS
10
5.8613778346456691
20
-3.6721174015748033
11
5.8613778346456691
21
-3.6721173228346458
0
LINE
8
BLACK
6
CONTINUOUS
10
5.8613778346456691
20
-3.6721173228346458
11
5.8613779133858266
21
-3.6721172440944883
0
LINE
8
BLACK
6
CONTINUOUS
10
5.8613779133858266
20
-3.6721172440944883
11
5.8622244094488192
21
-3.6689581102362205
0
LINE
8
BLACK
6
CONTINUOUS
10
5.8622244094488192
20
-3.6689581102362205
11
5.8622244094488192
21
-3.6663188976377952
0
LINE
8
BLACK
6
CONTINUOUS
10
5.8622244094488192
20
-3.6663188976377952
11
5.8629994094488191
21
-3.663679566929134
0
LINE
8
BLACK
6
CONTINUOUS
10
5.8629994094488191
20
-3.663679566929134
11
5.8650783070866144
21
-3.6618781889763778
0
LINE
8
BLACK
6
CONTINUOUS
10
5.8650783070866144
20
-3.6618781889763778
11
5.8671062992125984
21
-3.6614370078740155
0
LINE
8
BLACK
6
CONTINUOUS
10
5.8671062992125984
20
-3.6614370078740155
11
5.8699146062992122
21
-3.6614370078740155
0
LINE
8
BLACK
6
CONTINUOUS
10
5.8699146062992122
20
-3.6614370078740155
11
5.8702149606299212
21
-3.6614173228346454
0
LINE
8
BLACK
6
CONTINUOUS
10
5.8702149606299212
20
-3.6614173228346454
11
5.885690551181102
21
-3.6614173228346454
0
LINE
8
BLACK
6
CONTINUOUS
10
5.885690551181102
20
-3.6614173228346454
11
5.8859909055118109
21
-3.6614370078740155
0
LINE
8
BLACK
6
CONTINUOUS
10
5.7916311811023622
20
-3.7288883464566926
11
5.7918228346456688
21
-3.7289396850393701
0
LINE
8
BLACK
6
CONTINUOUS
10
5.7918228346456688
20
-3.7289396850393701
11
5.793988228346457
21
-3.7290958267716534
0
LINE
8
BLACK
6
CONTINUOUS
10
5.793988228346457
20
-3.7290958267716534
11
5.7940587401574799
21
-3.7291064960629918
0
LINE
8
BLACK
6
CONTINUOUS
10
5.7940587401574799
20
-3.7291064960629918
11
5.7981687795275585
21
-3.7300628346456692
0
LINE
8
BLACK
6
CONTINUOUS
10
5.7981687795275585
20
-3.7300628346456692
11
5.7982360236220467
21
-3.730084094488189
0
LINE
8
BLACK
6
CONTINUOUS
10
5.7982360236220467
20
-3.730084094488189
11
5.80172874015748
21
-3.731492874015748
0
LINE
8
BLACK
6
CONTINUOUS
10
5.80172874015748
20
-3.731492874015748
11
5.8017818503937004
21
-3.7315183858267718
0
LINE
8
BLACK
6
CONTINUOUS
10
5.8017818503937004
20
-3.7315183858267718
11
5.8048301968503937
21
-3.7332348425196851
0
LINE
8
BLACK
6
CONTINUOUS
10
5.8048301968503937
20
-3.7332348425196851
11
5.8048627559055115
21
-3.7332550393700785
0
LINE
8
BLACK
6
CONTINUOUS
10
5.8048627559055115
20
-3.7332550393700785
11
5.8076338188976377
21
-3.7351349212598426
0
LINE
8
BLACK
6
CONTINUOUS
10
5.8076338188976377
20
-3.7351349212598426
11
5.8076426377952757
21
-3.7351410629921258
0
LINE
8
BLACK
6
CONTINUOUS
10
5.8076426377952757
20
-3.7351410629921258
11
5.8102936614173224
21
-3.7370312598425195
0
LINE
8
BLACK
6
CONTINUOUS
10
5.8102936614173224
20
-3.7370312598425195
11
5.8129777165354328
21
-3.7387713779527556
0
LINE
8
BLACK
6
CONTINUOUS
10
5.8129777165354328
20
-3.7387713779527556
11
5.8129778346456691
21
-3.7387714173228344
0
LINE
8
BLACK
6
CONTINUOUS
10
5.8129778346456691
20
-3.7387714173228344
11
5.8129781102362204
21
-3.7387716141732281
0
LINE
8
BLACK
6
CONTINUOUS
10
5.8129781102362204
20
-3.7387716141732281
11
5.8158538582677162
21
-3.7402047244094487
0
LINE
8
BLACK
6
CONTINUOUS
10
5.8158538582677162
20
-3.7402047244094487
11
5.8190848425196853
21
-3.7411771653543306
0
LINE
8
BLACK
6
CONTINUOUS
10
5.8190848425196853
20
-3.7411771653543306
11
5.8228346456692908
21
-3.7415354330708661
0
LINE
8
BLACK
6
CONTINUOUS
10
5.8228346456692908
20
-3.7415354330708661
11
5.8273622047244089
21
-3.7415354330708661
0
LINE
8
BLACK
6
CONTINUOUS
10
5.8273622047244089
20
-3.7415354330708661
11
5.8498031496062994
21
-3.7415354330708661
0
LINE
8
BLACK
6
CONTINUOUS
10
5.8498031496062994
20
-3.7415354330708661
11
5.8506864173228346
21
-3.7416224409448819
0
LINE
8
BLACK
6
CONTINUOUS
10
5.8506864173228346
20
-3.7416224409448819
11
5.8523185433070868
21
-3.7422984645669288
0
LINE
8
BLACK
6
CONTINUOUS
10
5.8523185433070868
20
-3.7422984645669288
11
5.853567677165354
21
-3.7435475984251969
0
LINE
8
BLACK
6
CONTINUOUS
10
5.853567677165354
20
-3.7435475984251969
11
5.8542437007874017
21
-3.7451797244094487
0
LINE
8
BLACK
6
CONTINUOUS
10
5.8542437007874017
20
-3.7451797244094487
11
5.8542437007874017
21
-3.7469462598425194
0
LINE
8
BLACK
6
CONTINUOUS
10
5.8542437007874017
20
-3.7469462598425194
11
5.853567677165354
21
-3.7485783858267716
0
LINE
8
BLACK
6
CONTINUOUS
10
5.853567677165354
20
-3.7485783858267716
11
5.8523185433070868
21
-3.7498275196850392
0
LINE
8
BLACK
6
CONTINUOUS
10
5.8523185433070868
20
-3.7498275196850392
11
5.8506864173228346
21
-3.7505035433070866
0
LINE
8
BLACK
6
CONTINUOUS
10
5.8506864173228346
20
-3.7505035433070866
11
5.8498031496062994
21
-3.7505905511811024
0
LINE
8
BLACK
6
CONTINUOUS
10
5.8498031496062994
20
-3.7505905511811024
11
5.8381740157480317
21
-3.7505905511811024
0
LINE
8
BLACK
6
CONTINUOUS
10
5.8381740157480317
20
-3.7505905511811024
11
5.8228346456692908
21
-3.7505905511811024
0
LINE
8
BLACK
6
CONTINUOUS
10
5.8228346456692908
20
-3.7505905511811024
11
5.8190848425196853
21
-3.7509488188976379
0
LINE
8
BLACK
6
CONTINUOUS
10
5.8190848425196853
20
-3.7509488188976379
11
5.8158538582677162
21
-3.7519212598425198
0
LINE
8
BLACK
6
CONTINUOUS
10
5.8158538582677162
20
-3.7519212598425198
11
5.8158537401574799
21
-3.7519212992125985
0
LINE
8
BLACK
6
CONTINUOUS
10
5.8158537401574799
20
-3.7519212992125985
11
5.8158536614173224
21
-3.7519213385826773
0
LINE
8
BLACK
6
CONTINUOUS
10
5.8158536614173224
20
-3.7519213385826773
11
5.8129778346456691
21
-3.7533544488188975
0
LINE
8
BLACK
6
CONTINUOUS
10
5.8129778346456691
20
-3.7533544488188975
11
5.8102936614173224
21
-3.7550946850393698
0
LINE
8
BLACK
6
CONTINUOUS
10
5.8102936614173224
20
-3.7550946850393698
11
5.8076426377952757
21
-3.7569848818897635
0
LINE
8
BLACK
6
CONTINUOUS
10
5.8076426377952757
20
-3.7569848818897635
11
5.8076338188976377
21
-3.7569910236220472
0
LINE
8
BLACK
6
CONTINUOUS
10
5.8076338188976377
20
-3.7569910236220472
11
5.8048625590551177
21
-3.7588710236220471
0
LINE
8
BLACK
6
CONTINUOUS
10
5.8048625590551177
20
-3.7588710236220471
11
5.8048299999999999
21
-3.758891220472441
0
LINE
8
BLACK
6
CONTINUOUS
10
5.8048299999999999
20
-3.758891220472441
11
5.801782401574803
21
-3.760607244094488
0
LINE
8
BLACK
6
CONTINUOUS
10
5.801782401574803
20
-3.760607244094488
11
5.8017287007874012
21
-3.7606330708661417
0
LINE
8
BLACK
6
CONTINUOUS
10
5.8017287007874012
20
-3.7606330708661417
11
5.7982362598425192
21
-3.7620417322834645
0
LINE
8
BLACK
6
CONTINUOUS
10
5.7982362598425192
20
-3.7620417322834645
11
5.7981683464566931
21
-3.762063188976378
0
LINE
8
BLACK
6
CONTINUOUS
10
5.7981683464566931
20
-3.762063188976378
11
5.7940591338582674
21
-3.76301937007874
0
LINE
8
BLACK
6
CONTINUOUS
10
5.7940591338582674
20
-3.76301937007874
11
5.7939878346456695
21
-3.7630301574803147
0
LINE
8
BLACK
6
CONTINUOUS
10
5.7939878346456695
20
-3.7630301574803147
11
5.7918229921259838
21
-3.7631862204724409
0
LINE
8
BLACK
6
CONTINUOUS
10
5.7918229921259838
20
-3.7631862204724409
11
5.7916311811023622
21
-3.7632376377952754
0
LINE
8
BLACK
6
CONTINUOUS
10
5.7916311811023622
20
-3.7632376377952754
11
5.7893700787401574
21
-3.7633858267716533
0
LINE
8
BLACK
6
CONTINUOUS
10
5.7893700787401574
20
-3.7633858267716533
11
5.4271653543307083
21
-3.7633858267716533
0
LINE
8
BLACK
6
CONTINUOUS
10
5.4271653543307083
20
-3.7633858267716533
11
5.4268714960629918
21
-3.7633665354330708
0
LINE
8
BLACK
6
CONTINUOUS
10
5.4268714960629918
20
-3.7633665354330708
11
5.4181166141732282
21
-3.763121653543307
0
LINE
8
BLACK
6
CONTINUOUS
10
5.4181166141732282
20
-3.763121653543307
11
5.4180890551181102
21
-3.7631200787401573
0
LINE
8
BLACK
6
CONTINUOUS
10
5.4180890551181102
20
-3.7631200787401573
11
5.4099655118110235
21
-3.7624042913385827
0
LINE
8
BLACK
6
CONTINUOUS
10
5.4099655118110235
20
-3.7624042913385827
11
5.4099381102362205
21
-3.7624010236220471
0
LINE
8
BLACK
6
CONTINUOUS
10
5.4099381102362205
20
-3.7624010236220471
11
5.4028577952755903
21
-3.7613466929133859
0
LINE
8
BLACK
6
CONTINUOUS
10
5.4028577952755903
20
-3.7613466929133859
11
5.4028339370078742
21
-3.7613425196850394
0
LINE
8
BLACK
6
CONTINUOUS
10
5.4028339370078742
20
-3.7613425196850394
11
5.3965272834645672
21
-3.7600614566929131
0
LINE
8
BLACK
6
CONTINUOUS
10
5.3965272834645672
20
-3.7600614566929131
11
5.3965111417322831
21
-3.760057874015748
0
LINE
8
BLACK
6
CONTINUOUS
10
5.3965111417322831
20
-3.760057874015748
11
5.3907134645669288
21
-3.7586620078740158
0
LINE
8
BLACK
6
CONTINUOUS
10
5.3907134645669288
20
-3.7586620078740158
11
5.3907088188976378
21
-3.758660866141732
0
LINE
8
BLACK
6
CONTINUOUS
10
5.3907088188976378
20
-3.758660866141732
11
5.3851578346456694
21
-3.7572630314960631
0
LINE
8
BLACK
6
CONTINUOUS
10
5.3851578346456694
20
-3.7572630314960631
11
5.3795961417322831
21
-3.7559778740157479
0
LINE
8
BLACK
6
CONTINUOUS
10
5.3795961417322831
20
-3.7559778740157479
11
5.3737640551181105
21
-3.754919645669291
0
LINE
8
BLACK
6
CONTINUOUS
10
5.3737640551181105
20
-3.754919645669291
11
5.3673983858267711
21
-3.7542015354330709
0
LINE
8
BLACK
6
CONTINUOUS
10
5.3673983858267711
20
-3.7542015354330709
11
5.3602362598425195
21
-3.7539370078740157
0
LINE
8
BLACK
6
CONTINUOUS
10
5.3602362598425195
20
-3.7539370078740157
11
5.3602362204724407
21
-3.7539370078740157
0
LINE
8
BLACK
6
CONTINUOUS
10
5.3602362204724407
20
-3.7539370078740157
11
5.3409598425196849
21
-3.7539370078740157
0
LINE
8
BLACK
6
CONTINUOUS
10
5.3409598425196849
20
-3.7539370078740157
11
5.3208661417322833
21
-3.7539370078740157
0
LINE
8
BLACK
6
CONTINUOUS
10
5.3208661417322833
20
-3.7539370078740157
11
5.3208661417322833
21
-3.7381889763779528
0
LINE
8
BLACK
6
CONTINUOUS
10
5.3208661417322833
20
-3.7381889763779528
11
5.3602362204724407
21
-3.7381889763779528
0
LINE
8
BLACK
6
CONTINUOUS
10
5.3602362204724407
20
-3.7381889763779528
11
5.3602362598425195
21
-3.7381889763779528
0
LINE
8
BLACK
6
CONTINUOUS
10
5.3602362598425195
20
-3.7381889763779528
11
5.3673983858267711
21
-3.7379244094488189
0
LINE
8
BLACK
6
CONTINUOUS
10
5.3673983858267711
20
-3.7379244094488189
11
5.3737640944881893
21
-3.7372062992125983
0
LINE
8
BLACK
6
CONTINUOUS
10
5.3737640944881893
20
-3.7372062992125983
11
5.3795962204724406
21
-3.7361480314960631
0
LINE
8
BLACK
6
CONTINUOUS
10
5.3795962204724406
20
-3.7361480314960631
11
5.3851575196850394
21
-3.7348629921259842
0
LINE
8
BLACK
6
CONTINUOUS
10
5.3851575196850394
20
-3.7348629921259842
11
5.3907109448818895
21
-3.733464566929134
0
LINE
8
BLACK
6
CONTINUOUS
10
5.3907109448818895
20
-3.733464566929134
11
5.3965123622047244
21
-3.7320677559055118
0
LINE
8
BLACK
6
CONTINUOUS
10
5.3965123622047244
20
-3.7320677559055118
11
5.3965261023622046
21
-3.7320647244094487
0
LINE
8
BLACK
6
CONTINUOUS
10
5.3965261023622046
20
-3.7320647244094487
11
5.4028340944881892
21
-3.7307833464566929
0
LINE
8
BLACK
6
CONTINUOUS
10
5.4028340944881892
20
-3.7307833464566929
11
5.4028576377952753
21
-3.7307792125984252
0
LINE
8
BLACK
6
CONTINUOUS
10
5.4028576377952753
20
-3.7307792125984252
11
5.4099383070866143
21
-3.7297248818897635
0
LINE
8
BLACK
6
CONTINUOUS
10
5.4099383070866143
20
-3.7297248818897635
11
5.4099653149606297
21
-3.7297216535433071
0
LINE
8
BLACK
6
CONTINUOUS
10
5.4099653149606297
20
-3.7297216535433071
11
5.4180902362204719
21
-3.7290057874015745
0
LINE
8
BLACK
6
CONTINUOUS
10
5.4180902362204719
20
-3.7290057874015745
11
5.4181153543307081
21
-3.7290043307086616
0
LINE
8
BLACK
6
CONTINUOUS
10
5.4181153543307081
20
-3.7290043307086616
11
5.4268725196850394
21
-3.7287593307086615
0
LINE
8
BLACK
6
CONTINUOUS
10
5.4268725196850394
20
-3.7287593307086615
11
5.4271653543307083
21
-3.7287401574803147
0
LINE
8
BLACK
6
CONTINUOUS
10
5.4271653543307083
20
-3.7287401574803147
11
5.7893700787401574
21
-3.7287401574803147
0
LINE
8
BLACK
6
CONTINUOUS
10
5.7893700787401574
20
-3.7287401574803147
11
5.7916311811023622
21
-3.7288883464566926
0
LINE
8
BLACK
6
CONTINUOUS
10
6.4057901968503934
20
-3.7287583858267714
11
6.4148340157480312
21
-3.7290043700787399
0
LINE
8
BLACK
6
CONTINUOUS
10
6.4148340157480312
20
-3.7290043700787399
11
6.4148608267716538
21
-3.7290059055118108
0
LINE
8
BLACK
6
CONTINUOUS
10
6.4148608267716538
20
-3.7290059055118108
11
6.4232206299212598
21
-3.7297216929133858
0
LINE
8
BLACK
6
CONTINUOUS
10
6.4232206299212598
20
-3.7297216929133858
11
6.4232471259842514
21
-3.7297247244094489
0
LINE
8
BLACK
6
CONTINUOUS
10
6.4232471259842514
20
-3.7297247244094489
11
6.4305377559055117
21
-3.7307794881889764
0
LINE
8
BLACK
6
CONTINUOUS
10
6.4305377559055117
20
-3.7307794881889764
11
6.4305584251968506
21
-3.7307829921259841
0
LINE
8
BLACK
6
CONTINUOUS
10
6.4305584251968506
20
-3.7307829921259841
11
6.4370546456692912
21
-3.7320648031496062
0
LINE
8
BLACK
6
CONTINUOUS
10
6.4370546456692912
20
-3.7320648031496062
11
6.4370680314960627
21
-3.7320676771653543
0
LINE
8
BLACK
6
CONTINUOUS
10
6.4370680314960627
20
-3.7320676771653543
11
6.4430418503937004
21
-3.733464566929134
0
LINE
8
BLACK
6
CONTINUOUS
10
6.4430418503937004
20
-3.733464566929134
11
6.4442457874015746
21
-3.7337589763779526
0
LINE
8
BLACK
6
CONTINUOUS
10
6.4442457874015746
20
-3.7337589763779526
11
6.4487598031496063
21
-3.7348629527559054
0
LINE
8
BLACK
6
CONTINUOUS
10
6.4487598031496063
20
-3.7348629527559054
11
6.4528702755905512
21
-3.7357853937007874
0
LINE
8
BLACK
6
CONTINUOUS
10
6.4528702755905512
20
-3.7357853937007874
11
6.4544860236220467
21
-3.7361479921259844
0
LINE
8
BLACK
6
CONTINUOUS
10
6.4544860236220467
20
-3.7361479921259844
11
6.4574877952755907
21
-3.7366771259842517
0
LINE
8
BLACK
6
CONTINUOUS
10
6.4574877952755907
20
-3.7366771259842517
11
6.4604895669291338
21
-3.7372062992125983
0
LINE
8
BLACK
6
CONTINUOUS
10
6.4604895669291338
20
-3.7372062992125983
11
6.4637651574803145
21
-3.7375653543307084
0
LINE
8
BLACK
6
CONTINUOUS
10
6.4637651574803145
20
-3.7375653543307084
11
6.4670407480314962
21
-3.7379244094488189
0
LINE
8
BLACK
6
CONTINUOUS
10
6.4670407480314962
20
-3.7379244094488189
11
6.4670407086614174
21
-3.7379244094488189
0
LINE
8
BLACK
6
CONTINUOUS
10
6.4670407086614174
20
-3.7379244094488189
11
6.4744089370078735
21
-3.7381889763779528
0
LINE
8
BLACK
6
CONTINUOUS
10
6.4744089370078735
20
-3.7381889763779528
11
6.4744094488188972
21
-3.7381889763779528
0
LINE
8
BLACK
6
CONTINUOUS
10
6.4744094488188972
20
-3.7381889763779528
11
6.5137795275590546
21
-3.7381889763779528
0
LINE
8
BLACK
6
CONTINUOUS
10
6.5137795275590546
20
-3.7381889763779528
11
6.5137795275590546
21
-3.7539370078740157
0
LINE
8
BLACK
6
CONTINUOUS
10
6.5137795275590546
20
-3.7539370078740157
11
6.4936858267716531
21
-3.7539370078740157
0
LINE
8
BLACK
6
CONTINUOUS
10
6.4936858267716531
20
-3.7539370078740157
11
6.4744089370078735
21
-3.7539370078740157
0
LINE
8
BLACK
6
CONTINUOUS
10
6.4744089370078735
20
-3.7539370078740157
11
6.4670407480314962
21
-3.7542015354330709
0
LINE
8
BLACK
6
CONTINUOUS
10
6.4670407480314962
20
-3.7542015354330709
11
6.4604895669291338
21
-3.754919645669291
0
LINE
8
BLACK
6
CONTINUOUS
10
6.4604895669291338
20
-3.754919645669291
11
6.4544860629921255
21
-3.7559779133858266
0
LINE
8
BLACK
6
CONTINUOUS
10
6.4544860629921255
20
-3.7559779133858266
11
6.4487598031496063
21
-3.7572629921259844
0
LINE
8
BLACK
6
CONTINUOUS
10
6.4487598031496063
20
-3.7572629921259844
11
6.443045905511811
21
-3.7586603937007874
0
LINE
8
BLACK
6
CONTINUOUS
10
6.443045905511811
20
-3.7586603937007874
11
6.4430413779527553
21
-3.758661496062992
0
LINE
8
BLACK
6
CONTINUOUS
10
6.4430413779527553
20
-3.758661496062992
11
6.4370692125984252
21
-3.7600579921259842
0
LINE
8
BLACK
6
CONTINUOUS
10
6.4370692125984252
20
-3.7600579921259842
11
6.4370535039370074
21
-3.7600613779527556
0
LINE
8
BLACK
6
CONTINUOUS
10
6.4370535039370074
20
-3.7600613779527556
11
6.4305596456692911
21
-3.7613426771653544
0
LINE
8
BLACK
6
CONTINUOUS
10
6.4305596456692911
20
-3.7613426771653544
11
6.4305364173228341
21
-3.7613466141732284
0
LINE
8
BLACK
6
CONTINUOUS
10
6.4305364173228341
20
-3.7613466141732284
11
6.4232472047244089
21
-3.7624011811023621
0
LINE
8
BLACK
6
CONTINUOUS
10
6.4232472047244089
20
-3.7624011811023621
11
6.4232205511811022
21
-3.7624042519685039
0
LINE
8
BLACK
6
CONTINUOUS
10
6.4232205511811022
20
-3.7624042519685039
11
6.4148607874015751
21
-3.7631200393700786
0
LINE
8
BLACK
6
CONTINUOUS
10
6.4148607874015751
20
-3.7631200393700786
11
6.4148340157480312
21
-3.7631215748031495
0
LINE
8
BLACK
6
CONTINUOUS
10
6.4148340157480312
20
-3.7631215748031495
11
6.4057911417322835
21
-3.7633674803149604
0
LINE
8
BLACK
6
CONTINUOUS
10
6.4057911417322835
20
-3.7633674803149604
11
6.4055118110236222
21
-3.7633858267716533
0
LINE
8
BLACK
6
CONTINUOUS
10
6.4055118110236222
20
-3.7633858267716533
11
6.0433070866141732
21
-3.7633858267716533
0
LINE
8
BLACK
6
CONTINUOUS
10
6.0433070866141732
20
-3.7633858267716533
11
6.0410459842519684
21
-3.7632376377952754
0
LINE
8
BLACK
6
CONTINUOUS
10
6.0410459842519684
20
-3.7632376377952754
11
6.0407968897637794
21
-3.7631708661417322
0
LINE
8
BLACK
6
CONTINUOUS
10
6.0407968897637794
20
-3.7631708661417322
11
6.0389505511811024
21
-3.7630304330708659
0
LINE
8
BLACK
6
CONTINUOUS
10
6.0389505511811024
20
-3.7630304330708659
11
6.0388753543307088
21
-3.7630183858267716
0
LINE
8
BLACK
6
CONTINUOUS
10
6.0388753543307088
20
-3.7630183858267716
11
6.0350013779527556
21
-3.7620641338582677
0
LINE
8
BLACK
6
CONTINUOUS
10
6.0350013779527556
20
-3.7620641338582677
11
6.0349301181102364
21
-3.7620402755905511
0
LINE
8
BLACK
6
CONTINUOUS
10
6.0349301181102364
20
-3.7620402755905511
11
6.0316494094488187
21
-3.7606344094488189
0
LINE
8
BLACK
6
CONTINUOUS
10
6.0316494094488187
20
-3.7606344094488189
11
6.0315937795275589
21
-3.7606059842519683
0
LINE
8
BLACK
6
CONTINUOUS
10
6.0315937795275589
20
-3.7606059842519683
11
6.0287385826771649
21
-3.7588921653543306
0
LINE
8
BLACK
6
CONTINUOUS
10
6.0287385826771649
20
-3.7588921653543306
11
6.0287052755905508
21
-3.7588701574803149
0
LINE
8
BLACK
6
CONTINUOUS
10
6.0287052755905508
20
-3.7588701574803149
11
6.0261135039370082
21
-3.7569912598425197
0
LINE
8
BLACK
6
CONTINUOUS
10
6.0261135039370082
20
-3.7569912598425197
11
6.026104566929134
21
-3.7569846062992127
0
LINE
8
BLACK
6
CONTINUOUS
10
6.026104566929134
20
-3.7569846062992127
11
6.0236251968503938
21
-3.7550941338582677
0
LINE
8
BLACK
6
CONTINUOUS
10
6.0236251968503938
20
-3.7550941338582677
11
6.0236245669291337
21
-3.7550937007874015
0
LINE
8
BLACK
6
CONTINUOUS
10
6.0236245669291337
20
-3.7550937007874015
11
6.0211126377952757
21
-3.7533544488188975
0
LINE
8
BLACK
6
CONTINUOUS
10
6.0211126377952757
20
-3.7533544488188975
11
6.021112598425197
21
-3.7533544094488187
0
LINE
8
BLACK
6
CONTINUOUS
10
6.021112598425197
20
-3.7533544094488187
11
6.0196354724409451
21
-3.7525708267716533
0
LINE
8
BLACK
6
CONTINUOUS
10
6.0196354724409451
20
-3.7525708267716533
11
6.0184109842519682
21
-3.7519212598425198
0
LINE
8
BLACK
6
CONTINUOUS
10
6.0184109842519682
20
-3.7519212598425198
11
6.0184108661417319
21
-3.751921220472441
0
LINE
8
BLACK
6
CONTINUOUS
10
6.0184108661417319
20
-3.751921220472441
11
6.0153634645669287
21
-3.7509488582677166
0
LINE
8
BLACK
6
CONTINUOUS
10
6.0153634645669287
20
-3.7509488582677166
11
6.0153631496062987
21
-3.7509487795275591
0
LINE
8
BLACK
6
CONTINUOUS
10
6.0153631496062987
20
-3.7509487795275591
11
6.0127085039370076
21
-3.7506810629921259
0
LINE
8
BLACK
6
CONTINUOUS
10
6.0127085039370076
20
-3.7506810629921259
11
6.0118110236220472
21
-3.7505905511811024
0
LINE
8
BLACK
6
CONTINUOUS
10
6.0118110236220472
20
-3.7505905511811024
11
6.0118109448818897
21
-3.7505905511811024
0
LINE
8
BLACK
6
CONTINUOUS
10
6.0118109448818897
20
-3.7505905511811024
11
5.9964716535433071
21
-3.7505905511811024
0
LINE
8
BLACK
6
CONTINUOUS
10
5.9964716535433071
20
-3.7505905511811024
11
5.9848425196850394
21
-3.7505905511811024
0
LINE
8
BLACK
6
CONTINUOUS
10
5.9848425196850394
20
-3.7505905511811024
11
5.9839592519685034
21
-3.7505035433070866
0
LINE
8
BLACK
6
CONTINUOUS
10
5.9839592519685034
20
-3.7505035433070866
11
5.9823271259842521
21
-3.7498275196850392
0
LINE
8
BLACK
6
CONTINUOUS
10
5.9823271259842521
20
-3.7498275196850392
11
5.981077992125984
21
-3.7485783858267716
0
LINE
8
BLACK
6
CONTINUOUS
10
5.981077992125984
20
-3.7485783858267716
11
5.9804019685039371
21
-3.7469462598425194
0
LINE
8
BLACK
6
CONTINUOUS
10
5.9804019685039371
20
-3.7469462598425194
11
5.9804019685039371
21
-3.7451797244094487
0
LINE
8
BLACK
6
CONTINUOUS
10
5.9804019685039371
20
-3.7451797244094487
11
5.981077992125984
21
-3.7435475984251969
0
LINE
8
BLACK
6
CONTINUOUS
10
5.981077992125984
20
-3.7435475984251969
11
5.9823271259842521
21
-3.7422984645669288
0
LINE
8
BLACK
6
CONTINUOUS
10
5.9823271259842521
20
-3.7422984645669288
11
5.9839592519685034
21
-3.7416224409448819
0
LINE
8
BLACK
6
CONTINUOUS
10
5.9839592519685034
20
-3.7416224409448819
11
5.9848425196850394
21
-3.7415354330708661
0
LINE
8
BLACK
6
CONTINUOUS
10
5.9848425196850394
20
-3.7415354330708661
11
6.0072834645669291
21
-3.7415354330708661
0
LINE
8
BLACK
6
CONTINUOUS
10
6.0072834645669291
20
-3.7415354330708661
11
6.0118106692913384
21
-3.7415354330708661
0
LINE
8
BLACK
6
CONTINUOUS
10
6.0118106692913384
20
-3.7415354330708661
11
6.0118110236220472
21
-3.7415354330708661
0
LINE
8
BLACK
6
CONTINUOUS
10
6.0118110236220472
20
-3.7415354330708661
11
6.0153633070866137
21
-3.7411771653543306
0
LINE
8
BLACK
6
CONTINUOUS
10
6.0153633070866137
20
-3.7411771653543306
11
6.0184109842519682
21
-3.7402047244094487
0
LINE
8
BLACK
6
CONTINUOUS
10
6.0184109842519682
20
-3.7402047244094487
11
6.0211123228346457
21
-3.7387716535433069
0
LINE
8
BLACK
6
CONTINUOUS
10
6.0211123228346457
20
-3.7387716535433069
11
6.0211125590551182
21
-3.7387714960629919
0
LINE
8
BLACK
6
CONTINUOUS
10
6.0211125590551182
20
-3.7387714960629919
11
6.0211126377952757
21
-3.7387714566929131
0
LINE
8
BLACK
6
CONTINUOUS
10
6.0211126377952757
20
-3.7387714566929131
11
6.0222850393700789
21
-3.7379596456692914
0
LINE
8
BLACK
6
CONTINUOUS
10
6.0222850393700789
20
-3.7379596456692914
11
6.0236256692913388
21
-3.737031496062992
0
LINE
8
BLACK
6
CONTINUOUS
10
6.0236256692913388
20
-3.737031496062992
11
6.0261061417322832
21
-3.7351401181102362
0
LINE
8
BLACK
6
CONTINUOUS
10
6.0261061417322832
20
-3.7351401181102362
11
6.0261120472440943
21
-3.7351357086614172
0
LINE
8
BLACK
6
CONTINUOUS
10
6.0261120472440943
20
-3.7351357086614172
11
6.0287053937007871
21
-3.7332557086614173
0
LINE
8
BLACK
6
CONTINUOUS
10
6.0287053937007871
20
-3.7332557086614173
11
6.0287383464566924
21
-3.7332339763779525
0
LINE
8
BLACK
6
CONTINUOUS
10
6.0287383464566924
20
-3.7332339763779525
11
6.0315938976377952
21
-3.7315198818897639
0
LINE
8
BLACK
6
CONTINUOUS
10
6.0315938976377952
20
-3.7315198818897639
11
6.0316491732283462
21
-3.7314915748031496
0
LINE
8
BLACK
6
CONTINUOUS
10
6.0316491732283462
20
-3.7314915748031496
11
6.0349305511811027
21
-3.7300855118110237
0
LINE
8
BLACK
6
CONTINUOUS
10
6.0349305511811027
20
-3.7300855118110237
11
6.0350009448818893
21
-3.7300619291338584
0
LINE
8
BLACK
6
CONTINUOUS
10
6.0350009448818893
20
-3.7300619291338584
11
6.0388755905511813
21
-3.7291075196850394
0
LINE
8
BLACK
6
CONTINUOUS
10
6.0388755905511813
20
-3.7291075196850394
11
6.0389502755905511
21
-3.7290955118110234
0
LINE
8
BLACK
6
CONTINUOUS
10
6.0389502755905511
20
-3.7290955118110234
11
6.0407971653543306
21
-3.728955
0
LINE
8
BLACK
6
CONTINUOUS
10
6.0407971653543306
20
-3.728955
11
6.0410459842519684
21
-3.7288883464566926
0
LINE
8
BLACK
6
CONTINUOUS
10
6.0410459842519684
20
-3.7288883464566926
11
6.0433070866141732
21
-3.7287401574803147
0
LINE
8
BLACK
6
CONTINUOUS
10
6.0433070866141732
20
-3.7287401574803147
11
6.4055118110236222
21
-3.7287401574803147
0
LINE
8
BLACK
6
CONTINUOUS
10
6.4055118110236222
20
-3.7287401574803147
11
6.4057901968503934
21
-3.7287583858267714
0
LINE
8
BLACK
6
CONTINUOUS
10
5.6349758661417324
20
-3.5292550787401575
11
5.6380093700787404
21
-3.5312819685039369
0
LINE
8
BLACK
6
CONTINUOUS
10
5.6380093700787404
20
-3.5312819685039369
11
5.6400362598425193
21
-3.5343154724409449
0
LINE
8
BLACK
6
CONTINUOUS
10
5.6400362598425193
20
-3.5343154724409449
11
5.640748031496063
21
-3.5378937007874014
0
LINE
8
BLACK
6
CONTINUOUS
10
5.640748031496063
20
-3.5378937007874014
11
5.640748031496063
21
-3.5575787401574801
0
LINE
8
BLACK
6
CONTINUOUS
10
5.640748031496063
20
-3.5575787401574801
11
5.6402020866141731
21
-3.5603232677165355
0
LINE
8
BLACK
6
CONTINUOUS
10
5.6402020866141731
20
-3.5603232677165355
11
5.6783039763779524
21
-3.5984251968503935
0
LINE
8
BLACK
6
CONTINUOUS
10
5.6783039763779524
20
-3.5984251968503935
11
5.728346456692913
21
-3.5984251968503935
0
LINE
8
BLACK
6
CONTINUOUS
10
5.728346456692913
20
-3.5984251968503935
11
5.7291145275590551
21
-3.5985008267716534
0
LINE
8
BLACK
6
CONTINUOUS
10
5.7291145275590551
20
-3.5985008267716534
11
5.7305337401574805
21
-3.5990887007874015
0
LINE
8
BLACK
6
CONTINUOUS
10
5.7305337401574805
20
-3.5990887007874015
11
5.7311303543307082
21
-3.5995783070866141
0
LINE
8
BLACK
6
CONTINUOUS
10
5.7311303543307082
20
-3.5995783070866141
11
5.8146229133858265
21
-3.6830708661417324
0
LINE
8
BLACK
6
CONTINUOUS
10
5.8146229133858265
20
-3.6830708661417324
11
5.8252632283464569
21
-3.6830708661417324
0
LINE
8
BLACK
6
CONTINUOUS
10
5.8252632283464569
20
-3.6830708661417324
11
5.8264789370078738
21
-3.6825673228346454
0
LINE
8
BLACK
6
CONTINUOUS
10
5.8264789370078738
20
-3.6825673228346454
11
5.8273622047244089
21
-3.68248031496063
0
LINE
8
BLACK
6
CONTINUOUS
10
5.8273622047244089
20
-3.68248031496063
11
5.8498031496062994
21
-3.68248031496063
0
LINE
8
BLACK
6
CONTINUOUS
10
5.8498031496062994
20
-3.68248031496063
11
5.8506864173228346
21
-3.6825673228346454
0
LINE
8
BLACK
6
CONTINUOUS
10
5.8506864173228346
20
-3.6825673228346454
11
5.8523185433070868
21
-3.6832433464566927
0
LINE
8
BLACK
6
CONTINUOUS
10
5.8523185433070868
20
-3.6832433464566927
11
5.853567677165354
21
-3.6844924803149603
0
LINE
8
BLACK
6
CONTINUOUS
10
5.853567677165354
20
-3.6844924803149603
11
5.8542437007874017
21
-3.6861246062992126
0
LINE
8
BLACK
6
CONTINUOUS
10
5.8542437007874017
20
-3.6861246062992126
11
5.8542437007874017
21
-3.6878911417322833
0
LINE
8
BLACK
6
CONTINUOUS
10
5.8542437007874017
20
-3.6878911417322833
11
5.853567677165354
21
-3.6895232677165355
0
LINE
8
BLACK
6
CONTINUOUS
10
5.853567677165354
20
-3.6895232677165355
11
5.8523185433070868
21
-3.6907724015748031
0
LINE
8
BLACK
6
CONTINUOUS
10
5.8523185433070868
20
-3.6907724015748031
11
5.8506864173228346
21
-3.6914484251968505
0
LINE
8
BLACK
6
CONTINUOUS
10
5.8506864173228346
20
-3.6914484251968505
11
5.8498031496062994
21
-3.6915354330708658
0
LINE
8
BLACK
6
CONTINUOUS
10
5.8498031496062994
20
-3.6915354330708658
11
5.8273622047244089
21
-3.6915354330708658
0
LINE
8
BLACK
6
CONTINUOUS
10
5.8273622047244089
20
-3.6915354330708658
11
5.8264789370078738
21
-3.6914484251968505
0
LINE
8
BLACK
6
CONTINUOUS
10
5.8264789370078738
20
-3.6914484251968505
11
5.8252632283464569
21
-3.6909448818897639
0
LINE
8
BLACK
6
CONTINUOUS
10
5.8252632283464569
20
-3.6909448818897639
11
5.8129921259842519
21
-3.6909448818897639
0
LINE
8
BLACK
6
CONTINUOUS
10
5.8129921259842519
20
-3.6909448818897639
11
5.8122240551181097
21
-3.690869251968504
0
LINE
8
BLACK
6
CONTINUOUS
10
5.8122240551181097
20
-3.690869251968504
11
5.8108048425196852
21
-3.6902813779527559
0
LINE
8
BLACK
6
CONTINUOUS
10
5.8108048425196852
20
-3.6902813779527559
11
5.8102082283464567
21
-3.6897917716535433
0
LINE
8
BLACK
6
CONTINUOUS
10
5.8102082283464567
20
-3.6897917716535433
11
5.7267156692913384
21
-3.606299212598425
0
LINE
8
BLACK
6
CONTINUOUS
10
5.7267156692913384
20
-3.606299212598425
11
5.6766732283464565
21
-3.606299212598425
0
LINE
8
BLACK
6
CONTINUOUS
10
5.6766732283464565
20
-3.606299212598425
11
5.6759051574803152
21
-3.6062235826771651
0
LINE
8
BLACK
6
CONTINUOUS
10
5.6759051574803152
20
-3.6062235826771651
11
5.6749015748031493
21
-3.6058078740157478
0
LINE
8
BLACK
6
CONTINUOUS
10
5.6749015748031493
20
-3.6058078740157478
11
5.6744859055118111
21
-3.605635708661417
0
LINE
8
BLACK
6
CONTINUOUS
10
5.6744859055118111
20
-3.605635708661417
11
5.6738893307086613
21
-3.6051460629921257
0
LINE
8
BLACK
6
CONTINUOUS
10
5.6738893307086613
20
-3.6051460629921257
11
5.6349631102362201
21
-3.5662198818897637
0
LINE
8
BLACK
6
CONTINUOUS
10
5.6349631102362201
20
-3.5662198818897637
11
5.631397637795275
21
-3.5669291338582676
0
LINE
8
BLACK
6
CONTINUOUS
10
5.631397637795275
20
-3.5669291338582676
11
5.6126968503937009
21
-3.5669291338582676
0
LINE
8
BLACK
6
CONTINUOUS
10
5.6126968503937009
20
-3.5669291338582676
11
5.6091186220472435
21
-3.5662173622047244
0
LINE
8
BLACK
6
CONTINUOUS
10
5.6091186220472435
20
-3.5662173622047244
11
5.6060851181102365
21
-3.564190472440945
0
LINE
8
BLACK
6
CONTINUOUS
10
5.6060851181102365
20
-3.564190472440945
11
5.6040582283464566
21
-3.561156968503937
0
LINE
8
BLACK
6
CONTINUOUS
10
5.6040582283464566
20
-3.561156968503937
11
5.603346456692913
21
-3.5575787401574801
0
LINE
8
BLACK
6
CONTINUOUS
10
5.603346456692913
20
-3.5575787401574801
11
5.603346456692913
21
-3.5378937007874014
0
LINE
8
BLACK
6
CONTINUOUS
10
5.603346456692913
20
-3.5378937007874014
11
5.6040582283464566
21
-3.5343154724409449
0
LINE
8
BLACK
6
CONTINUOUS
10
5.6040582283464566
20
-3.5343154724409449
11
5.6060851181102365
21
-3.5312819685039369
0
LINE
8
BLACK
6
CONTINUOUS
10
5.6060851181102365
20
-3.5312819685039369
11
5.6091186220472435
21
-3.5292550787401575
0
LINE
8
BLACK
6
CONTINUOUS
10
5.6091186220472435
20
-3.5292550787401575
11
5.6126968503937009
21
-3.5285433070866139
0
LINE
8
BLACK
6
CONTINUOUS
10
5.6126968503937009
20
-3.5285433070866139
11
5.631397637795275
21
-3.5285433070866139
0
LINE
8
BLACK
6
CONTINUOUS
10
5.631397637795275
20
-3.5285433070866139
11
5.6349758661417324
21
-3.5292550787401575
0
LINE
8
BLACK
6
CONTINUOUS
10
6.3751968503937002
20
-3.2440944881889764
11
6.3594488188976372
21
-3.2440944881889764
0
LINE
8
BLACK
6
CONTINUOUS
10
6.3594488188976372
20
-3.2440944881889764
11
6.3594488188976372
21
-3.3714837007874014
0
LINE
8
BLACK
6
CONTINUOUS
10
6.3594488188976372
20
-3.3714837007874014
11
6.3593731889763774
21
-3.3722517716535432
0
LINE
8
BLACK
6
CONTINUOUS
10
6.3593731889763774
20
-3.3722517716535432
11
6.3587853149606302
21
-3.3736709842519685
0
LINE
8
BLACK
6
CONTINUOUS
10
6.3587853149606302
20
-3.3736709842519685
11
6.3582957086614176
21
-3.3742675984251966
0
LINE
8
BLACK
6
CONTINUOUS
10
6.3582957086614176
20
-3.3742675984251966
11
6.2268266535433066
21
-3.5057366535433072
0
LINE
8
BLACK
6
CONTINUOUS
10
6.2268266535433066
20
-3.5057366535433072
11
6.2262300393700789
21
-3.5062262598425198
0
LINE
8
BLACK
6
CONTINUOUS
10
6.2262300393700789
20
-3.5062262598425198
11
6.2248108267716535
21
-3.5068141338582675
0
LINE
8
BLACK
6
CONTINUOUS
10
6.2248108267716535
20
-3.5068141338582675
11
6.2240427559055114
21
-3.5068897637795273
0
LINE
8
BLACK
6
CONTINUOUS
10
6.2240427559055114
20
-3.5068897637795273
11
6.1049772440944876
21
-3.5068897637795273
0
LINE
8
BLACK
6
CONTINUOUS
10
6.1049772440944876
20
-3.5068897637795273
11
6.0695151968503938
21
-3.5423518110236221
0
LINE
8
BLACK
6
CONTINUOUS
10
6.0695151968503938
20
-3.5423518110236221
11
6.0695151968503938
21
-3.6417322834645667
0
LINE
8
BLACK
6
CONTINUOUS
10
6.0695151968503938
20
-3.6417322834645667
11
6.0694395669291339
21
-3.6425003543307084
0
LINE
8
BLACK
6
CONTINUOUS
10
6.0694395669291339
20
-3.6425003543307084
11
6.0688517322834645
21
-3.6439195669291338
0
LINE
8
BLACK
6
CONTINUOUS
10
6.0688517322834645
20
-3.6439195669291338
11
6.0683620866141732
21
-3.6445161417322836
0
LINE
8
BLACK
6
CONTINUOUS
10
6.0683620866141732
20
-3.6445161417322836
11
6.0230864960629917
21
-3.6897917716535433
0
LINE
8
BLACK
6
CONTINUOUS
10
6.0230864960629917
20
-3.6897917716535433
11
6.0224898818897641
21
-3.6902813779527559
0
LINE
8
BLACK
6
CONTINUOUS
10
6.0224898818897641
20
-3.6902813779527559
11
6.0210706692913387
21
-3.690869251968504
0
LINE
8
BLACK
6
CONTINUOUS
10
6.0210706692913387
20
-3.690869251968504
11
6.0203025984251965
21
-3.6909448818897639
0
LINE
8
BLACK
6
CONTINUOUS
10
6.0203025984251965
20
-3.6909448818897639
11
6.0093824409448819
21
-3.6909448818897639
0
LINE
8
BLACK
6
CONTINUOUS
10
6.0093824409448819
20
-3.6909448818897639
11
6.0081667322834642
21
-3.6914484251968505
0
LINE
8
BLACK
6
CONTINUOUS
10
6.0081667322834642
20
-3.6914484251968505
11
6.0072834645669291
21
-3.6915354330708658
0
LINE
8
BLACK
6
CONTINUOUS
10
6.0072834645669291
20
-3.6915354330708658
11
5.9848425196850394
21
-3.6915354330708658
0
LINE
8
BLACK
6
CONTINUOUS
10
5.9848425196850394
20
-3.6915354330708658
11
5.9839592519685034
21
-3.6914484251968505
0
LINE
8
BLACK
6
CONTINUOUS
10
5.9839592519685034
20
-3.6914484251968505
11
5.9823271259842521
21
-3.6907724015748031
0
LINE
8
BLACK
6
CONTINUOUS
10
5.9823271259842521
20
-3.6907724015748031
11
5.981077992125984
21
-3.6895232677165355
0
LINE
8
BLACK
6
CONTINUOUS
10
5.981077992125984
20
-3.6895232677165355
11
5.9804019685039371
21
-3.6878911417322833
0
LINE
8
BLACK
6
CONTINUOUS
10
5.9804019685039371
20
-3.6878911417322833
11
5.9804019685039371
21
-3.6861246062992126
0
LINE
8
BLACK
6
CONTINUOUS
10
5.9804019685039371
20
-3.6861246062992126
11
5.981077992125984
21
-3.6844924803149603
0
LINE
8
BLACK
6
CONTINUOUS
10
5.981077992125984
20
-3.6844924803149603
11
5.9823271259842521
21
-3.6832433464566927
0
LINE
8
BLACK
6
CONTINUOUS
10
5.9823271259842521
20
-3.6832433464566927
11
5.9839592519685034
21
-3.6825673228346454
0
LINE
8
BLACK
6
CONTINUOUS
10
5.9839592519685034
20
-3.6825673228346454
11
5.9848425196850394
21
-3.68248031496063
0
LINE
8
BLACK
6
CONTINUOUS
10
5.9848425196850394
20
-3.68248031496063
11
6.0072834645669291
21
-3.68248031496063
0
LINE
8
BLACK
6
CONTINUOUS
10
6.0072834645669291
20
-3.68248031496063
11
6.0081667322834642
21
-3.6825673228346454
0
LINE
8
BLACK
6
CONTINUOUS
10
6.0081667322834642
20
-3.6825673228346454
11
6.0093824409448819
21
-3.6830708661417324
0
LINE
8
BLACK
6
CONTINUOUS
10
6.0093824409448819
20
-3.6830708661417324
11
6.0186718110236219
21
-3.6830708661417324
0
LINE
8
BLACK
6
CONTINUOUS
10
6.0186718110236219
20
-3.6830708661417324
11
6.0616411811023623
21
-3.640101496062992
0
LINE
8
BLACK
6
CONTINUOUS
10
6.0616411811023623
20
-3.640101496062992
11
6.0616411811023623
21
-3.540721023622047
0
LINE
8
BLACK
6
CONTINUOUS
10
6.0616411811023623
20
-3.540721023622047
11
6.0617168110236221
21
-3.5399529527559053
0
LINE
8
BLACK
6
CONTINUOUS
10
6.0617168110236221
20
-3.5399529527559053
11
6.0623046850393703
21
-3.5385337401574803
0
LINE
8
BLACK
6
CONTINUOUS
10
6.0623046850393703
20
-3.5385337401574803
11
6.0627942913385828
21
-3.5379371259842518
0
LINE
8
BLACK
6
CONTINUOUS
10
6.0627942913385828
20
-3.5379371259842518
11
6.1005625590551178
21
-3.5001688582677164
0
LINE
8
BLACK
6
CONTINUOUS
10
6.1005625590551178
20
-3.5001688582677164
11
6.1011591732283463
21
-3.4996792519685038
0
LINE
8
BLACK
6
CONTINUOUS
10
6.1011591732283463
20
-3.4996792519685038
11
6.1025783858267717
21
-3.4990913779527557
0
LINE
8
BLACK
6
CONTINUOUS
10
6.1025783858267717
20
-3.4990913779527557
11
6.103346456692913
21
-3.4990157480314958
0
LINE
8
BLACK
6
CONTINUOUS
10
6.103346456692913
20
-3.4990157480314958
11
6.2224119685039367
21
-3.4990157480314958
0
LINE
8
BLACK
6
CONTINUOUS
10
6.2224119685039367
20
-3.4990157480314958
11
6.3515748031496058
21
-3.3698529133858268
0
LINE
8
BLACK
6
CONTINUOUS
10
6.3515748031496058
20
-3.3698529133858268
11
6.3515748031496058
21
-3.2440944881889764
0
LINE
8
BLACK
6
CONTINUOUS
10
6.3515748031496058
20
-3.2440944881889764
11
6.3358267716535428
21
-3.2440944881889764
0
LINE
8
BLACK
6
CONTINUOUS
10
6.3358267716535428
20
-3.2440944881889764
11
6.3358267716535428
21
-3.1452755905511811
0
LINE
8
BLACK
6
CONTINUOUS
10
6.3358267716535428
20
-3.1452755905511811
11
6.3751968503937002
21
-3.1452755905511811
0
LINE
8
BLACK
6
CONTINUOUS
10
6.3751968503937002
20
-3.1452755905511811
11
6.3751968503937002
21
-3.2440944881889764
0
LINE
8
BLACK
6
CONTINUOUS
10
5.6751968503937009
20
-3.3744094488188976
11
5.659448818897638
21
-3.3744094488188976
0
LINE
8
BLACK
6
CONTINUOUS
10
5.659448818897638
20
-3.3744094488188976
11
5.659448818897638
21
-3.3837038582677166
0
LINE
8
BLACK
6
CONTINUOUS
10
5.659448818897638
20
-3.3837038582677166
11
5.7339319685039367
21
-3.4581870078740158
0
LINE
8
BLACK
6
CONTINUOUS
10
5.7339319685039367
20
-3.4581870078740158
11
5.7351028740157481
21
-3.45740468503937
0
LINE
8
BLACK
6
CONTINUOUS
10
5.7351028740157481
20
-3.45740468503937
11
5.7386811023622046
21
-3.4566929133858268
0
LINE
8
BLACK
6
CONTINUOUS
10
5.7386811023622046
20
-3.4566929133858268
11
5.7573818897637796
21
-3.4566929133858268
0
LINE
8
BLACK
6
CONTINUOUS
10
5.7573818897637796
20
-3.4566929133858268
11
5.7609601181102361
21
-3.45740468503937
0
LINE
8
BLACK
6
CONTINUOUS
10
5.7609601181102361
20
-3.45740468503937
11
5.7639936220472441
21
-3.4594315748031494
0
LINE
8
BLACK
6
CONTINUOUS
10
5.7639936220472441
20
-3.4594315748031494
11
5.7660205118110239
21
-3.4624650787401574
0
LINE
8
BLACK
6
CONTINUOUS
10
5.7660205118110239
20
-3.4624650787401574
11
5.7667322834645667
21
-3.4660433070866139
0
LINE
8
BLACK
6
CONTINUOUS
10
5.7667322834645667
20
-3.4660433070866139
11
5.7667322834645667
21
-3.4896653543307088
0
LINE
8
BLACK
6
CONTINUOUS
10
5.7667322834645667
20
-3.4896653543307088
11
5.7665129133858271
21
-3.490767992125984
0
LINE
8
BLACK
6
CONTINUOUS
10
5.7665129133858271
20
-3.490767992125984
11
5.7901854724409452
21
-3.5144405511811021
0
LINE
8
BLACK
6
CONTINUOUS
10
5.7901854724409452
20
-3.5144405511811021
11
5.7906751181102365
21
-3.5150371259842519
0
LINE
8
BLACK
6
CONTINUOUS
10
5.7906751181102365
20
-3.5150371259842519
11
5.790938228346457
21
-3.5156724015748031
0
LINE
8
BLACK
6
CONTINUOUS
10
5.790938228346457
20
-3.5156724015748031
11
5.791262952755905
21
-3.5164563385826773
0
LINE
8
BLACK
6
CONTINUOUS
10
5.791262952755905
20
-3.5164563385826773
11
5.7913385826771648
21
-3.517224409448819
0
LINE
8
BLACK
6
CONTINUOUS
10
5.7913385826771648
20
-3.517224409448819
11
5.7913385826771648
21
-3.6375154330708659
0
LINE
8
BLACK
6
CONTINUOUS
10
5.7913385826771648
20
-3.6375154330708659
11
5.8172089763779526
21
-3.6633858267716533
0
LINE
8
BLACK
6
CONTINUOUS
10
5.8172089763779526
20
-3.6633858267716533
11
5.8252632283464569
21
-3.6633858267716533
0
LINE
8
BLACK
6
CONTINUOUS
10
5.8252632283464569
20
-3.6633858267716533
11
5.8264789370078738
21
-3.6628822834645667
0
LINE
8
BLACK
6
CONTINUOUS
10
5.8264789370078738
20
-3.6628822834645667
11
5.8273622047244089
21
-3.6627952755905513
0
LINE
8
BLACK
6
CONTINUOUS
10
5.8273622047244089
20
-3.6627952755905513
11
5.8498031496062994
21
-3.6627952755905513
0
LINE
8
BLACK
6
CONTINUOUS
10
5.8498031496062994
20
-3.6627952755905513
11
5.8506864173228346
21
-3.6628822834645667
0
LINE
8
BLACK
6
CONTINUOUS
10
5.8506864173228346
20
-3.6628822834645667
11
5.8523185433070868
21
-3.663558307086614
0
LINE
8
BLACK
6
CONTINUOUS
10
5.8523185433070868
20
-3.663558307086614
11
5.853567677165354
21
-3.6648074409448816
0
LINE
8
BLACK
6
CONTINUOUS
10
5.853567677165354
20
-3.6648074409448816
11
5.8542437007874017
21
-3.6664395669291339
0
LINE
8
BLACK
6
CONTINUOUS
10
5.8542437007874017
20
-3.6664395669291339
11
5.8542437007874017
21
-3.6682061023622046
0
LINE
8
BLACK
6
CONTINUOUS
10
5.8542437007874017
20
-3.6682061023622046
11
5.853567677165354
21
-3.6698382283464568
0
LINE
8
BLACK
6
CONTINUOUS
10
5.853567677165354
20
-3.6698382283464568
11
5.8523185433070868
21
-3.6710873622047244
0
LINE
8
BLACK
6
CONTINUOUS
10
5.8523185433070868
20
-3.6710873622047244
11
5.8506864173228346
21
-3.6717633858267718
0
LINE
8
BLACK
6
CONTINUOUS
10
5.8506864173228346
20
-3.6717633858267718
11
5.8498031496062994
21
-3.6718503937007871
0
LINE
8
BLACK
6
CONTINUOUS
10
5.8498031496062994
20
-3.6718503937007871
11
5.8273622047244089
21
-3.6718503937007871
0
LINE
8
BLACK
6
CONTINUOUS
10
5.8273622047244089
20
-3.6718503937007871
11
5.8264789370078738
21
-3.6717633858267718
0
LINE
8
BLACK
6
CONTINUOUS
10
5.8264789370078738
20
-3.6717633858267718
11
5.8252632283464569
21
-3.6712598425196847
0
LINE
8
BLACK
6
CONTINUOUS
10
5.8252632283464569
20
-3.6712598425196847
11
5.815578188976378
21
-3.6712598425196847
0
LINE
8
BLACK
6
CONTINUOUS
10
5.815578188976378
20
-3.6712598425196847
11
5.8148101181102358
21
-3.6711842125984253
0
LINE
8
BLACK
6
CONTINUOUS
10
5.8148101181102358
20
-3.6711842125984253
11
5.8133909055118105
21
-3.6705963385826772
0
LINE
8
BLACK
6
CONTINUOUS
10
5.8133909055118105
20
-3.6705963385826772
11
5.8127942913385828
21
-3.6701067322834646
0
LINE
8
BLACK
6
CONTINUOUS
10
5.8127942913385828
20
-3.6701067322834646
11
5.7846176771653539
21
-3.6419301181102361
0
LINE
8
BLACK
6
CONTINUOUS
10
5.7846176771653539
20
-3.6419301181102361
11
5.7841280708661413
21
-3.6413335039370076
0
LINE
8
BLACK
6
CONTINUOUS
10
5.7841280708661413
20
-3.6413335039370076
11
5.7835401968503932
21
-3.6399142913385827
0
LINE
8
BLACK
6
CONTINUOUS
10
5.7835401968503932
20
-3.6399142913385827
11
5.7834645669291334
21
-3.639146220472441
0
LINE
8
BLACK
6
CONTINUOUS
10
5.7834645669291334
20
-3.639146220472441
11
5.7834645669291334
21
-3.5188551574803149
0
LINE
8
BLACK
6
CONTINUOUS
10
5.7834645669291334
20
-3.5188551574803149
11
5.7621309842519688
21
-3.4975216141732282
0
LINE
8
BLACK
6
CONTINUOUS
10
5.7621309842519688
20
-3.4975216141732282
11
5.7609601181102361
21
-3.4983039763779527
0
LINE
8
BLACK
6
CONTINUOUS
10
5.7609601181102361
20
-3.4983039763779527
11
5.7573818897637796
21
-3.4990157480314958
0
LINE
8
BLACK
6
CONTINUOUS
10
5.7573818897637796
20
-3.4990157480314958
11
5.7386811023622046
21
-3.4990157480314958
0
LINE
8
BLACK
6
CONTINUOUS
10
5.7386811023622046
20
-3.4990157480314958
11
5.7351028740157481
21
-3.4983039763779527
0
LINE
8
BLACK
6
CONTINUOUS
10
5.7351028740157481
20
-3.4983039763779527
11
5.7320693700787402
21
-3.4962770866141732
0
LINE
8
BLACK
6
CONTINUOUS
10
5.7320693700787402
20
-3.4962770866141732
11
5.7300424803149603
21
-3.4932435826771653
0
LINE
8
BLACK
6
CONTINUOUS
10
5.7300424803149603
20
-3.4932435826771653
11
5.7293307086614176
21
-3.4896653543307088
0
LINE
8
BLACK
6
CONTINUOUS
10
5.7293307086614176
20
-3.4896653543307088
11
5.7293307086614176
21
-3.4660433070866139
0
LINE
8
BLACK
6
CONTINUOUS
10
5.7293307086614176
20
-3.4660433070866139
11
5.7295500393700785
21
-3.4649406692913387
0
LINE
8
BLACK
6
CONTINUOUS
10
5.7295500393700785
20
-3.4649406692913387
11
5.652727913385827
21
-3.3881185433070864
0
LINE
8
BLACK
6
CONTINUOUS
10
5.652727913385827
20
-3.3881185433070864
11
5.6522383070866145
21
-3.3875219291338583
0
LINE
8
BLACK
6
CONTINUOUS
10
5.6522383070866145
20
-3.3875219291338583
11
5.6516504330708663
21
-3.3861027165354329
0
LINE
8
BLACK
6
CONTINUOUS
10
5.6516504330708663
20
-3.3861027165354329
11
5.6515748031496065
21
-3.3853346456692912
0
LINE
8
BLACK
6
CONTINUOUS
10
5.6515748031496065
20
-3.3853346456692912
11
5.6515748031496065
21
-3.3744094488188976
0
LINE
8
BLACK
6
CONTINUOUS
10
5.6515748031496065
20
-3.3744094488188976
11
5.6358267716535435
21
-3.3744094488188976
0
LINE
8
BLACK
6
CONTINUOUS
10
5.6358267716535435
20
-3.3744094488188976
11
5.6358267716535435
21
-3.2755905511811023
0
LINE
8
BLACK
6
CONTINUOUS
10
5.6358267716535435
20
-3.2755905511811023
11
5.6751968503937009
21
-3.2755905511811023
0
LINE
8
BLACK
6
CONTINUOUS
10
5.6751968503937009
20
-3.2755905511811023
11
5.6751968503937009
21
-3.3744094488188976
0
LINE
8
BLACK
6
CONTINUOUS
10
6.2802956299212598
20
-3.1063748425196849
11
6.2817148425196851
21
-3.106962716535433
0
LINE
8
BLACK
6
CONTINUOUS
10
6.2817148425196851
20
-3.106962716535433
11
6.2823114566929128
21
-3.1074523228346456
0
LINE
8
BLACK
6
CONTINUOUS
10
6.2823114566929128
20
-3.1074523228346456
11
6.3019964960629924
21
-3.1271373622047243
0
LINE
8
BLACK
6
CONTINUOUS
10
6.3019964960629924
20
-3.1271373622047243
11
6.302486102362205
21
-3.1277339763779528
0
LINE
8
BLACK
6
CONTINUOUS
10
6.302486102362205
20
-3.1277339763779528
11
6.3030739763779522
21
-3.1291531889763777
0
LINE
8
BLACK
6
CONTINUOUS
10
6.3030739763779522
20
-3.1291531889763777
11
6.3031496062992121
21
-3.1299212598425195
0
LINE
8
BLACK
6
CONTINUOUS
10
6.3031496062992121
20
-3.1299212598425195
11
6.3031496062992121
21
-3.4055118110236218
0
LINE
8
BLACK
6
CONTINUOUS
10
6.3031496062992121
20
-3.4055118110236218
11
6.3030739763779522
21
-3.4062798818897635
0
LINE
8
BLACK
6
CONTINUOUS
10
6.3030739763779522
20
-3.4062798818897635
11
6.302486102362205
21
-3.4076990944881889
0
LINE
8
BLACK
6
CONTINUOUS
10
6.302486102362205
20
-3.4076990944881889
11
6.3019964960629924
21
-3.4082956692913386
0
LINE
8
BLACK
6
CONTINUOUS
10
6.3019964960629924
20
-3.4082956692913386
11
6.2375279921259841
21
-3.4727642125984253
0
LINE
8
BLACK
6
CONTINUOUS
10
6.2375279921259841
20
-3.4727642125984253
11
6.2369313779527555
21
-3.4732538188976378
0
LINE
8
BLACK
6
CONTINUOUS
10
6.2369313779527555
20
-3.4732538188976378
11
6.2355121653543302
21
-3.473841692913386
0
LINE
8
BLACK
6
CONTINUOUS
10
6.2355121653543302
20
-3.473841692913386
11
6.2347440944881889
21
-3.4739173228346454
0
LINE
8
BLACK
6
CONTINUOUS
10
6.2347440944881889
20
-3.4739173228346454
11
6.1525590551181102
21
-3.4739173228346454
0
LINE
8
BLACK
6
CONTINUOUS
10
6.1525590551181102
20
-3.4739173228346454
11
6.1525590551181102
21
-3.4817913385826769
0
LINE
8
BLACK
6
CONTINUOUS
10
6.1525590551181102
20
-3.4817913385826769
11
6.1518472834645666
21
-3.4853695669291338
0
LINE
8
BLACK
6
CONTINUOUS
10
6.1518472834645666
20
-3.4853695669291338
11
6.1498203937007876
21
-3.4884030708661418
0
LINE
8
BLACK
6
CONTINUOUS
10
6.1498203937007876
20
-3.4884030708661418
11
6.1467868897637796
21
-3.4904299606299212
0
LINE
8
BLACK
6
CONTINUOUS
10
6.1467868897637796
20
-3.4904299606299212
11
6.1432086614173231
21
-3.4911417322834644
0
LINE
8
BLACK
6
CONTINUOUS
10
6.1432086614173231
20
-3.4911417322834644
11
6.1245078740157481
21
-3.4911417322834644
0
LINE
8
BLACK
6
CONTINUOUS
10
6.1245078740157481
20
-3.4911417322834644
11
6.1209296456692908
21
-3.4904299606299212
0
LINE
8
BLACK
6
CONTINUOUS
10
6.1209296456692908
20
-3.4904299606299212
11
6.1178961417322837
21
-3.4884030708661418
0
LINE
8
BLACK
6
CONTINUOUS
10
6.1178961417322837
20
-3.4884030708661418
11
6.1158692519685038
21
-3.4853695669291338
0
LINE
8
BLACK
6
CONTINUOUS
10
6.1158692519685038
20
-3.4853695669291338
11
6.1151574803149602
21
-3.4817913385826769
0
LINE
8
BLACK
6
CONTINUOUS
10
6.1151574803149602
20
-3.4817913385826769
11
6.1151574803149602
21
-3.4739173228346454
0
LINE
8
BLACK
6
CONTINUOUS
10
6.1151574803149602
20
-3.4739173228346454
11
6.0985796062992126
21
-3.4739173228346454
0
LINE
8
BLACK
6
CONTINUOUS
10
6.0985796062992126
20
-3.4739173228346454
11
6.0472440944881889
21
-3.5252528346456691
0
LINE
8
BLACK
6
CONTINUOUS
10
6.0472440944881889
20
-3.5252528346456691
11
6.0472440944881889
21
-3.6417322834645667
0
LINE
8
BLACK
6
CONTINUOUS
10
6.0472440944881889
20
-3.6417322834645667
11
6.047168464566929
21
-3.6425003543307084
0
LINE
8
BLACK
6
CONTINUOUS
10
6.047168464566929
20
-3.6425003543307084
11
6.0465805905511809
21
-3.6439195669291338
0
LINE
8
BLACK
6
CONTINUOUS
10
6.0465805905511809
20
-3.6439195669291338
11
6.0460909842519683
21
-3.6445161811023623
0
LINE
8
BLACK
6
CONTINUOUS
10
6.0460909842519683
20
-3.6445161811023623
11
6.0205004330708656
21
-3.6701067322834646
0
LINE
8
BLACK
6
CONTINUOUS
10
6.0205004330708656
20
-3.6701067322834646
11
6.0199038188976379
21
-3.6705963385826772
0
LINE
8
BLACK
6
CONTINUOUS
10
6.0199038188976379
20
-3.6705963385826772
11
6.0184846062992126
21
-3.6711842125984253
0
LINE
8
BLACK
6
CONTINUOUS
10
6.0184846062992126
20
-3.6711842125984253
11
6.0177165354330704
21
-3.6712598425196847
0
LINE
8
BLACK
6
CONTINUOUS
10
6.0177165354330704
20
-3.6712598425196847
11
6.0093824409448819
21
-3.6712598425196847
0
LINE
8
BLACK
6
CONTINUOUS
10
6.0093824409448819
20
-3.6712598425196847
11
6.0081667322834642
21
-3.6717633858267718
0
LINE
8
BLACK
6
CONTINUOUS
10
6.0081667322834642
20
-3.6717633858267718
11
6.0072834645669291
21
-3.6718503937007871
0
LINE
8
BLACK
6
CONTINUOUS
10
6.0072834645669291
20
-3.6718503937007871
11
5.9848425196850394
21
-3.6718503937007871
0
LINE
8
BLACK
6
CONTINUOUS
10
5.9848425196850394
20
-3.6718503937007871
11
5.9839592519685034
21
-3.6717633858267718
0
LINE
8
BLACK
6
CONTINUOUS
10
5.9839592519685034
20
-3.6717633858267718
11
5.9823271259842521
21
-3.6710873622047244
0
LINE
8
BLACK
6
CONTINUOUS
10
5.9823271259842521
20
-3.6710873622047244
11
5.981077992125984
21
-3.6698382283464568
0
LINE
8
BLACK
6
CONTINUOUS
10
5.981077992125984
20
-3.6698382283464568
11
5.9804019685039371
21
-3.6682061023622046
0
LINE
8
BLACK
6
CONTINUOUS
10
5.9804019685039371
20
-3.6682061023622046
11
5.9804019685039371
21
-3.6664395669291339
0
LINE
8
BLACK
6
CONTINUOUS
10
5.9804019685039371
20
-3.6664395669291339
11
5.981077992125984
21
-3.6648074409448816
0
LINE
8
BLACK
6
CONTINUOUS
10
5.981077992125984
20
-3.6648074409448816
11
5.9823271259842521
21
-3.663558307086614
0
LINE
8
BLACK
6
CONTINUOUS
10
5.9823271259842521
20
-3.663558307086614
11
5.9839592519685034
21
-3.6628822834645667
0
LINE
8
BLACK
6
CONTINUOUS
10
5.9839592519685034
20
-3.6628822834645667
11
5.9848425196850394
21
-3.6627952755905513
0
LINE
8
BLACK
6
CONTINUOUS
10
5.9848425196850394
20
-3.6627952755905513
11
6.0072834645669291
21
-3.6627952755905513
0
LINE
8
BLACK
6
CONTINUOUS
10
6.0072834645669291
20
-3.6627952755905513
11
6.0081667322834642
21
-3.6628822834645667
0
LINE
8
BLACK
6
CONTINUOUS
10
6.0081667322834642
20
-3.6628822834645667
11
6.0093824409448819
21
-3.6633858267716533
0
LINE
8
BLACK
6
CONTINUOUS
10
6.0093824409448819
20
-3.6633858267716533
11
6.0160857480314958
21
-3.6633858267716533
0
LINE
8
BLACK
6
CONTINUOUS
10
6.0160857480314958
20
-3.6633858267716533
11
6.0393700787401574
21
-3.640101496062992
0
LINE
8
BLACK
6
CONTINUOUS
10
6.0393700787401574
20
-3.640101496062992
11
6.0393700787401574
21
-3.5236220472440944
0
LINE
8
BLACK
6
CONTINUOUS
10
6.0393700787401574
20
-3.5236220472440944
11
6.0394457086614173
21
-3.5228539763779527
0
LINE
8
BLACK
6
CONTINUOUS
10
6.0394457086614173
20
-3.5228539763779527
11
6.0400335826771654
21
-3.5214347637795274
0
LINE
8
BLACK
6
CONTINUOUS
10
6.0400335826771654
20
-3.5214347637795274
11
6.040523188976378
21
-3.5208381496062993
0
LINE
8
BLACK
6
CONTINUOUS
10
6.040523188976378
20
-3.5208381496062993
11
6.0941649212598428
21
-3.4671964173228345
0
LINE
8
BLACK
6
CONTINUOUS
10
6.0941649212598428
20
-3.4671964173228345
11
6.0947615354330704
21
-3.4667068110236219
0
LINE
8
BLACK
6
CONTINUOUS
10
6.0947615354330704
20
-3.4667068110236219
11
6.0961807480314958
21
-3.4661189370078738
0
LINE
8
BLACK
6
CONTINUOUS
10
6.0961807480314958
20
-3.4661189370078738
11
6.096948818897638
21
-3.4660433070866139
0
LINE
8
BLACK
6
CONTINUOUS
10
6.096948818897638
20
-3.4660433070866139
11
6.1151574803149602
21
-3.4660433070866139
0
LINE
8
BLACK
6
CONTINUOUS
10
6.1151574803149602
20
-3.4660433070866139
11
6.1151574803149602
21
-3.4581692913385824
0
LINE
8
BLACK
6
CONTINUOUS
10
6.1151574803149602
20
-3.4581692913385824
11
6.1158692519685038
21
-3.4545910629921259
0
LINE
8
BLACK
6
CONTINUOUS
10
6.1158692519685038
20
-3.4545910629921259
11
6.1178961417322837
21
-3.451557559055118
0
LINE
8
BLACK
6
CONTINUOUS
10
6.1178961417322837
20
-3.451557559055118
11
6.1209296456692908
21
-3.4495306692913386
0
LINE
8
BLACK
6
CONTINUOUS
10
6.1209296456692908
20
-3.4495306692913386
11
6.1245078740157481
21
-3.4488188976377954
0
LINE
8
BLACK
6
CONTINUOUS
10
6.1245078740157481
20
-3.4488188976377954
11
6.1432086614173231
21
-3.4488188976377954
0
LINE
8
BLACK
6
CONTINUOUS
10
6.1432086614173231
20
-3.4488188976377954
11
6.1467868897637796
21
-3.4495306692913386
0
LINE
8
BLACK
6
CONTINUOUS
10
6.1467868897637796
20
-3.4495306692913386
11
6.1498203937007876
21
-3.451557559055118
0
LINE
8
BLACK
6
CONTINUOUS
10
6.1498203937007876
20
-3.451557559055118
11
6.1518472834645666
21
-3.4545910629921259
0
LINE
8
BLACK
6
CONTINUOUS
10
6.1518472834645666
20
-3.4545910629921259
11
6.1525590551181102
21
-3.4581692913385824
0
LINE
8
BLACK
6
CONTINUOUS
10
6.1525590551181102
20
-3.4581692913385824
11
6.1525590551181102
21
-3.4660433070866139
0
LINE
8
BLACK
6
CONTINUOUS
10
6.1525590551181102
20
-3.4660433070866139
11
6.2331133070866143
21
-3.4660433070866139
0
LINE
8
BLACK
6
CONTINUOUS
10
6.2331133070866143
20
-3.4660433070866139
11
6.2952755905511806
21
-3.4038810236220471
0
LINE
8
BLACK
6
CONTINUOUS
10
6.2952755905511806
20
-3.4038810236220471
11
6.2952755905511806
21
-3.1315520472440945
0
LINE
8
BLACK
6
CONTINUOUS
10
6.2952755905511806
20
-3.1315520472440945
11
6.277896771653543
21
-3.1141732283464565
0
LINE
8
BLACK
6
CONTINUOUS
10
6.277896771653543
20
-3.1141732283464565
11
5.5724968897637792
21
-3.1141732283464565
0
LINE
8
BLACK
6
CONTINUOUS
10
5.5724968897637792
20
-3.1141732283464565
11
5.5594488188976374
21
-3.1272212992125983
0
LINE
8
BLACK
6
CONTINUOUS
10
5.5594488188976374
20
-3.1272212992125983
11
5.5594488188976374
21
-3.1452755905511811
0
LINE
8
BLACK
6
CONTINUOUS
10
5.5594488188976374
20
-3.1452755905511811
11
5.5751968503937004
21
-3.1452755905511811
0
LINE
8
BLACK
6
CONTINUOUS
10
5.5751968503937004
20
-3.1452755905511811
11
5.5751968503937004
21
-3.2440944881889764
0
LINE
8
BLACK
6
CONTINUOUS
10
5.5751968503937004
20
-3.2440944881889764
11
5.5594488188976374
21
-3.2440944881889764
0
LINE
8
BLACK
6
CONTINUOUS
10
5.5594488188976374
20
-3.2440944881889764
11
5.5594488188976374
21
-3.4077196062992123
0
LINE
8
BLACK
6
CONTINUOUS
10
5.5594488188976374
20
-3.4077196062992123
11
5.6091313385826771
21
-3.457402125984252
0
LINE
8
BLACK
6
CONTINUOUS
10
5.6091313385826771
20
-3.457402125984252
11
5.6126968503937009
21
-3.4566929133858268
0
LINE
8
BLACK
6
CONTINUOUS
10
5.6126968503937009
20
-3.4566929133858268
11
5.631397637795275
21
-3.4566929133858268
0
LINE
8
BLACK
6
CONTINUOUS
10
5.631397637795275
20
-3.4566929133858268
11
5.6349758661417324
21
-3.45740468503937
0
LINE
8
BLACK
6
CONTINUOUS
10
5.6349758661417324
20
-3.45740468503937
11
5.6380093700787404
21
-3.4594315748031494
0
LINE
8
BLACK
6
CONTINUOUS
10
5.6380093700787404
20
-3.4594315748031494
11
5.6400362598425193
21
-3.4624650787401574
0
LINE
8
BLACK
6
CONTINUOUS
10
5.6400362598425193
20
-3.4624650787401574
11
5.640748031496063
21
-3.4660433070866139
0
LINE
8
BLACK
6
CONTINUOUS
10
5.640748031496063
20
-3.4660433070866139
11
5.640748031496063
21
-3.485728346456693
0
LINE
8
BLACK
6
CONTINUOUS
10
5.640748031496063
20
-3.485728346456693
11
5.6400362598425193
21
-3.4893065748031495
0
LINE
8
BLACK
6
CONTINUOUS
10
5.6400362598425193
20
-3.4893065748031495
11
5.6380093700787404
21
-3.4923400787401575
0
LINE
8
BLACK
6
CONTINUOUS
10
5.6380093700787404
20
-3.4923400787401575
11
5.6349758661417324
21
-3.4943669685039369
0
LINE
8
BLACK
6
CONTINUOUS
10
5.6349758661417324
20
-3.4943669685039369
11
5.631397637795275
21
-3.4950787401574801
0
LINE
8
BLACK
6
CONTINUOUS
10
5.631397637795275
20
-3.4950787401574801
11
5.6126968503937009
21
-3.4950787401574801
0
LINE
8
BLACK
6
CONTINUOUS
10
5.6126968503937009
20
-3.4950787401574801
11
5.6091186220472435
21
-3.4943669685039369
0
LINE
8
BLACK
6
CONTINUOUS
10
5.6091186220472435
20
-3.4943669685039369
11
5.6060851181102365
21
-3.4923400787401575
0
LINE
8
BLACK
6
CONTINUOUS
10
5.6060851181102365
20
-3.4923400787401575
11
5.6040582283464566
21
-3.4893065748031495
0
LINE
8
BLACK
6
CONTINUOUS
10
5.6040582283464566
20
-3.4893065748031495
11
5.603346456692913
21
-3.485728346456693
0
LINE
8
BLACK
6
CONTINUOUS
10
5.603346456692913
20
-3.485728346456693
11
5.603346456692913
21
-3.4660433070866139
0
LINE
8
BLACK
6
CONTINUOUS
10
5.603346456692913
20
-3.4660433070866139
11
5.6038923622047241
21
-3.4632987401574802
0
LINE
8
BLACK
6
CONTINUOUS
10
5.6038923622047241
20
-3.4632987401574802
11
5.5527279133858265
21
-3.4121342913385826
0
LINE
8
BLACK
6
CONTINUOUS
10
5.5527279133858265
20
-3.4121342913385826
11
5.5522383070866139
21
-3.4115376771653541
0
LINE
8
BLACK
6
CONTINUOUS
10
5.5522383070866139
20
-3.4115376771653541
11
5.5516504330708658
21
-3.4101184645669291
0
LINE
8
BLACK
6
CONTINUOUS
10
5.5516504330708658
20
-3.4101184645669291
11
5.5515748031496059
21
-3.4093503937007874
0
LINE
8
BLACK
6
CONTINUOUS
10
5.5515748031496059
20
-3.4093503937007874
11
5.5515748031496059
21
-3.2440944881889764
0
LINE
8
BLACK
6
CONTINUOUS
10
5.5515748031496059
20
-3.2440944881889764
11
5.535826771653543
21
-3.2440944881889764
0
LINE
8
BLACK
6
CONTINUOUS
10
5.535826771653543
20
-3.2440944881889764
11
5.535826771653543
21
-3.1452755905511811
0
LINE
8
BLACK
6
CONTINUOUS
10
5.535826771653543
20
-3.1452755905511811
11
5.5515748031496059
21
-3.1452755905511811
0
LINE
8
BLACK
6
CONTINUOUS
10
5.5515748031496059
20
-3.1452755905511811
11
5.5515748031496059
21
-3.1255905511811024
0
LINE
8
BLACK
6
CONTINUOUS
10
5.5515748031496059
20
-3.1255905511811024
11
5.5516504330708658
21
-3.1248224803149607
0
LINE
8
BLACK
6
CONTINUOUS
10
5.5516504330708658
20
-3.1248224803149607
11
5.5522383070866139
21
-3.1234032677165353
0
LINE
8
BLACK
6
CONTINUOUS
10
5.5522383070866139
20
-3.1234032677165353
11
5.5527279133858265
21
-3.1228066535433072
0
LINE
8
BLACK
6
CONTINUOUS
10
5.5527279133858265
20
-3.1228066535433072
11
5.5680822440944882
21
-3.1074523622047243
0
LINE
8
BLACK
6
CONTINUOUS
10
5.5680822440944882
20
-3.1074523622047243
11
5.5686788188976379
21
-3.106962716535433
0
LINE
8
BLACK
6
CONTINUOUS
10
5.5686788188976379
20
-3.106962716535433
11
5.5690944881889761
21
-3.1067905118110235
0
LINE
8
BLACK
6
CONTINUOUS
10
5.5690944881889761
20
-3.1067905118110235
11
5.5700980708661412
21
-3.1063748425196849
0
LINE
8
BLACK
6
CONTINUOUS
10
5.5700980708661412
20
-3.1063748425196849
11
5.5708661417322833
21
-3.106299212598425
0
LINE
8
BLACK
6
CONTINUOUS
10
5.5708661417322833
20
-3.106299212598425
11
6.2795275590551176
21
-3.106299212598425
0
LINE
8
BLACK
6
CONTINUOUS
10
6.2795275590551176
20
-3.106299212598425
11
6.2802956299212598
21
-3.1063748425196849
0
LINE
8
BLACK
6
CONTINUOUS
10
5.7751968503937006
20
-3.2440944881889764
11
5.7594488188976376
21
-3.2440944881889764
0
LINE
8
BLACK
6
CONTINUOUS
10
5.7594488188976376
20
-3.2440944881889764
11
5.7594488188976376
21
-3.3916762992125982
0
LINE
8
BLACK
6
CONTINUOUS
10
5.7594488188976376
20
-3.3916762992125982
11
5.8708941338582674
21
-3.5031216141732284
0
LINE
8
BLACK
6
CONTINUOUS
10
5.8708941338582674
20
-3.5031216141732284
11
5.87138374015748
21
-3.5037182283464565
0
LINE
8
BLACK
6
CONTINUOUS
10
5.87138374015748
20
-3.5037182283464565
11
5.8719716141732281
21
-3.5051374409448819
0
LINE
8
BLACK
6
CONTINUOUS
10
5.8719716141732281
20
-3.5051374409448819
11
5.872047244094488
21
-3.5059055118110236
0
LINE
8
BLACK
6
CONTINUOUS
10
5.872047244094488
20
-3.5059055118110236
11
5.872047244094488
21
-3.6244758267716533
0
LINE
8
BLACK
6
CONTINUOUS
10
5.872047244094488
20
-3.6244758267716533
11
5.8725507874015745
21
-3.625691535433071
0
LINE
8
BLACK
6
CONTINUOUS
10
5.8725507874015745
20
-3.625691535433071
11
5.8726377952755904
21
-3.6265748031496061
0
LINE
8
BLACK
6
CONTINUOUS
10
5.8726377952755904
20
-3.6265748031496061
11
5.8726377952755904
21
-3.6490157480314962
0
LINE
8
BLACK
6
CONTINUOUS
10
5.8726377952755904
20
-3.6490157480314962
11
5.8725507874015745
21
-3.6498990157480313
0
LINE
8
BLACK
6
CONTINUOUS
10
5.8725507874015745
20
-3.6498990157480313
11
5.8718747637795277
21
-3.6515311417322835
0
LINE
8
BLACK
6
CONTINUOUS
10
5.8718747637795277
20
-3.6515311417322835
11
5.8706256299212596
21
-3.6527802755905512
0
LINE
8
BLACK
6
CONTINUOUS
10
5.8706256299212596
20
-3.6527802755905512
11
5.8689935039370074
21
-3.6534562992125985
0
LINE
8
BLACK
6
CONTINUOUS
10
5.8689935039370074
20
-3.6534562992125985
11
5.8672269685039371
21
-3.6534562992125985
0
LINE
8
BLACK
6
CONTINUOUS
10
5.8672269685039371
20
-3.6534562992125985
11
5.8655948425196849
21
-3.6527802755905512
0
LINE
8
BLACK
6
CONTINUOUS
10
5.8655948425196849
20
-3.6527802755905512
11
5.8643457086614168
21
-3.6515311417322835
0
LINE
8
BLACK
6
CONTINUOUS
10
5.8643457086614168
20
-3.6515311417322835
11
5.8636696850393699
21
-3.6498990157480313
0
LINE
8
BLACK
6
CONTINUOUS
10
5.8636696850393699
20
-3.6498990157480313
11
5.8635826771653541
21
-3.6490157480314962
0
LINE
8
BLACK
6
CONTINUOUS
10
5.8635826771653541
20
-3.6490157480314962
11
5.8635826771653541
21
-3.6265748031496061
0
LINE
8
BLACK
6
CONTINUOUS
10
5.8635826771653541
20
-3.6265748031496061
11
5.8636696850393699
21
-3.625691535433071
0
LINE
8
BLACK
6
CONTINUOUS
10
5.8636696850393699
20
-3.625691535433071
11
5.8641732283464565
21
-3.6244758267716533
0
LINE
8
BLACK
6
CONTINUOUS
10
5.8641732283464565
20
-3.6244758267716533
11
5.8641732283464565
21
-3.5075362992125982
0
LINE
8
BLACK
6
CONTINUOUS
10
5.8641732283464565
20
-3.5075362992125982
11
5.7527279133858267
21
-3.3960909842519684
0
LINE
8
BLACK
6
CONTINUOUS
10
5.7527279133858267
20
-3.3960909842519684
11
5.7522383070866141
21
-3.3954943700787399
0
LINE
8
BLACK
6
CONTINUOUS
10
5.7522383070866141
20
-3.3954943700787399
11
5.751650433070866
21
-3.394075157480315
0
LINE
8
BLACK
6
CONTINUOUS
10
5.751650433070866
20
-3.394075157480315
11
5.7515748031496061
21
-3.3933070866141732
0
LINE
8
BLACK
6
CONTINUOUS
10
5.7515748031496061
20
-3.3933070866141732
11
5.7515748031496061
21
-3.2440944881889764
0
LINE
8
BLACK
6
CONTINUOUS
10
5.7515748031496061
20
-3.2440944881889764
11
5.7358267716535432
21
-3.2440944881889764
0
LINE
8
BLACK
6
CONTINUOUS
10
5.7358267716535432
20
-3.2440944881889764
11
5.7358267716535432
21
-3.1452755905511811
0
LINE
8
BLACK
6
CONTINUOUS
10
5.7358267716535432
20
-3.1452755905511811
11
5.7751968503937006
21
-3.1452755905511811
0
LINE
8
BLACK
6
CONTINUOUS
10
5.7751968503937006
20
-3.1452755905511811
11
5.7751968503937006
21
-3.2440944881889764
0
LINE
8
BLACK
6
CONTINUOUS
10
5.8751968503937002
20
-3.3744094488188976
11
5.8594488188976372
21
-3.3744094488188976
0
LINE
8
BLACK
6
CONTINUOUS
10
5.8594488188976372
20
-3.3744094488188976
11
5.8594488188976372
21
-3.4326211811023621
0
LINE
8
BLACK
6
CONTINUOUS
10
5.8594488188976372
20
-3.4326211811023621
11
5.8905791732283461
21
-3.4637515354330706
0
LINE
8
BLACK
6
CONTINUOUS
10
5.8905791732283461
20
-3.4637515354330706
11
5.8910687795275587
21
-3.4643481496062991
0
LINE
8
BLACK
6
CONTINUOUS
10
5.8910687795275587
20
-3.4643481496062991
11
5.8916566535433068
21
-3.4657673622047245
0
LINE
8
BLACK
6
CONTINUOUS
10
5.8916566535433068
20
-3.4657673622047245
11
5.8917322834645667
21
-3.4665354330708662
0
LINE
8
BLACK
6
CONTINUOUS
10
5.8917322834645667
20
-3.4665354330708662
11
5.8917322834645667
21
-3.6244758267716533
0
LINE
8
BLACK
6
CONTINUOUS
10
5.8917322834645667
20
-3.6244758267716533
11
5.8922358267716533
21
-3.625691535433071
0
LINE
8
BLACK
6
CONTINUOUS
10
5.8922358267716533
20
-3.625691535433071
11
5.8923228346456691
21
-3.6265748031496061
0
LINE
8
BLACK
6
CONTINUOUS
10
5.8923228346456691
20
-3.6265748031496061
11
5.8923228346456691
21
-3.6490157480314962
0
LINE
8
BLACK
6
CONTINUOUS
10
5.8923228346456691
20
-3.6490157480314962
11
5.8922358267716533
21
-3.6498990157480313
0
LINE
8
BLACK
6
CONTINUOUS
10
5.8922358267716533
20
-3.6498990157480313
11
5.8915598031496064
21
-3.6515311417322835
0
LINE
8
BLACK
6
CONTINUOUS
10
5.8915598031496064
20
-3.6515311417322835
11
5.8903106692913383
21
-3.6527802755905512
0
LINE
8
BLACK
6
CONTINUOUS
10
5.8903106692913383
20
-3.6527802755905512
11
5.8886785433070861
21
-3.6534562992125985
0
LINE
8
BLACK
6
CONTINUOUS
10
5.8886785433070861
20
-3.6534562992125985
11
5.8869120078740158
21
-3.6534562992125985
0
LINE
8
BLACK
6
CONTINUOUS
10
5.8869120078740158
20
-3.6534562992125985
11
5.8852798818897636
21
-3.6527802755905512
0
LINE
8
BLACK
6
CONTINUOUS
10
5.8852798818897636
20
-3.6527802755905512
11
5.8840307480314955
21
-3.6515311417322835
0
LINE
8
BLACK
6
CONTINUOUS
10
5.8840307480314955
20
-3.6515311417322835
11
5.8833547244094486
21
-3.6498990157480313
0
LINE
8
BLACK
6
CONTINUOUS
10
5.8833547244094486
20
-3.6498990157480313
11
5.8832677165354328
21
-3.6490157480314962
0
LINE
8
BLACK
6
CONTINUOUS
10
5.8832677165354328
20
-3.6490157480314962
11
5.8832677165354328
21
-3.6265748031496061
0
LINE
8
BLACK
6
CONTINUOUS
10
5.8832677165354328
20
-3.6265748031496061
11
5.8833547244094486
21
-3.625691535433071
0
LINE
8
BLACK
6
CONTINUOUS
10
5.8833547244094486
20
-3.625691535433071
11
5.8838582677165352
21
-3.6244758267716533
0
LINE
8
BLACK
6
CONTINUOUS
10
5.8838582677165352
20
-3.6244758267716533
11
5.8838582677165352
21
-3.4681662204724408
0
LINE
8
BLACK
6
CONTINUOUS
10
5.8838582677165352
20
-3.4681662204724408
11
5.8527279133858263
21
-3.4370358661417324
0
LINE
8
BLACK
6
CONTINUOUS
10
5.8527279133858263
20
-3.4370358661417324
11
5.8522383070866137
21
-3.4364392519685039
0
LINE
8
BLACK
6
CONTINUOUS
10
5.8522383070866137
20
-3.4364392519685039
11
5.8516504330708656
21
-3.4350200393700785
0
LINE
8
BLACK
6
CONTINUOUS
10
5.8516504330708656
20
-3.4350200393700785
11
5.8515748031496058
21
-3.4342519685039368
0
LINE
8
BLACK
6
CONTINUOUS
10
5.8515748031496058
20
-3.4342519685039368
11
5.8515748031496058
21
-3.3744094488188976
0
LINE
8
BLACK
6
CONTINUOUS
10
5.8515748031496058
20
-3.3744094488188976
11
5.8358267716535428
21
-3.3744094488188976
0
LINE
8
BLACK
6
CONTINUOUS
10
5.8358267716535428
20
-3.3744094488188976
11
5.8358267716535428
21
-3.2755905511811023
0
LINE
8
BLACK
6
CONTINUOUS
10
5.8358267716535428
20
-3.2755905511811023
11
5.8751968503937002
21
-3.2755905511811023
0
LINE
8
BLACK
6
CONTINUOUS
10
5.8751968503937002
20
-3.2755905511811023
11
5.8751968503937002
21
-3.3744094488188976
0
LINE
8
BLACK
6
CONTINUOUS
10
5.9751968503937007
20
-3.2440944881889764
11
5.9594488188976378
21
-3.2440944881889764
0
LINE
8
BLACK
6
CONTINUOUS
10
5.9594488188976378
20
-3.2440944881889764
11
5.9594488188976378
21
-3.4145669291338581
0
LINE
8
BLACK
6
CONTINUOUS
10
5.9594488188976378
20
-3.4145669291338581
11
5.9593731889763779
21
-3.4153349999999998
0
LINE
8
BLACK
6
CONTINUOUS
10
5.9593731889763779
20
-3.4153349999999998
11
5.9587853543307086
21
-3.4167542125984252
0
LINE
8
BLACK
6
CONTINUOUS
10
5.9587853543307086
20
-3.4167542125984252
11
5.9582957086614172
21
-3.4173507874015749
0
LINE
8
BLACK
6
CONTINUOUS
10
5.9582957086614172
20
-3.4173507874015749
11
5.9114173228346454
21
-3.4642291732283463
0
LINE
8
BLACK
6
CONTINUOUS
10
5.9114173228346454
20
-3.4642291732283463
11
5.9114173228346454
21
-3.6244758267716533
0
LINE
8
BLACK
6
CONTINUOUS
10
5.9114173228346454
20
-3.6244758267716533
11
5.911920866141732
21
-3.625691535433071
0
LINE
8
BLACK
6
CONTINUOUS
10
5.911920866141732
20
-3.625691535433071
11
5.9120078740157478
21
-3.6265748031496061
0
LINE
8
BLACK
6
CONTINUOUS
10
5.9120078740157478
20
-3.6265748031496061
11
5.9120078740157478
21
-3.6490157480314962
0
LINE
8
BLACK
6
CONTINUOUS
10
5.9120078740157478
20
-3.6490157480314962
11
5.911920866141732
21
-3.6498990157480313
0
LINE
8
BLACK
6
CONTINUOUS
10
5.911920866141732
20
-3.6498990157480313
11
5.9112448425196851
21
-3.6515311417322835
0
LINE
8
BLACK
6
CONTINUOUS
10
5.9112448425196851
20
-3.6515311417322835
11
5.909995708661417
21
-3.6527802755905512
0
LINE
8
BLACK
6
CONTINUOUS
10
5.909995708661417
20
-3.6527802755905512
11
5.9083635826771657
21
-3.6534562992125985
0
LINE
8
BLACK
6
CONTINUOUS
10
5.9083635826771657
20
-3.6534562992125985
11
5.9065970472440945
21
-3.6534562992125985
0
LINE
8
BLACK
6
CONTINUOUS
10
5.9065970472440945
20
-3.6534562992125985
11
5.9049649212598423
21
-3.6527802755905512
0
LINE
8
BLACK
6
CONTINUOUS
10
5.9049649212598423
20
-3.6527802755905512
11
5.9037157874015751
21
-3.6515311417322835
0
LINE
8
BLACK
6
CONTINUOUS
10
5.9037157874015751
20
-3.6515311417322835
11
5.9030397637795273
21
-3.6498990157480313
0
LINE
8
BLACK
6
CONTINUOUS
10
5.9030397637795273
20
-3.6498990157480313
11
5.9029527559055115
21
-3.6490157480314962
0
LINE
8
BLACK
6
CONTINUOUS
10
5.9029527559055115
20
-3.6490157480314962
11
5.9029527559055115
21
-3.6265748031496061
0
LINE
8
BLACK
6
CONTINUOUS
10
5.9029527559055115
20
-3.6265748031496061
11
5.9030397637795273
21
-3.625691535433071
0
LINE
8
BLACK
6
CONTINUOUS
10
5.9030397637795273
20
-3.625691535433071
11
5.9035433070866139
21
-3.6244758267716533
0
LINE
8
BLACK
6
CONTINUOUS
10
5.9035433070866139
20
-3.6244758267716533
11
5.9035433070866139
21
-3.4625984251968505
0
LINE
8
BLACK
6
CONTINUOUS
10
5.9035433070866139
20
-3.4625984251968505
11
5.9036189370078738
21
-3.4618303543307087
0
LINE
8
BLACK
6
CONTINUOUS
10
5.9036189370078738
20
-3.4618303543307087
11
5.9042068110236219
21
-3.4604111417322834
0
LINE
8
BLACK
6
CONTINUOUS
10
5.9042068110236219
20
-3.4604111417322834
11
5.9046964173228345
21
-3.4598145275590548
0
LINE
8
BLACK
6
CONTINUOUS
10
5.9046964173228345
20
-3.4598145275590548
11
5.9515748031496063
21
-3.4129361417322834
0
LINE
8
BLACK
6
CONTINUOUS
10
5.9515748031496063
20
-3.4129361417322834
11
5.9515748031496063
21
-3.2440944881889764
0
LINE
8
BLACK
6
CONTINUOUS
10
5.9515748031496063
20
-3.2440944881889764
11
5.9358267716535433
21
-3.2440944881889764
0
LINE
8
BLACK
6
CONTINUOUS
10
5.9358267716535433
20
-3.2440944881889764
11
5.9358267716535433
21
-3.1452755905511811
0
LINE
8
BLACK
6
CONTINUOUS
10
5.9358267716535433
20
-3.1452755905511811
11
5.9751968503937007
21
-3.1452755905511811
0
LINE
8
BLACK
6
CONTINUOUS
10
5.9751968503937007
20
-3.1452755905511811
11
5.9751968503937007
21
-3.2440944881889764
0
LINE
8
BLACK
6
CONTINUOUS
10
6.0751968503937004
20
-3.3744094488188976
11
6.0413945669291333
21
-3.3744094488188976
0
LINE
8
BLACK
6
CONTINUOUS
10
6.0413945669291333
20
-3.3744094488188976
11
5.9311023622047241
21
-3.4847016535433069
0
LINE
8
BLACK
6
CONTINUOUS
10
5.9311023622047241
20
-3.4847016535433069
11
5.9311023622047241
21
-3.6244758267716533
0
LINE
8
BLACK
6
CONTINUOUS
10
5.9311023622047241
20
-3.6244758267716533
11
5.9316059055118107
21
-3.625691535433071
0
LINE
8
BLACK
6
CONTINUOUS
10
5.9316059055118107
20
-3.625691535433071
11
5.9316929133858265
21
-3.6265748031496061
0
LINE
8
BLACK
6
CONTINUOUS
10
5.9316929133858265
20
-3.6265748031496061
11
5.9316929133858265
21
-3.6490157480314962
0
LINE
8
BLACK
6
CONTINUOUS
10
5.9316929133858265
20
-3.6490157480314962
11
5.9316059055118107
21
-3.6498990157480313
0
LINE
8
BLACK
6
CONTINUOUS
10
5.9316059055118107
20
-3.6498990157480313
11
5.9309298818897638
21
-3.6515311417322835
0
LINE
8
BLACK
6
CONTINUOUS
10
5.9309298818897638
20
-3.6515311417322835
11
5.9296807480314957
21
-3.6527802755905512
0
LINE
8
BLACK
6
CONTINUOUS
10
5.9296807480314957
20
-3.6527802755905512
11
5.9280486220472444
21
-3.6534562992125985
0
LINE
8
BLACK
6
CONTINUOUS
10
5.9280486220472444
20
-3.6534562992125985
11
5.9262820866141732
21
-3.6534562992125985
0
LINE
8
BLACK
6
CONTINUOUS
10
5.9262820866141732
20
-3.6534562992125985
11
5.924649960629921
21
-3.6527802755905512
0
LINE
8
BLACK
6
CONTINUOUS
10
5.924649960629921
20
-3.6527802755905512
11
5.9234008267716538
21
-3.6515311417322835
0
LINE
8
BLACK
6
CONTINUOUS
10
5.9234008267716538
20
-3.6515311417322835
11
5.922724803149606
21
-3.6498990157480313
0
LINE
8
BLACK
6
CONTINUOUS
10
5.922724803149606
20
-3.6498990157480313
11
5.9226377952755902
21
-3.6490157480314962
0
LINE
8
BLACK
6
CONTINUOUS
10
5.9226377952755902
20
-3.6490157480314962
11
5.9226377952755902
21
-3.6265748031496061
0
LINE
8
BLACK
6
CONTINUOUS
10
5.9226377952755902
20
-3.6265748031496061
11
5.922724803149606
21
-3.625691535433071
0
LINE
8
BLACK
6
CONTINUOUS
10
5.922724803149606
20
-3.625691535433071
11
5.9232283464566926
21
-3.6244758267716533
0
LINE
8
BLACK
6
CONTINUOUS
10
5.9232283464566926
20
-3.6244758267716533
11
5.9232283464566926
21
-3.4830708661417322
0
LINE
8
BLACK
6
CONTINUOUS
10
5.9232283464566926
20
-3.4830708661417322
11
5.9233039763779525
21
-3.4823027952755905
0
LINE
8
BLACK
6
CONTINUOUS
10
5.9233039763779525
20
-3.4823027952755905
11
5.9238918503937006
21
-3.4808835826771651
0
LINE
8
BLACK
6
CONTINUOUS
10
5.9238918503937006
20
-3.4808835826771651
11
5.9243814566929132
21
-3.480286968503937
0
LINE
8
BLACK
6
CONTINUOUS
10
5.9243814566929132
20
-3.480286968503937
11
6.035826771653543
21
-3.3688416535433072
0
LINE
8
BLACK
6
CONTINUOUS
10
6.035826771653543
20
-3.3688416535433072
11
6.035826771653543
21
-3.2755905511811023
0
LINE
8
BLACK
6
CONTINUOUS
10
6.035826771653543
20
-3.2755905511811023
11
6.0751968503937004
21
-3.2755905511811023
0
LINE
8
BLACK
6
CONTINUOUS
10
6.0751968503937004
20
-3.2755905511811023
11
6.0751968503937004
21
-3.3744094488188976
0
LINE
8
BLACK
6
CONTINUOUS
10
6.1751968503937009
20
-3.2440944881889764
11
6.159448818897638
21
-3.2440944881889764
0
LINE
8
BLACK
6
CONTINUOUS
10
6.159448818897638
20
-3.2440944881889764
11
6.159448818897638
21
-3.3177165354330707
0
LINE
8
BLACK
6
CONTINUOUS
10
6.159448818897638
20
-3.3177165354330707
11
6.1593731889763781
21
-3.3184846062992124
0
LINE
8
BLACK
6
CONTINUOUS
10
6.1593731889763781
20
-3.3184846062992124
11
6.15878531496063
21
-3.3199038188976377
0
LINE
8
BLACK
6
CONTINUOUS
10
6.15878531496063
20
-3.3199038188976377
11
6.1582957086614174
21
-3.3205004330708663
0
LINE
8
BLACK
6
CONTINUOUS
10
6.1582957086614174
20
-3.3205004330708663
11
5.9507874015748028
21
-3.5280087401574804
0
LINE
8
BLACK
6
CONTINUOUS
10
5.9507874015748028
20
-3.5280087401574804
11
5.9507874015748028
21
-3.6244758267716533
0
LINE
8
BLACK
6
CONTINUOUS
10
5.9507874015748028
20
-3.6244758267716533
11
5.9512909448818894
21
-3.625691535433071
0
LINE
8
BLACK
6
CONTINUOUS
10
5.9512909448818894
20
-3.625691535433071
11
5.9513779527559052
21
-3.6265748031496061
0
LINE
8
BLACK
6
CONTINUOUS
10
5.9513779527559052
20
-3.6265748031496061
11
5.9513779527559052
21
-3.6490157480314962
0
LINE
8
BLACK
6
CONTINUOUS
10
5.9513779527559052
20
-3.6490157480314962
11
5.9512909448818894
21
-3.6498990157480313
0
LINE
8
BLACK
6
CONTINUOUS
10
5.9512909448818894
20
-3.6498990157480313
11
5.9506149212598425
21
-3.6515311417322835
0
LINE
8
BLACK
6
CONTINUOUS
10
5.9506149212598425
20
-3.6515311417322835
11
5.9493657874015744
21
-3.6527802755905512
0
LINE
8
BLACK
6
CONTINUOUS
10
5.9493657874015744
20
-3.6527802755905512
11
5.9477336614173231
21
-3.6534562992125985
0
LINE
8
BLACK
6
CONTINUOUS
10
5.9477336614173231
20
-3.6534562992125985
11
5.9459671259842519
21
-3.6534562992125985
0
LINE
8
BLACK
6
CONTINUOUS
10
5.9459671259842519
20
-3.6534562992125985
11
5.9443349999999997
21
-3.6527802755905512
0
LINE
8
BLACK
6
CONTINUOUS
10
5.9443349999999997
20
-3.6527802755905512
11
5.9430858661417325
21
-3.6515311417322835
0
LINE
8
BLACK
6
CONTINUOUS
10
5.9430858661417325
20
-3.6515311417322835
11
5.9424098425196847
21
-3.6498990157480313
0
LINE
8
BLACK
6
CONTINUOUS
10
5.9424098425196847
20
-3.6498990157480313
11
5.9423228346456689
21
-3.6490157480314962
0
LINE
8
BLACK
6
CONTINUOUS
10
5.9423228346456689
20
-3.6490157480314962
11
5.9423228346456689
21
-3.6265748031496061
0
LINE
8
BLACK
6
CONTINUOUS
10
5.9423228346456689
20
-3.6265748031496061
11
5.9424098425196847
21
-3.625691535433071
0
LINE
8
BLACK
6
CONTINUOUS
10
5.9424098425196847
20
-3.625691535433071
11
5.9429133858267713
21
-3.6244758267716533
0
LINE
8
BLACK
6
CONTINUOUS
10
5.9429133858267713
20
-3.6244758267716533
11
5.9429133858267713
21
-3.5263779527559054
0
LINE
8
BLACK
6
CONTINUOUS
10
5.9429133858267713
20
-3.5263779527559054
11
5.9429890157480312
21
-3.5256098818897637
0
LINE
8
BLACK
6
CONTINUOUS
10
5.9429890157480312
20
-3.5256098818897637
11
5.9435768897637793
21
-3.5241906692913383
0
LINE
8
BLACK
6
CONTINUOUS
10
5.9435768897637793
20
-3.5241906692913383
11
5.9440664960629919
21
-3.5235940551181102
0
LINE
8
BLACK
6
CONTINUOUS
10
5.9440664960629919
20
-3.5235940551181102
11
6.1515748031496065
21
-3.316085748031496
0
LINE
8
BLACK
6
CONTINUOUS
10
6.1515748031496065
20
-3.316085748031496
11
6.1515748031496065
21
-3.2440944881889764
0
LINE
8
BLACK
6
CONTINUOUS
10
6.1515748031496065
20
-3.2440944881889764
11
6.1358267716535435
21
-3.2440944881889764
0
LINE
8
BLACK
6
CONTINUOUS
10
6.1358267716535435
20
-3.2440944881889764
11
6.1358267716535435
21
-3.1452755905511811
0
LINE
8
BLACK
6
CONTINUOUS
10
6.1358267716535435
20
-3.1452755905511811
11
6.1751968503937009
21
-3.1452755905511811
0
LINE
8
BLACK
6
CONTINUOUS
10
6.1751968503937009
20
-3.1452755905511811
11
6.1751968503937009
21
-3.2440944881889764
0
LINE
8
BLACK
6
CONTINUOUS
10
6.2751968503937006
20
-3.3744094488188976
11
6.2358267716535432
21
-3.3744094488188976
0
LINE
8
BLACK
6
CONTINUOUS
10
6.2358267716535432
20
-3.3744094488188976
11
6.2358267716535432
21
-3.3289370078740155
0
LINE
8
BLACK
6
CONTINUOUS
10
6.2358267716535432
20
-3.3289370078740155
11
6.2041898031496059
21
-3.3289370078740155
0
LINE
8
BLACK
6
CONTINUOUS
10
6.2041898031496059
20
-3.3289370078740155
11
5.9704724409448815
21
-3.5626543700787399
0
LINE
8
BLACK
6
CONTINUOUS
10
5.9704724409448815
20
-3.5626543700787399
11
5.9704724409448815
21
-3.6244758267716533
0
LINE
8
BLACK
6
CONTINUOUS
10
5.9704724409448815
20
-3.6244758267716533
11
5.9709759842519681
21
-3.625691535433071
0
LINE
8
BLACK
6
CONTINUOUS
10
5.9709759842519681
20
-3.625691535433071
11
5.9710629921259839
21
-3.6265748031496061
0
LINE
8
BLACK
6
CONTINUOUS
10
5.9710629921259839
20
-3.6265748031496061
11
5.9710629921259839
21
-3.6490157480314962
0
LINE
8
BLACK
6
CONTINUOUS
10
5.9710629921259839
20
-3.6490157480314962
11
5.9709759842519681
21
-3.6498990157480313
0
LINE
8
BLACK
6
CONTINUOUS
10
5.9709759842519681
20
-3.6498990157480313
11
5.9702999606299212
21
-3.6515311417322835
0
LINE
8
BLACK
6
CONTINUOUS
10
5.9702999606299212
20
-3.6515311417322835
11
5.9690508267716531
21
-3.6527802755905512
0
LINE
8
BLACK
6
CONTINUOUS
10
5.9690508267716531
20
-3.6527802755905512
11
5.9674187007874018
21
-3.6534562992125985
0
LINE
8
BLACK
6
CONTINUOUS
10
5.9674187007874018
20
-3.6534562992125985
11
5.9656521653543306
21
-3.6534562992125985
0
LINE
8
BLACK
6
CONTINUOUS
10
5.9656521653543306
20
-3.6534562992125985
11
5.9640200393700784
21
-3.6527802755905512
0
LINE
8
BLACK
6
CONTINUOUS
10
5.9640200393700784
20
-3.6527802755905512
11
5.9627709055118112
21
-3.6515311417322835
0
LINE
8
BLACK
6
CONTINUOUS
10
5.9627709055118112
20
-3.6515311417322835
11
5.9620948818897634
21
-3.6498990157480313
0
LINE
8
BLACK
6
CONTINUOUS
10
5.9620948818897634
20
-3.6498990157480313
11
5.9620078740157476
21
-3.6490157480314962
0
LINE
8
BLACK
6
CONTINUOUS
10
5.9620078740157476
20
-3.6490157480314962
11
5.9620078740157476
21
-3.6265748031496061
0
LINE
8
BLACK
6
CONTINUOUS
10
5.9620078740157476
20
-3.6265748031496061
11
5.9620948818897634
21
-3.625691535433071
0
LINE
8
BLACK
6
CONTINUOUS
10
5.9620948818897634
20
-3.625691535433071
11
5.96259842519685
21
-3.6244758267716533
0
LINE
8
BLACK
6
CONTINUOUS
10
5.96259842519685
20
-3.6244758267716533
11
5.96259842519685
21
-3.561023622047244
0
LINE
8
BLACK
6
CONTINUOUS
10
5.96259842519685
20
-3.561023622047244
11
5.9626740551181099
21
-3.5602555511811023
0
LINE
8
BLACK
6
CONTINUOUS
10
5.9626740551181099
20
-3.5602555511811023
11
5.963261929133858
21
-3.5588363385826769
0
LINE
8
BLACK
6
CONTINUOUS
10
5.963261929133858
20
-3.5588363385826769
11
5.9637515354330706
21
-3.5582397244094488
0
LINE
8
BLACK
6
CONTINUOUS
10
5.9637515354330706
20
-3.5582397244094488
11
6.1997751574803148
21
-3.3222161417322833
0
LINE
8
BLACK
6
CONTINUOUS
10
6.1997751574803148
20
-3.3222161417322833
11
6.2003717322834646
21
-3.321726496062992
0
LINE
8
BLACK
6
CONTINUOUS
10
6.2003717322834646
20
-3.321726496062992
11
6.2007874015748028
21
-3.3215542913385825
0
LINE
8
BLACK
6
CONTINUOUS
10
6.2007874015748028
20
-3.3215542913385825
11
6.2017909842519687
21
-3.3211386220472439
0
LINE
8
BLACK
6
CONTINUOUS
10
6.2017909842519687
20
-3.3211386220472439
11
6.20255905511811
21
-3.321062992125984
0
LINE
8
BLACK
6
CONTINUOUS
10
6.20255905511811
20
-3.321062992125984
11
6.2358267716535432
21
-3.321062992125984
0
LINE
8
BLACK
6
CONTINUOUS
10
6.2358267716535432
20
-3.321062992125984
11
6.2358267716535432
21
-3.2755905511811023
0
LINE
8
BLACK
6
CONTINUOUS
10
6.2358267716535432
20
-3.2755905511811023
11
6.2751968503937006
21
-3.2755905511811023
0
LINE
8
BLACK
6
CONTINUOUS
10
6.2751968503937006
20
-3.2755905511811023
11
6.2751968503937006
21
-3.3744094488188976
0
LINE
8
BLACK
6
CONTINUOUS
10
5.4751968503937007
20
-3.3744094488188976
11
5.4594488188976378
21
-3.3744094488188976
0
LINE
8
BLACK
6
CONTINUOUS
10
5.4594488188976378
20
-3.3744094488188976
11
5.4594488188976378
21
-3.5
0
LINE
8
BLACK
6
CONTINUOUS
10
5.4594488188976378
20
-3.5
11
5.5108661417322837
21
-3.5
0
LINE
8
BLACK
6
CONTINUOUS
10
5.5108661417322837
20
-3.5
11
5.5135054724409445
21
-3.500775
0
LINE
8
BLACK
6
CONTINUOUS
10
5.5135054724409445
20
-3.500775
11
5.5153068503937011
21
-3.5028538976377952
0
LINE
8
BLACK
6
CONTINUOUS
10
5.5153068503937011
20
-3.5028538976377952
11
5.515748031496063
21
-3.5048818897637792
0
LINE
8
BLACK
6
CONTINUOUS
10
5.515748031496063
20
-3.5048818897637792
11
5.515748031496063
21
-3.5078740157480315
0
LINE
8
BLACK
6
CONTINUOUS
10
5.515748031496063
20
-3.5078740157480315
11
5.7140748031496065
21
-3.5078740157480315
0
LINE
8
BLACK
6
CONTINUOUS
10
5.7140748031496065
20
-3.5078740157480315
11
5.7148428740157478
21
-3.5079496456692913
0
LINE
8
BLACK
6
CONTINUOUS
10
5.7148428740157478
20
-3.5079496456692913
11
5.7162620866141731
21
-3.5085375196850395
0
LINE
8
BLACK
6
CONTINUOUS
10
5.7162620866141731
20
-3.5085375196850395
11
5.7168587007874017
21
-3.509027125984252
0
LINE
8
BLACK
6
CONTINUOUS
10
5.7168587007874017
20
-3.509027125984252
11
5.7339319685039367
21
-3.5261003937007875
0
LINE
8
BLACK
6
CONTINUOUS
10
5.7339319685039367
20
-3.5261003937007875
11
5.7351028740157481
21
-3.5253180708661418
0
LINE
8
BLACK
6
CONTINUOUS
10
5.7351028740157481
20
-3.5253180708661418
11
5.7386811023622046
21
-3.5246062992125982
0
LINE
8
BLACK
6
CONTINUOUS
10
5.7386811023622046
20
-3.5246062992125982
11
5.7573818897637796
21
-3.5246062992125982
0
LINE
8
BLACK
6
CONTINUOUS
10
5.7573818897637796
20
-3.5246062992125982
11
5.7609601181102361
21
-3.5253180708661418
0
LINE
8
BLACK
6
CONTINUOUS
10
5.7609601181102361
20
-3.5253180708661418
11
5.7639936220472441
21
-3.5273449606299212
0
LINE
8
BLACK
6
CONTINUOUS
10
5.7639936220472441
20
-3.5273449606299212
11
5.7660205118110239
21
-3.5303784645669292
0
LINE
8
BLACK
6
CONTINUOUS
10
5.7660205118110239
20
-3.5303784645669292
11
5.7667322834645667
21
-3.5339566929133857
0
LINE
8
BLACK
6
CONTINUOUS
10
5.7667322834645667
20
-3.5339566929133857
11
5.7667322834645667
21
-3.5575787401574801
0
LINE
8
BLACK
6
CONTINUOUS
10
5.7667322834645667
20
-3.5575787401574801
11
5.7660205118110239
21
-3.561156968503937
0
LINE
8
BLACK
6
CONTINUOUS
10
5.7660205118110239
20
-3.561156968503937
11
5.7639936220472441
21
-3.564190472440945
0
LINE
8
BLACK
6
CONTINUOUS
10
5.7639936220472441
20
-3.564190472440945
11
5.7609601181102361
21
-3.5662173622047244
0
LINE
8
BLACK
6
CONTINUOUS
10
5.7609601181102361
20
-3.5662173622047244
11
5.7573818897637796
21
-3.5669291338582676
0
LINE
8
BLACK
6
CONTINUOUS
10
5.7573818897637796
20
-3.5669291338582676
11
5.7386811023622046
21
-3.5669291338582676
0
LINE
8
BLACK
6
CONTINUOUS
10
5.7386811023622046
20
-3.5669291338582676
11
5.7351028740157481
21
-3.5662173622047244
0
LINE
8
BLACK
6
CONTINUOUS
10
5.7351028740157481
20
-3.5662173622047244
11
5.7320693700787402
21
-3.564190472440945
0
LINE
8
BLACK
6
CONTINUOUS
10
5.7320693700787402
20
-3.564190472440945
11
5.7300424803149603
21
-3.561156968503937
0
LINE
8
BLACK
6
CONTINUOUS
10
5.7300424803149603
20
-3.561156968503937
11
5.7293307086614176
21
-3.5575787401574801
0
LINE
8
BLACK
6
CONTINUOUS
10
5.7293307086614176
20
-3.5575787401574801
11
5.7293307086614176
21
-3.5339566929133857
0
LINE
8
BLACK
6
CONTINUOUS
10
5.7293307086614176
20
-3.5339566929133857
11
5.7295500393700785
21
-3.53285405511811
0
LINE
8
BLACK
6
CONTINUOUS
10
5.7295500393700785
20
-3.53285405511811
11
5.712444015748031
21
-3.515748031496063
0
LINE
8
BLACK
6
CONTINUOUS
10
5.712444015748031
20
-3.515748031496063
11
5.515748031496063
21
-3.515748031496063
0
LINE
8
BLACK
6
CONTINUOUS
10
5.515748031496063
20
-3.515748031496063
11
5.515748031496063
21
-3.613228346456693
0
LINE
8
BLACK
6
CONTINUOUS
10
5.515748031496063
20
-3.613228346456693
11
5.514973031496063
21
-3.6158676771653542
0
LINE
8
BLACK
6
CONTINUOUS
10
5.514973031496063
20
-3.6158676771653542
11
5.5128941338582678
21
-3.6176690551181103
0
LINE
8
BLACK
6
CONTINUOUS
10
5.5128941338582678
20
-3.6176690551181103
11
5.5108661417322837
21
-3.6181102362204722
0
LINE
8
BLACK
6
CONTINUOUS
10
5.5108661417322837
20
-3.6181102362204722
11
5.3434645669291339
21
-3.6181102362204722
0
LINE
8
BLACK
6
CONTINUOUS
10
5.3434645669291339
20
-3.6181102362204722
11
5.3408252362204722
21
-3.6173352362204723
0
LINE
8
BLACK
6
CONTINUOUS
10
5.3408252362204722
20
-3.6173352362204723
11
5.3390238582677165
21
-3.615256338582677
0
LINE
8
BLACK
6
CONTINUOUS
10
5.3390238582677165
20
-3.615256338582677
11
5.3385826771653546
21
-3.613228346456693
0
LINE
8
BLACK
6
CONTINUOUS
10
5.3385826771653546
20
-3.613228346456693
11
5.3385826771653546
21
-3.5048818897637792
0
LINE
8
BLACK
6
CONTINUOUS
10
5.3385826771653546
20
-3.5048818897637792
11
5.3393576771653546
21
-3.5022425590551181
0
LINE
8
BLACK
6
CONTINUOUS
10
5.3393576771653546
20
-3.5022425590551181
11
5.3414365748031498
21
-3.5004411811023619
0
LINE
8
BLACK
6
CONTINUOUS
10
5.3414365748031498
20
-3.5004411811023619
11
5.3434645669291339
21
-3.5
0
LINE
8
BLACK
6
CONTINUOUS
10
5.3434645669291339
20
-3.5
11
5.4515748031496063
21
-3.5
0
LINE
8
BLACK
6
CONTINUOUS
10
5.4515748031496063
20
-3.5
11
5.4515748031496063
21
-3.3744094488188976
0
LINE
8
BLACK
6
CONTINUOUS
10
5.4515748031496063
20
-3.3744094488188976
11
5.4358267716535433
21
-3.3744094488188976
0
LINE
8
BLACK
6
CONTINUOUS
10
5.4358267716535433
20
-3.3744094488188976
11
5.4358267716535433
21
-3.2755905511811023
0
LINE
8
BLACK
6
CONTINUOUS
10
5.4358267716535433
20
-3.2755905511811023
11
5.4751968503937007
21
-3.2755905511811023
0
LINE
8
BLACK
6
CONTINUOUS
10
5.4751968503937007
20
-3.2755905511811023
11
5.4751968503937007
21
-3.3744094488188976
0
LINE
8
BLACK
6
CONTINUOUS
10
6.4938204330708658
20
-3.500775
11
6.4956218110236215
21
-3.5028538976377952
0
LINE
8
BLACK
6
CONTINUOUS
10
6.4956218110236215
20
-3.5028538976377952
11
6.4960629921259843
21
-3.5048818897637792
0
LINE
8
BLACK
6
CONTINUOUS
10
6.4960629921259843
20
-3.5048818897637792
11
6.4960629921259843
21
-3.613228346456693
0
LINE
8
BLACK
6
CONTINUOUS
10
6.4960629921259843
20
-3.613228346456693
11
6.4952879921259843
21
-3.6158676771653542
0
LINE
8
BLACK
6
CONTINUOUS
10
6.4952879921259843
20
-3.6158676771653542
11
6.4932090944881891
21
-3.6176690551181103
0
LINE
8
BLACK
6
CONTINUOUS
10
6.4932090944881891
20
-3.6176690551181103
11
6.4911811023622041
21
-3.6181102362204722
0
LINE
8
BLACK
6
CONTINUOUS
10
6.4911811023622041
20
-3.6181102362204722
11
6.3237795275590551
21
-3.6181102362204722
0
LINE
8
BLACK
6
CONTINUOUS
10
6.3237795275590551
20
-3.6181102362204722
11
6.3211401968503935
21
-3.6173352362204723
0
LINE
8
BLACK
6
CONTINUOUS
10
6.3211401968503935
20
-3.6173352362204723
11
6.3193388188976378
21
-3.615256338582677
0
LINE
8
BLACK
6
CONTINUOUS
10
6.3193388188976378
20
-3.615256338582677
11
6.318897637795275
21
-3.613228346456693
0
LINE
8
BLACK
6
CONTINUOUS
10
6.318897637795275
20
-3.613228346456693
11
6.318897637795275
21
-3.5418307086614171
0
LINE
8
BLACK
6
CONTINUOUS
10
6.318897637795275
20
-3.5418307086614171
11
6.1525590551181102
21
-3.5418307086614171
0
LINE
8
BLACK
6
CONTINUOUS
10
6.1525590551181102
20
-3.5418307086614171
11
6.1525590551181102
21
-3.5497047244094486
0
LINE
8
BLACK
6
CONTINUOUS
10
6.1525590551181102
20
-3.5497047244094486
11
6.1518472834645666
21
-3.5532829527559056
0
LINE
8
BLACK
6
CONTINUOUS
10
6.1518472834645666
20
-3.5532829527559056
11
6.1498203937007876
21
-3.5563164566929135
0
LINE
8
BLACK
6
CONTINUOUS
10
6.1498203937007876
20
-3.5563164566929135
11
6.1467868897637796
21
-3.5583433464566929
0
LINE
8
BLACK
6
CONTINUOUS
10
6.1467868897637796
20
-3.5583433464566929
11
6.1432086614173231
21
-3.5590551181102361
0
LINE
8
BLACK
6
CONTINUOUS
10
6.1432086614173231
20
-3.5590551181102361
11
6.1245078740157481
21
-3.5590551181102361
0
LINE
8
BLACK
6
CONTINUOUS
10
6.1245078740157481
20
-3.5590551181102361
11
6.1209296456692908
21
-3.5583433464566929
0
LINE
8
BLACK
6
CONTINUOUS
10
6.1209296456692908
20
-3.5583433464566929
11
6.1178961417322837
21
-3.5563164566929135
0
LINE
8
BLACK
6
CONTINUOUS
10
6.1178961417322837
20
-3.5563164566929135
11
6.1158692519685038
21
-3.5532829527559056
0
LINE
8
BLACK
6
CONTINUOUS
10
6.1158692519685038
20
-3.5532829527559056
11
6.1151574803149602
21
-3.5497047244094486
0
LINE
8
BLACK
6
CONTINUOUS
10
6.1151574803149602
20
-3.5497047244094486
11
6.1151574803149602
21
-3.5260826771653542
0
LINE
8
BLACK
6
CONTINUOUS
10
6.1151574803149602
20
-3.5260826771653542
11
6.1158692519685038
21
-3.5225044488188977
0
LINE
8
BLACK
6
CONTINUOUS
10
6.1158692519685038
20
-3.5225044488188977
11
6.1178961417322837
21
-3.5194709448818897
0
LINE
8
BLACK
6
CONTINUOUS
10
6.1178961417322837
20
-3.5194709448818897
11
6.1209296456692908
21
-3.5174440551181103
0
LINE
8
BLACK
6
CONTINUOUS
10
6.1209296456692908
20
-3.5174440551181103
11
6.1245078740157481
21
-3.5167322834645667
0
LINE
8
BLACK
6
CONTINUOUS
10
6.1245078740157481
20
-3.5167322834645667
11
6.1432086614173231
21
-3.5167322834645667
0
LINE
8
BLACK
6
CONTINUOUS
10
6.1432086614173231
20
-3.5167322834645667
11
6.1467868897637796
21
-3.5174440551181103
0
LINE
8
BLACK
6
CONTINUOUS
10
6.1467868897637796
20
-3.5174440551181103
11
6.1498203937007876
21
-3.5194709448818897
0
LINE
8
BLACK
6
CONTINUOUS
10
6.1498203937007876
20
-3.5194709448818897
11
6.1518472834645666
21
-3.5225044488188977
0
LINE
8
BLACK
6
CONTINUOUS
10
6.1518472834645666
20
-3.5225044488188977
11
6.1525590551181102
21
-3.5260826771653542
0
LINE
8
BLACK
6
CONTINUOUS
10
6.1525590551181102
20
-3.5260826771653542
11
6.1525590551181102
21
-3.5339566929133857
0
LINE
8
BLACK
6
CONTINUOUS
10
6.1525590551181102
20
-3.5339566929133857
11
6.318897637795275
21
-3.5339566929133857
0
LINE
8
BLACK
6
CONTINUOUS
10
6.318897637795275
20
-3.5339566929133857
11
6.318897637795275
21
-3.5048818897637792
0
LINE
8
BLACK
6
CONTINUOUS
10
6.318897637795275
20
-3.5048818897637792
11
6.3196726377952759
21
-3.5022425590551181
0
LINE
8
BLACK
6
CONTINUOUS
10
6.3196726377952759
20
-3.5022425590551181
11
6.3217515354330711
21
-3.5004411811023619
0
LINE
8
BLACK
6
CONTINUOUS
10
6.3217515354330711
20
-3.5004411811023619
11
6.3237795275590551
21
-3.5
0
LINE
8
BLACK
6
CONTINUOUS
10
6.3237795275590551
20
-3.5
11
6.4911811023622041
21
-3.5
0
LINE
8
BLACK
6
CONTINUOUS
10
6.4911811023622041
20
-3.5
11
6.4938204330708658
21
-3.500775
  0
ENDSEC
  0
EOF
