  0
SECTION
  2
HEADER
  9
$ANGBASE
  50
0.0
  9
$ANGDIR
  70
1
  9
$MEASUREMENT
  70
0
  0
ENDSEC
  0
SECTION
  2
TABLES
  0
TABLE
  2
LTYPE
  70
4
  0
LTYPE
  5
40F
  2
CONTINUOUS
  70
0
  3
Solid line
  72
65
  73
0
  40
0.0
  0
LTYPE
  5
410
  2
DASHDOT
 70
0
  3
Dash Dot ____ _ ____ _
 72
65
 73
4
 40
2.0
 49
1.25
 49
-0.25
 49
0.25
 49
-0.25
  0
LTYPE
  5
411
  2
DASHED
 70
0
  3
Dashed __ __ __ __ __
 72
65
 73
2
 40
0.75
 49
0.5
 49
-0.25
  0
LTYPE
  5
43B
  2
DOTTED
 70
0
  3
Dotted .  .  .  .
 72
65
 73
2
 40
0.2
 49
0.0
 49
-0.2
  0
ENDTAB
  0
TABLE
  2
STYLE
  70
4
  0
STYLE
  2
KICAD
  70
0
  40
0
  41
1
  42
1
  50
0
  71
0
  3
isocp.shx
  0
STYLE
  2
KICADB
  70
0
  40
0
  41
1
  42
1
  50
0
  71
0
  3
isocp.shx
  0
STYLE
  2
KICADI
  70
0
  40
0
  41
1
  42
1
  50
15
  71
0
  3
isocp.shx
  0
STYLE
  2
KICADBI
  70
0
  40
0
  41
1
  42
1
  50
15
  71
0
  3
isocp.shx
  0
ENDTAB
  0
TABLE
  2
LAYER
  70
1
  0
LAYER
  2
BLACK
  70
0
  62
7
  6
CONTINUOUS
  0
ENDTAB
  0
ENDSEC
  0
SECTION
  2
ENTITIES
0
LINE
8
BLACK
6
CONTINUOUS
10
5.5135054724409445
20
-3.500775
11
5.5153068503937011
21
-3.5028538976377952
0
LINE
8
BLACK
6
CONTINUOUS
10
5.5153068503937011
20
-3.5028538976377952
11
5.515748031496063
21
-3.5048818897637792
0
LINE
8
BLACK
6
CONTINUOUS
10
5.515748031496063
20
-3.5048818897637792
11
5.515748031496063
21
-3.6131496062992126
0
LINE
8
BLACK
6
CONTINUOUS
10
5.515748031496063
20
-3.6131496062992126
11
5.515748031496063
21
-3.6181102362204722
0
LINE
8
BLACK
6
CONTINUOUS
10
5.515748031496063
20
-3.6181102362204722
11
5.7263243307086613
21
-3.6181102362204722
0
LINE
8
BLACK
6
CONTINUOUS
10
5.7263243307086613
20
-3.6181102362204722
11
5.7289636614173229
21
-3.6188852362204722
0
LINE
8
BLACK
6
CONTINUOUS
10
5.7289636614173229
20
-3.6188852362204722
11
5.7297763385826768
21
-3.619540118110236
0
LINE
8
BLACK
6
CONTINUOUS
10
5.7297763385826768
20
-3.619540118110236
11
5.8110236220472435
21
-3.7007874015748032
0
LINE
8
BLACK
6
CONTINUOUS
10
5.8110236220472435
20
-3.7007874015748032
11
5.8337007874015745
21
-3.7007874015748032
0
LINE
8
BLACK
6
CONTINUOUS
10
5.8337007874015745
20
-3.7007874015748032
11
5.8363401181102361
21
-3.7015624015748032
0
LINE
8
BLACK
6
CONTINUOUS
10
5.8363401181102361
20
-3.7015624015748032
11
5.8368625984251965
21
-3.7021653543307087
0
LINE
8
BLACK
6
CONTINUOUS
10
5.8368625984251965
20
-3.7021653543307087
11
5.8498031496062994
21
-3.7021653543307087
0
LINE
8
BLACK
6
CONTINUOUS
10
5.8498031496062994
20
-3.7021653543307087
11
5.8506864173228346
21
-3.7022523622047245
0
LINE
8
BLACK
6
CONTINUOUS
10
5.8506864173228346
20
-3.7022523622047245
11
5.8523185433070868
21
-3.7029283858267714
0
LINE
8
BLACK
6
CONTINUOUS
10
5.8523185433070868
20
-3.7029283858267714
11
5.853567677165354
21
-3.7041775196850395
0
LINE
8
BLACK
6
CONTINUOUS
10
5.853567677165354
20
-3.7041775196850395
11
5.8542437007874017
21
-3.7058096456692913
0
LINE
8
BLACK
6
CONTINUOUS
10
5.8542437007874017
20
-3.7058096456692913
11
5.8542437007874017
21
-3.707576181102362
0
LINE
8
BLACK
6
CONTINUOUS
10
5.8542437007874017
20
-3.707576181102362
11
5.853567677165354
21
-3.7092083070866142
0
LINE
8
BLACK
6
CONTINUOUS
10
5.853567677165354
20
-3.7092083070866142
11
5.8523185433070868
21
-3.7104574409448818
0
LINE
8
BLACK
6
CONTINUOUS
10
5.8523185433070868
20
-3.7104574409448818
11
5.8506864173228346
21
-3.7111334645669292
0
LINE
8
BLACK
6
CONTINUOUS
10
5.8506864173228346
20
-3.7111334645669292
11
5.8498031496062994
21
-3.711220472440945
0
LINE
8
BLACK
6
CONTINUOUS
10
5.8498031496062994
20
-3.711220472440945
11
5.8385826771653546
21
-3.711220472440945
0
LINE
8
BLACK
6
CONTINUOUS
10
5.8385826771653546
20
-3.711220472440945
11
5.8385826771653546
21
-3.7218503937007874
0
LINE
8
BLACK
6
CONTINUOUS
10
5.8385826771653546
20
-3.7218503937007874
11
5.8498031496062994
21
-3.7218503937007874
0
LINE
8
BLACK
6
CONTINUOUS
10
5.8498031496062994
20
-3.7218503937007874
11
5.8506864173228346
21
-3.7219374015748032
0
LINE
8
BLACK
6
CONTINUOUS
10
5.8506864173228346
20
-3.7219374015748032
11
5.8523185433070868
21
-3.7226134251968501
0
LINE
8
BLACK
6
CONTINUOUS
10
5.8523185433070868
20
-3.7226134251968501
11
5.853567677165354
21
-3.7238625590551182
0
LINE
8
BLACK
6
CONTINUOUS
10
5.853567677165354
20
-3.7238625590551182
11
5.8542437007874017
21
-3.72549468503937
0
LINE
8
BLACK
6
CONTINUOUS
10
5.8542437007874017
20
-3.72549468503937
11
5.8542437007874017
21
-3.7272612204724407
0
LINE
8
BLACK
6
CONTINUOUS
10
5.8542437007874017
20
-3.7272612204724407
11
5.853567677165354
21
-3.7288933464566929
0
LINE
8
BLACK
6
CONTINUOUS
10
5.853567677165354
20
-3.7288933464566929
11
5.8523185433070868
21
-3.7301424803149605
0
LINE
8
BLACK
6
CONTINUOUS
10
5.8523185433070868
20
-3.7301424803149605
11
5.8506864173228346
21
-3.7308185039370079
0
LINE
8
BLACK
6
CONTINUOUS
10
5.8506864173228346
20
-3.7308185039370079
11
5.8498031496062994
21
-3.7309055118110237
0
LINE
8
BLACK
6
CONTINUOUS
10
5.8498031496062994
20
-3.7309055118110237
11
5.8385826771653546
21
-3.7309055118110237
0
LINE
8
BLACK
6
CONTINUOUS
10
5.8385826771653546
20
-3.7309055118110237
11
5.8385826771653546
21
-3.7415354330708661
0
LINE
8
BLACK
6
CONTINUOUS
10
5.8385826771653546
20
-3.7415354330708661
11
5.8498031496062994
21
-3.7415354330708661
0
LINE
8
BLACK
6
CONTINUOUS
10
5.8498031496062994
20
-3.7415354330708661
11
5.8506864173228346
21
-3.7416224409448819
0
LINE
8
BLACK
6
CONTINUOUS
10
5.8506864173228346
20
-3.7416224409448819
11
5.8523185433070868
21
-3.7422984645669288
0
LINE
8
BLACK
6
CONTINUOUS
10
5.8523185433070868
20
-3.7422984645669288
11
5.853567677165354
21
-3.7435475984251969
0
LINE
8
BLACK
6
CONTINUOUS
10
5.853567677165354
20
-3.7435475984251969
11
5.8542437007874017
21
-3.7451797244094487
0
LINE
8
BLACK
6
CONTINUOUS
10
5.8542437007874017
20
-3.7451797244094487
11
5.8542437007874017
21
-3.7469462598425194
0
LINE
8
BLACK
6
CONTINUOUS
10
5.8542437007874017
20
-3.7469462598425194
11
5.853567677165354
21
-3.7485783858267716
0
LINE
8
BLACK
6
CONTINUOUS
10
5.853567677165354
20
-3.7485783858267716
11
5.8523185433070868
21
-3.7498275196850392
0
LINE
8
BLACK
6
CONTINUOUS
10
5.8523185433070868
20
-3.7498275196850392
11
5.8506864173228346
21
-3.7505035433070866
0
LINE
8
BLACK
6
CONTINUOUS
10
5.8506864173228346
20
-3.7505035433070866
11
5.8498031496062994
21
-3.7505905511811024
0
LINE
8
BLACK
6
CONTINUOUS
10
5.8498031496062994
20
-3.7505905511811024
11
5.8385826771653546
21
-3.7505905511811024
0
LINE
8
BLACK
6
CONTINUOUS
10
5.8385826771653546
20
-3.7505905511811024
11
5.8385826771653546
21
-3.7612204724409448
0
LINE
8
BLACK
6
CONTINUOUS
10
5.8385826771653546
20
-3.7612204724409448
11
5.8498031496062994
21
-3.7612204724409448
0
LINE
8
BLACK
6
CONTINUOUS
10
5.8498031496062994
20
-3.7612204724409448
11
5.8506864173228346
21
-3.7613074803149606
0
LINE
8
BLACK
6
CONTINUOUS
10
5.8506864173228346
20
-3.7613074803149606
11
5.8523185433070868
21
-3.761983503937008
0
LINE
8
BLACK
6
CONTINUOUS
10
5.8523185433070868
20
-3.761983503937008
11
5.853567677165354
21
-3.7632326377952756
0
LINE
8
BLACK
6
CONTINUOUS
10
5.853567677165354
20
-3.7632326377952756
11
5.8542437007874017
21
-3.7648647637795274
0
LINE
8
BLACK
6
CONTINUOUS
10
5.8542437007874017
20
-3.7648647637795274
11
5.8542437007874017
21
-3.7666312992125985
0
LINE
8
BLACK
6
CONTINUOUS
10
5.8542437007874017
20
-3.7666312992125985
11
5.853567677165354
21
-3.7682634251968503
0
LINE
8
BLACK
6
CONTINUOUS
10
5.853567677165354
20
-3.7682634251968503
11
5.8523185433070868
21
-3.769512559055118
0
LINE
8
BLACK
6
CONTINUOUS
10
5.8523185433070868
20
-3.769512559055118
11
5.8506864173228346
21
-3.7701885826771653
0
LINE
8
BLACK
6
CONTINUOUS
10
5.8506864173228346
20
-3.7701885826771653
11
5.8498031496062994
21
-3.7702755905511811
0
LINE
8
BLACK
6
CONTINUOUS
10
5.8498031496062994
20
-3.7702755905511811
11
5.8385826771653546
21
-3.7702755905511811
0
LINE
8
BLACK
6
CONTINUOUS
10
5.8385826771653546
20
-3.7702755905511811
11
5.8385826771653546
21
-3.7944459842519684
0
LINE
8
BLACK
6
CONTINUOUS
10
5.8385826771653546
20
-3.7944459842519684
11
5.8383085826771648
21
-3.7960587007874014
0
LINE
8
BLACK
6
CONTINUOUS
10
5.8383085826771648
20
-3.7960587007874014
11
5.8121678346456696
21
-3.8707465748031495
0
LINE
8
BLACK
6
CONTINUOUS
10
5.8121678346456696
20
-3.8707465748031495
11
5.8105644488188979
21
-3.8729817322834643
0
LINE
8
BLACK
6
CONTINUOUS
10
5.8105644488188979
20
-3.8729817322834643
11
5.8080072047244089
21
-3.8739952362204724
0
LINE
8
BLACK
6
CONTINUOUS
10
5.8080072047244089
20
-3.8739952362204724
11
5.8075600393700784
21
-3.8740157480314958
0
LINE
8
BLACK
6
CONTINUOUS
10
5.8075600393700784
20
-3.8740157480314958
11
5.515748031496063
21
-3.8740157480314958
0
LINE
8
BLACK
6
CONTINUOUS
10
5.515748031496063
20
-3.8740157480314958
11
5.515748031496063
21
-3.9872440944881888
0
LINE
8
BLACK
6
CONTINUOUS
10
5.515748031496063
20
-3.9872440944881888
11
5.514973031496063
21
-3.9898834251968505
0
LINE
8
BLACK
6
CONTINUOUS
10
5.514973031496063
20
-3.9898834251968505
11
5.5128941338582678
21
-3.9916848031496062
0
LINE
8
BLACK
6
CONTINUOUS
10
5.5128941338582678
20
-3.9916848031496062
11
5.5108661417322837
21
-3.9921259842519685
0
LINE
8
BLACK
6
CONTINUOUS
10
5.5108661417322837
20
-3.9921259842519685
11
5.3434645669291339
21
-3.9921259842519685
0
LINE
8
BLACK
6
CONTINUOUS
10
5.3434645669291339
20
-3.9921259842519685
11
5.3408252362204722
21
-3.9913509842519685
0
LINE
8
BLACK
6
CONTINUOUS
10
5.3408252362204722
20
-3.9913509842519685
11
5.3390238582677165
21
-3.9892720866141733
0
LINE
8
BLACK
6
CONTINUOUS
10
5.3390238582677165
20
-3.9892720866141733
11
5.3385826771653546
21
-3.9872440944881888
0
LINE
8
BLACK
6
CONTINUOUS
10
5.3385826771653546
20
-3.9872440944881888
11
5.3385826771653546
21
-3.8690551181102362
0
LINE
8
BLACK
6
CONTINUOUS
10
5.3385826771653546
20
-3.8690551181102362
11
5.3385826771653546
21
-3.7539370078740157
0
LINE
8
BLACK
6
CONTINUOUS
10
5.3385826771653546
20
-3.7539370078740157
11
5.3208661417322833
21
-3.7539370078740157
0
LINE
8
BLACK
6
CONTINUOUS
10
5.3208661417322833
20
-3.7539370078740157
11
5.3208661417322833
21
-3.7381889763779528
0
LINE
8
BLACK
6
CONTINUOUS
10
5.3208661417322833
20
-3.7381889763779528
11
5.3385826771653546
21
-3.7381889763779528
0
LINE
8
BLACK
6
CONTINUOUS
10
5.3385826771653546
20
-3.7381889763779528
11
5.3385826771653546
21
-3.6131496062992126
0
LINE
8
BLACK
6
CONTINUOUS
10
5.3385826771653546
20
-3.6131496062992126
11
5.3385826771653546
21
-3.5048818897637792
0
LINE
8
BLACK
6
CONTINUOUS
10
5.3385826771653546
20
-3.5048818897637792
11
5.3393576771653546
21
-3.5022425590551181
0
LINE
8
BLACK
6
CONTINUOUS
10
5.3393576771653546
20
-3.5022425590551181
11
5.3414365748031498
21
-3.5004411811023619
0
LINE
8
BLACK
6
CONTINUOUS
10
5.3414365748031498
20
-3.5004411811023619
11
5.3434645669291339
21
-3.5
0
LINE
8
BLACK
6
CONTINUOUS
10
5.3434645669291339
20
-3.5
11
5.5108661417322837
21
-3.5
0
LINE
8
BLACK
6
CONTINUOUS
10
5.5108661417322837
20
-3.5
11
5.5135054724409445
21
-3.500775
0
LINE
8
BLACK
6
CONTINUOUS
10
6.4938204330708658
20
-3.500775
11
6.4956218110236215
21
-3.5028538976377952
0
LINE
8
BLACK
6
CONTINUOUS
10
6.4956218110236215
20
-3.5028538976377952
11
6.4960629921259843
21
-3.5048818897637792
0
LINE
8
BLACK
6
CONTINUOUS
10
6.4960629921259843
20
-3.5048818897637792
11
6.4960629921259843
21
-3.6131496062992126
0
LINE
8
BLACK
6
CONTINUOUS
10
6.4960629921259843
20
-3.6131496062992126
11
6.4960629921259843
21
-3.7381889763779528
0
LINE
8
BLACK
6
CONTINUOUS
10
6.4960629921259843
20
-3.7381889763779528
11
6.5137795275590546
21
-3.7381889763779528
0
LINE
8
BLACK
6
CONTINUOUS
10
6.5137795275590546
20
-3.7381889763779528
11
6.5137795275590546
21
-3.7539370078740157
0
LINE
8
BLACK
6
CONTINUOUS
10
6.5137795275590546
20
-3.7539370078740157
11
6.4960629921259843
21
-3.7539370078740157
0
LINE
8
BLACK
6
CONTINUOUS
10
6.4960629921259843
20
-3.7539370078740157
11
6.4960629921259843
21
-3.8690551181102362
0
LINE
8
BLACK
6
CONTINUOUS
10
6.4960629921259843
20
-3.8690551181102362
11
6.4960629921259843
21
-3.9872440944881888
0
LINE
8
BLACK
6
CONTINUOUS
10
6.4960629921259843
20
-3.9872440944881888
11
6.4952879921259843
21
-3.9898834251968505
0
LINE
8
BLACK
6
CONTINUOUS
10
6.4952879921259843
20
-3.9898834251968505
11
6.4932090944881891
21
-3.9916848031496062
0
LINE
8
BLACK
6
CONTINUOUS
10
6.4932090944881891
20
-3.9916848031496062
11
6.4911811023622041
21
-3.9921259842519685
0
LINE
8
BLACK
6
CONTINUOUS
10
6.4911811023622041
20
-3.9921259842519685
11
6.3237795275590551
21
-3.9921259842519685
0
LINE
8
BLACK
6
CONTINUOUS
10
6.3237795275590551
20
-3.9921259842519685
11
6.3211401968503935
21
-3.9913509842519685
0
LINE
8
BLACK
6
CONTINUOUS
10
6.3211401968503935
20
-3.9913509842519685
11
6.3193388188976378
21
-3.9892720866141733
0
LINE
8
BLACK
6
CONTINUOUS
10
6.3193388188976378
20
-3.9892720866141733
11
6.318897637795275
21
-3.9872440944881888
0
LINE
8
BLACK
6
CONTINUOUS
10
6.318897637795275
20
-3.9872440944881888
11
6.318897637795275
21
-3.8740157480314958
0
LINE
8
BLACK
6
CONTINUOUS
10
6.318897637795275
20
-3.8740157480314958
11
6.0349001574803145
21
-3.8740157480314958
0
LINE
8
BLACK
6
CONTINUOUS
10
6.0349001574803145
20
-3.8740157480314958
11
6.0322608267716538
21
-3.8732407480314959
0
LINE
8
BLACK
6
CONTINUOUS
10
6.0322608267716538
20
-3.8732407480314959
11
6.0304594488188972
21
-3.8711618503937006
0
LINE
8
BLACK
6
CONTINUOUS
10
6.0304594488188972
20
-3.8711618503937006
11
6.0303192519685034
21
-3.8708215354330706
0
LINE
8
BLACK
6
CONTINUOUS
10
6.0303192519685034
20
-3.8708215354330706
11
6.0042379921259839
21
-3.800029527559055
0
LINE
8
BLACK
6
CONTINUOUS
10
6.0042379921259839
20
-3.800029527559055
11
6.0039370078740157
21
-3.7983418503937005
0
LINE
8
BLACK
6
CONTINUOUS
10
6.0039370078740157
20
-3.7983418503937005
11
6.0039370078740157
21
-3.7702755905511811
0
LINE
8
BLACK
6
CONTINUOUS
10
6.0039370078740157
20
-3.7702755905511811
11
5.9848425196850394
21
-3.7702755905511811
0
LINE
8
BLACK
6
CONTINUOUS
10
5.9848425196850394
20
-3.7702755905511811
11
5.9839592519685034
21
-3.7701885826771653
0
LINE
8
BLACK
6
CONTINUOUS
10
5.9839592519685034
20
-3.7701885826771653
11
5.9823271259842521
21
-3.769512559055118
0
LINE
8
BLACK
6
CONTINUOUS
10
5.9823271259842521
20
-3.769512559055118
11
5.981077992125984
21
-3.7682634251968503
0
LINE
8
BLACK
6
CONTINUOUS
10
5.981077992125984
20
-3.7682634251968503
11
5.9804019685039371
21
-3.7666312992125985
0
LINE
8
BLACK
6
CONTINUOUS
10
5.9804019685039371
20
-3.7666312992125985
11
5.9804019685039371
21
-3.7648647637795274
0
LINE
8
BLACK
6
CONTINUOUS
10
5.9804019685039371
20
-3.7648647637795274
11
5.981077992125984
21
-3.7632326377952756
0
LINE
8
BLACK
6
CONTINUOUS
10
5.981077992125984
20
-3.7632326377952756
11
5.9823271259842521
21
-3.761983503937008
0
LINE
8
BLACK
6
CONTINUOUS
10
5.9823271259842521
20
-3.761983503937008
11
5.9839592519685034
21
-3.7613074803149606
0
LINE
8
BLACK
6
CONTINUOUS
10
5.9839592519685034
20
-3.7613074803149606
11
5.9848425196850394
21
-3.7612204724409448
0
LINE
8
BLACK
6
CONTINUOUS
10
5.9848425196850394
20
-3.7612204724409448
11
6.0039370078740157
21
-3.7612204724409448
0
LINE
8
BLACK
6
CONTINUOUS
10
6.0039370078740157
20
-3.7612204724409448
11
6.0039370078740157
21
-3.7505905511811024
0
LINE
8
BLACK
6
CONTINUOUS
10
6.0039370078740157
20
-3.7505905511811024
11
5.9848425196850394
21
-3.7505905511811024
0
LINE
8
BLACK
6
CONTINUOUS
10
5.9848425196850394
20
-3.7505905511811024
11
5.9839592519685034
21
-3.7505035433070866
0
LINE
8
BLACK
6
CONTINUOUS
10
5.9839592519685034
20
-3.7505035433070866
11
5.9823271259842521
21
-3.7498275196850392
0
LINE
8
BLACK
6
CONTINUOUS
10
5.9823271259842521
20
-3.7498275196850392
11
5.981077992125984
21
-3.7485783858267716
0
LINE
8
BLACK
6
CONTINUOUS
10
5.981077992125984
20
-3.7485783858267716
11
5.9804019685039371
21
-3.7469462598425194
0
LINE
8
BLACK
6
CONTINUOUS
10
5.9804019685039371
20
-3.7469462598425194
11
5.9804019685039371
21
-3.7451797244094487
0
LINE
8
BLACK
6
CONTINUOUS
10
5.9804019685039371
20
-3.7451797244094487
11
5.981077992125984
21
-3.7435475984251969
0
LINE
8
BLACK
6
CONTINUOUS
10
5.981077992125984
20
-3.7435475984251969
11
5.9823271259842521
21
-3.7422984645669288
0
LINE
8
BLACK
6
CONTINUOUS
10
5.9823271259842521
20
-3.7422984645669288
11
5.9839592519685034
21
-3.7416224409448819
0
LINE
8
BLACK
6
CONTINUOUS
10
5.9839592519685034
20
-3.7416224409448819
11
5.9848425196850394
21
-3.7415354330708661
0
LINE
8
BLACK
6
CONTINUOUS
10
5.9848425196850394
20
-3.7415354330708661
11
6.0039370078740157
21
-3.7415354330708661
0
LINE
8
BLACK
6
CONTINUOUS
10
6.0039370078740157
20
-3.7415354330708661
11
6.0039370078740157
21
-3.7309055118110237
0
LINE
8
BLACK
6
CONTINUOUS
10
6.0039370078740157
20
-3.7309055118110237
11
5.9848425196850394
21
-3.7309055118110237
0
LINE
8
BLACK
6
CONTINUOUS
10
5.9848425196850394
20
-3.7309055118110237
11
5.9839592519685034
21
-3.7308185039370079
0
LINE
8
BLACK
6
CONTINUOUS
10
5.9839592519685034
20
-3.7308185039370079
11
5.9823271259842521
21
-3.7301424803149605
0
LINE
8
BLACK
6
CONTINUOUS
10
5.9823271259842521
20
-3.7301424803149605
11
5.981077992125984
21
-3.7288933464566929
0
LINE
8
BLACK
6
CONTINUOUS
10
5.981077992125984
20
-3.7288933464566929
11
5.9804019685039371
21
-3.7272612204724407
0
LINE
8
BLACK
6
CONTINUOUS
10
5.9804019685039371
20
-3.7272612204724407
11
5.9804019685039371
21
-3.72549468503937
0
LINE
8
BLACK
6
CONTINUOUS
10
5.9804019685039371
20
-3.72549468503937
11
5.981077992125984
21
-3.7238625590551182
0
LINE
8
BLACK
6
CONTINUOUS
10
5.981077992125984
20
-3.7238625590551182
11
5.9823271259842521
21
-3.7226134251968501
0
LINE
8
BLACK
6
CONTINUOUS
10
5.9823271259842521
20
-3.7226134251968501
11
5.9839592519685034
21
-3.7219374015748032
0
LINE
8
BLACK
6
CONTINUOUS
10
5.9839592519685034
20
-3.7219374015748032
11
5.9848425196850394
21
-3.7218503937007874
0
LINE
8
BLACK
6
CONTINUOUS
10
5.9848425196850394
20
-3.7218503937007874
11
6.0039370078740157
21
-3.7218503937007874
0
LINE
8
BLACK
6
CONTINUOUS
10
6.0039370078740157
20
-3.7218503937007874
11
6.0039370078740157
21
-3.711220472440945
0
LINE
8
BLACK
6
CONTINUOUS
10
6.0039370078740157
20
-3.711220472440945
11
5.9848425196850394
21
-3.711220472440945
0
LINE
8
BLACK
6
CONTINUOUS
10
5.9848425196850394
20
-3.711220472440945
11
5.9839592519685034
21
-3.7111334645669292
0
LINE
8
BLACK
6
CONTINUOUS
10
5.9839592519685034
20
-3.7111334645669292
11
5.9823271259842521
21
-3.7104574409448818
0
LINE
8
BLACK
6
CONTINUOUS
10
5.9823271259842521
20
-3.7104574409448818
11
5.981077992125984
21
-3.7092083070866142
0
LINE
8
BLACK
6
CONTINUOUS
10
5.981077992125984
20
-3.7092083070866142
11
5.9804019685039371
21
-3.707576181102362
0
LINE
8
BLACK
6
CONTINUOUS
10
5.9804019685039371
20
-3.707576181102362
11
5.9804019685039371
21
-3.7058096456692913
0
LINE
8
BLACK
6
CONTINUOUS
10
5.9804019685039371
20
-3.7058096456692913
11
5.981077992125984
21
-3.7041775196850395
0
LINE
8
BLACK
6
CONTINUOUS
10
5.981077992125984
20
-3.7041775196850395
11
5.9823271259842521
21
-3.7029283858267714
0
LINE
8
BLACK
6
CONTINUOUS
10
5.9823271259842521
20
-3.7029283858267714
11
5.9839592519685034
21
-3.7022523622047245
0
LINE
8
BLACK
6
CONTINUOUS
10
5.9839592519685034
20
-3.7022523622047245
11
5.9848425196850394
21
-3.7021653543307087
0
LINE
8
BLACK
6
CONTINUOUS
10
5.9848425196850394
20
-3.7021653543307087
11
6.0057098031496059
21
-3.7021653543307087
0
LINE
8
BLACK
6
CONTINUOUS
10
6.0057098031496059
20
-3.7021653543307087
11
6.0067909055118109
21
-3.7012285826771651
0
LINE
8
BLACK
6
CONTINUOUS
10
6.0067909055118109
20
-3.7012285826771651
11
6.008818897637795
21
-3.7007874015748032
0
LINE
8
BLACK
6
CONTINUOUS
10
6.008818897637795
20
-3.7007874015748032
11
6.0236220078740157
21
-3.7007874015748032
0
LINE
8
BLACK
6
CONTINUOUS
10
6.0236220078740157
20
-3.7007874015748032
11
6.0236220472440944
21
-3.7007873622047245
0
LINE
8
BLACK
6
CONTINUOUS
10
6.0236220472440944
20
-3.7007873622047245
11
6.1127749606299213
21
-3.6193869291338583
0
LINE
8
BLACK
6
CONTINUOUS
10
6.1127749606299213
20
-3.6193869291338583
11
6.1152466141732278
21
-3.6181796062992126
0
LINE
8
BLACK
6
CONTINUOUS
10
6.1152466141732278
20
-3.6181796062992126
11
6.1160666535433066
21
-3.6181102362204722
0
LINE
8
BLACK
6
CONTINUOUS
10
6.1160666535433066
20
-3.6181102362204722
11
6.318897637795275
21
-3.6181102362204722
0
LINE
8
BLACK
6
CONTINUOUS
10
6.318897637795275
20
-3.6181102362204722
11
6.318897637795275
21
-3.6131496062992126
0
LINE
8
BLACK
6
CONTINUOUS
10
6.318897637795275
20
-3.6131496062992126
11
6.318897637795275
21
-3.5048818897637792
0
LINE
8
BLACK
6
CONTINUOUS
10
6.318897637795275
20
-3.5048818897637792
11
6.3196726377952759
21
-3.5022425590551181
0
LINE
8
BLACK
6
CONTINUOUS
10
6.3196726377952759
20
-3.5022425590551181
11
6.3217515354330711
21
-3.5004411811023619
0
LINE
8
BLACK
6
CONTINUOUS
10
6.3217515354330711
20
-3.5004411811023619
11
6.3237795275590551
21
-3.5
0
LINE
8
BLACK
6
CONTINUOUS
10
6.3237795275590551
20
-3.5
11
6.4911811023622041
21
-3.5
0
LINE
8
BLACK
6
CONTINUOUS
10
6.4911811023622041
20
-3.5
11
6.4938204330708658
21
-3.500775
0
LINE
8
BLACK
6
CONTINUOUS
10
5.8706256299212596
20
-3.7802905905511812
11
5.8718747637795277
21
-3.7815397244094489
0
LINE
8
BLACK
6
CONTINUOUS
10
5.8718747637795277
20
-3.7815397244094489
11
5.8725507874015745
21
-3.7831718503937006
0
LINE
8
BLACK
6
CONTINUOUS
10
5.8725507874015745
20
-3.7831718503937006
11
5.8726377952755904
21
-3.7840551181102362
0
LINE
8
BLACK
6
CONTINUOUS
10
5.8726377952755904
20
-3.7840551181102362
11
5.8726377952755904
21
-3.8064960629921258
0
LINE
8
BLACK
6
CONTINUOUS
10
5.8726377952755904
20
-3.8064960629921258
11
5.8725507874015745
21
-3.8073793307086614
0
LINE
8
BLACK
6
CONTINUOUS
10
5.8725507874015745
20
-3.8073793307086614
11
5.8718747637795277
21
-3.8090114566929132
0
LINE
8
BLACK
6
CONTINUOUS
10
5.8718747637795277
20
-3.8090114566929132
11
5.8706256299212596
21
-3.8102605905511808
0
LINE
8
BLACK
6
CONTINUOUS
10
5.8706256299212596
20
-3.8102605905511808
11
5.8689935039370074
21
-3.8109366141732282
0
LINE
8
BLACK
6
CONTINUOUS
10
5.8689935039370074
20
-3.8109366141732282
11
5.8672269685039371
21
-3.8109366141732282
0
LINE
8
BLACK
6
CONTINUOUS
10
5.8672269685039371
20
-3.8109366141732282
11
5.8655948425196849
21
-3.8102605905511808
0
LINE
8
BLACK
6
CONTINUOUS
10
5.8655948425196849
20
-3.8102605905511808
11
5.8643457086614168
21
-3.8090114566929132
0
LINE
8
BLACK
6
CONTINUOUS
10
5.8643457086614168
20
-3.8090114566929132
11
5.8636696850393699
21
-3.8073793307086614
0
LINE
8
BLACK
6
CONTINUOUS
10
5.8636696850393699
20
-3.8073793307086614
11
5.8635826771653541
21
-3.8064960629921258
0
LINE
8
BLACK
6
CONTINUOUS
10
5.8635826771653541
20
-3.8064960629921258
11
5.8635826771653541
21
-3.7840551181102362
0
LINE
8
BLACK
6
CONTINUOUS
10
5.8635826771653541
20
-3.7840551181102362
11
5.8636696850393699
21
-3.7831718503937006
0
LINE
8
BLACK
6
CONTINUOUS
10
5.8636696850393699
20
-3.7831718503937006
11
5.8643457086614168
21
-3.7815397244094489
0
LINE
8
BLACK
6
CONTINUOUS
10
5.8643457086614168
20
-3.7815397244094489
11
5.8655948425196849
21
-3.7802905905511812
0
LINE
8
BLACK
6
CONTINUOUS
10
5.8655948425196849
20
-3.7802905905511812
11
5.8672269685039371
21
-3.7796145669291339
0
LINE
8
BLACK
6
CONTINUOUS
10
5.8672269685039371
20
-3.7796145669291339
11
5.8689935039370074
21
-3.7796145669291339
0
LINE
8
BLACK
6
CONTINUOUS
10
5.8689935039370074
20
-3.7796145669291339
11
5.8706256299212596
21
-3.7802905905511812
0
LINE
8
BLACK
6
CONTINUOUS
10
5.8903106692913383
20
-3.7802905905511812
11
5.8915598031496064
21
-3.7815397244094489
0
LINE
8
BLACK
6
CONTINUOUS
10
5.8915598031496064
20
-3.7815397244094489
11
5.8922358267716533
21
-3.7831718503937006
0
LINE
8
BLACK
6
CONTINUOUS
10
5.8922358267716533
20
-3.7831718503937006
11
5.8923228346456691
21
-3.7840551181102362
0
LINE
8
BLACK
6
CONTINUOUS
10
5.8923228346456691
20
-3.7840551181102362
11
5.8923228346456691
21
-3.8064960629921258
0
LINE
8
BLACK
6
CONTINUOUS
10
5.8923228346456691
20
-3.8064960629921258
11
5.8922358267716533
21
-3.8073793307086614
0
LINE
8
BLACK
6
CONTINUOUS
10
5.8922358267716533
20
-3.8073793307086614
11
5.8915598031496064
21
-3.8090114566929132
0
LINE
8
BLACK
6
CONTINUOUS
10
5.8915598031496064
20
-3.8090114566929132
11
5.8903106692913383
21
-3.8102605905511808
0
LINE
8
BLACK
6
CONTINUOUS
10
5.8903106692913383
20
-3.8102605905511808
11
5.8886785433070861
21
-3.8109366141732282
0
LINE
8
BLACK
6
CONTINUOUS
10
5.8886785433070861
20
-3.8109366141732282
11
5.8869120078740158
21
-3.8109366141732282
0
LINE
8
BLACK
6
CONTINUOUS
10
5.8869120078740158
20
-3.8109366141732282
11
5.8852798818897636
21
-3.8102605905511808
0
LINE
8
BLACK
6
CONTINUOUS
10
5.8852798818897636
20
-3.8102605905511808
11
5.8840307480314955
21
-3.8090114566929132
0
LINE
8
BLACK
6
CONTINUOUS
10
5.8840307480314955
20
-3.8090114566929132
11
5.8833547244094486
21
-3.8073793307086614
0
LINE
8
BLACK
6
CONTINUOUS
10
5.8833547244094486
20
-3.8073793307086614
11
5.8832677165354328
21
-3.8064960629921258
0
LINE
8
BLACK
6
CONTINUOUS
10
5.8832677165354328
20
-3.8064960629921258
11
5.8832677165354328
21
-3.7840551181102362
0
LINE
8
BLACK
6
CONTINUOUS
10
5.8832677165354328
20
-3.7840551181102362
11
5.8833547244094486
21
-3.7831718503937006
0
LINE
8
BLACK
6
CONTINUOUS
10
5.8833547244094486
20
-3.7831718503937006
11
5.8840307480314955
21
-3.7815397244094489
0
LINE
8
BLACK
6
CONTINUOUS
10
5.8840307480314955
20
-3.7815397244094489
11
5.8852798818897636
21
-3.7802905905511812
0
LINE
8
BLACK
6
CONTINUOUS
10
5.8852798818897636
20
-3.7802905905511812
11
5.8869120078740158
21
-3.7796145669291339
0
LINE
8
BLACK
6
CONTINUOUS
10
5.8869120078740158
20
-3.7796145669291339
11
5.8886785433070861
21
-3.7796145669291339
0
LINE
8
BLACK
6
CONTINUOUS
10
5.8886785433070861
20
-3.7796145669291339
11
5.8903106692913383
21
-3.7802905905511812
0
LINE
8
BLACK
6
CONTINUOUS
10
5.909995708661417
20
-3.7802905905511812
11
5.9112448425196851
21
-3.7815397244094489
0
LINE
8
BLACK
6
CONTINUOUS
10
5.9112448425196851
20
-3.7815397244094489
11
5.911920866141732
21
-3.7831718503937006
0
LINE
8
BLACK
6
CONTINUOUS
10
5.911920866141732
20
-3.7831718503937006
11
5.9120078740157478
21
-3.7840551181102362
0
LINE
8
BLACK
6
CONTINUOUS
10
5.9120078740157478
20
-3.7840551181102362
11
5.9120078740157478
21
-3.8064960629921258
0
LINE
8
BLACK
6
CONTINUOUS
10
5.9120078740157478
20
-3.8064960629921258
11
5.911920866141732
21
-3.8073793307086614
0
LINE
8
BLACK
6
CONTINUOUS
10
5.911920866141732
20
-3.8073793307086614
11
5.9112448425196851
21
-3.8090114566929132
0
LINE
8
BLACK
6
CONTINUOUS
10
5.9112448425196851
20
-3.8090114566929132
11
5.909995708661417
21
-3.8102605905511808
0
LINE
8
BLACK
6
CONTINUOUS
10
5.909995708661417
20
-3.8102605905511808
11
5.9083635826771657
21
-3.8109366141732282
0
LINE
8
BLACK
6
CONTINUOUS
10
5.9083635826771657
20
-3.8109366141732282
11
5.9065970472440945
21
-3.8109366141732282
0
LINE
8
BLACK
6
CONTINUOUS
10
5.9065970472440945
20
-3.8109366141732282
11
5.9049649212598423
21
-3.8102605905511808
0
LINE
8
BLACK
6
CONTINUOUS
10
5.9049649212598423
20
-3.8102605905511808
11
5.9037157874015751
21
-3.8090114566929132
0
LINE
8
BLACK
6
CONTINUOUS
10
5.9037157874015751
20
-3.8090114566929132
11
5.9030397637795273
21
-3.8073793307086614
0
LINE
8
BLACK
6
CONTINUOUS
10
5.9030397637795273
20
-3.8073793307086614
11
5.9029527559055115
21
-3.8064960629921258
0
LINE
8
BLACK
6
CONTINUOUS
10
5.9029527559055115
20
-3.8064960629921258
11
5.9029527559055115
21
-3.7840551181102362
0
LINE
8
BLACK
6
CONTINUOUS
10
5.9029527559055115
20
-3.7840551181102362
11
5.9030397637795273
21
-3.7831718503937006
0
LINE
8
BLACK
6
CONTINUOUS
10
5.9030397637795273
20
-3.7831718503937006
11
5.9037157874015751
21
-3.7815397244094489
0
LINE
8
BLACK
6
CONTINUOUS
10
5.9037157874015751
20
-3.7815397244094489
11
5.9049649212598423
21
-3.7802905905511812
0
LINE
8
BLACK
6
CONTINUOUS
10
5.9049649212598423
20
-3.7802905905511812
11
5.9065970472440945
21
-3.7796145669291339
0
LINE
8
BLACK
6
CONTINUOUS
10
5.9065970472440945
20
-3.7796145669291339
11
5.9083635826771657
21
-3.7796145669291339
0
LINE
8
BLACK
6
CONTINUOUS
10
5.9083635826771657
20
-3.7796145669291339
11
5.909995708661417
21
-3.7802905905511812
0
LINE
8
BLACK
6
CONTINUOUS
10
5.9296807480314957
20
-3.7802905905511812
11
5.9309298818897638
21
-3.7815397244094489
0
LINE
8
BLACK
6
CONTINUOUS
10
5.9309298818897638
20
-3.7815397244094489
11
5.9316059055118107
21
-3.7831718503937006
0
LINE
8
BLACK
6
CONTINUOUS
10
5.9316059055118107
20
-3.7831718503937006
11
5.9316929133858265
21
-3.7840551181102362
0
LINE
8
BLACK
6
CONTINUOUS
10
5.9316929133858265
20
-3.7840551181102362
11
5.9316929133858265
21
-3.8064960629921258
0
LINE
8
BLACK
6
CONTINUOUS
10
5.9316929133858265
20
-3.8064960629921258
11
5.9316059055118107
21
-3.8073793307086614
0
LINE
8
BLACK
6
CONTINUOUS
10
5.9316059055118107
20
-3.8073793307086614
11
5.9309298818897638
21
-3.8090114566929132
0
LINE
8
BLACK
6
CONTINUOUS
10
5.9309298818897638
20
-3.8090114566929132
11
5.9296807480314957
21
-3.8102605905511808
0
LINE
8
BLACK
6
CONTINUOUS
10
5.9296807480314957
20
-3.8102605905511808
11
5.9280486220472444
21
-3.8109366141732282
0
LINE
8
BLACK
6
CONTINUOUS
10
5.9280486220472444
20
-3.8109366141732282
11
5.9262820866141732
21
-3.8109366141732282
0
LINE
8
BLACK
6
CONTINUOUS
10
5.9262820866141732
20
-3.8109366141732282
11
5.924649960629921
21
-3.8102605905511808
0
LINE
8
BLACK
6
CONTINUOUS
10
5.924649960629921
20
-3.8102605905511808
11
5.9234008267716538
21
-3.8090114566929132
0
LINE
8
BLACK
6
CONTINUOUS
10
5.9234008267716538
20
-3.8090114566929132
11
5.922724803149606
21
-3.8073793307086614
0
LINE
8
BLACK
6
CONTINUOUS
10
5.922724803149606
20
-3.8073793307086614
11
5.9226377952755902
21
-3.8064960629921258
0
LINE
8
BLACK
6
CONTINUOUS
10
5.9226377952755902
20
-3.8064960629921258
11
5.9226377952755902
21
-3.7840551181102362
0
LINE
8
BLACK
6
CONTINUOUS
10
5.9226377952755902
20
-3.7840551181102362
11
5.922724803149606
21
-3.7831718503937006
0
LINE
8
BLACK
6
CONTINUOUS
10
5.922724803149606
20
-3.7831718503937006
11
5.9234008267716538
21
-3.7815397244094489
0
LINE
8
BLACK
6
CONTINUOUS
10
5.9234008267716538
20
-3.7815397244094489
11
5.924649960629921
21
-3.7802905905511812
0
LINE
8
BLACK
6
CONTINUOUS
10
5.924649960629921
20
-3.7802905905511812
11
5.9262820866141732
21
-3.7796145669291339
0
LINE
8
BLACK
6
CONTINUOUS
10
5.9262820866141732
20
-3.7796145669291339
11
5.9280486220472444
21
-3.7796145669291339
0
LINE
8
BLACK
6
CONTINUOUS
10
5.9280486220472444
20
-3.7796145669291339
11
5.9296807480314957
21
-3.7802905905511812
0
LINE
8
BLACK
6
CONTINUOUS
10
5.9493657874015744
20
-3.7802905905511812
11
5.9506149212598425
21
-3.7815397244094489
0
LINE
8
BLACK
6
CONTINUOUS
10
5.9506149212598425
20
-3.7815397244094489
11
5.9512909448818894
21
-3.7831718503937006
0
LINE
8
BLACK
6
CONTINUOUS
10
5.9512909448818894
20
-3.7831718503937006
11
5.9513779527559052
21
-3.7840551181102362
0
LINE
8
BLACK
6
CONTINUOUS
10
5.9513779527559052
20
-3.7840551181102362
11
5.9513779527559052
21
-3.8064960629921258
0
LINE
8
BLACK
6
CONTINUOUS
10
5.9513779527559052
20
-3.8064960629921258
11
5.9512909448818894
21
-3.8073793307086614
0
LINE
8
BLACK
6
CONTINUOUS
10
5.9512909448818894
20
-3.8073793307086614
11
5.9506149212598425
21
-3.8090114566929132
0
LINE
8
BLACK
6
CONTINUOUS
10
5.9506149212598425
20
-3.8090114566929132
11
5.9493657874015744
21
-3.8102605905511808
0
LINE
8
BLACK
6
CONTINUOUS
10
5.9493657874015744
20
-3.8102605905511808
11
5.9477336614173231
21
-3.8109366141732282
0
LINE
8
BLACK
6
CONTINUOUS
10
5.9477336614173231
20
-3.8109366141732282
11
5.9459671259842519
21
-3.8109366141732282
0
LINE
8
BLACK
6
CONTINUOUS
10
5.9459671259842519
20
-3.8109366141732282
11
5.9443349999999997
21
-3.8102605905511808
0
LINE
8
BLACK
6
CONTINUOUS
10
5.9443349999999997
20
-3.8102605905511808
11
5.9430858661417325
21
-3.8090114566929132
0
LINE
8
BLACK
6
CONTINUOUS
10
5.9430858661417325
20
-3.8090114566929132
11
5.9424098425196847
21
-3.8073793307086614
0
LINE
8
BLACK
6
CONTINUOUS
10
5.9424098425196847
20
-3.8073793307086614
11
5.9423228346456689
21
-3.8064960629921258
0
LINE
8
BLACK
6
CONTINUOUS
10
5.9423228346456689
20
-3.8064960629921258
11
5.9423228346456689
21
-3.7840551181102362
0
LINE
8
BLACK
6
CONTINUOUS
10
5.9423228346456689
20
-3.7840551181102362
11
5.9424098425196847
21
-3.7831718503937006
0
LINE
8
BLACK
6
CONTINUOUS
10
5.9424098425196847
20
-3.7831718503937006
11
5.9430858661417325
21
-3.7815397244094489
0
LINE
8
BLACK
6
CONTINUOUS
10
5.9430858661417325
20
-3.7815397244094489
11
5.9443349999999997
21
-3.7802905905511812
0
LINE
8
BLACK
6
CONTINUOUS
10
5.9443349999999997
20
-3.7802905905511812
11
5.9459671259842519
21
-3.7796145669291339
0
LINE
8
BLACK
6
CONTINUOUS
10
5.9459671259842519
20
-3.7796145669291339
11
5.9477336614173231
21
-3.7796145669291339
0
LINE
8
BLACK
6
CONTINUOUS
10
5.9477336614173231
20
-3.7796145669291339
11
5.9493657874015744
21
-3.7802905905511812
0
LINE
8
BLACK
6
CONTINUOUS
10
5.9690508267716531
20
-3.7802905905511812
11
5.9702999606299212
21
-3.7815397244094489
0
LINE
8
BLACK
6
CONTINUOUS
10
5.9702999606299212
20
-3.7815397244094489
11
5.9709759842519681
21
-3.7831718503937006
0
LINE
8
BLACK
6
CONTINUOUS
10
5.9709759842519681
20
-3.7831718503937006
11
5.9710629921259839
21
-3.7840551181102362
0
LINE
8
BLACK
6
CONTINUOUS
10
5.9710629921259839
20
-3.7840551181102362
11
5.9710629921259839
21
-3.8064960629921258
0
LINE
8
BLACK
6
CONTINUOUS
10
5.9710629921259839
20
-3.8064960629921258
11
5.9709759842519681
21
-3.8073793307086614
0
LINE
8
BLACK
6
CONTINUOUS
10
5.9709759842519681
20
-3.8073793307086614
11
5.9702999606299212
21
-3.8090114566929132
0
LINE
8
BLACK
6
CONTINUOUS
10
5.9702999606299212
20
-3.8090114566929132
11
5.9690508267716531
21
-3.8102605905511808
0
LINE
8
BLACK
6
CONTINUOUS
10
5.9690508267716531
20
-3.8102605905511808
11
5.9674187007874018
21
-3.8109366141732282
0
LINE
8
BLACK
6
CONTINUOUS
10
5.9674187007874018
20
-3.8109366141732282
11
5.9656521653543306
21
-3.8109366141732282
0
LINE
8
BLACK
6
CONTINUOUS
10
5.9656521653543306
20
-3.8109366141732282
11
5.9640200393700784
21
-3.8102605905511808
0
LINE
8
BLACK
6
CONTINUOUS
10
5.9640200393700784
20
-3.8102605905511808
11
5.9627709055118112
21
-3.8090114566929132
0
LINE
8
BLACK
6
CONTINUOUS
10
5.9627709055118112
20
-3.8090114566929132
11
5.9620948818897634
21
-3.8073793307086614
0
LINE
8
BLACK
6
CONTINUOUS
10
5.9620948818897634
20
-3.8073793307086614
11
5.9620078740157476
21
-3.8064960629921258
0
LINE
8
BLACK
6
CONTINUOUS
10
5.9620078740157476
20
-3.8064960629921258
11
5.9620078740157476
21
-3.7840551181102362
0
LINE
8
BLACK
6
CONTINUOUS
10
5.9620078740157476
20
-3.7840551181102362
11
5.9620948818897634
21
-3.7831718503937006
0
LINE
8
BLACK
6
CONTINUOUS
10
5.9620948818897634
20
-3.7831718503937006
11
5.9627709055118112
21
-3.7815397244094489
0
LINE
8
BLACK
6
CONTINUOUS
10
5.9627709055118112
20
-3.7815397244094489
11
5.9640200393700784
21
-3.7802905905511812
0
LINE
8
BLACK
6
CONTINUOUS
10
5.9640200393700784
20
-3.7802905905511812
11
5.9656521653543306
21
-3.7796145669291339
0
LINE
8
BLACK
6
CONTINUOUS
10
5.9656521653543306
20
-3.7796145669291339
11
5.9674187007874018
21
-3.7796145669291339
0
LINE
8
BLACK
6
CONTINUOUS
10
5.9674187007874018
20
-3.7796145669291339
11
5.9690508267716531
21
-3.7802905905511812
0
LINE
8
BLACK
6
CONTINUOUS
10
5.9665354330708658
20
-3.765748031496063
11
5.8681102362204722
21
-3.765748031496063
0
LINE
8
BLACK
6
CONTINUOUS
10
5.8681102362204722
20
-3.765748031496063
11
5.8681102362204722
21
-3.667322834645669
0
LINE
8
BLACK
6
CONTINUOUS
10
5.8681102362204722
20
-3.667322834645669
11
5.9665354330708658
21
-3.667322834645669
0
LINE
8
BLACK
6
CONTINUOUS
10
5.9665354330708658
20
-3.667322834645669
11
5.9665354330708658
21
-3.765748031496063
0
LINE
8
BLACK
6
CONTINUOUS
10
5.8506864173228346
20
-3.6825673228346454
11
5.8523185433070868
21
-3.6832433464566927
0
LINE
8
BLACK
6
CONTINUOUS
10
5.8523185433070868
20
-3.6832433464566927
11
5.853567677165354
21
-3.6844924803149603
0
LINE
8
BLACK
6
CONTINUOUS
10
5.853567677165354
20
-3.6844924803149603
11
5.8542437007874017
21
-3.6861246062992126
0
LINE
8
BLACK
6
CONTINUOUS
10
5.8542437007874017
20
-3.6861246062992126
11
5.8542437007874017
21
-3.6878911417322833
0
LINE
8
BLACK
6
CONTINUOUS
10
5.8542437007874017
20
-3.6878911417322833
11
5.853567677165354
21
-3.6895232677165355
0
LINE
8
BLACK
6
CONTINUOUS
10
5.853567677165354
20
-3.6895232677165355
11
5.8523185433070868
21
-3.6907724015748031
0
LINE
8
BLACK
6
CONTINUOUS
10
5.8523185433070868
20
-3.6907724015748031
11
5.8506864173228346
21
-3.6914484251968505
0
LINE
8
BLACK
6
CONTINUOUS
10
5.8506864173228346
20
-3.6914484251968505
11
5.8498031496062994
21
-3.6915354330708658
0
LINE
8
BLACK
6
CONTINUOUS
10
5.8498031496062994
20
-3.6915354330708658
11
5.8273622047244089
21
-3.6915354330708658
0
LINE
8
BLACK
6
CONTINUOUS
10
5.8273622047244089
20
-3.6915354330708658
11
5.8264789370078738
21
-3.6914484251968505
0
LINE
8
BLACK
6
CONTINUOUS
10
5.8264789370078738
20
-3.6914484251968505
11
5.8248468110236216
21
-3.6907724015748031
0
LINE
8
BLACK
6
CONTINUOUS
10
5.8248468110236216
20
-3.6907724015748031
11
5.8235976771653544
21
-3.6895232677165355
0
LINE
8
BLACK
6
CONTINUOUS
10
5.8235976771653544
20
-3.6895232677165355
11
5.8229216535433066
21
-3.6878911417322833
0
LINE
8
BLACK
6
CONTINUOUS
10
5.8229216535433066
20
-3.6878911417322833
11
5.8229216535433066
21
-3.6861246062992126
0
LINE
8
BLACK
6
CONTINUOUS
10
5.8229216535433066
20
-3.6861246062992126
11
5.8235976771653544
21
-3.6844924803149603
0
LINE
8
BLACK
6
CONTINUOUS
10
5.8235976771653544
20
-3.6844924803149603
11
5.8248468110236216
21
-3.6832433464566927
0
LINE
8
BLACK
6
CONTINUOUS
10
5.8248468110236216
20
-3.6832433464566927
11
5.8264789370078738
21
-3.6825673228346454
0
LINE
8
BLACK
6
CONTINUOUS
10
5.8264789370078738
20
-3.6825673228346454
11
5.8273622047244089
21
-3.68248031496063
0
LINE
8
BLACK
6
CONTINUOUS
10
5.8273622047244089
20
-3.68248031496063
11
5.8498031496062994
21
-3.68248031496063
0
LINE
8
BLACK
6
CONTINUOUS
10
5.8498031496062994
20
-3.68248031496063
11
5.8506864173228346
21
-3.6825673228346454
0
LINE
8
BLACK
6
CONTINUOUS
10
6.0081667322834642
20
-3.6825673228346454
11
6.0097988582677164
21
-3.6832433464566927
0
LINE
8
BLACK
6
CONTINUOUS
10
6.0097988582677164
20
-3.6832433464566927
11
6.0110479921259845
21
-3.6844924803149603
0
LINE
8
BLACK
6
CONTINUOUS
10
6.0110479921259845
20
-3.6844924803149603
11
6.0117240157480314
21
-3.6861246062992126
0
LINE
8
BLACK
6
CONTINUOUS
10
6.0117240157480314
20
-3.6861246062992126
11
6.0117240157480314
21
-3.6878911417322833
0
LINE
8
BLACK
6
CONTINUOUS
10
6.0117240157480314
20
-3.6878911417322833
11
6.0110479921259845
21
-3.6895232677165355
0
LINE
8
BLACK
6
CONTINUOUS
10
6.0110479921259845
20
-3.6895232677165355
11
6.0097988582677164
21
-3.6907724015748031
0
LINE
8
BLACK
6
CONTINUOUS
10
6.0097988582677164
20
-3.6907724015748031
11
6.0081667322834642
21
-3.6914484251968505
0
LINE
8
BLACK
6
CONTINUOUS
10
6.0081667322834642
20
-3.6914484251968505
11
6.0072834645669291
21
-3.6915354330708658
0
LINE
8
BLACK
6
CONTINUOUS
10
6.0072834645669291
20
-3.6915354330708658
11
5.9848425196850394
21
-3.6915354330708658
0
LINE
8
BLACK
6
CONTINUOUS
10
5.9848425196850394
20
-3.6915354330708658
11
5.9839592519685034
21
-3.6914484251968505
0
LINE
8
BLACK
6
CONTINUOUS
10
5.9839592519685034
20
-3.6914484251968505
11
5.9823271259842521
21
-3.6907724015748031
0
LINE
8
BLACK
6
CONTINUOUS
10
5.9823271259842521
20
-3.6907724015748031
11
5.981077992125984
21
-3.6895232677165355
0
LINE
8
BLACK
6
CONTINUOUS
10
5.981077992125984
20
-3.6895232677165355
11
5.9804019685039371
21
-3.6878911417322833
0
LINE
8
BLACK
6
CONTINUOUS
10
5.9804019685039371
20
-3.6878911417322833
11
5.9804019685039371
21
-3.6861246062992126
0
LINE
8
BLACK
6
CONTINUOUS
10
5.9804019685039371
20
-3.6861246062992126
11
5.981077992125984
21
-3.6844924803149603
0
LINE
8
BLACK
6
CONTINUOUS
10
5.981077992125984
20
-3.6844924803149603
11
5.9823271259842521
21
-3.6832433464566927
0
LINE
8
BLACK
6
CONTINUOUS
10
5.9823271259842521
20
-3.6832433464566927
11
5.9839592519685034
21
-3.6825673228346454
0
LINE
8
BLACK
6
CONTINUOUS
10
5.9839592519685034
20
-3.6825673228346454
11
5.9848425196850394
21
-3.68248031496063
0
LINE
8
BLACK
6
CONTINUOUS
10
5.9848425196850394
20
-3.68248031496063
11
6.0072834645669291
21
-3.68248031496063
0
LINE
8
BLACK
6
CONTINUOUS
10
6.0072834645669291
20
-3.68248031496063
11
6.0081667322834642
21
-3.6825673228346454
0
LINE
8
BLACK
6
CONTINUOUS
10
5.8506864173228346
20
-3.6628822834645667
11
5.8523185433070868
21
-3.663558307086614
0
LINE
8
BLACK
6
CONTINUOUS
10
5.8523185433070868
20
-3.663558307086614
11
5.853567677165354
21
-3.6648074409448816
0
LINE
8
BLACK
6
CONTINUOUS
10
5.853567677165354
20
-3.6648074409448816
11
5.8542437007874017
21
-3.6664395669291339
0
LINE
8
BLACK
6
CONTINUOUS
10
5.8542437007874017
20
-3.6664395669291339
11
5.8542437007874017
21
-3.6682061023622046
0
LINE
8
BLACK
6
CONTINUOUS
10
5.8542437007874017
20
-3.6682061023622046
11
5.853567677165354
21
-3.6698382283464568
0
LINE
8
BLACK
6
CONTINUOUS
10
5.853567677165354
20
-3.6698382283464568
11
5.8523185433070868
21
-3.6710873622047244
0
LINE
8
BLACK
6
CONTINUOUS
10
5.8523185433070868
20
-3.6710873622047244
11
5.8506864173228346
21
-3.6717633858267718
0
LINE
8
BLACK
6
CONTINUOUS
10
5.8506864173228346
20
-3.6717633858267718
11
5.8498031496062994
21
-3.6718503937007871
0
LINE
8
BLACK
6
CONTINUOUS
10
5.8498031496062994
20
-3.6718503937007871
11
5.8273622047244089
21
-3.6718503937007871
0
LINE
8
BLACK
6
CONTINUOUS
10
5.8273622047244089
20
-3.6718503937007871
11
5.8264789370078738
21
-3.6717633858267718
0
LINE
8
BLACK
6
CONTINUOUS
10
5.8264789370078738
20
-3.6717633858267718
11
5.8248468110236216
21
-3.6710873622047244
0
LINE
8
BLACK
6
CONTINUOUS
10
5.8248468110236216
20
-3.6710873622047244
11
5.8235976771653544
21
-3.6698382283464568
0
LINE
8
BLACK
6
CONTINUOUS
10
5.8235976771653544
20
-3.6698382283464568
11
5.8229216535433066
21
-3.6682061023622046
0
LINE
8
BLACK
6
CONTINUOUS
10
5.8229216535433066
20
-3.6682061023622046
11
5.8229216535433066
21
-3.6664395669291339
0
LINE
8
BLACK
6
CONTINUOUS
10
5.8229216535433066
20
-3.6664395669291339
11
5.8235976771653544
21
-3.6648074409448816
0
LINE
8
BLACK
6
CONTINUOUS
10
5.8235976771653544
20
-3.6648074409448816
11
5.8248468110236216
21
-3.663558307086614
0
LINE
8
BLACK
6
CONTINUOUS
10
5.8248468110236216
20
-3.663558307086614
11
5.8264789370078738
21
-3.6628822834645667
0
LINE
8
BLACK
6
CONTINUOUS
10
5.8264789370078738
20
-3.6628822834645667
11
5.8273622047244089
21
-3.6627952755905513
0
LINE
8
BLACK
6
CONTINUOUS
10
5.8273622047244089
20
-3.6627952755905513
11
5.8498031496062994
21
-3.6627952755905513
0
LINE
8
BLACK
6
CONTINUOUS
10
5.8498031496062994
20
-3.6627952755905513
11
5.8506864173228346
21
-3.6628822834645667
0
LINE
8
BLACK
6
CONTINUOUS
10
6.0081667322834642
20
-3.6628822834645667
11
6.0097988582677164
21
-3.663558307086614
0
LINE
8
BLACK
6
CONTINUOUS
10
6.0097988582677164
20
-3.663558307086614
11
6.0110479921259845
21
-3.6648074409448816
0
LINE
8
BLACK
6
CONTINUOUS
10
6.0110479921259845
20
-3.6648074409448816
11
6.0117240157480314
21
-3.6664395669291339
0
LINE
8
BLACK
6
CONTINUOUS
10
6.0117240157480314
20
-3.6664395669291339
11
6.0117240157480314
21
-3.6682061023622046
0
LINE
8
BLACK
6
CONTINUOUS
10
6.0117240157480314
20
-3.6682061023622046
11
6.0110479921259845
21
-3.6698382283464568
0
LINE
8
BLACK
6
CONTINUOUS
10
6.0110479921259845
20
-3.6698382283464568
11
6.0097988582677164
21
-3.6710873622047244
0
LINE
8
BLACK
6
CONTINUOUS
10
6.0097988582677164
20
-3.6710873622047244
11
6.0081667322834642
21
-3.6717633858267718
0
LINE
8
BLACK
6
CONTINUOUS
10
6.0081667322834642
20
-3.6717633858267718
11
6.0072834645669291
21
-3.6718503937007871
0
LINE
8
BLACK
6
CONTINUOUS
10
6.0072834645669291
20
-3.6718503937007871
11
5.9848425196850394
21
-3.6718503937007871
0
LINE
8
BLACK
6
CONTINUOUS
10
5.9848425196850394
20
-3.6718503937007871
11
5.9839592519685034
21
-3.6717633858267718
0
LINE
8
BLACK
6
CONTINUOUS
10
5.9839592519685034
20
-3.6717633858267718
11
5.9823271259842521
21
-3.6710873622047244
0
LINE
8
BLACK
6
CONTINUOUS
10
5.9823271259842521
20
-3.6710873622047244
11
5.981077992125984
21
-3.6698382283464568
0
LINE
8
BLACK
6
CONTINUOUS
10
5.981077992125984
20
-3.6698382283464568
11
5.9804019685039371
21
-3.6682061023622046
0
LINE
8
BLACK
6
CONTINUOUS
10
5.9804019685039371
20
-3.6682061023622046
11
5.9804019685039371
21
-3.6664395669291339
0
LINE
8
BLACK
6
CONTINUOUS
10
5.9804019685039371
20
-3.6664395669291339
11
5.981077992125984
21
-3.6648074409448816
0
LINE
8
BLACK
6
CONTINUOUS
10
5.981077992125984
20
-3.6648074409448816
11
5.9823271259842521
21
-3.663558307086614
0
LINE
8
BLACK
6
CONTINUOUS
10
5.9823271259842521
20
-3.663558307086614
11
5.9839592519685034
21
-3.6628822834645667
0
LINE
8
BLACK
6
CONTINUOUS
10
5.9839592519685034
20
-3.6628822834645667
11
5.9848425196850394
21
-3.6627952755905513
0
LINE
8
BLACK
6
CONTINUOUS
10
5.9848425196850394
20
-3.6627952755905513
11
6.0072834645669291
21
-3.6627952755905513
0
LINE
8
BLACK
6
CONTINUOUS
10
6.0072834645669291
20
-3.6627952755905513
11
6.0081667322834642
21
-3.6628822834645667
0
LINE
8
BLACK
6
CONTINUOUS
10
5.8706256299212596
20
-3.6228102755905511
11
5.8718747637795277
21
-3.6240594094488188
0
LINE
8
BLACK
6
CONTINUOUS
10
5.8718747637795277
20
-3.6240594094488188
11
5.8725507874015745
21
-3.625691535433071
0
LINE
8
BLACK
6
CONTINUOUS
10
5.8725507874015745
20
-3.625691535433071
11
5.8726377952755904
21
-3.6265748031496061
0
LINE
8
BLACK
6
CONTINUOUS
10
5.8726377952755904
20
-3.6265748031496061
11
5.8726377952755904
21
-3.6490157480314962
0
LINE
8
BLACK
6
CONTINUOUS
10
5.8726377952755904
20
-3.6490157480314962
11
5.8725507874015745
21
-3.6498990157480313
0
LINE
8
BLACK
6
CONTINUOUS
10
5.8725507874015745
20
-3.6498990157480313
11
5.8718747637795277
21
-3.6515311417322835
0
LINE
8
BLACK
6
CONTINUOUS
10
5.8718747637795277
20
-3.6515311417322835
11
5.8706256299212596
21
-3.6527802755905512
0
LINE
8
BLACK
6
CONTINUOUS
10
5.8706256299212596
20
-3.6527802755905512
11
5.8689935039370074
21
-3.6534562992125985
0
LINE
8
BLACK
6
CONTINUOUS
10
5.8689935039370074
20
-3.6534562992125985
11
5.8672269685039371
21
-3.6534562992125985
0
LINE
8
BLACK
6
CONTINUOUS
10
5.8672269685039371
20
-3.6534562992125985
11
5.8655948425196849
21
-3.6527802755905512
0
LINE
8
BLACK
6
CONTINUOUS
10
5.8655948425196849
20
-3.6527802755905512
11
5.8643457086614168
21
-3.6515311417322835
0
LINE
8
BLACK
6
CONTINUOUS
10
5.8643457086614168
20
-3.6515311417322835
11
5.8636696850393699
21
-3.6498990157480313
0
LINE
8
BLACK
6
CONTINUOUS
10
5.8636696850393699
20
-3.6498990157480313
11
5.8635826771653541
21
-3.6490157480314962
0
LINE
8
BLACK
6
CONTINUOUS
10
5.8635826771653541
20
-3.6490157480314962
11
5.8635826771653541
21
-3.6265748031496061
0
LINE
8
BLACK
6
CONTINUOUS
10
5.8635826771653541
20
-3.6265748031496061
11
5.8636696850393699
21
-3.625691535433071
0
LINE
8
BLACK
6
CONTINUOUS
10
5.8636696850393699
20
-3.625691535433071
11
5.8643457086614168
21
-3.6240594094488188
0
LINE
8
BLACK
6
CONTINUOUS
10
5.8643457086614168
20
-3.6240594094488188
11
5.8655948425196849
21
-3.6228102755905511
0
LINE
8
BLACK
6
CONTINUOUS
10
5.8655948425196849
20
-3.6228102755905511
11
5.8672269685039371
21
-3.6221342519685038
0
LINE
8
BLACK
6
CONTINUOUS
10
5.8672269685039371
20
-3.6221342519685038
11
5.8689935039370074
21
-3.6221342519685038
0
LINE
8
BLACK
6
CONTINUOUS
10
5.8689935039370074
20
-3.6221342519685038
11
5.8706256299212596
21
-3.6228102755905511
0
LINE
8
BLACK
6
CONTINUOUS
10
5.8903106692913383
20
-3.6228102755905511
11
5.8915598031496064
21
-3.6240594094488188
0
LINE
8
BLACK
6
CONTINUOUS
10
5.8915598031496064
20
-3.6240594094488188
11
5.8922358267716533
21
-3.625691535433071
0
LINE
8
BLACK
6
CONTINUOUS
10
5.8922358267716533
20
-3.625691535433071
11
5.8923228346456691
21
-3.6265748031496061
0
LINE
8
BLACK
6
CONTINUOUS
10
5.8923228346456691
20
-3.6265748031496061
11
5.8923228346456691
21
-3.6490157480314962
0
LINE
8
BLACK
6
CONTINUOUS
10
5.8923228346456691
20
-3.6490157480314962
11
5.8922358267716533
21
-3.6498990157480313
0
LINE
8
BLACK
6
CONTINUOUS
10
5.8922358267716533
20
-3.6498990157480313
11
5.8915598031496064
21
-3.6515311417322835
0
LINE
8
BLACK
6
CONTINUOUS
10
5.8915598031496064
20
-3.6515311417322835
11
5.8903106692913383
21
-3.6527802755905512
0
LINE
8
BLACK
6
CONTINUOUS
10
5.8903106692913383
20
-3.6527802755905512
11
5.8886785433070861
21
-3.6534562992125985
0
LINE
8
BLACK
6
CONTINUOUS
10
5.8886785433070861
20
-3.6534562992125985
11
5.8869120078740158
21
-3.6534562992125985
0
LINE
8
BLACK
6
CONTINUOUS
10
5.8869120078740158
20
-3.6534562992125985
11
5.8852798818897636
21
-3.6527802755905512
0
LINE
8
BLACK
6
CONTINUOUS
10
5.8852798818897636
20
-3.6527802755905512
11
5.8840307480314955
21
-3.6515311417322835
0
LINE
8
BLACK
6
CONTINUOUS
10
5.8840307480314955
20
-3.6515311417322835
11
5.8833547244094486
21
-3.6498990157480313
0
LINE
8
BLACK
6
CONTINUOUS
10
5.8833547244094486
20
-3.6498990157480313
11
5.8832677165354328
21
-3.6490157480314962
0
LINE
8
BLACK
6
CONTINUOUS
10
5.8832677165354328
20
-3.6490157480314962
11
5.8832677165354328
21
-3.6265748031496061
0
LINE
8
BLACK
6
CONTINUOUS
10
5.8832677165354328
20
-3.6265748031496061
11
5.8833547244094486
21
-3.625691535433071
0
LINE
8
BLACK
6
CONTINUOUS
10
5.8833547244094486
20
-3.625691535433071
11
5.8840307480314955
21
-3.6240594094488188
0
LINE
8
BLACK
6
CONTINUOUS
10
5.8840307480314955
20
-3.6240594094488188
11
5.8852798818897636
21
-3.6228102755905511
0
LINE
8
BLACK
6
CONTINUOUS
10
5.8852798818897636
20
-3.6228102755905511
11
5.8869120078740158
21
-3.6221342519685038
0
LINE
8
BLACK
6
CONTINUOUS
10
5.8869120078740158
20
-3.6221342519685038
11
5.8886785433070861
21
-3.6221342519685038
0
LINE
8
BLACK
6
CONTINUOUS
10
5.8886785433070861
20
-3.6221342519685038
11
5.8903106692913383
21
-3.6228102755905511
0
LINE
8
BLACK
6
CONTINUOUS
10
5.909995708661417
20
-3.6228102755905511
11
5.9112448425196851
21
-3.6240594094488188
0
LINE
8
BLACK
6
CONTINUOUS
10
5.9112448425196851
20
-3.6240594094488188
11
5.911920866141732
21
-3.625691535433071
0
LINE
8
BLACK
6
CONTINUOUS
10
5.911920866141732
20
-3.625691535433071
11
5.9120078740157478
21
-3.6265748031496061
0
LINE
8
BLACK
6
CONTINUOUS
10
5.9120078740157478
20
-3.6265748031496061
11
5.9120078740157478
21
-3.6490157480314962
0
LINE
8
BLACK
6
CONTINUOUS
10
5.9120078740157478
20
-3.6490157480314962
11
5.911920866141732
21
-3.6498990157480313
0
LINE
8
BLACK
6
CONTINUOUS
10
5.911920866141732
20
-3.6498990157480313
11
5.9112448425196851
21
-3.6515311417322835
0
LINE
8
BLACK
6
CONTINUOUS
10
5.9112448425196851
20
-3.6515311417322835
11
5.909995708661417
21
-3.6527802755905512
0
LINE
8
BLACK
6
CONTINUOUS
10
5.909995708661417
20
-3.6527802755905512
11
5.9083635826771657
21
-3.6534562992125985
0
LINE
8
BLACK
6
CONTINUOUS
10
5.9083635826771657
20
-3.6534562992125985
11
5.9065970472440945
21
-3.6534562992125985
0
LINE
8
BLACK
6
CONTINUOUS
10
5.9065970472440945
20
-3.6534562992125985
11
5.9049649212598423
21
-3.6527802755905512
0
LINE
8
BLACK
6
CONTINUOUS
10
5.9049649212598423
20
-3.6527802755905512
11
5.9037157874015751
21
-3.6515311417322835
0
LINE
8
BLACK
6
CONTINUOUS
10
5.9037157874015751
20
-3.6515311417322835
11
5.9030397637795273
21
-3.6498990157480313
0
LINE
8
BLACK
6
CONTINUOUS
10
5.9030397637795273
20
-3.6498990157480313
11
5.9029527559055115
21
-3.6490157480314962
0
LINE
8
BLACK
6
CONTINUOUS
10
5.9029527559055115
20
-3.6490157480314962
11
5.9029527559055115
21
-3.6265748031496061
0
LINE
8
BLACK
6
CONTINUOUS
10
5.9029527559055115
20
-3.6265748031496061
11
5.9030397637795273
21
-3.625691535433071
0
LINE
8
BLACK
6
CONTINUOUS
10
5.9030397637795273
20
-3.625691535433071
11
5.9037157874015751
21
-3.6240594094488188
0
LINE
8
BLACK
6
CONTINUOUS
10
5.9037157874015751
20
-3.6240594094488188
11
5.9049649212598423
21
-3.6228102755905511
0
LINE
8
BLACK
6
CONTINUOUS
10
5.9049649212598423
20
-3.6228102755905511
11
5.9065970472440945
21
-3.6221342519685038
0
LINE
8
BLACK
6
CONTINUOUS
10
5.9065970472440945
20
-3.6221342519685038
11
5.9083635826771657
21
-3.6221342519685038
0
LINE
8
BLACK
6
CONTINUOUS
10
5.9083635826771657
20
-3.6221342519685038
11
5.909995708661417
21
-3.6228102755905511
0
LINE
8
BLACK
6
CONTINUOUS
10
5.9296807480314957
20
-3.6228102755905511
11
5.9309298818897638
21
-3.6240594094488188
0
LINE
8
BLACK
6
CONTINUOUS
10
5.9309298818897638
20
-3.6240594094488188
11
5.9316059055118107
21
-3.625691535433071
0
LINE
8
BLACK
6
CONTINUOUS
10
5.9316059055118107
20
-3.625691535433071
11
5.9316929133858265
21
-3.6265748031496061
0
LINE
8
BLACK
6
CONTINUOUS
10
5.9316929133858265
20
-3.6265748031496061
11
5.9316929133858265
21
-3.6490157480314962
0
LINE
8
BLACK
6
CONTINUOUS
10
5.9316929133858265
20
-3.6490157480314962
11
5.9316059055118107
21
-3.6498990157480313
0
LINE
8
BLACK
6
CONTINUOUS
10
5.9316059055118107
20
-3.6498990157480313
11
5.9309298818897638
21
-3.6515311417322835
0
LINE
8
BLACK
6
CONTINUOUS
10
5.9309298818897638
20
-3.6515311417322835
11
5.9296807480314957
21
-3.6527802755905512
0
LINE
8
BLACK
6
CONTINUOUS
10
5.9296807480314957
20
-3.6527802755905512
11
5.9280486220472444
21
-3.6534562992125985
0
LINE
8
BLACK
6
CONTINUOUS
10
5.9280486220472444
20
-3.6534562992125985
11
5.9262820866141732
21
-3.6534562992125985
0
LINE
8
BLACK
6
CONTINUOUS
10
5.9262820866141732
20
-3.6534562992125985
11
5.924649960629921
21
-3.6527802755905512
0
LINE
8
BLACK
6
CONTINUOUS
10
5.924649960629921
20
-3.6527802755905512
11
5.9234008267716538
21
-3.6515311417322835
0
LINE
8
BLACK
6
CONTINUOUS
10
5.9234008267716538
20
-3.6515311417322835
11
5.922724803149606
21
-3.6498990157480313
0
LINE
8
BLACK
6
CONTINUOUS
10
5.922724803149606
20
-3.6498990157480313
11
5.9226377952755902
21
-3.6490157480314962
0
LINE
8
BLACK
6
CONTINUOUS
10
5.9226377952755902
20
-3.6490157480314962
11
5.9226377952755902
21
-3.6265748031496061
0
LINE
8
BLACK
6
CONTINUOUS
10
5.9226377952755902
20
-3.6265748031496061
11
5.922724803149606
21
-3.625691535433071
0
LINE
8
BLACK
6
CONTINUOUS
10
5.922724803149606
20
-3.625691535433071
11
5.9234008267716538
21
-3.6240594094488188
0
LINE
8
BLACK
6
CONTINUOUS
10
5.9234008267716538
20
-3.6240594094488188
11
5.924649960629921
21
-3.6228102755905511
0
LINE
8
BLACK
6
CONTINUOUS
10
5.924649960629921
20
-3.6228102755905511
11
5.9262820866141732
21
-3.6221342519685038
0
LINE
8
BLACK
6
CONTINUOUS
10
5.9262820866141732
20
-3.6221342519685038
11
5.9280486220472444
21
-3.6221342519685038
0
LINE
8
BLACK
6
CONTINUOUS
10
5.9280486220472444
20
-3.6221342519685038
11
5.9296807480314957
21
-3.6228102755905511
0
LINE
8
BLACK
6
CONTINUOUS
10
5.9493657874015744
20
-3.6228102755905511
11
5.9506149212598425
21
-3.6240594094488188
0
LINE
8
BLACK
6
CONTINUOUS
10
5.9506149212598425
20
-3.6240594094488188
11
5.9512909448818894
21
-3.625691535433071
0
LINE
8
BLACK
6
CONTINUOUS
10
5.9512909448818894
20
-3.625691535433071
11
5.9513779527559052
21
-3.6265748031496061
0
LINE
8
BLACK
6
CONTINUOUS
10
5.9513779527559052
20
-3.6265748031496061
11
5.9513779527559052
21
-3.6490157480314962
0
LINE
8
BLACK
6
CONTINUOUS
10
5.9513779527559052
20
-3.6490157480314962
11
5.9512909448818894
21
-3.6498990157480313
0
LINE
8
BLACK
6
CONTINUOUS
10
5.9512909448818894
20
-3.6498990157480313
11
5.9506149212598425
21
-3.6515311417322835
0
LINE
8
BLACK
6
CONTINUOUS
10
5.9506149212598425
20
-3.6515311417322835
11
5.9493657874015744
21
-3.6527802755905512
0
LINE
8
BLACK
6
CONTINUOUS
10
5.9493657874015744
20
-3.6527802755905512
11
5.9477336614173231
21
-3.6534562992125985
0
LINE
8
BLACK
6
CONTINUOUS
10
5.9477336614173231
20
-3.6534562992125985
11
5.9459671259842519
21
-3.6534562992125985
0
LINE
8
BLACK
6
CONTINUOUS
10
5.9459671259842519
20
-3.6534562992125985
11
5.9443349999999997
21
-3.6527802755905512
0
LINE
8
BLACK
6
CONTINUOUS
10
5.9443349999999997
20
-3.6527802755905512
11
5.9430858661417325
21
-3.6515311417322835
0
LINE
8
BLACK
6
CONTINUOUS
10
5.9430858661417325
20
-3.6515311417322835
11
5.9424098425196847
21
-3.6498990157480313
0
LINE
8
BLACK
6
CONTINUOUS
10
5.9424098425196847
20
-3.6498990157480313
11
5.9423228346456689
21
-3.6490157480314962
0
LINE
8
BLACK
6
CONTINUOUS
10
5.9423228346456689
20
-3.6490157480314962
11
5.9423228346456689
21
-3.6265748031496061
0
LINE
8
BLACK
6
CONTINUOUS
10
5.9423228346456689
20
-3.6265748031496061
11
5.9424098425196847
21
-3.625691535433071
0
LINE
8
BLACK
6
CONTINUOUS
10
5.9424098425196847
20
-3.625691535433071
11
5.9430858661417325
21
-3.6240594094488188
0
LINE
8
BLACK
6
CONTINUOUS
10
5.9430858661417325
20
-3.6240594094488188
11
5.9443349999999997
21
-3.6228102755905511
0
LINE
8
BLACK
6
CONTINUOUS
10
5.9443349999999997
20
-3.6228102755905511
11
5.9459671259842519
21
-3.6221342519685038
0
LINE
8
BLACK
6
CONTINUOUS
10
5.9459671259842519
20
-3.6221342519685038
11
5.9477336614173231
21
-3.6221342519685038
0
LINE
8
BLACK
6
CONTINUOUS
10
5.9477336614173231
20
-3.6221342519685038
11
5.9493657874015744
21
-3.6228102755905511
0
LINE
8
BLACK
6
CONTINUOUS
10
5.9690508267716531
20
-3.6228102755905511
11
5.9702999606299212
21
-3.6240594094488188
0
LINE
8
BLACK
6
CONTINUOUS
10
5.9702999606299212
20
-3.6240594094488188
11
5.9709759842519681
21
-3.625691535433071
0
LINE
8
BLACK
6
CONTINUOUS
10
5.9709759842519681
20
-3.625691535433071
11
5.9710629921259839
21
-3.6265748031496061
0
LINE
8
BLACK
6
CONTINUOUS
10
5.9710629921259839
20
-3.6265748031496061
11
5.9710629921259839
21
-3.6490157480314962
0
LINE
8
BLACK
6
CONTINUOUS
10
5.9710629921259839
20
-3.6490157480314962
11
5.9709759842519681
21
-3.6498990157480313
0
LINE
8
BLACK
6
CONTINUOUS
10
5.9709759842519681
20
-3.6498990157480313
11
5.9702999606299212
21
-3.6515311417322835
0
LINE
8
BLACK
6
CONTINUOUS
10
5.9702999606299212
20
-3.6515311417322835
11
5.9690508267716531
21
-3.6527802755905512
0
LINE
8
BLACK
6
CONTINUOUS
10
5.9690508267716531
20
-3.6527802755905512
11
5.9674187007874018
21
-3.6534562992125985
0
LINE
8
BLACK
6
CONTINUOUS
10
5.9674187007874018
20
-3.6534562992125985
11
5.9656521653543306
21
-3.6534562992125985
0
LINE
8
BLACK
6
CONTINUOUS
10
5.9656521653543306
20
-3.6534562992125985
11
5.9640200393700784
21
-3.6527802755905512
0
LINE
8
BLACK
6
CONTINUOUS
10
5.9640200393700784
20
-3.6527802755905512
11
5.9627709055118112
21
-3.6515311417322835
0
LINE
8
BLACK
6
CONTINUOUS
10
5.9627709055118112
20
-3.6515311417322835
11
5.9620948818897634
21
-3.6498990157480313
0
LINE
8
BLACK
6
CONTINUOUS
10
5.9620948818897634
20
-3.6498990157480313
11
5.9620078740157476
21
-3.6490157480314962
0
LINE
8
BLACK
6
CONTINUOUS
10
5.9620078740157476
20
-3.6490157480314962
11
5.9620078740157476
21
-3.6265748031496061
0
LINE
8
BLACK
6
CONTINUOUS
10
5.9620078740157476
20
-3.6265748031496061
11
5.9620948818897634
21
-3.625691535433071
0
LINE
8
BLACK
6
CONTINUOUS
10
5.9620948818897634
20
-3.625691535433071
11
5.9627709055118112
21
-3.6240594094488188
0
LINE
8
BLACK
6
CONTINUOUS
10
5.9627709055118112
20
-3.6240594094488188
11
5.9640200393700784
21
-3.6228102755905511
0
LINE
8
BLACK
6
CONTINUOUS
10
5.9640200393700784
20
-3.6228102755905511
11
5.9656521653543306
21
-3.6221342519685038
0
LINE
8
BLACK
6
CONTINUOUS
10
5.9656521653543306
20
-3.6221342519685038
11
5.9674187007874018
21
-3.6221342519685038
0
LINE
8
BLACK
6
CONTINUOUS
10
5.9674187007874018
20
-3.6221342519685038
11
5.9690508267716531
21
-3.6228102755905511
0
LINE
8
BLACK
6
CONTINUOUS
10
5.6349758661417324
20
-3.5292550787401575
11
5.6380093700787404
21
-3.5312819685039369
0
LINE
8
BLACK
6
CONTINUOUS
10
5.6380093700787404
20
-3.5312819685039369
11
5.6400362598425193
21
-3.5343154724409449
0
LINE
8
BLACK
6
CONTINUOUS
10
5.6400362598425193
20
-3.5343154724409449
11
5.640748031496063
21
-3.5378937007874014
0
LINE
8
BLACK
6
CONTINUOUS
10
5.640748031496063
20
-3.5378937007874014
11
5.640748031496063
21
-3.5575787401574801
0
LINE
8
BLACK
6
CONTINUOUS
10
5.640748031496063
20
-3.5575787401574801
11
5.6400362598425193
21
-3.561156968503937
0
LINE
8
BLACK
6
CONTINUOUS
10
5.6400362598425193
20
-3.561156968503937
11
5.6380093700787404
21
-3.564190472440945
0
LINE
8
BLACK
6
CONTINUOUS
10
5.6380093700787404
20
-3.564190472440945
11
5.6349758661417324
21
-3.5662173622047244
0
LINE
8
BLACK
6
CONTINUOUS
10
5.6349758661417324
20
-3.5662173622047244
11
5.631397637795275
21
-3.5669291338582676
0
LINE
8
BLACK
6
CONTINUOUS
10
5.631397637795275
20
-3.5669291338582676
11
5.6126968503937009
21
-3.5669291338582676
0
LINE
8
BLACK
6
CONTINUOUS
10
5.6126968503937009
20
-3.5669291338582676
11
5.6091186220472435
21
-3.5662173622047244
0
LINE
8
BLACK
6
CONTINUOUS
10
5.6091186220472435
20
-3.5662173622047244
11
5.6060851181102365
21
-3.564190472440945
0
LINE
8
BLACK
6
CONTINUOUS
10
5.6060851181102365
20
-3.564190472440945
11
5.6040582283464566
21
-3.561156968503937
0
LINE
8
BLACK
6
CONTINUOUS
10
5.6040582283464566
20
-3.561156968503937
11
5.603346456692913
21
-3.5575787401574801
0
LINE
8
BLACK
6
CONTINUOUS
10
5.603346456692913
20
-3.5575787401574801
11
5.603346456692913
21
-3.5378937007874014
0
LINE
8
BLACK
6
CONTINUOUS
10
5.603346456692913
20
-3.5378937007874014
11
5.6040582283464566
21
-3.5343154724409449
0
LINE
8
BLACK
6
CONTINUOUS
10
5.6040582283464566
20
-3.5343154724409449
11
5.6060851181102365
21
-3.5312819685039369
0
LINE
8
BLACK
6
CONTINUOUS
10
5.6060851181102365
20
-3.5312819685039369
11
5.6091186220472435
21
-3.5292550787401575
0
LINE
8
BLACK
6
CONTINUOUS
10
5.6091186220472435
20
-3.5292550787401575
11
5.6126968503937009
21
-3.5285433070866139
0
LINE
8
BLACK
6
CONTINUOUS
10
5.6126968503937009
20
-3.5285433070866139
11
5.631397637795275
21
-3.5285433070866139
0
LINE
8
BLACK
6
CONTINUOUS
10
5.631397637795275
20
-3.5285433070866139
11
5.6349758661417324
21
-3.5292550787401575
0
LINE
8
BLACK
6
CONTINUOUS
10
5.7609601181102361
20
-3.5253180708661418
11
5.7639936220472441
21
-3.5273449606299212
0
LINE
8
BLACK
6
CONTINUOUS
10
5.7639936220472441
20
-3.5273449606299212
11
5.7660205118110239
21
-3.5303784645669292
0
LINE
8
BLACK
6
CONTINUOUS
10
5.7660205118110239
20
-3.5303784645669292
11
5.7667322834645667
21
-3.5339566929133857
0
LINE
8
BLACK
6
CONTINUOUS
10
5.7667322834645667
20
-3.5339566929133857
11
5.7667322834645667
21
-3.5575787401574801
0
LINE
8
BLACK
6
CONTINUOUS
10
5.7667322834645667
20
-3.5575787401574801
11
5.7660205118110239
21
-3.561156968503937
0
LINE
8
BLACK
6
CONTINUOUS
10
5.7660205118110239
20
-3.561156968503937
11
5.7639936220472441
21
-3.564190472440945
0
LINE
8
BLACK
6
CONTINUOUS
10
5.7639936220472441
20
-3.564190472440945
11
5.7609601181102361
21
-3.5662173622047244
0
LINE
8
BLACK
6
CONTINUOUS
10
5.7609601181102361
20
-3.5662173622047244
11
5.7573818897637796
21
-3.5669291338582676
0
LINE
8
BLACK
6
CONTINUOUS
10
5.7573818897637796
20
-3.5669291338582676
11
5.7386811023622046
21
-3.5669291338582676
0
LINE
8
BLACK
6
CONTINUOUS
10
5.7386811023622046
20
-3.5669291338582676
11
5.7351028740157481
21
-3.5662173622047244
0
LINE
8
BLACK
6
CONTINUOUS
10
5.7351028740157481
20
-3.5662173622047244
11
5.7320693700787402
21
-3.564190472440945
0
LINE
8
BLACK
6
CONTINUOUS
10
5.7320693700787402
20
-3.564190472440945
11
5.7300424803149603
21
-3.561156968503937
0
LINE
8
BLACK
6
CONTINUOUS
10
5.7300424803149603
20
-3.561156968503937
11
5.7293307086614176
21
-3.5575787401574801
0
LINE
8
BLACK
6
CONTINUOUS
10
5.7293307086614176
20
-3.5575787401574801
11
5.7293307086614176
21
-3.5339566929133857
0
LINE
8
BLACK
6
CONTINUOUS
10
5.7293307086614176
20
-3.5339566929133857
11
5.7300424803149603
21
-3.5303784645669292
0
LINE
8
BLACK
6
CONTINUOUS
10
5.7300424803149603
20
-3.5303784645669292
11
5.7320693700787402
21
-3.5273449606299212
0
LINE
8
BLACK
6
CONTINUOUS
10
5.7320693700787402
20
-3.5273449606299212
11
5.7351028740157481
21
-3.5253180708661418
0
LINE
8
BLACK
6
CONTINUOUS
10
5.7351028740157481
20
-3.5253180708661418
11
5.7386811023622046
21
-3.5246062992125982
0
LINE
8
BLACK
6
CONTINUOUS
10
5.7386811023622046
20
-3.5246062992125982
11
5.7573818897637796
21
-3.5246062992125982
0
LINE
8
BLACK
6
CONTINUOUS
10
5.7573818897637796
20
-3.5246062992125982
11
5.7609601181102361
21
-3.5253180708661418
0
LINE
8
BLACK
6
CONTINUOUS
10
6.1467868897637796
20
-3.5174440551181103
11
6.1498203937007876
21
-3.5194709448818897
0
LINE
8
BLACK
6
CONTINUOUS
10
6.1498203937007876
20
-3.5194709448818897
11
6.1518472834645666
21
-3.5225044488188977
0
LINE
8
BLACK
6
CONTINUOUS
10
6.1518472834645666
20
-3.5225044488188977
11
6.1525590551181102
21
-3.5260826771653542
0
LINE
8
BLACK
6
CONTINUOUS
10
6.1525590551181102
20
-3.5260826771653542
11
6.1525590551181102
21
-3.5497047244094486
0
LINE
8
BLACK
6
CONTINUOUS
10
6.1525590551181102
20
-3.5497047244094486
11
6.1518472834645666
21
-3.5532829527559056
0
LINE
8
BLACK
6
CONTINUOUS
10
6.1518472834645666
20
-3.5532829527559056
11
6.1498203937007876
21
-3.5563164566929135
0
LINE
8
BLACK
6
CONTINUOUS
10
6.1498203937007876
20
-3.5563164566929135
11
6.1467868897637796
21
-3.5583433464566929
0
LINE
8
BLACK
6
CONTINUOUS
10
6.1467868897637796
20
-3.5583433464566929
11
6.1432086614173231
21
-3.5590551181102361
0
LINE
8
BLACK
6
CONTINUOUS
10
6.1432086614173231
20
-3.5590551181102361
11
6.1245078740157481
21
-3.5590551181102361
0
LINE
8
BLACK
6
CONTINUOUS
10
6.1245078740157481
20
-3.5590551181102361
11
6.1209296456692908
21
-3.5583433464566929
0
LINE
8
BLACK
6
CONTINUOUS
10
6.1209296456692908
20
-3.5583433464566929
11
6.1178961417322837
21
-3.5563164566929135
0
LINE
8
BLACK
6
CONTINUOUS
10
6.1178961417322837
20
-3.5563164566929135
11
6.1158692519685038
21
-3.5532829527559056
0
LINE
8
BLACK
6
CONTINUOUS
10
6.1158692519685038
20
-3.5532829527559056
11
6.1151574803149602
21
-3.5497047244094486
0
LINE
8
BLACK
6
CONTINUOUS
10
6.1151574803149602
20
-3.5497047244094486
11
6.1151574803149602
21
-3.5260826771653542
0
LINE
8
BLACK
6
CONTINUOUS
10
6.1151574803149602
20
-3.5260826771653542
11
6.1158692519685038
21
-3.5225044488188977
0
LINE
8
BLACK
6
CONTINUOUS
10
6.1158692519685038
20
-3.5225044488188977
11
6.1178961417322837
21
-3.5194709448818897
0
LINE
8
BLACK
6
CONTINUOUS
10
6.1178961417322837
20
-3.5194709448818897
11
6.1209296456692908
21
-3.5174440551181103
0
LINE
8
BLACK
6
CONTINUOUS
10
6.1209296456692908
20
-3.5174440551181103
11
6.1245078740157481
21
-3.5167322834645667
0
LINE
8
BLACK
6
CONTINUOUS
10
6.1245078740157481
20
-3.5167322834645667
11
6.1432086614173231
21
-3.5167322834645667
0
LINE
8
BLACK
6
CONTINUOUS
10
6.1432086614173231
20
-3.5167322834645667
11
6.1467868897637796
21
-3.5174440551181103
0
LINE
8
BLACK
6
CONTINUOUS
10
5.7609601181102361
20
-3.45740468503937
11
5.7639936220472441
21
-3.4594315748031494
0
LINE
8
BLACK
6
CONTINUOUS
10
5.7639936220472441
20
-3.4594315748031494
11
5.7660205118110239
21
-3.4624650787401574
0
LINE
8
BLACK
6
CONTINUOUS
10
5.7660205118110239
20
-3.4624650787401574
11
5.7667322834645667
21
-3.4660433070866139
0
LINE
8
BLACK
6
CONTINUOUS
10
5.7667322834645667
20
-3.4660433070866139
11
5.7667322834645667
21
-3.4896653543307088
0
LINE
8
BLACK
6
CONTINUOUS
10
5.7667322834645667
20
-3.4896653543307088
11
5.7660205118110239
21
-3.4932435826771653
0
LINE
8
BLACK
6
CONTINUOUS
10
5.7660205118110239
20
-3.4932435826771653
11
5.7639936220472441
21
-3.4962770866141732
0
LINE
8
BLACK
6
CONTINUOUS
10
5.7639936220472441
20
-3.4962770866141732
11
5.7609601181102361
21
-3.4983039763779527
0
LINE
8
BLACK
6
CONTINUOUS
10
5.7609601181102361
20
-3.4983039763779527
11
5.7573818897637796
21
-3.4990157480314958
0
LINE
8
BLACK
6
CONTINUOUS
10
5.7573818897637796
20
-3.4990157480314958
11
5.7386811023622046
21
-3.4990157480314958
0
LINE
8
BLACK
6
CONTINUOUS
10
5.7386811023622046
20
-3.4990157480314958
11
5.7351028740157481
21
-3.4983039763779527
0
LINE
8
BLACK
6
CONTINUOUS
10
5.7351028740157481
20
-3.4983039763779527
11
5.7320693700787402
21
-3.4962770866141732
0
LINE
8
BLACK
6
CONTINUOUS
10
5.7320693700787402
20
-3.4962770866141732
11
5.7300424803149603
21
-3.4932435826771653
0
LINE
8
BLACK
6
CONTINUOUS
10
5.7300424803149603
20
-3.4932435826771653
11
5.7293307086614176
21
-3.4896653543307088
0
LINE
8
BLACK
6
CONTINUOUS
10
5.7293307086614176
20
-3.4896653543307088
11
5.7293307086614176
21
-3.4660433070866139
0
LINE
8
BLACK
6
CONTINUOUS
10
5.7293307086614176
20
-3.4660433070866139
11
5.7300424803149603
21
-3.4624650787401574
0
LINE
8
BLACK
6
CONTINUOUS
10
5.7300424803149603
20
-3.4624650787401574
11
5.7320693700787402
21
-3.4594315748031494
0
LINE
8
BLACK
6
CONTINUOUS
10
5.7320693700787402
20
-3.4594315748031494
11
5.7351028740157481
21
-3.45740468503937
0
LINE
8
BLACK
6
CONTINUOUS
10
5.7351028740157481
20
-3.45740468503937
11
5.7386811023622046
21
-3.4566929133858268
0
LINE
8
BLACK
6
CONTINUOUS
10
5.7386811023622046
20
-3.4566929133858268
11
5.7573818897637796
21
-3.4566929133858268
0
LINE
8
BLACK
6
CONTINUOUS
10
5.7573818897637796
20
-3.4566929133858268
11
5.7609601181102361
21
-3.45740468503937
0
LINE
8
BLACK
6
CONTINUOUS
10
5.6349758661417324
20
-3.45740468503937
11
5.6380093700787404
21
-3.4594315748031494
0
LINE
8
BLACK
6
CONTINUOUS
10
5.6380093700787404
20
-3.4594315748031494
11
5.6400362598425193
21
-3.4624650787401574
0
LINE
8
BLACK
6
CONTINUOUS
10
5.6400362598425193
20
-3.4624650787401574
11
5.640748031496063
21
-3.4660433070866139
0
LINE
8
BLACK
6
CONTINUOUS
10
5.640748031496063
20
-3.4660433070866139
11
5.640748031496063
21
-3.485728346456693
0
LINE
8
BLACK
6
CONTINUOUS
10
5.640748031496063
20
-3.485728346456693
11
5.6400362598425193
21
-3.4893065748031495
0
LINE
8
BLACK
6
CONTINUOUS
10
5.6400362598425193
20
-3.4893065748031495
11
5.6380093700787404
21
-3.4923400787401575
0
LINE
8
BLACK
6
CONTINUOUS
10
5.6380093700787404
20
-3.4923400787401575
11
5.6349758661417324
21
-3.4943669685039369
0
LINE
8
BLACK
6
CONTINUOUS
10
5.6349758661417324
20
-3.4943669685039369
11
5.631397637795275
21
-3.4950787401574801
0
LINE
8
BLACK
6
CONTINUOUS
10
5.631397637795275
20
-3.4950787401574801
11
5.6126968503937009
21
-3.4950787401574801
0
LINE
8
BLACK
6
CONTINUOUS
10
5.6126968503937009
20
-3.4950787401574801
11
5.6091186220472435
21
-3.4943669685039369
0
LINE
8
BLACK
6
CONTINUOUS
10
5.6091186220472435
20
-3.4943669685039369
11
5.6060851181102365
21
-3.4923400787401575
0
LINE
8
BLACK
6
CONTINUOUS
10
5.6060851181102365
20
-3.4923400787401575
11
5.6040582283464566
21
-3.4893065748031495
0
LINE
8
BLACK
6
CONTINUOUS
10
5.6040582283464566
20
-3.4893065748031495
11
5.603346456692913
21
-3.485728346456693
0
LINE
8
BLACK
6
CONTINUOUS
10
5.603346456692913
20
-3.485728346456693
11
5.603346456692913
21
-3.4660433070866139
0
LINE
8
BLACK
6
CONTINUOUS
10
5.603346456692913
20
-3.4660433070866139
11
5.6040582283464566
21
-3.4624650787401574
0
LINE
8
BLACK
6
CONTINUOUS
10
5.6040582283464566
20
-3.4624650787401574
11
5.6060851181102365
21
-3.4594315748031494
0
LINE
8
BLACK
6
CONTINUOUS
10
5.6060851181102365
20
-3.4594315748031494
11
5.6091186220472435
21
-3.45740468503937
0
LINE
8
BLACK
6
CONTINUOUS
10
5.6091186220472435
20
-3.45740468503937
11
5.6126968503937009
21
-3.4566929133858268
0
LINE
8
BLACK
6
CONTINUOUS
10
5.6126968503937009
20
-3.4566929133858268
11
5.631397637795275
21
-3.4566929133858268
0
LINE
8
BLACK
6
CONTINUOUS
10
5.631397637795275
20
-3.4566929133858268
11
5.6349758661417324
21
-3.45740468503937
0
LINE
8
BLACK
6
CONTINUOUS
10
6.1467868897637796
20
-3.4495306692913386
11
6.1498203937007876
21
-3.451557559055118
0
LINE
8
BLACK
6
CONTINUOUS
10
6.1498203937007876
20
-3.451557559055118
11
6.1518472834645666
21
-3.4545910629921259
0
LINE
8
BLACK
6
CONTINUOUS
10
6.1518472834645666
20
-3.4545910629921259
11
6.1525590551181102
21
-3.4581692913385824
0
LINE
8
BLACK
6
CONTINUOUS
10
6.1525590551181102
20
-3.4581692913385824
11
6.1525590551181102
21
-3.4817913385826769
0
LINE
8
BLACK
6
CONTINUOUS
10
6.1525590551181102
20
-3.4817913385826769
11
6.1518472834645666
21
-3.4853695669291338
0
LINE
8
BLACK
6
CONTINUOUS
10
6.1518472834645666
20
-3.4853695669291338
11
6.1498203937007876
21
-3.4884030708661418
0
LINE
8
BLACK
6
CONTINUOUS
10
6.1498203937007876
20
-3.4884030708661418
11
6.1467868897637796
21
-3.4904299606299212
0
LINE
8
BLACK
6
CONTINUOUS
10
6.1467868897637796
20
-3.4904299606299212
11
6.1432086614173231
21
-3.4911417322834644
0
LINE
8
BLACK
6
CONTINUOUS
10
6.1432086614173231
20
-3.4911417322834644
11
6.1245078740157481
21
-3.4911417322834644
0
LINE
8
BLACK
6
CONTINUOUS
10
6.1245078740157481
20
-3.4911417322834644
11
6.1209296456692908
21
-3.4904299606299212
0
LINE
8
BLACK
6
CONTINUOUS
10
6.1209296456692908
20
-3.4904299606299212
11
6.1178961417322837
21
-3.4884030708661418
0
LINE
8
BLACK
6
CONTINUOUS
10
6.1178961417322837
20
-3.4884030708661418
11
6.1158692519685038
21
-3.4853695669291338
0
LINE
8
BLACK
6
CONTINUOUS
10
6.1158692519685038
20
-3.4853695669291338
11
6.1151574803149602
21
-3.4817913385826769
0
LINE
8
BLACK
6
CONTINUOUS
10
6.1151574803149602
20
-3.4817913385826769
11
6.1151574803149602
21
-3.4581692913385824
0
LINE
8
BLACK
6
CONTINUOUS
10
6.1151574803149602
20
-3.4581692913385824
11
6.1158692519685038
21
-3.4545910629921259
0
LINE
8
BLACK
6
CONTINUOUS
10
6.1158692519685038
20
-3.4545910629921259
11
6.1178961417322837
21
-3.451557559055118
0
LINE
8
BLACK
6
CONTINUOUS
10
6.1178961417322837
20
-3.451557559055118
11
6.1209296456692908
21
-3.4495306692913386
0
LINE
8
BLACK
6
CONTINUOUS
10
6.1209296456692908
20
-3.4495306692913386
11
6.1245078740157481
21
-3.4488188976377954
0
LINE
8
BLACK
6
CONTINUOUS
10
6.1245078740157481
20
-3.4488188976377954
11
6.1432086614173231
21
-3.4488188976377954
0
LINE
8
BLACK
6
CONTINUOUS
10
6.1432086614173231
20
-3.4488188976377954
11
6.1467868897637796
21
-3.4495306692913386
0
LINE
8
BLACK
6
CONTINUOUS
10
5.4751968503937007
20
-3.3744094488188976
11
5.4358267716535433
21
-3.3744094488188976
0
LINE
8
BLACK
6
CONTINUOUS
10
5.4358267716535433
20
-3.3744094488188976
11
5.4358267716535433
21
-3.2755905511811023
0
LINE
8
BLACK
6
CONTINUOUS
10
5.4358267716535433
20
-3.2755905511811023
11
5.4751968503937007
21
-3.2755905511811023
0
LINE
8
BLACK
6
CONTINUOUS
10
5.4751968503937007
20
-3.2755905511811023
11
5.4751968503937007
21
-3.3744094488188976
0
LINE
8
BLACK
6
CONTINUOUS
10
5.6751968503937009
20
-3.3744094488188976
11
5.6358267716535435
21
-3.3744094488188976
0
LINE
8
BLACK
6
CONTINUOUS
10
5.6358267716535435
20
-3.3744094488188976
11
5.6358267716535435
21
-3.2755905511811023
0
LINE
8
BLACK
6
CONTINUOUS
10
5.6358267716535435
20
-3.2755905511811023
11
5.6751968503937009
21
-3.2755905511811023
0
LINE
8
BLACK
6
CONTINUOUS
10
5.6751968503937009
20
-3.2755905511811023
11
5.6751968503937009
21
-3.3744094488188976
0
LINE
8
BLACK
6
CONTINUOUS
10
5.8751968503937002
20
-3.3744094488188976
11
5.8358267716535428
21
-3.3744094488188976
0
LINE
8
BLACK
6
CONTINUOUS
10
5.8358267716535428
20
-3.3744094488188976
11
5.8358267716535428
21
-3.2755905511811023
0
LINE
8
BLACK
6
CONTINUOUS
10
5.8358267716535428
20
-3.2755905511811023
11
5.8751968503937002
21
-3.2755905511811023
0
LINE
8
BLACK
6
CONTINUOUS
10
5.8751968503937002
20
-3.2755905511811023
11
5.8751968503937002
21
-3.3744094488188976
0
LINE
8
BLACK
6
CONTINUOUS
10
6.0751968503937004
20
-3.3744094488188976
11
6.035826771653543
21
-3.3744094488188976
0
LINE
8
BLACK
6
CONTINUOUS
10
6.035826771653543
20
-3.3744094488188976
11
6.035826771653543
21
-3.2755905511811023
0
LINE
8
BLACK
6
CONTINUOUS
10
6.035826771653543
20
-3.2755905511811023
11
6.0751968503937004
21
-3.2755905511811023
0
LINE
8
BLACK
6
CONTINUOUS
10
6.0751968503937004
20
-3.2755905511811023
11
6.0751968503937004
21
-3.3744094488188976
0
LINE
8
BLACK
6
CONTINUOUS
10
6.2751968503937006
20
-3.3744094488188976
11
6.2358267716535432
21
-3.3744094488188976
0
LINE
8
BLACK
6
CONTINUOUS
10
6.2358267716535432
20
-3.3744094488188976
11
6.2358267716535432
21
-3.2755905511811023
0
LINE
8
BLACK
6
CONTINUOUS
10
6.2358267716535432
20
-3.2755905511811023
11
6.2751968503937006
21
-3.2755905511811023
0
LINE
8
BLACK
6
CONTINUOUS
10
6.2751968503937006
20
-3.2755905511811023
11
6.2751968503937006
21
-3.3744094488188976
0
LINE
8
BLACK
6
CONTINUOUS
10
5.5751968503937004
20
-3.2440944881889764
11
5.535826771653543
21
-3.2440944881889764
0
LINE
8
BLACK
6
CONTINUOUS
10
5.535826771653543
20
-3.2440944881889764
11
5.535826771653543
21
-3.1452755905511811
0
LINE
8
BLACK
6
CONTINUOUS
10
5.535826771653543
20
-3.1452755905511811
11
5.5751968503937004
21
-3.1452755905511811
0
LINE
8
BLACK
6
CONTINUOUS
10
5.5751968503937004
20
-3.1452755905511811
11
5.5751968503937004
21
-3.2440944881889764
0
LINE
8
BLACK
6
CONTINUOUS
10
5.7751968503937006
20
-3.2440944881889764
11
5.7358267716535432
21
-3.2440944881889764
0
LINE
8
BLACK
6
CONTINUOUS
10
5.7358267716535432
20
-3.2440944881889764
11
5.7358267716535432
21
-3.1452755905511811
0
LINE
8
BLACK
6
CONTINUOUS
10
5.7358267716535432
20
-3.1452755905511811
11
5.7751968503937006
21
-3.1452755905511811
0
LINE
8
BLACK
6
CONTINUOUS
10
5.7751968503937006
20
-3.1452755905511811
11
5.7751968503937006
21
-3.2440944881889764
0
LINE
8
BLACK
6
CONTINUOUS
10
5.9751968503937007
20
-3.2440944881889764
11
5.9358267716535433
21
-3.2440944881889764
0
LINE
8
BLACK
6
CONTINUOUS
10
5.9358267716535433
20
-3.2440944881889764
11
5.9358267716535433
21
-3.1452755905511811
0
LINE
8
BLACK
6
CONTINUOUS
10
5.9358267716535433
20
-3.1452755905511811
11
5.9751968503937007
21
-3.1452755905511811
0
LINE
8
BLACK
6
CONTINUOUS
10
5.9751968503937007
20
-3.1452755905511811
11
5.9751968503937007
21
-3.2440944881889764
0
LINE
8
BLACK
6
CONTINUOUS
10
6.1751968503937009
20
-3.2440944881889764
11
6.1358267716535435
21
-3.2440944881889764
0
LINE
8
BLACK
6
CONTINUOUS
10
6.1358267716535435
20
-3.2440944881889764
11
6.1358267716535435
21
-3.1452755905511811
0
LINE
8
BLACK
6
CONTINUOUS
10
6.1358267716535435
20
-3.1452755905511811
11
6.1751968503937009
21
-3.1452755905511811
0
LINE
8
BLACK
6
CONTINUOUS
10
6.1751968503937009
20
-3.1452755905511811
11
6.1751968503937009
21
-3.2440944881889764
0
LINE
8
BLACK
6
CONTINUOUS
10
6.3751968503937002
20
-3.2440944881889764
11
6.3358267716535428
21
-3.2440944881889764
0
LINE
8
BLACK
6
CONTINUOUS
10
6.3358267716535428
20
-3.2440944881889764
11
6.3358267716535428
21
-3.1452755905511811
0
LINE
8
BLACK
6
CONTINUOUS
10
6.3358267716535428
20
-3.1452755905511811
11
6.3751968503937002
21
-3.1452755905511811
0
LINE
8
BLACK
6
CONTINUOUS
10
6.3751968503937002
20
-3.1452755905511811
11
6.3751968503937002
21
-3.2440944881889764
  0
ENDSEC
  0
EOF
