M48
; DRILL file {KiCad 8.0.9} date 2025-12-09T16:04:31+0100
; FORMAT={-:-/ absolute / metric / decimal}
; #@! TF.CreationDate,2025-12-09T16:04:31+01:00
; #@! TF.GenerationSoftware,Kicad,Pcbnew,8.0.9
; #@! TF.FileFunction,Plated,1,2,PTH
FMAT,2
METRIC
; #@! TA.AperFunction,Plated,PTH,ViaDrill
T1C0.300
; #@! TA.AperFunction,Plated,PTH,ComponentDrill
T2C1.000
%
G90
G05
T1
X65.233Y-73.515
X65.233Y-76.055
X65.233Y-78.595
X65.233Y-81.135
X65.233Y-83.675
X72.853Y-83.675
X75.393Y-73.515
X75.393Y-83.675
X77.933Y-73.515
X77.933Y-83.675
X80.473Y-73.515
X80.473Y-83.675
X83.013Y-73.515
X83.013Y-83.675
X85.553Y-73.515
X85.553Y-83.675
X88.093Y-73.515
X88.093Y-83.675
X90.633Y-73.515
X90.633Y-83.675
X93.173Y-73.515
X93.173Y-83.675
X95.713Y-73.515
X95.713Y-83.675
X98.253Y-73.515
X98.253Y-83.675
X100.793Y-73.515
X100.793Y-83.675
X103.333Y-73.515
X103.333Y-83.675
X105.873Y-73.515
X105.873Y-83.675
X108.413Y-73.515
X108.413Y-83.675
X110.953Y-73.515
X110.953Y-83.675
X113.493Y-73.515
X123.653Y-83.675
X126.193Y-73.515
X126.193Y-83.675
X128.733Y-73.515
X128.733Y-83.675
X131.273Y-73.515
X131.273Y-83.675
X133.813Y-73.515
X133.813Y-83.675
X136.353Y-73.515
X136.353Y-83.675
X138.893Y-73.515
X138.893Y-83.675
X141.433Y-73.515
X141.433Y-83.675
X143.973Y-73.515
X143.973Y-83.675
X146.513Y-73.515
X146.513Y-83.675
X149.053Y-73.515
X149.053Y-83.675
X151.593Y-73.515
X151.593Y-83.675
X154.133Y-73.515
X154.133Y-83.675
X156.673Y-73.515
X156.673Y-83.675
X159.213Y-73.515
X159.213Y-83.675
X161.753Y-73.515
X161.753Y-83.675
X164.293Y-73.515
X174.453Y-83.675
X176.993Y-81.135
X176.993Y-83.675
X179.533Y-81.135
X179.533Y-83.675
X182.073Y-81.135
X182.073Y-83.675
X184.613Y-81.135
X184.613Y-83.675
X187.153Y-73.515
X187.153Y-81.135
X187.153Y-83.675
X189.693Y-73.515
X189.693Y-81.135
X189.693Y-83.675
X192.233Y-73.515
X192.233Y-81.135
X192.233Y-83.675
X194.773Y-73.515
X194.773Y-81.135
X194.773Y-83.675
X197.313Y-73.515
X197.313Y-81.135
X197.313Y-83.675
X199.853Y-81.135
X199.853Y-83.675
X202.393Y-81.135
X202.393Y-83.675
X204.933Y-81.135
X204.933Y-83.675
X207.473Y-81.135
X207.473Y-83.675
X210.013Y-81.135
X210.013Y-83.675
X212.553Y-83.675
X222.713Y-73.515
X222.713Y-76.055
X222.713Y-78.595
X222.713Y-81.135
X222.713Y-83.675
T2
X67.46Y-75.0
X67.46Y-77.54
X67.46Y-80.08
X67.46Y-82.62
X70.0Y-75.0
X70.0Y-77.54
X70.0Y-80.08
X70.0Y-82.62
X117.46Y-75.0
X117.46Y-77.54
X117.46Y-80.08
X117.46Y-82.62
X120.0Y-75.0
X120.0Y-77.54
X120.0Y-80.08
X120.0Y-82.62
X167.46Y-75.0
X167.46Y-77.54
X167.46Y-80.08
X167.46Y-82.62
X170.0Y-75.0
X170.0Y-77.54
X170.0Y-80.08
X170.0Y-82.62
X177.46Y-74.0
X180.0Y-74.0
X182.54Y-74.0
X205.46Y-74.0
X208.0Y-74.0
X210.54Y-74.0
X217.46Y-75.0
X217.46Y-77.54
X217.46Y-80.08
X217.46Y-82.62
X220.0Y-75.0
X220.0Y-77.54
X220.0Y-80.08
X220.0Y-82.62
M30
