%TF.GenerationSoftware,KiCad,Pcbnew,8.0.9*%
%TF.CreationDate,2025-09-03T00:10:18+02:00*%
%TF.ProjectId,Phase_shifter_test_board,50686173-655f-4736-9869-667465725f74,rev?*%
%TF.SameCoordinates,Original*%
%TF.FileFunction,Soldermask,Top*%
%TF.FilePolarity,Negative*%
%FSLAX46Y46*%
G04 Gerber Fmt 4.6, Leading zero omitted, Abs format (unit mm)*
G04 Created by KiCad (PCBNEW 8.0.9) date 2025-09-03 00:10:18*
%MOMM*%
%LPD*%
G01*
G04 APERTURE LIST*
G04 Aperture macros list*
%AMRoundRect*
0 Rectangle with rounded corners*
0 $1 Rounding radius*
0 $2 $3 $4 $5 $6 $7 $8 $9 X,Y pos of 4 corners*
0 Add a 4 corners polygon primitive as box body*
4,1,4,$2,$3,$4,$5,$6,$7,$8,$9,$2,$3,0*
0 Add four circle primitives for the rounded corners*
1,1,$1+$1,$2,$3*
1,1,$1+$1,$4,$5*
1,1,$1+$1,$6,$7*
1,1,$1+$1,$8,$9*
0 Add four rect primitives between the rounded corners*
20,1,$1+$1,$2,$3,$4,$5,0*
20,1,$1+$1,$4,$5,$6,$7,0*
20,1,$1+$1,$6,$7,$8,$9,0*
20,1,$1+$1,$8,$9,$2,$3,0*%
G04 Aperture macros list end*
%ADD10RoundRect,0.237500X-0.237500X0.300000X-0.237500X-0.300000X0.237500X-0.300000X0.237500X0.300000X0*%
%ADD11R,1.000000X0.400000*%
%ADD12C,2.500000*%
%ADD13O,0.800000X0.230000*%
%ADD14O,0.230000X0.800000*%
%ADD15R,2.500000X2.500000*%
%ADD16R,1.000000X2.510000*%
%ADD17RoundRect,0.237500X-0.237500X0.250000X-0.237500X-0.250000X0.237500X-0.250000X0.237500X0.250000X0*%
G04 APERTURE END LIST*
D10*
%TO.C,C2*%
X155800000Y-88137500D03*
X155800000Y-89862500D03*
%TD*%
D11*
%TO.C,J2*%
X164950000Y-95150000D03*
D12*
X162750000Y-90385000D03*
X162750000Y-99915000D03*
%TD*%
D10*
%TO.C,C1*%
X146000000Y-88337500D03*
X146000000Y-90062500D03*
%TD*%
D11*
%TO.C,J1*%
X135650000Y-95150000D03*
D12*
X137850000Y-99915000D03*
X137850000Y-90385000D03*
%TD*%
D13*
%TO.C,U1*%
X148300000Y-93150000D03*
X148300000Y-93650000D03*
X148300000Y-94150000D03*
X148300000Y-94650000D03*
X148300000Y-95150000D03*
X148300000Y-95650000D03*
D14*
X149050000Y-96400000D03*
X149550000Y-96400000D03*
X150050000Y-96400000D03*
D15*
X150300000Y-94400000D03*
D14*
X150550000Y-96400000D03*
X151050000Y-96400000D03*
X151550000Y-96400000D03*
D13*
X152300000Y-95650000D03*
X152300000Y-95150000D03*
X152300000Y-94650000D03*
X152300000Y-94150000D03*
X152300000Y-93650000D03*
X152300000Y-93150000D03*
D14*
X151550000Y-92400000D03*
X151050000Y-92400000D03*
X150550000Y-92400000D03*
X150050000Y-92400000D03*
X149550000Y-92400000D03*
X149050000Y-92400000D03*
%TD*%
D16*
%TO.C,J3*%
X138570000Y-84455000D03*
X141110000Y-81145000D03*
X143650000Y-84455000D03*
X146190000Y-81145000D03*
X148730000Y-84455000D03*
X151270000Y-81145000D03*
X153810000Y-84455000D03*
X156350000Y-81145000D03*
X158890000Y-84455000D03*
X161430000Y-81145000D03*
%TD*%
D17*
%TO.C,R1*%
X142800000Y-88287500D03*
X142800000Y-90112500D03*
%TD*%
G36*
X164943039Y-88919685D02*
G01*
X164988794Y-88972489D01*
X165000000Y-89024000D01*
X165000000Y-92026000D01*
X164980315Y-92093039D01*
X164927511Y-92138794D01*
X164876000Y-92150000D01*
X160512211Y-92150000D01*
X160488021Y-92147618D01*
X160477966Y-92145618D01*
X160416054Y-92113233D01*
X160381480Y-92052517D01*
X160385219Y-91982748D01*
X160426085Y-91926076D01*
X160491103Y-91900494D01*
X160499899Y-91900100D01*
X160500000Y-91900000D01*
X160500000Y-89024000D01*
X160519685Y-88956961D01*
X160572489Y-88911206D01*
X160624000Y-88900000D01*
X164876000Y-88900000D01*
X164943039Y-88919685D01*
G37*
G36*
X140111979Y-98152382D02*
G01*
X140122034Y-98154382D01*
X140183946Y-98186767D01*
X140218520Y-98247483D01*
X140214781Y-98317252D01*
X140173915Y-98373924D01*
X140108897Y-98399506D01*
X140100100Y-98399899D01*
X140100000Y-98400000D01*
X140100000Y-101276000D01*
X140080315Y-101343039D01*
X140027511Y-101388794D01*
X139976000Y-101400000D01*
X135724000Y-101400000D01*
X135656961Y-101380315D01*
X135611206Y-101327511D01*
X135600000Y-101276000D01*
X135600000Y-98274000D01*
X135619685Y-98206961D01*
X135672489Y-98161206D01*
X135724000Y-98150000D01*
X140087789Y-98150000D01*
X140111979Y-98152382D01*
G37*
G36*
X140043039Y-88919685D02*
G01*
X140088794Y-88972489D01*
X140100000Y-89024000D01*
X140100000Y-91900000D01*
X140100896Y-91900896D01*
X140164883Y-91919685D01*
X140210638Y-91972489D01*
X140220582Y-92041647D01*
X140191557Y-92105203D01*
X140132779Y-92142977D01*
X140122034Y-92145618D01*
X140111979Y-92147618D01*
X140087789Y-92150000D01*
X135724000Y-92150000D01*
X135656961Y-92130315D01*
X135611206Y-92077511D01*
X135600000Y-92026000D01*
X135600000Y-89024000D01*
X135619685Y-88956961D01*
X135672489Y-88911206D01*
X135724000Y-88900000D01*
X139976000Y-88900000D01*
X140043039Y-88919685D01*
G37*
G36*
X140043039Y-91669685D02*
G01*
X140088794Y-91722489D01*
X140100000Y-91774000D01*
X140100000Y-91900000D01*
X145448638Y-91900000D01*
X145515677Y-91919685D01*
X145536319Y-91936319D01*
X147600000Y-94000000D01*
X148176000Y-94000000D01*
X148243039Y-94019685D01*
X148288794Y-94072489D01*
X148300000Y-94124000D01*
X148300000Y-96378928D01*
X148293038Y-96419891D01*
X147629063Y-98316963D01*
X147588337Y-98373736D01*
X147523383Y-98399479D01*
X147512025Y-98400000D01*
X140100000Y-98400000D01*
X140100000Y-98526000D01*
X140080315Y-98593039D01*
X140027511Y-98638794D01*
X139976000Y-98650000D01*
X135724000Y-98650000D01*
X135656961Y-98630315D01*
X135611206Y-98577511D01*
X135600000Y-98526000D01*
X135600000Y-91774000D01*
X135619685Y-91706961D01*
X135672489Y-91661206D01*
X135724000Y-91650000D01*
X139976000Y-91650000D01*
X140043039Y-91669685D01*
G37*
G36*
X164943039Y-91669685D02*
G01*
X164988794Y-91722489D01*
X165000000Y-91774000D01*
X165000000Y-98526000D01*
X164980315Y-98593039D01*
X164927511Y-98638794D01*
X164876000Y-98650000D01*
X160624000Y-98650000D01*
X160556961Y-98630315D01*
X160511206Y-98577511D01*
X160500000Y-98526000D01*
X160500000Y-98400000D01*
X153286464Y-98400000D01*
X153219425Y-98380315D01*
X153173670Y-98327511D01*
X153170109Y-98318867D01*
X152507645Y-96520750D01*
X152500000Y-96477883D01*
X152500000Y-94124000D01*
X152519685Y-94056961D01*
X152572489Y-94011206D01*
X152624000Y-94000000D01*
X152999999Y-94000000D01*
X153000000Y-93999999D01*
X155264484Y-91932428D01*
X155327264Y-91901762D01*
X155348093Y-91900000D01*
X160500000Y-91900000D01*
X160500000Y-91774000D01*
X160519685Y-91706961D01*
X160572489Y-91661206D01*
X160624000Y-91650000D01*
X164876000Y-91650000D01*
X164943039Y-91669685D01*
G37*
G36*
X164943039Y-98169685D02*
G01*
X164988794Y-98222489D01*
X165000000Y-98274000D01*
X165000000Y-101276000D01*
X164980315Y-101343039D01*
X164927511Y-101388794D01*
X164876000Y-101400000D01*
X160624000Y-101400000D01*
X160556961Y-101380315D01*
X160511206Y-101327511D01*
X160500000Y-101276000D01*
X160500000Y-98400000D01*
X160499103Y-98399103D01*
X160435117Y-98380315D01*
X160389362Y-98327511D01*
X160379418Y-98258353D01*
X160408443Y-98194797D01*
X160467221Y-98157023D01*
X160477966Y-98154382D01*
X160488021Y-98152382D01*
X160512211Y-98150000D01*
X164876000Y-98150000D01*
X164943039Y-98169685D01*
G37*
M02*
