%TF.GenerationSoftware,KiCad,Pcbnew,8.0.5*%
%TF.CreationDate,2025-09-25T11:42:31+02:00*%
%TF.ProjectId,Phase_shifter_test_board,50686173-655f-4736-9869-667465725f74,rev?*%
%TF.SameCoordinates,Original*%
%TF.FileFunction,Copper,L2,Bot*%
%TF.FilePolarity,Positive*%
%FSLAX46Y46*%
G04 Gerber Fmt 4.6, Leading zero omitted, Abs format (unit mm)*
G04 Created by KiCad (PCBNEW 8.0.5) date 2025-09-25 11:42:31*
%MOMM*%
%LPD*%
G01*
G04 APERTURE LIST*
%TA.AperFunction,ComponentPad*%
%ADD10C,2.500000*%
%TD*%
%TA.AperFunction,ComponentPad*%
%ADD11R,1.600000X1.600000*%
%TD*%
%TA.AperFunction,ComponentPad*%
%ADD12O,1.600000X1.600000*%
%TD*%
%TA.AperFunction,ComponentPad*%
%ADD13R,1.700000X1.700000*%
%TD*%
%TA.AperFunction,ComponentPad*%
%ADD14O,1.700000X1.700000*%
%TD*%
%TA.AperFunction,ViaPad*%
%ADD15C,0.500000*%
%TD*%
%TA.AperFunction,ViaPad*%
%ADD16C,0.200000*%
%TD*%
%TA.AperFunction,Conductor*%
%ADD17C,0.300000*%
%TD*%
%TA.AperFunction,Conductor*%
%ADD18C,0.200000*%
%TD*%
G04 APERTURE END LIST*
D10*
%TO.P,J1,2,Shield*%
%TO.N,GND*%
X103100000Y-105765000D03*
X103100000Y-96235000D03*
%TD*%
D11*
%TO.P,SW1,1*%
%TO.N,/LE {slash} D3*%
X107960000Y-79620000D03*
D12*
%TO.P,SW1,2*%
%TO.N,/D4*%
X110500000Y-79620000D03*
%TO.P,SW1,3*%
%TO.N,/D5*%
X113040000Y-79620000D03*
%TO.P,SW1,4*%
%TO.N,/D6*%
X115580000Y-79620000D03*
%TO.P,SW1,5*%
%TO.N,VCC*%
X115580000Y-72000000D03*
%TO.P,SW1,6*%
X113040000Y-72000000D03*
%TO.P,SW1,7*%
X110500000Y-72000000D03*
%TO.P,SW1,8*%
X107960000Y-72000000D03*
%TD*%
D13*
%TO.P,J5,1,Pin_1*%
%TO.N,GND*%
X106585000Y-85940000D03*
D14*
%TO.P,J5,2,Pin_2*%
%TO.N,VCC*%
X106585000Y-83400000D03*
%TO.P,J5,3,Pin_3*%
%TO.N,VEE*%
X109125000Y-85940000D03*
%TO.P,J5,4,Pin_4*%
%TO.N,/SER IN {slash} D1*%
X109125000Y-83400000D03*
%TO.P,J5,5,Pin_5*%
%TO.N,/CLK {slash} D2*%
X111665000Y-85940000D03*
%TO.P,J5,6,Pin_6*%
%TO.N,/LE {slash} D3*%
X111665000Y-83400000D03*
%TO.P,J5,7,Pin_7*%
%TO.N,/D4*%
X114205000Y-85940000D03*
%TO.P,J5,8,Pin_8*%
%TO.N,/D5*%
X114205000Y-83400000D03*
%TO.P,J5,9,Pin_9*%
%TO.N,/D6*%
X116745000Y-85940000D03*
%TO.P,J5,10,Pin_10*%
%TO.N,/SER OUT*%
X116745000Y-83400000D03*
%TD*%
D10*
%TO.P,J4,2,Shield*%
%TO.N,GND*%
X117000000Y-110000000D03*
X117000000Y-119530000D03*
%TD*%
%TO.P,J2,2,Shield*%
%TO.N,GND*%
X117000000Y-96235000D03*
X117000000Y-105765000D03*
%TD*%
D13*
%TO.P,J6,1,Pin_1*%
%TO.N,/P{slash}S*%
X102725000Y-86000000D03*
D14*
%TO.P,J6,2,Pin_2*%
%TO.N,VCC*%
X102725000Y-83460000D03*
%TD*%
D10*
%TO.P,J3,2,Shield*%
%TO.N,GND*%
X103100000Y-119530000D03*
X103100000Y-110000000D03*
%TD*%
D15*
%TO.N,VEE*%
X106750000Y-88250000D03*
%TO.N,GND*%
X104751750Y-86976750D03*
X112251750Y-119976750D03*
X101751750Y-79476750D03*
X107751750Y-125976750D03*
X110751750Y-121476750D03*
X101751750Y-89976750D03*
X107751750Y-65976750D03*
X110751750Y-74976750D03*
X118251750Y-121476750D03*
X110050000Y-99375000D03*
X109251750Y-107976750D03*
X110751750Y-125976750D03*
X112251750Y-109476750D03*
X112251750Y-67476750D03*
X101751750Y-70476750D03*
X109251750Y-68976750D03*
X113751750Y-106476750D03*
D16*
X111300000Y-102675000D03*
D15*
X109251750Y-110976750D03*
X107751750Y-67476750D03*
X101751750Y-107976750D03*
X116751750Y-73476750D03*
X109251750Y-77976750D03*
X110751750Y-64476750D03*
D16*
X112500000Y-100000000D03*
D15*
X112251750Y-65976750D03*
X104751750Y-85476750D03*
X103251750Y-79476750D03*
X113751750Y-109476750D03*
X109251750Y-119976750D03*
X101751750Y-74976750D03*
X104751750Y-121476750D03*
X109251750Y-73476750D03*
X107751750Y-127476750D03*
X103251750Y-91476750D03*
X115251750Y-77976750D03*
X107751750Y-119976750D03*
X101751750Y-80976750D03*
X110925000Y-99375000D03*
X118251750Y-70476750D03*
D16*
X110800000Y-102675000D03*
D15*
X107751750Y-106476750D03*
X107751750Y-109476750D03*
X110751750Y-68976750D03*
X101751750Y-76476750D03*
X110751750Y-119976750D03*
X109251750Y-118476750D03*
X110925000Y-101100000D03*
X116751750Y-70476750D03*
D16*
X110300000Y-102675000D03*
D15*
X106251750Y-109476750D03*
X118251750Y-71976750D03*
X109175000Y-100250000D03*
X109251750Y-104976750D03*
D16*
X107600000Y-101500000D03*
X107600000Y-100000000D03*
D15*
X112251750Y-125976750D03*
X115251750Y-107976750D03*
X106251750Y-104976750D03*
X112251750Y-122976750D03*
X113751750Y-110976750D03*
X112251750Y-77976750D03*
D16*
X107600000Y-100500000D03*
D15*
X106251750Y-119976750D03*
X113751750Y-121476750D03*
X113751750Y-74976750D03*
X103251750Y-74976750D03*
X110751750Y-127476750D03*
X112251750Y-118476750D03*
X116751750Y-76476750D03*
X116751750Y-77976750D03*
X106251750Y-76476750D03*
X112251750Y-68976750D03*
X113751750Y-104976750D03*
D16*
X109300000Y-102675000D03*
D15*
X109251750Y-125976750D03*
X106251750Y-118476750D03*
X107751750Y-64476750D03*
X110050000Y-100250000D03*
D16*
X108800000Y-102675000D03*
D15*
X103251750Y-76476750D03*
X110751750Y-118476750D03*
X110751750Y-107976750D03*
X109251750Y-74976750D03*
X112251750Y-104976750D03*
X110751750Y-122976750D03*
X113751750Y-118476750D03*
X104751750Y-94476750D03*
X104751750Y-107976750D03*
X113751750Y-119976750D03*
X112251750Y-121476750D03*
X116500000Y-88250000D03*
X110751750Y-109476750D03*
X106251750Y-77976750D03*
X104750000Y-88250000D03*
X107751750Y-68976750D03*
X106251750Y-70476750D03*
X109251750Y-127476750D03*
X109251750Y-76476750D03*
X110751750Y-124476750D03*
X109251750Y-122976750D03*
X110751750Y-104976750D03*
X112251750Y-74976750D03*
X107500000Y-94250000D03*
X114000000Y-88250000D03*
D16*
X112500000Y-100500000D03*
D15*
X110751750Y-110976750D03*
X103251750Y-71976750D03*
X101751750Y-121476750D03*
X109251750Y-121476750D03*
X107751750Y-110976750D03*
X112251750Y-127476750D03*
X109251750Y-106476750D03*
X109251750Y-70476750D03*
X106251750Y-74976750D03*
X112251750Y-64476750D03*
X118251750Y-77976750D03*
X107751750Y-124476750D03*
X116751750Y-107976750D03*
X103251750Y-77976750D03*
X107751750Y-118476750D03*
X107751750Y-77976750D03*
X110751750Y-106476750D03*
X112251750Y-107976750D03*
X101751750Y-77976750D03*
D16*
X109800000Y-102675000D03*
D15*
X101751750Y-73476750D03*
X109251750Y-109476750D03*
X111500000Y-88250000D03*
X109251750Y-67476750D03*
X109175000Y-99375000D03*
X103251750Y-107976750D03*
X107751750Y-74976750D03*
X110751750Y-65976750D03*
X109175000Y-101100000D03*
X118251750Y-107976750D03*
X110751750Y-76476750D03*
X106251750Y-106476750D03*
X104751750Y-70476750D03*
X106251750Y-110976750D03*
X101751750Y-92976750D03*
X115251750Y-76476750D03*
X106251750Y-121476750D03*
X101751750Y-91476750D03*
X103251750Y-73476750D03*
X112251750Y-76476750D03*
X107751750Y-107976750D03*
D16*
X112500000Y-101500000D03*
D15*
X110751750Y-77976750D03*
X112251750Y-106476750D03*
X109000000Y-88250000D03*
X106251750Y-107976750D03*
X109251750Y-124476750D03*
X112750000Y-94250000D03*
X107751750Y-121476750D03*
X110751750Y-67476750D03*
X118251750Y-79476750D03*
X103251750Y-70476750D03*
X113751750Y-76476750D03*
X113751750Y-107976750D03*
X113751750Y-77976750D03*
X101751750Y-71976750D03*
X118251750Y-73476750D03*
X109251750Y-64476750D03*
X101751750Y-88476750D03*
X109251750Y-65976750D03*
X103251750Y-80976750D03*
X110050000Y-101100000D03*
X110925000Y-100250000D03*
X118251750Y-76476750D03*
X112251750Y-124476750D03*
X107751750Y-76476750D03*
X104751750Y-92976750D03*
X118251750Y-74976750D03*
X115251750Y-74976750D03*
X103251750Y-92976750D03*
X106251750Y-80976750D03*
X107751750Y-122976750D03*
X112251750Y-110976750D03*
X107751750Y-104976750D03*
X116751750Y-74976750D03*
X115251750Y-121476750D03*
X106251750Y-79476750D03*
%TO.N,VCC*%
X116750000Y-92250000D03*
%TO.N,/LE {slash} D3*%
X109750000Y-93500000D03*
X108986091Y-92486091D03*
%TD*%
D17*
%TO.N,VEE*%
X109125000Y-86625000D02*
X109125000Y-85940000D01*
X109125000Y-85940000D02*
X106815000Y-88250000D01*
X106815000Y-88250000D02*
X106750000Y-88250000D01*
%TO.N,VCC*%
X106585000Y-83400000D02*
X108485000Y-81500000D01*
X118750000Y-90250000D02*
X116750000Y-92250000D01*
X117500000Y-81500000D02*
X118750000Y-82750000D01*
X108485000Y-81500000D02*
X117500000Y-81500000D01*
X118750000Y-82750000D02*
X118750000Y-90250000D01*
D18*
%TO.N,/LE {slash} D3*%
X109750000Y-93500000D02*
X109750000Y-93250000D01*
X109750000Y-93250000D02*
X108986091Y-92486091D01*
%TD*%
%TA.AperFunction,Conductor*%
%TO.N,GND*%
G36*
X119592539Y-63370185D02*
G01*
X119638294Y-63422989D01*
X119649500Y-63474500D01*
X119649500Y-128275500D01*
X119629815Y-128342539D01*
X119577011Y-128388294D01*
X119525500Y-128399500D01*
X100474500Y-128399500D01*
X100407461Y-128379815D01*
X100361706Y-128327011D01*
X100350500Y-128275500D01*
X100350500Y-125374994D01*
X101000000Y-125374994D01*
X101000000Y-125375005D01*
X101019711Y-125688322D01*
X101019712Y-125688326D01*
X101019712Y-125688330D01*
X101019713Y-125688333D01*
X101078542Y-125996725D01*
X101175559Y-126295311D01*
X101309233Y-126579384D01*
X101309234Y-126579385D01*
X101477460Y-126844466D01*
X101677576Y-127086366D01*
X101906438Y-127301281D01*
X101906448Y-127301290D01*
X102160421Y-127485812D01*
X102160439Y-127485824D01*
X102363001Y-127597182D01*
X102435552Y-127637068D01*
X102727458Y-127752641D01*
X103031547Y-127830718D01*
X103031549Y-127830718D01*
X103031552Y-127830719D01*
X103343012Y-127870066D01*
X103343021Y-127870066D01*
X103343024Y-127870067D01*
X103343026Y-127870067D01*
X103656974Y-127870067D01*
X103656976Y-127870067D01*
X103656979Y-127870066D01*
X103656987Y-127870066D01*
X103968447Y-127830719D01*
X103968448Y-127830718D01*
X103968453Y-127830718D01*
X104272542Y-127752641D01*
X104564448Y-127637068D01*
X104839567Y-127485820D01*
X104843919Y-127482657D01*
X105093551Y-127301290D01*
X105093553Y-127301287D01*
X105093560Y-127301283D01*
X105322422Y-127086368D01*
X105522542Y-126844463D01*
X105690767Y-126579384D01*
X105824441Y-126295311D01*
X105921458Y-125996725D01*
X105980287Y-125688333D01*
X106000000Y-125375000D01*
X106000000Y-125374994D01*
X114000000Y-125374994D01*
X114000000Y-125375005D01*
X114019711Y-125688322D01*
X114019712Y-125688326D01*
X114019712Y-125688330D01*
X114019713Y-125688333D01*
X114078542Y-125996725D01*
X114175559Y-126295311D01*
X114309233Y-126579384D01*
X114309234Y-126579385D01*
X114477460Y-126844466D01*
X114677576Y-127086366D01*
X114906438Y-127301281D01*
X114906448Y-127301290D01*
X115160421Y-127485812D01*
X115160439Y-127485824D01*
X115363001Y-127597182D01*
X115435552Y-127637068D01*
X115727458Y-127752641D01*
X116031547Y-127830718D01*
X116031549Y-127830718D01*
X116031552Y-127830719D01*
X116343012Y-127870066D01*
X116343021Y-127870066D01*
X116343024Y-127870067D01*
X116343026Y-127870067D01*
X116656974Y-127870067D01*
X116656976Y-127870067D01*
X116656979Y-127870066D01*
X116656987Y-127870066D01*
X116968447Y-127830719D01*
X116968448Y-127830718D01*
X116968453Y-127830718D01*
X117272542Y-127752641D01*
X117564448Y-127637068D01*
X117839567Y-127485820D01*
X117843919Y-127482657D01*
X118093551Y-127301290D01*
X118093553Y-127301287D01*
X118093560Y-127301283D01*
X118322422Y-127086368D01*
X118522542Y-126844463D01*
X118690767Y-126579384D01*
X118824441Y-126295311D01*
X118921458Y-125996725D01*
X118980287Y-125688333D01*
X119000000Y-125375000D01*
X118980287Y-125061667D01*
X118921458Y-124753275D01*
X118824441Y-124454689D01*
X118690767Y-124170616D01*
X118522542Y-123905537D01*
X118322422Y-123663632D01*
X118093560Y-123448717D01*
X118093559Y-123448716D01*
X118093551Y-123448709D01*
X117839578Y-123264187D01*
X117839560Y-123264175D01*
X117564452Y-123112934D01*
X117564439Y-123112928D01*
X117272546Y-122997360D01*
X116968447Y-122919280D01*
X116656987Y-122879933D01*
X116656976Y-122879933D01*
X116343024Y-122879933D01*
X116343012Y-122879933D01*
X116031552Y-122919280D01*
X115727453Y-122997360D01*
X115435560Y-123112928D01*
X115435547Y-123112934D01*
X115160439Y-123264175D01*
X115160421Y-123264187D01*
X114906448Y-123448709D01*
X114906438Y-123448718D01*
X114677576Y-123663633D01*
X114477460Y-123905533D01*
X114309234Y-124170614D01*
X114309233Y-124170616D01*
X114175559Y-124454689D01*
X114078542Y-124753275D01*
X114019713Y-125061667D01*
X114019712Y-125061673D01*
X114019711Y-125061677D01*
X114000000Y-125374994D01*
X106000000Y-125374994D01*
X105980287Y-125061667D01*
X105921458Y-124753275D01*
X105824441Y-124454689D01*
X105690767Y-124170616D01*
X105522542Y-123905537D01*
X105322422Y-123663632D01*
X105093560Y-123448717D01*
X105093559Y-123448716D01*
X105093551Y-123448709D01*
X104839578Y-123264187D01*
X104839560Y-123264175D01*
X104564452Y-123112934D01*
X104564439Y-123112928D01*
X104272546Y-122997360D01*
X103968447Y-122919280D01*
X103656987Y-122879933D01*
X103656976Y-122879933D01*
X103343024Y-122879933D01*
X103343012Y-122879933D01*
X103031552Y-122919280D01*
X102727453Y-122997360D01*
X102435560Y-123112928D01*
X102435547Y-123112934D01*
X102160439Y-123264175D01*
X102160421Y-123264187D01*
X101906448Y-123448709D01*
X101906438Y-123448718D01*
X101677576Y-123663633D01*
X101477460Y-123905533D01*
X101309234Y-124170614D01*
X101309233Y-124170616D01*
X101175559Y-124454689D01*
X101078542Y-124753275D01*
X101019713Y-125061667D01*
X101019712Y-125061673D01*
X101019711Y-125061677D01*
X101000000Y-125374994D01*
X100350500Y-125374994D01*
X100350500Y-119943346D01*
X100370185Y-119876307D01*
X100386819Y-119855665D01*
X100406394Y-119836090D01*
X100425500Y-119789964D01*
X100425500Y-109740036D01*
X100406394Y-109693910D01*
X100386817Y-109674333D01*
X100353333Y-109613009D01*
X100350500Y-109586653D01*
X100350500Y-106178346D01*
X100370185Y-106111307D01*
X100386819Y-106090665D01*
X100406394Y-106071090D01*
X100425500Y-106024964D01*
X100425500Y-95975036D01*
X100406394Y-95928910D01*
X100386817Y-95909333D01*
X100353333Y-95848009D01*
X100350500Y-95821653D01*
X100350500Y-92486091D01*
X108530958Y-92486091D01*
X108549393Y-92614316D01*
X108572086Y-92664005D01*
X108603209Y-92732154D01*
X108688042Y-92830058D01*
X108797022Y-92900095D01*
X108921316Y-92936590D01*
X108921318Y-92936591D01*
X108921319Y-92936591D01*
X108960258Y-92936591D01*
X109027297Y-92956276D01*
X109047939Y-92972910D01*
X109294277Y-93219248D01*
X109327762Y-93280571D01*
X109322778Y-93350263D01*
X109319393Y-93358434D01*
X109313305Y-93371766D01*
X109313302Y-93371774D01*
X109294867Y-93500000D01*
X109313302Y-93628225D01*
X109367117Y-93746061D01*
X109367118Y-93746063D01*
X109451951Y-93843967D01*
X109560931Y-93914004D01*
X109685225Y-93950499D01*
X109685227Y-93950500D01*
X109685228Y-93950500D01*
X109814773Y-93950500D01*
X109814773Y-93950499D01*
X109939069Y-93914004D01*
X110048049Y-93843967D01*
X110132882Y-93746063D01*
X110186697Y-93628226D01*
X110205133Y-93500000D01*
X110186697Y-93371774D01*
X110132882Y-93253937D01*
X110048049Y-93156033D01*
X110042241Y-93149330D01*
X110043251Y-93148454D01*
X110026990Y-93128762D01*
X109990460Y-93065489D01*
X109934511Y-93009540D01*
X109475472Y-92550501D01*
X109441987Y-92489178D01*
X109440415Y-92480466D01*
X109422788Y-92357865D01*
X109395155Y-92297358D01*
X109368973Y-92240028D01*
X109284140Y-92142124D01*
X109175160Y-92072087D01*
X109175156Y-92072085D01*
X109175155Y-92072085D01*
X109050865Y-92035591D01*
X109050863Y-92035591D01*
X108921319Y-92035591D01*
X108921317Y-92035591D01*
X108797026Y-92072085D01*
X108797023Y-92072086D01*
X108797022Y-92072087D01*
X108745768Y-92105025D01*
X108688041Y-92142124D01*
X108603209Y-92240028D01*
X108603208Y-92240029D01*
X108549393Y-92357865D01*
X108530958Y-92486091D01*
X100350500Y-92486091D01*
X100350500Y-88250000D01*
X106294867Y-88250000D01*
X106313302Y-88378225D01*
X106367116Y-88496059D01*
X106367118Y-88496063D01*
X106451951Y-88593967D01*
X106560931Y-88664004D01*
X106685225Y-88700499D01*
X106685227Y-88700500D01*
X106685228Y-88700500D01*
X106814773Y-88700500D01*
X106814773Y-88700499D01*
X106939069Y-88664004D01*
X107048049Y-88593967D01*
X107132882Y-88496063D01*
X107180969Y-88390767D01*
X107206079Y-88354601D01*
X108610490Y-86950189D01*
X108671811Y-86916706D01*
X108734163Y-86919210D01*
X108919066Y-86975300D01*
X108919065Y-86975300D01*
X108937529Y-86977118D01*
X109125000Y-86995583D01*
X109330934Y-86975300D01*
X109528954Y-86915232D01*
X109711450Y-86817685D01*
X109871410Y-86686410D01*
X110002685Y-86526450D01*
X110100232Y-86343954D01*
X110160300Y-86145934D01*
X110180583Y-85940000D01*
X110609417Y-85940000D01*
X110629699Y-86145932D01*
X110629700Y-86145934D01*
X110689768Y-86343954D01*
X110787315Y-86526450D01*
X110787317Y-86526452D01*
X110918589Y-86686410D01*
X111015209Y-86765702D01*
X111078550Y-86817685D01*
X111261046Y-86915232D01*
X111459066Y-86975300D01*
X111459065Y-86975300D01*
X111477529Y-86977118D01*
X111665000Y-86995583D01*
X111870934Y-86975300D01*
X112068954Y-86915232D01*
X112251450Y-86817685D01*
X112411410Y-86686410D01*
X112542685Y-86526450D01*
X112640232Y-86343954D01*
X112700300Y-86145934D01*
X112720583Y-85940000D01*
X113149417Y-85940000D01*
X113169699Y-86145932D01*
X113169700Y-86145934D01*
X113229768Y-86343954D01*
X113327315Y-86526450D01*
X113327317Y-86526452D01*
X113458589Y-86686410D01*
X113555209Y-86765702D01*
X113618550Y-86817685D01*
X113801046Y-86915232D01*
X113999066Y-86975300D01*
X113999065Y-86975300D01*
X114017529Y-86977118D01*
X114205000Y-86995583D01*
X114410934Y-86975300D01*
X114608954Y-86915232D01*
X114791450Y-86817685D01*
X114951410Y-86686410D01*
X115082685Y-86526450D01*
X115180232Y-86343954D01*
X115240300Y-86145934D01*
X115260583Y-85940000D01*
X115689417Y-85940000D01*
X115709699Y-86145932D01*
X115709700Y-86145934D01*
X115769768Y-86343954D01*
X115867315Y-86526450D01*
X115867317Y-86526452D01*
X115998589Y-86686410D01*
X116095209Y-86765702D01*
X116158550Y-86817685D01*
X116341046Y-86915232D01*
X116539066Y-86975300D01*
X116539065Y-86975300D01*
X116557529Y-86977118D01*
X116745000Y-86995583D01*
X116950934Y-86975300D01*
X117148954Y-86915232D01*
X117331450Y-86817685D01*
X117491410Y-86686410D01*
X117622685Y-86526450D01*
X117720232Y-86343954D01*
X117780300Y-86145934D01*
X117800583Y-85940000D01*
X117780300Y-85734066D01*
X117720232Y-85536046D01*
X117622685Y-85353550D01*
X117570702Y-85290209D01*
X117491410Y-85193589D01*
X117342971Y-85071770D01*
X117331450Y-85062315D01*
X117148954Y-84964768D01*
X116950934Y-84904700D01*
X116950932Y-84904699D01*
X116950934Y-84904699D01*
X116745000Y-84884417D01*
X116539067Y-84904699D01*
X116391378Y-84949500D01*
X116353033Y-84961132D01*
X116341043Y-84964769D01*
X116230898Y-85023643D01*
X116158550Y-85062315D01*
X116158548Y-85062316D01*
X116158547Y-85062317D01*
X115998589Y-85193589D01*
X115867317Y-85353547D01*
X115769769Y-85536043D01*
X115709699Y-85734067D01*
X115689417Y-85940000D01*
X115260583Y-85940000D01*
X115240300Y-85734066D01*
X115180232Y-85536046D01*
X115082685Y-85353550D01*
X115030702Y-85290209D01*
X114951410Y-85193589D01*
X114802971Y-85071770D01*
X114791450Y-85062315D01*
X114608954Y-84964768D01*
X114410934Y-84904700D01*
X114410932Y-84904699D01*
X114410934Y-84904699D01*
X114205000Y-84884417D01*
X113999067Y-84904699D01*
X113851378Y-84949500D01*
X113813033Y-84961132D01*
X113801043Y-84964769D01*
X113690898Y-85023643D01*
X113618550Y-85062315D01*
X113618548Y-85062316D01*
X113618547Y-85062317D01*
X113458589Y-85193589D01*
X113327317Y-85353547D01*
X113229769Y-85536043D01*
X113169699Y-85734067D01*
X113149417Y-85940000D01*
X112720583Y-85940000D01*
X112700300Y-85734066D01*
X112640232Y-85536046D01*
X112542685Y-85353550D01*
X112490702Y-85290209D01*
X112411410Y-85193589D01*
X112262971Y-85071770D01*
X112251450Y-85062315D01*
X112068954Y-84964768D01*
X111870934Y-84904700D01*
X111870932Y-84904699D01*
X111870934Y-84904699D01*
X111665000Y-84884417D01*
X111459067Y-84904699D01*
X111311378Y-84949500D01*
X111273033Y-84961132D01*
X111261043Y-84964769D01*
X111150898Y-85023643D01*
X111078550Y-85062315D01*
X111078548Y-85062316D01*
X111078547Y-85062317D01*
X110918589Y-85193589D01*
X110787317Y-85353547D01*
X110689769Y-85536043D01*
X110629699Y-85734067D01*
X110609417Y-85940000D01*
X110180583Y-85940000D01*
X110160300Y-85734066D01*
X110100232Y-85536046D01*
X110002685Y-85353550D01*
X109950702Y-85290209D01*
X109871410Y-85193589D01*
X109722971Y-85071770D01*
X109711450Y-85062315D01*
X109528954Y-84964768D01*
X109330934Y-84904700D01*
X109330932Y-84904699D01*
X109330934Y-84904699D01*
X109125000Y-84884417D01*
X108919067Y-84904699D01*
X108771378Y-84949500D01*
X108733033Y-84961132D01*
X108721043Y-84964769D01*
X108610898Y-85023643D01*
X108538550Y-85062315D01*
X108538548Y-85062316D01*
X108538547Y-85062317D01*
X108378589Y-85193589D01*
X108247317Y-85353547D01*
X108149769Y-85536043D01*
X108089699Y-85734067D01*
X108069417Y-85940000D01*
X108089699Y-86145932D01*
X108145788Y-86330833D01*
X108146411Y-86400700D01*
X108114808Y-86454509D01*
X106806137Y-87763181D01*
X106744814Y-87796666D01*
X106718456Y-87799500D01*
X106685226Y-87799500D01*
X106560935Y-87835994D01*
X106560932Y-87835995D01*
X106560931Y-87835996D01*
X106509677Y-87868934D01*
X106451950Y-87906033D01*
X106367118Y-88003937D01*
X106367117Y-88003938D01*
X106313302Y-88121774D01*
X106294867Y-88250000D01*
X100350500Y-88250000D01*
X100350500Y-85130247D01*
X101674500Y-85130247D01*
X101674500Y-86869752D01*
X101686131Y-86928229D01*
X101686132Y-86928230D01*
X101730447Y-86994552D01*
X101796769Y-87038867D01*
X101796770Y-87038868D01*
X101855247Y-87050499D01*
X101855250Y-87050500D01*
X101855252Y-87050500D01*
X103594750Y-87050500D01*
X103594751Y-87050499D01*
X103609568Y-87047552D01*
X103653229Y-87038868D01*
X103653229Y-87038867D01*
X103653231Y-87038867D01*
X103719552Y-86994552D01*
X103763867Y-86928231D01*
X103763867Y-86928229D01*
X103763868Y-86928229D01*
X103775499Y-86869752D01*
X103775500Y-86869750D01*
X103775500Y-85130249D01*
X103775499Y-85130247D01*
X103763868Y-85071770D01*
X103763867Y-85071769D01*
X103719552Y-85005447D01*
X103653230Y-84961132D01*
X103653229Y-84961131D01*
X103594752Y-84949500D01*
X103594748Y-84949500D01*
X101855252Y-84949500D01*
X101855247Y-84949500D01*
X101796770Y-84961131D01*
X101796769Y-84961132D01*
X101730447Y-85005447D01*
X101686132Y-85071769D01*
X101686131Y-85071770D01*
X101674500Y-85130247D01*
X100350500Y-85130247D01*
X100350500Y-83460000D01*
X101669417Y-83460000D01*
X101689699Y-83665932D01*
X101689700Y-83665934D01*
X101749768Y-83863954D01*
X101847315Y-84046450D01*
X101847317Y-84046452D01*
X101978589Y-84206410D01*
X102065436Y-84277682D01*
X102138550Y-84337685D01*
X102321046Y-84435232D01*
X102519066Y-84495300D01*
X102519065Y-84495300D01*
X102537529Y-84497118D01*
X102725000Y-84515583D01*
X102930934Y-84495300D01*
X103128954Y-84435232D01*
X103311450Y-84337685D01*
X103471410Y-84206410D01*
X103602685Y-84046450D01*
X103700232Y-83863954D01*
X103760300Y-83665934D01*
X103780583Y-83460000D01*
X103774673Y-83400000D01*
X105529417Y-83400000D01*
X105549699Y-83605932D01*
X105579734Y-83704944D01*
X105609768Y-83803954D01*
X105707315Y-83986450D01*
X105707317Y-83986452D01*
X105838589Y-84146410D01*
X105935209Y-84225702D01*
X105998550Y-84277685D01*
X106181046Y-84375232D01*
X106379066Y-84435300D01*
X106379065Y-84435300D01*
X106397529Y-84437118D01*
X106585000Y-84455583D01*
X106790934Y-84435300D01*
X106988954Y-84375232D01*
X107171450Y-84277685D01*
X107331410Y-84146410D01*
X107462685Y-83986450D01*
X107560232Y-83803954D01*
X107620300Y-83605934D01*
X107640583Y-83400000D01*
X108069417Y-83400000D01*
X108089699Y-83605932D01*
X108119734Y-83704944D01*
X108149768Y-83803954D01*
X108247315Y-83986450D01*
X108247317Y-83986452D01*
X108378589Y-84146410D01*
X108475209Y-84225702D01*
X108538550Y-84277685D01*
X108721046Y-84375232D01*
X108919066Y-84435300D01*
X108919065Y-84435300D01*
X108937529Y-84437118D01*
X109125000Y-84455583D01*
X109330934Y-84435300D01*
X109528954Y-84375232D01*
X109711450Y-84277685D01*
X109871410Y-84146410D01*
X110002685Y-83986450D01*
X110100232Y-83803954D01*
X110160300Y-83605934D01*
X110180583Y-83400000D01*
X110609417Y-83400000D01*
X110629699Y-83605932D01*
X110659734Y-83704944D01*
X110689768Y-83803954D01*
X110787315Y-83986450D01*
X110787317Y-83986452D01*
X110918589Y-84146410D01*
X111015209Y-84225702D01*
X111078550Y-84277685D01*
X111261046Y-84375232D01*
X111459066Y-84435300D01*
X111459065Y-84435300D01*
X111477529Y-84437118D01*
X111665000Y-84455583D01*
X111870934Y-84435300D01*
X112068954Y-84375232D01*
X112251450Y-84277685D01*
X112411410Y-84146410D01*
X112542685Y-83986450D01*
X112640232Y-83803954D01*
X112700300Y-83605934D01*
X112720583Y-83400000D01*
X113149417Y-83400000D01*
X113169699Y-83605932D01*
X113199734Y-83704944D01*
X113229768Y-83803954D01*
X113327315Y-83986450D01*
X113327317Y-83986452D01*
X113458589Y-84146410D01*
X113555209Y-84225702D01*
X113618550Y-84277685D01*
X113801046Y-84375232D01*
X113999066Y-84435300D01*
X113999065Y-84435300D01*
X114017529Y-84437118D01*
X114205000Y-84455583D01*
X114410934Y-84435300D01*
X114608954Y-84375232D01*
X114791450Y-84277685D01*
X114951410Y-84146410D01*
X115082685Y-83986450D01*
X115180232Y-83803954D01*
X115240300Y-83605934D01*
X115260583Y-83400000D01*
X115689417Y-83400000D01*
X115709699Y-83605932D01*
X115739734Y-83704944D01*
X115769768Y-83803954D01*
X115867315Y-83986450D01*
X115867317Y-83986452D01*
X115998589Y-84146410D01*
X116095209Y-84225702D01*
X116158550Y-84277685D01*
X116341046Y-84375232D01*
X116539066Y-84435300D01*
X116539065Y-84435300D01*
X116557529Y-84437118D01*
X116745000Y-84455583D01*
X116950934Y-84435300D01*
X117148954Y-84375232D01*
X117331450Y-84277685D01*
X117491410Y-84146410D01*
X117622685Y-83986450D01*
X117720232Y-83803954D01*
X117780300Y-83605934D01*
X117800583Y-83400000D01*
X117780300Y-83194066D01*
X117720232Y-82996046D01*
X117622685Y-82813550D01*
X117570702Y-82750209D01*
X117491410Y-82653589D01*
X117331452Y-82522317D01*
X117331453Y-82522317D01*
X117331450Y-82522315D01*
X117148954Y-82424768D01*
X116950934Y-82364700D01*
X116950932Y-82364699D01*
X116950934Y-82364699D01*
X116745000Y-82344417D01*
X116539067Y-82364699D01*
X116363692Y-82417898D01*
X116341274Y-82424699D01*
X116341043Y-82424769D01*
X116230898Y-82483643D01*
X116158550Y-82522315D01*
X116158548Y-82522316D01*
X116158547Y-82522317D01*
X115998589Y-82653589D01*
X115867317Y-82813547D01*
X115867315Y-82813550D01*
X115835246Y-82873547D01*
X115769769Y-82996043D01*
X115709699Y-83194067D01*
X115689417Y-83400000D01*
X115260583Y-83400000D01*
X115240300Y-83194066D01*
X115180232Y-82996046D01*
X115082685Y-82813550D01*
X115030702Y-82750209D01*
X114951410Y-82653589D01*
X114791452Y-82522317D01*
X114791453Y-82522317D01*
X114791450Y-82522315D01*
X114608954Y-82424768D01*
X114410934Y-82364700D01*
X114410932Y-82364699D01*
X114410934Y-82364699D01*
X114205000Y-82344417D01*
X113999067Y-82364699D01*
X113823692Y-82417898D01*
X113801274Y-82424699D01*
X113801043Y-82424769D01*
X113690898Y-82483643D01*
X113618550Y-82522315D01*
X113618548Y-82522316D01*
X113618547Y-82522317D01*
X113458589Y-82653589D01*
X113327317Y-82813547D01*
X113327315Y-82813550D01*
X113295246Y-82873547D01*
X113229769Y-82996043D01*
X113169699Y-83194067D01*
X113149417Y-83400000D01*
X112720583Y-83400000D01*
X112700300Y-83194066D01*
X112640232Y-82996046D01*
X112542685Y-82813550D01*
X112490702Y-82750209D01*
X112411410Y-82653589D01*
X112251452Y-82522317D01*
X112251453Y-82522317D01*
X112251450Y-82522315D01*
X112068954Y-82424768D01*
X111870934Y-82364700D01*
X111870932Y-82364699D01*
X111870934Y-82364699D01*
X111665000Y-82344417D01*
X111459067Y-82364699D01*
X111283692Y-82417898D01*
X111261274Y-82424699D01*
X111261043Y-82424769D01*
X111150898Y-82483643D01*
X111078550Y-82522315D01*
X111078548Y-82522316D01*
X111078547Y-82522317D01*
X110918589Y-82653589D01*
X110787317Y-82813547D01*
X110787315Y-82813550D01*
X110755246Y-82873547D01*
X110689769Y-82996043D01*
X110629699Y-83194067D01*
X110609417Y-83400000D01*
X110180583Y-83400000D01*
X110160300Y-83194066D01*
X110100232Y-82996046D01*
X110002685Y-82813550D01*
X109950702Y-82750209D01*
X109871410Y-82653589D01*
X109711452Y-82522317D01*
X109711453Y-82522317D01*
X109711450Y-82522315D01*
X109528954Y-82424768D01*
X109330934Y-82364700D01*
X109330932Y-82364699D01*
X109330934Y-82364699D01*
X109125000Y-82344417D01*
X108919067Y-82364699D01*
X108743692Y-82417898D01*
X108721274Y-82424699D01*
X108721043Y-82424769D01*
X108610898Y-82483643D01*
X108538550Y-82522315D01*
X108538548Y-82522316D01*
X108538547Y-82522317D01*
X108378589Y-82653589D01*
X108247317Y-82813547D01*
X108247315Y-82813550D01*
X108215246Y-82873547D01*
X108149769Y-82996043D01*
X108089699Y-83194067D01*
X108069417Y-83400000D01*
X107640583Y-83400000D01*
X107620300Y-83194066D01*
X107564210Y-83009163D01*
X107563588Y-82939298D01*
X107595189Y-82885491D01*
X108593863Y-81886819D01*
X108655186Y-81853334D01*
X108681544Y-81850500D01*
X117303456Y-81850500D01*
X117370495Y-81870185D01*
X117391137Y-81886819D01*
X118363181Y-82858863D01*
X118396666Y-82920186D01*
X118399500Y-82946544D01*
X118399500Y-90053456D01*
X118379815Y-90120495D01*
X118363181Y-90141137D01*
X116735341Y-91768976D01*
X116682595Y-91800272D01*
X116560934Y-91835994D01*
X116451950Y-91906033D01*
X116367118Y-92003937D01*
X116367117Y-92003938D01*
X116313302Y-92121774D01*
X116294867Y-92250000D01*
X116313302Y-92378225D01*
X116359995Y-92480466D01*
X116367118Y-92496063D01*
X116451951Y-92593967D01*
X116560931Y-92664004D01*
X116685225Y-92700499D01*
X116685227Y-92700500D01*
X116685228Y-92700500D01*
X116814773Y-92700500D01*
X116814773Y-92700499D01*
X116939069Y-92664004D01*
X117048049Y-92593967D01*
X117132882Y-92496063D01*
X117186697Y-92378226D01*
X117192449Y-92338210D01*
X117221471Y-92274655D01*
X117227492Y-92268188D01*
X119030470Y-90465212D01*
X119076614Y-90385288D01*
X119100500Y-90296144D01*
X119100500Y-82703856D01*
X119076614Y-82614712D01*
X119030470Y-82534788D01*
X117715212Y-81219530D01*
X117715211Y-81219529D01*
X117715208Y-81219527D01*
X117635290Y-81173387D01*
X117635289Y-81173386D01*
X117635288Y-81173386D01*
X117546144Y-81149500D01*
X108531144Y-81149500D01*
X108438856Y-81149500D01*
X108349712Y-81173386D01*
X108349709Y-81173387D01*
X108269791Y-81219527D01*
X108269786Y-81219531D01*
X107099508Y-82389808D01*
X107038185Y-82423293D01*
X106975833Y-82420788D01*
X106790934Y-82364700D01*
X106790932Y-82364699D01*
X106790934Y-82364699D01*
X106585000Y-82344417D01*
X106379067Y-82364699D01*
X106203692Y-82417898D01*
X106181274Y-82424699D01*
X106181043Y-82424769D01*
X106070898Y-82483643D01*
X105998550Y-82522315D01*
X105998548Y-82522316D01*
X105998547Y-82522317D01*
X105838589Y-82653589D01*
X105707317Y-82813547D01*
X105707315Y-82813550D01*
X105675246Y-82873547D01*
X105609769Y-82996043D01*
X105549699Y-83194067D01*
X105529417Y-83400000D01*
X103774673Y-83400000D01*
X103760300Y-83254066D01*
X103700232Y-83056046D01*
X103602685Y-82873550D01*
X103550702Y-82810209D01*
X103471410Y-82713589D01*
X103311452Y-82582317D01*
X103311453Y-82582317D01*
X103311450Y-82582315D01*
X103128954Y-82484768D01*
X102930934Y-82424700D01*
X102930932Y-82424699D01*
X102930934Y-82424699D01*
X102725000Y-82404417D01*
X102519067Y-82424699D01*
X102321043Y-82484769D01*
X102250801Y-82522315D01*
X102138550Y-82582315D01*
X102138548Y-82582316D01*
X102138547Y-82582317D01*
X101978589Y-82713589D01*
X101859368Y-82858863D01*
X101847315Y-82873550D01*
X101822387Y-82920186D01*
X101749769Y-83056043D01*
X101689699Y-83254067D01*
X101669417Y-83460000D01*
X100350500Y-83460000D01*
X100350500Y-78800247D01*
X106959500Y-78800247D01*
X106959500Y-80439752D01*
X106971131Y-80498229D01*
X106971132Y-80498230D01*
X107015447Y-80564552D01*
X107081769Y-80608867D01*
X107081770Y-80608868D01*
X107140247Y-80620499D01*
X107140250Y-80620500D01*
X107140252Y-80620500D01*
X108779750Y-80620500D01*
X108779751Y-80620499D01*
X108794568Y-80617552D01*
X108838229Y-80608868D01*
X108838229Y-80608867D01*
X108838231Y-80608867D01*
X108904552Y-80564552D01*
X108948867Y-80498231D01*
X108948867Y-80498229D01*
X108948868Y-80498229D01*
X108960499Y-80439752D01*
X108960500Y-80439750D01*
X108960500Y-79620000D01*
X109494659Y-79620000D01*
X109513975Y-79816129D01*
X109571188Y-80004733D01*
X109664086Y-80178532D01*
X109664090Y-80178539D01*
X109789116Y-80330883D01*
X109941460Y-80455909D01*
X109941467Y-80455913D01*
X110115266Y-80548811D01*
X110115269Y-80548811D01*
X110115273Y-80548814D01*
X110303868Y-80606024D01*
X110500000Y-80625341D01*
X110696132Y-80606024D01*
X110884727Y-80548814D01*
X111058538Y-80455910D01*
X111210883Y-80330883D01*
X111335910Y-80178538D01*
X111428814Y-80004727D01*
X111486024Y-79816132D01*
X111505341Y-79620000D01*
X112034659Y-79620000D01*
X112053975Y-79816129D01*
X112111188Y-80004733D01*
X112204086Y-80178532D01*
X112204090Y-80178539D01*
X112329116Y-80330883D01*
X112481460Y-80455909D01*
X112481467Y-80455913D01*
X112655266Y-80548811D01*
X112655269Y-80548811D01*
X112655273Y-80548814D01*
X112843868Y-80606024D01*
X113040000Y-80625341D01*
X113236132Y-80606024D01*
X113424727Y-80548814D01*
X113598538Y-80455910D01*
X113750883Y-80330883D01*
X113875910Y-80178538D01*
X113968814Y-80004727D01*
X114026024Y-79816132D01*
X114045341Y-79620000D01*
X114574659Y-79620000D01*
X114593975Y-79816129D01*
X114651188Y-80004733D01*
X114744086Y-80178532D01*
X114744090Y-80178539D01*
X114869116Y-80330883D01*
X115021460Y-80455909D01*
X115021467Y-80455913D01*
X115195266Y-80548811D01*
X115195269Y-80548811D01*
X115195273Y-80548814D01*
X115383868Y-80606024D01*
X115580000Y-80625341D01*
X115776132Y-80606024D01*
X115964727Y-80548814D01*
X116138538Y-80455910D01*
X116290883Y-80330883D01*
X116415910Y-80178538D01*
X116508814Y-80004727D01*
X116566024Y-79816132D01*
X116585341Y-79620000D01*
X116566024Y-79423868D01*
X116508814Y-79235273D01*
X116508811Y-79235269D01*
X116508811Y-79235266D01*
X116415913Y-79061467D01*
X116415909Y-79061460D01*
X116290883Y-78909116D01*
X116138539Y-78784090D01*
X116138532Y-78784086D01*
X115964733Y-78691188D01*
X115964727Y-78691186D01*
X115776132Y-78633976D01*
X115776129Y-78633975D01*
X115580000Y-78614659D01*
X115383870Y-78633975D01*
X115195266Y-78691188D01*
X115021467Y-78784086D01*
X115021460Y-78784090D01*
X114869116Y-78909116D01*
X114744090Y-79061460D01*
X114744086Y-79061467D01*
X114651188Y-79235266D01*
X114593975Y-79423870D01*
X114574659Y-79620000D01*
X114045341Y-79620000D01*
X114026024Y-79423868D01*
X113968814Y-79235273D01*
X113968811Y-79235269D01*
X113968811Y-79235266D01*
X113875913Y-79061467D01*
X113875909Y-79061460D01*
X113750883Y-78909116D01*
X113598539Y-78784090D01*
X113598532Y-78784086D01*
X113424733Y-78691188D01*
X113424727Y-78691186D01*
X113236132Y-78633976D01*
X113236129Y-78633975D01*
X113040000Y-78614659D01*
X112843870Y-78633975D01*
X112655266Y-78691188D01*
X112481467Y-78784086D01*
X112481460Y-78784090D01*
X112329116Y-78909116D01*
X112204090Y-79061460D01*
X112204086Y-79061467D01*
X112111188Y-79235266D01*
X112053975Y-79423870D01*
X112034659Y-79620000D01*
X111505341Y-79620000D01*
X111486024Y-79423868D01*
X111428814Y-79235273D01*
X111428811Y-79235269D01*
X111428811Y-79235266D01*
X111335913Y-79061467D01*
X111335909Y-79061460D01*
X111210883Y-78909116D01*
X111058539Y-78784090D01*
X111058532Y-78784086D01*
X110884733Y-78691188D01*
X110884727Y-78691186D01*
X110696132Y-78633976D01*
X110696129Y-78633975D01*
X110500000Y-78614659D01*
X110303870Y-78633975D01*
X110115266Y-78691188D01*
X109941467Y-78784086D01*
X109941460Y-78784090D01*
X109789116Y-78909116D01*
X109664090Y-79061460D01*
X109664086Y-79061467D01*
X109571188Y-79235266D01*
X109513975Y-79423870D01*
X109494659Y-79620000D01*
X108960500Y-79620000D01*
X108960500Y-78800249D01*
X108960499Y-78800247D01*
X108948868Y-78741770D01*
X108948867Y-78741769D01*
X108904552Y-78675447D01*
X108838230Y-78631132D01*
X108838229Y-78631131D01*
X108779752Y-78619500D01*
X108779748Y-78619500D01*
X107140252Y-78619500D01*
X107140247Y-78619500D01*
X107081770Y-78631131D01*
X107081769Y-78631132D01*
X107015447Y-78675447D01*
X106971132Y-78741769D01*
X106971131Y-78741770D01*
X106959500Y-78800247D01*
X100350500Y-78800247D01*
X100350500Y-72000000D01*
X106954659Y-72000000D01*
X106973975Y-72196129D01*
X107031188Y-72384733D01*
X107124086Y-72558532D01*
X107124090Y-72558539D01*
X107249116Y-72710883D01*
X107401460Y-72835909D01*
X107401467Y-72835913D01*
X107575266Y-72928811D01*
X107575269Y-72928811D01*
X107575273Y-72928814D01*
X107763868Y-72986024D01*
X107960000Y-73005341D01*
X108156132Y-72986024D01*
X108344727Y-72928814D01*
X108518538Y-72835910D01*
X108670883Y-72710883D01*
X108795910Y-72558538D01*
X108888814Y-72384727D01*
X108946024Y-72196132D01*
X108965341Y-72000000D01*
X109494659Y-72000000D01*
X109513975Y-72196129D01*
X109571188Y-72384733D01*
X109664086Y-72558532D01*
X109664090Y-72558539D01*
X109789116Y-72710883D01*
X109941460Y-72835909D01*
X109941467Y-72835913D01*
X110115266Y-72928811D01*
X110115269Y-72928811D01*
X110115273Y-72928814D01*
X110303868Y-72986024D01*
X110500000Y-73005341D01*
X110696132Y-72986024D01*
X110884727Y-72928814D01*
X111058538Y-72835910D01*
X111210883Y-72710883D01*
X111335910Y-72558538D01*
X111428814Y-72384727D01*
X111486024Y-72196132D01*
X111505341Y-72000000D01*
X112034659Y-72000000D01*
X112053975Y-72196129D01*
X112111188Y-72384733D01*
X112204086Y-72558532D01*
X112204090Y-72558539D01*
X112329116Y-72710883D01*
X112481460Y-72835909D01*
X112481467Y-72835913D01*
X112655266Y-72928811D01*
X112655269Y-72928811D01*
X112655273Y-72928814D01*
X112843868Y-72986024D01*
X113040000Y-73005341D01*
X113236132Y-72986024D01*
X113424727Y-72928814D01*
X113598538Y-72835910D01*
X113750883Y-72710883D01*
X113875910Y-72558538D01*
X113968814Y-72384727D01*
X114026024Y-72196132D01*
X114045341Y-72000000D01*
X114574659Y-72000000D01*
X114593975Y-72196129D01*
X114651188Y-72384733D01*
X114744086Y-72558532D01*
X114744090Y-72558539D01*
X114869116Y-72710883D01*
X115021460Y-72835909D01*
X115021467Y-72835913D01*
X115195266Y-72928811D01*
X115195269Y-72928811D01*
X115195273Y-72928814D01*
X115383868Y-72986024D01*
X115580000Y-73005341D01*
X115776132Y-72986024D01*
X115964727Y-72928814D01*
X116138538Y-72835910D01*
X116290883Y-72710883D01*
X116415910Y-72558538D01*
X116508814Y-72384727D01*
X116566024Y-72196132D01*
X116585341Y-72000000D01*
X116566024Y-71803868D01*
X116508814Y-71615273D01*
X116508811Y-71615269D01*
X116508811Y-71615266D01*
X116415913Y-71441467D01*
X116415909Y-71441460D01*
X116290883Y-71289116D01*
X116138539Y-71164090D01*
X116138532Y-71164086D01*
X115964733Y-71071188D01*
X115964727Y-71071186D01*
X115776132Y-71013976D01*
X115776129Y-71013975D01*
X115580000Y-70994659D01*
X115383870Y-71013975D01*
X115195266Y-71071188D01*
X115021467Y-71164086D01*
X115021460Y-71164090D01*
X114869116Y-71289116D01*
X114744090Y-71441460D01*
X114744086Y-71441467D01*
X114651188Y-71615266D01*
X114593975Y-71803870D01*
X114574659Y-72000000D01*
X114045341Y-72000000D01*
X114026024Y-71803868D01*
X113968814Y-71615273D01*
X113968811Y-71615269D01*
X113968811Y-71615266D01*
X113875913Y-71441467D01*
X113875909Y-71441460D01*
X113750883Y-71289116D01*
X113598539Y-71164090D01*
X113598532Y-71164086D01*
X113424733Y-71071188D01*
X113424727Y-71071186D01*
X113236132Y-71013976D01*
X113236129Y-71013975D01*
X113040000Y-70994659D01*
X112843870Y-71013975D01*
X112655266Y-71071188D01*
X112481467Y-71164086D01*
X112481460Y-71164090D01*
X112329116Y-71289116D01*
X112204090Y-71441460D01*
X112204086Y-71441467D01*
X112111188Y-71615266D01*
X112053975Y-71803870D01*
X112034659Y-72000000D01*
X111505341Y-72000000D01*
X111486024Y-71803868D01*
X111428814Y-71615273D01*
X111428811Y-71615269D01*
X111428811Y-71615266D01*
X111335913Y-71441467D01*
X111335909Y-71441460D01*
X111210883Y-71289116D01*
X111058539Y-71164090D01*
X111058532Y-71164086D01*
X110884733Y-71071188D01*
X110884727Y-71071186D01*
X110696132Y-71013976D01*
X110696129Y-71013975D01*
X110500000Y-70994659D01*
X110303870Y-71013975D01*
X110115266Y-71071188D01*
X109941467Y-71164086D01*
X109941460Y-71164090D01*
X109789116Y-71289116D01*
X109664090Y-71441460D01*
X109664086Y-71441467D01*
X109571188Y-71615266D01*
X109513975Y-71803870D01*
X109494659Y-72000000D01*
X108965341Y-72000000D01*
X108946024Y-71803868D01*
X108888814Y-71615273D01*
X108888811Y-71615269D01*
X108888811Y-71615266D01*
X108795913Y-71441467D01*
X108795909Y-71441460D01*
X108670883Y-71289116D01*
X108518539Y-71164090D01*
X108518532Y-71164086D01*
X108344733Y-71071188D01*
X108344727Y-71071186D01*
X108156132Y-71013976D01*
X108156129Y-71013975D01*
X107960000Y-70994659D01*
X107763870Y-71013975D01*
X107575266Y-71071188D01*
X107401467Y-71164086D01*
X107401460Y-71164090D01*
X107249116Y-71289116D01*
X107124090Y-71441460D01*
X107124086Y-71441467D01*
X107031188Y-71615266D01*
X106973975Y-71803870D01*
X106954659Y-72000000D01*
X100350500Y-72000000D01*
X100350500Y-66524994D01*
X101225000Y-66524994D01*
X101225000Y-66525005D01*
X101244711Y-66838322D01*
X101244712Y-66838326D01*
X101244712Y-66838330D01*
X101244713Y-66838333D01*
X101303542Y-67146725D01*
X101400559Y-67445311D01*
X101534233Y-67729384D01*
X101702458Y-67994463D01*
X101702460Y-67994466D01*
X101902576Y-68236366D01*
X102131438Y-68451281D01*
X102131448Y-68451290D01*
X102385421Y-68635812D01*
X102385439Y-68635824D01*
X102588001Y-68747182D01*
X102660552Y-68787068D01*
X102952458Y-68902641D01*
X103256547Y-68980718D01*
X103256549Y-68980718D01*
X103256552Y-68980719D01*
X103568012Y-69020066D01*
X103568021Y-69020066D01*
X103568024Y-69020067D01*
X103568026Y-69020067D01*
X103881974Y-69020067D01*
X103881976Y-69020067D01*
X103881979Y-69020066D01*
X103881987Y-69020066D01*
X104193447Y-68980719D01*
X104193448Y-68980718D01*
X104193453Y-68980718D01*
X104497542Y-68902641D01*
X104789448Y-68787068D01*
X105064567Y-68635820D01*
X105215332Y-68526283D01*
X105318551Y-68451290D01*
X105318553Y-68451287D01*
X105318560Y-68451283D01*
X105547422Y-68236368D01*
X105747542Y-67994463D01*
X105915767Y-67729384D01*
X106049441Y-67445311D01*
X106146458Y-67146725D01*
X106205287Y-66838333D01*
X106220281Y-66600005D01*
X106220282Y-66599994D01*
X113575000Y-66599994D01*
X113575000Y-66600005D01*
X113594711Y-66913322D01*
X113594712Y-66913326D01*
X113594712Y-66913330D01*
X113594713Y-66913333D01*
X113653542Y-67221725D01*
X113750559Y-67520311D01*
X113884233Y-67804384D01*
X114004863Y-67994466D01*
X114052460Y-68069466D01*
X114252576Y-68311366D01*
X114481438Y-68526281D01*
X114481448Y-68526290D01*
X114735421Y-68710812D01*
X114735439Y-68710824D01*
X114874133Y-68787071D01*
X115010552Y-68862068D01*
X115302458Y-68977641D01*
X115606547Y-69055718D01*
X115606549Y-69055718D01*
X115606552Y-69055719D01*
X115918012Y-69095066D01*
X115918021Y-69095066D01*
X115918024Y-69095067D01*
X115918026Y-69095067D01*
X116231974Y-69095067D01*
X116231976Y-69095067D01*
X116231979Y-69095066D01*
X116231987Y-69095066D01*
X116543447Y-69055719D01*
X116543448Y-69055718D01*
X116543453Y-69055718D01*
X116847542Y-68977641D01*
X117139448Y-68862068D01*
X117414567Y-68710820D01*
X117517790Y-68635824D01*
X117668551Y-68526290D01*
X117668553Y-68526287D01*
X117668560Y-68526283D01*
X117897422Y-68311368D01*
X118097542Y-68069463D01*
X118265767Y-67804384D01*
X118399441Y-67520311D01*
X118496458Y-67221725D01*
X118555287Y-66913333D01*
X118560006Y-66838326D01*
X118575000Y-66600005D01*
X118575000Y-66599994D01*
X118555288Y-66286677D01*
X118555287Y-66286673D01*
X118555287Y-66286667D01*
X118496458Y-65978275D01*
X118399441Y-65679689D01*
X118265767Y-65395616D01*
X118097542Y-65130537D01*
X117897422Y-64888632D01*
X117668560Y-64673717D01*
X117668559Y-64673716D01*
X117668551Y-64673709D01*
X117414578Y-64489187D01*
X117414560Y-64489175D01*
X117139452Y-64337934D01*
X117139439Y-64337928D01*
X116847546Y-64222360D01*
X116543447Y-64144280D01*
X116231987Y-64104933D01*
X116231976Y-64104933D01*
X115918024Y-64104933D01*
X115918012Y-64104933D01*
X115606552Y-64144280D01*
X115302453Y-64222360D01*
X115010560Y-64337928D01*
X115010547Y-64337934D01*
X114735439Y-64489175D01*
X114735421Y-64489187D01*
X114481448Y-64673709D01*
X114481438Y-64673718D01*
X114252576Y-64888633D01*
X114052460Y-65130533D01*
X113884234Y-65395614D01*
X113884233Y-65395616D01*
X113750559Y-65679689D01*
X113653542Y-65978275D01*
X113609020Y-66211667D01*
X113594712Y-66286673D01*
X113594711Y-66286677D01*
X113575000Y-66599994D01*
X106220282Y-66599994D01*
X106225000Y-66525005D01*
X106225000Y-66524994D01*
X106205288Y-66211677D01*
X106205287Y-66211673D01*
X106205287Y-66211667D01*
X106146458Y-65903275D01*
X106049441Y-65604689D01*
X105915767Y-65320616D01*
X105747542Y-65055537D01*
X105547422Y-64813632D01*
X105318560Y-64598717D01*
X105318559Y-64598716D01*
X105318551Y-64598709D01*
X105064578Y-64414187D01*
X105064560Y-64414175D01*
X104789452Y-64262934D01*
X104789439Y-64262928D01*
X104497546Y-64147360D01*
X104193447Y-64069280D01*
X103881987Y-64029933D01*
X103881976Y-64029933D01*
X103568024Y-64029933D01*
X103568012Y-64029933D01*
X103256552Y-64069280D01*
X102952453Y-64147360D01*
X102660560Y-64262928D01*
X102660547Y-64262934D01*
X102385439Y-64414175D01*
X102385421Y-64414187D01*
X102131448Y-64598709D01*
X102131438Y-64598718D01*
X101902576Y-64813633D01*
X101702460Y-65055533D01*
X101654861Y-65130537D01*
X101534233Y-65320616D01*
X101400559Y-65604689D01*
X101303542Y-65903275D01*
X101244713Y-66211667D01*
X101244712Y-66211673D01*
X101244711Y-66211677D01*
X101225000Y-66524994D01*
X100350500Y-66524994D01*
X100350500Y-63474500D01*
X100370185Y-63407461D01*
X100422989Y-63361706D01*
X100474500Y-63350500D01*
X119525500Y-63350500D01*
X119592539Y-63370185D01*
G37*
%TD.AperFunction*%
%TD*%
M02*
