%TF.GenerationSoftware,KiCad,Pcbnew,8.0.5*%
%TF.CreationDate,2025-09-25T11:42:31+02:00*%
%TF.ProjectId,Phase_shifter_test_board,50686173-655f-4736-9869-667465725f74,rev?*%
%TF.SameCoordinates,Original*%
%TF.FileFunction,Copper,L1,Top*%
%TF.FilePolarity,Positive*%
%FSLAX46Y46*%
G04 Gerber Fmt 4.6, Leading zero omitted, Abs format (unit mm)*
G04 Created by KiCad (PCBNEW 8.0.5) date 2025-09-25 11:42:31*
%MOMM*%
%LPD*%
G01*
G04 APERTURE LIST*
G04 Aperture macros list*
%AMRoundRect*
0 Rectangle with rounded corners*
0 $1 Rounding radius*
0 $2 $3 $4 $5 $6 $7 $8 $9 X,Y pos of 4 corners*
0 Add a 4 corners polygon primitive as box body*
4,1,4,$2,$3,$4,$5,$6,$7,$8,$9,$2,$3,0*
0 Add four circle primitives for the rounded corners*
1,1,$1+$1,$2,$3*
1,1,$1+$1,$4,$5*
1,1,$1+$1,$6,$7*
1,1,$1+$1,$8,$9*
0 Add four rect primitives between the rounded corners*
20,1,$1+$1,$2,$3,$4,$5,0*
20,1,$1+$1,$4,$5,$6,$7,0*
20,1,$1+$1,$6,$7,$8,$9,0*
20,1,$1+$1,$8,$9,$2,$3,0*%
G04 Aperture macros list end*
%TA.AperFunction,SMDPad,CuDef*%
%ADD10RoundRect,0.237500X0.237500X-0.250000X0.237500X0.250000X-0.237500X0.250000X-0.237500X-0.250000X0*%
%TD*%
%TA.AperFunction,SMDPad,CuDef*%
%ADD11RoundRect,0.237500X-0.300000X-0.237500X0.300000X-0.237500X0.300000X0.237500X-0.300000X0.237500X0*%
%TD*%
%TA.AperFunction,SMDPad,CuDef*%
%ADD12R,1.000000X0.400000*%
%TD*%
%TA.AperFunction,ComponentPad*%
%ADD13C,2.500000*%
%TD*%
%TA.AperFunction,SMDPad,CuDef*%
%ADD14O,0.800000X0.230000*%
%TD*%
%TA.AperFunction,SMDPad,CuDef*%
%ADD15O,0.230000X0.800000*%
%TD*%
%TA.AperFunction,SMDPad,CuDef*%
%ADD16R,2.500000X2.500000*%
%TD*%
%TA.AperFunction,ComponentPad*%
%ADD17R,1.600000X1.600000*%
%TD*%
%TA.AperFunction,ComponentPad*%
%ADD18O,1.600000X1.600000*%
%TD*%
%TA.AperFunction,ComponentPad*%
%ADD19R,1.700000X1.700000*%
%TD*%
%TA.AperFunction,ComponentPad*%
%ADD20O,1.700000X1.700000*%
%TD*%
%TA.AperFunction,SMDPad,CuDef*%
%ADD21RoundRect,0.237500X0.237500X-0.300000X0.237500X0.300000X-0.237500X0.300000X-0.237500X-0.300000X0*%
%TD*%
%TA.AperFunction,ViaPad*%
%ADD22C,0.500000*%
%TD*%
%TA.AperFunction,ViaPad*%
%ADD23C,0.200000*%
%TD*%
%TA.AperFunction,Conductor*%
%ADD24C,0.200000*%
%TD*%
%TA.AperFunction,Conductor*%
%ADD25C,0.300000*%
%TD*%
%TA.AperFunction,Conductor*%
%ADD26C,0.500000*%
%TD*%
%TA.AperFunction,Conductor*%
%ADD27C,1.150000*%
%TD*%
%TA.AperFunction,Conductor*%
%ADD28C,1.105670*%
%TD*%
G04 APERTURE END LIST*
D10*
%TO.P,R2,1*%
%TO.N,/LE {slash} D3*%
X109000000Y-90912500D03*
%TO.P,R2,2*%
%TO.N,GND*%
X109000000Y-89087500D03*
%TD*%
%TO.P,R4,1*%
%TO.N,/D5*%
X114000000Y-90912500D03*
%TO.P,R4,2*%
%TO.N,GND*%
X114000000Y-89087500D03*
%TD*%
D11*
%TO.P,C3,1*%
%TO.N,/RF IN*%
X103887500Y-101000000D03*
%TO.P,C3,2*%
%TO.N,Net-(U1-RF_IN)*%
X105612500Y-101000000D03*
%TD*%
D12*
%TO.P,J1,1,Signal*%
%TO.N,/RF IN*%
X101000000Y-101000000D03*
D13*
%TO.P,J1,2,Shield*%
%TO.N,GND*%
X103100000Y-105765000D03*
X103100000Y-96235000D03*
%TD*%
D14*
%TO.P,U1,1,VEE*%
%TO.N,VEE*%
X108050000Y-99000000D03*
%TO.P,U1,2,P/S*%
%TO.N,/P{slash}S*%
X108050000Y-99500000D03*
%TO.P,U1,3,GND*%
%TO.N,GND*%
X108050000Y-100000000D03*
%TO.P,U1,4,GND*%
X108050000Y-100500000D03*
%TO.P,U1,5,RF_IN*%
%TO.N,Net-(U1-RF_IN)*%
X108050000Y-101000000D03*
%TO.P,U1,6,GND*%
%TO.N,GND*%
X108050000Y-101500000D03*
D15*
%TO.P,U1,7,GND*%
X108800000Y-102250000D03*
%TO.P,U1,8,GND*%
X109300000Y-102250000D03*
%TO.P,U1,9,GND*%
X109800000Y-102250000D03*
D16*
%TO.P,U1,10,GND*%
X110050000Y-100250000D03*
D15*
X110300000Y-102250000D03*
%TO.P,U1,11,GND*%
X110800000Y-102250000D03*
%TO.P,U1,12,GND*%
X111300000Y-102250000D03*
D14*
%TO.P,U1,13,GND*%
X112050000Y-101500000D03*
%TO.P,U1,14,RF_OUT*%
%TO.N,Net-(U1-RF_OUT)*%
X112050000Y-101000000D03*
%TO.P,U1,15,GND*%
%TO.N,GND*%
X112050000Y-100500000D03*
%TO.P,U1,16,GND*%
X112050000Y-100000000D03*
%TO.P,U1,17,SER_OUT*%
%TO.N,/SER OUT*%
X112050000Y-99500000D03*
%TO.P,U1,18,VCC*%
%TO.N,VCC*%
X112050000Y-99000000D03*
D15*
%TO.P,U1,19,D6*%
%TO.N,/D6*%
X111300000Y-98250000D03*
%TO.P,U1,20,D5*%
%TO.N,/D5*%
X110800000Y-98250000D03*
%TO.P,U1,21,D4*%
%TO.N,/D4*%
X110300000Y-98250000D03*
%TO.P,U1,22,D3/LE*%
%TO.N,/LE {slash} D3*%
X109800000Y-98250000D03*
%TO.P,U1,23,D2/CLK*%
%TO.N,/CLK {slash} D2*%
X109300000Y-98250000D03*
%TO.P,U1,24,D1/SER_IN*%
%TO.N,/SER IN {slash} D1*%
X108800000Y-98250000D03*
%TD*%
D17*
%TO.P,SW1,1*%
%TO.N,/LE {slash} D3*%
X107960000Y-79620000D03*
D18*
%TO.P,SW1,2*%
%TO.N,/D4*%
X110500000Y-79620000D03*
%TO.P,SW1,3*%
%TO.N,/D5*%
X113040000Y-79620000D03*
%TO.P,SW1,4*%
%TO.N,/D6*%
X115580000Y-79620000D03*
%TO.P,SW1,5*%
%TO.N,VCC*%
X115580000Y-72000000D03*
%TO.P,SW1,6*%
X113040000Y-72000000D03*
%TO.P,SW1,7*%
X110500000Y-72000000D03*
%TO.P,SW1,8*%
X107960000Y-72000000D03*
%TD*%
D19*
%TO.P,J5,1,Pin_1*%
%TO.N,GND*%
X106585000Y-85940000D03*
D20*
%TO.P,J5,2,Pin_2*%
%TO.N,VCC*%
X106585000Y-83400000D03*
%TO.P,J5,3,Pin_3*%
%TO.N,VEE*%
X109125000Y-85940000D03*
%TO.P,J5,4,Pin_4*%
%TO.N,/SER IN {slash} D1*%
X109125000Y-83400000D03*
%TO.P,J5,5,Pin_5*%
%TO.N,/CLK {slash} D2*%
X111665000Y-85940000D03*
%TO.P,J5,6,Pin_6*%
%TO.N,/LE {slash} D3*%
X111665000Y-83400000D03*
%TO.P,J5,7,Pin_7*%
%TO.N,/D4*%
X114205000Y-85940000D03*
%TO.P,J5,8,Pin_8*%
%TO.N,/D5*%
X114205000Y-83400000D03*
%TO.P,J5,9,Pin_9*%
%TO.N,/D6*%
X116745000Y-85940000D03*
%TO.P,J5,10,Pin_10*%
%TO.N,/SER OUT*%
X116745000Y-83400000D03*
%TD*%
D21*
%TO.P,C2,1*%
%TO.N,VCC*%
X112750000Y-96862500D03*
%TO.P,C2,2*%
%TO.N,GND*%
X112750000Y-95137500D03*
%TD*%
D10*
%TO.P,R5,1*%
%TO.N,/D6*%
X116500000Y-90915000D03*
%TO.P,R5,2*%
%TO.N,GND*%
X116500000Y-89090000D03*
%TD*%
D11*
%TO.P,C4,1*%
%TO.N,Net-(U1-RF_OUT)*%
X114387500Y-101000000D03*
%TO.P,C4,2*%
%TO.N,/RF OUT*%
X116112500Y-101000000D03*
%TD*%
D12*
%TO.P,J4,1,Signal*%
%TO.N,/RF REF*%
X119100000Y-114765000D03*
D13*
%TO.P,J4,2,Shield*%
%TO.N,GND*%
X117000000Y-110000000D03*
X117000000Y-119530000D03*
%TD*%
D12*
%TO.P,J2,1,Signal*%
%TO.N,/RF OUT*%
X119100000Y-101000000D03*
D13*
%TO.P,J2,2,Shield*%
%TO.N,GND*%
X117000000Y-96235000D03*
X117000000Y-105765000D03*
%TD*%
D19*
%TO.P,J6,1,Pin_1*%
%TO.N,/P{slash}S*%
X102725000Y-86000000D03*
D20*
%TO.P,J6,2,Pin_2*%
%TO.N,VCC*%
X102725000Y-83460000D03*
%TD*%
D10*
%TO.P,R7,1*%
%TO.N,/P{slash}S*%
X104750000Y-90912500D03*
%TO.P,R7,2*%
%TO.N,GND*%
X104750000Y-89087500D03*
%TD*%
%TO.P,R3,1*%
%TO.N,/D4*%
X111500000Y-90912500D03*
%TO.P,R3,2*%
%TO.N,GND*%
X111500000Y-89087500D03*
%TD*%
D12*
%TO.P,J3,1,Signal*%
%TO.N,/RF REF*%
X101000000Y-114765000D03*
D13*
%TO.P,J3,2,Shield*%
%TO.N,GND*%
X103100000Y-119530000D03*
X103100000Y-110000000D03*
%TD*%
D21*
%TO.P,C1,1*%
%TO.N,VEE*%
X107500000Y-96862500D03*
%TO.P,C1,2*%
%TO.N,GND*%
X107500000Y-95137500D03*
%TD*%
D22*
%TO.N,VEE*%
X106750000Y-88250000D03*
%TO.N,GND*%
X104751750Y-86976750D03*
X112251750Y-119976750D03*
X101751750Y-79476750D03*
X107751750Y-125976750D03*
X110751750Y-121476750D03*
X101751750Y-89976750D03*
X107751750Y-65976750D03*
X110751750Y-74976750D03*
X118251750Y-121476750D03*
X110050000Y-99375000D03*
X109251750Y-107976750D03*
X110751750Y-125976750D03*
X112251750Y-109476750D03*
X112251750Y-67476750D03*
X101751750Y-70476750D03*
X109251750Y-68976750D03*
X113751750Y-106476750D03*
D23*
X111300000Y-102675000D03*
D22*
X109251750Y-110976750D03*
X107751750Y-67476750D03*
X101751750Y-107976750D03*
X116751750Y-73476750D03*
X109251750Y-77976750D03*
X110751750Y-64476750D03*
D23*
X112500000Y-100000000D03*
D22*
X112251750Y-65976750D03*
X104751750Y-85476750D03*
X103251750Y-79476750D03*
X113751750Y-109476750D03*
X109251750Y-119976750D03*
X101751750Y-74976750D03*
X104751750Y-121476750D03*
X109251750Y-73476750D03*
X107751750Y-127476750D03*
X103251750Y-91476750D03*
X115251750Y-77976750D03*
X107751750Y-119976750D03*
X101751750Y-80976750D03*
X110925000Y-99375000D03*
X118251750Y-70476750D03*
D23*
X110800000Y-102675000D03*
D22*
X107751750Y-106476750D03*
X107751750Y-109476750D03*
X110751750Y-68976750D03*
X101751750Y-76476750D03*
X110751750Y-119976750D03*
X109251750Y-118476750D03*
X110925000Y-101100000D03*
X116751750Y-70476750D03*
D23*
X110300000Y-102675000D03*
D22*
X106251750Y-109476750D03*
X118251750Y-71976750D03*
X109175000Y-100250000D03*
X109251750Y-104976750D03*
D23*
X107600000Y-101500000D03*
X107600000Y-100000000D03*
D22*
X112251750Y-125976750D03*
X115251750Y-107976750D03*
X106251750Y-104976750D03*
X112251750Y-122976750D03*
X113751750Y-110976750D03*
X112251750Y-77976750D03*
D23*
X107600000Y-100500000D03*
D22*
X106251750Y-119976750D03*
X113751750Y-121476750D03*
X113751750Y-74976750D03*
X103251750Y-74976750D03*
X110751750Y-127476750D03*
X112251750Y-118476750D03*
X116751750Y-76476750D03*
X116751750Y-77976750D03*
X106251750Y-76476750D03*
X112251750Y-68976750D03*
X113751750Y-104976750D03*
D23*
X109300000Y-102675000D03*
D22*
X109251750Y-125976750D03*
X106251750Y-118476750D03*
X107751750Y-64476750D03*
X110050000Y-100250000D03*
D23*
X108800000Y-102675000D03*
D22*
X103251750Y-76476750D03*
X110751750Y-118476750D03*
X110751750Y-107976750D03*
X109251750Y-74976750D03*
X112251750Y-104976750D03*
X110751750Y-122976750D03*
X113751750Y-118476750D03*
X104751750Y-94476750D03*
X104751750Y-107976750D03*
X113751750Y-119976750D03*
X112251750Y-121476750D03*
X116500000Y-88250000D03*
X110751750Y-109476750D03*
X106251750Y-77976750D03*
X104750000Y-88250000D03*
X107751750Y-68976750D03*
X106251750Y-70476750D03*
X109251750Y-127476750D03*
X109251750Y-76476750D03*
X110751750Y-124476750D03*
X109251750Y-122976750D03*
X110751750Y-104976750D03*
X112251750Y-74976750D03*
X107500000Y-94250000D03*
X114000000Y-88250000D03*
D23*
X112500000Y-100500000D03*
D22*
X110751750Y-110976750D03*
X103251750Y-71976750D03*
X101751750Y-121476750D03*
X109251750Y-121476750D03*
X107751750Y-110976750D03*
X112251750Y-127476750D03*
X109251750Y-106476750D03*
X109251750Y-70476750D03*
X106251750Y-74976750D03*
X112251750Y-64476750D03*
X118251750Y-77976750D03*
X107751750Y-124476750D03*
X116751750Y-107976750D03*
X103251750Y-77976750D03*
X107751750Y-118476750D03*
X107751750Y-77976750D03*
X110751750Y-106476750D03*
X112251750Y-107976750D03*
X101751750Y-77976750D03*
D23*
X109800000Y-102675000D03*
D22*
X101751750Y-73476750D03*
X109251750Y-109476750D03*
X111500000Y-88250000D03*
X109251750Y-67476750D03*
X109175000Y-99375000D03*
X103251750Y-107976750D03*
X107751750Y-74976750D03*
X110751750Y-65976750D03*
X109175000Y-101100000D03*
X118251750Y-107976750D03*
X110751750Y-76476750D03*
X106251750Y-106476750D03*
X104751750Y-70476750D03*
X106251750Y-110976750D03*
X101751750Y-92976750D03*
X115251750Y-76476750D03*
X106251750Y-121476750D03*
X101751750Y-91476750D03*
X103251750Y-73476750D03*
X112251750Y-76476750D03*
X107751750Y-107976750D03*
D23*
X112500000Y-101500000D03*
D22*
X110751750Y-77976750D03*
X112251750Y-106476750D03*
X109000000Y-88250000D03*
X106251750Y-107976750D03*
X109251750Y-124476750D03*
X112750000Y-94250000D03*
X107751750Y-121476750D03*
X110751750Y-67476750D03*
X118251750Y-79476750D03*
X103251750Y-70476750D03*
X113751750Y-76476750D03*
X113751750Y-107976750D03*
X113751750Y-77976750D03*
X101751750Y-71976750D03*
X118251750Y-73476750D03*
X109251750Y-64476750D03*
X101751750Y-88476750D03*
X109251750Y-65976750D03*
X103251750Y-80976750D03*
X110050000Y-101100000D03*
X110925000Y-100250000D03*
X118251750Y-76476750D03*
X112251750Y-124476750D03*
X107751750Y-76476750D03*
X104751750Y-92976750D03*
X118251750Y-74976750D03*
X115251750Y-74976750D03*
X103251750Y-92976750D03*
X106251750Y-80976750D03*
X107751750Y-122976750D03*
X112251750Y-110976750D03*
X107751750Y-104976750D03*
X116751750Y-74976750D03*
X115251750Y-121476750D03*
X106251750Y-79476750D03*
%TO.N,VCC*%
X116750000Y-92250000D03*
%TO.N,/LE {slash} D3*%
X109750000Y-93500000D03*
X108986091Y-92486091D03*
%TD*%
D24*
%TO.N,VEE*%
X108050000Y-99000000D02*
X107750000Y-99000000D01*
X107750000Y-99000000D02*
X107500000Y-98750000D01*
D25*
X106750000Y-88250000D02*
X106675000Y-88325000D01*
X106675000Y-88325000D02*
X106675000Y-96037500D01*
X106675000Y-96037500D02*
X107500000Y-96862500D01*
D24*
X107500000Y-98750000D02*
X107500000Y-96862500D01*
%TO.N,GND*%
X109800000Y-101350000D02*
X110050000Y-101100000D01*
X109800000Y-102675000D02*
X109800000Y-102250000D01*
D26*
X104750000Y-89087500D02*
X104750000Y-88250000D01*
D24*
X108800000Y-102675000D02*
X108800000Y-102250000D01*
X109300000Y-102675000D02*
X109300000Y-102250000D01*
X112500000Y-101500000D02*
X112050000Y-101500000D01*
D26*
X114000000Y-89087500D02*
X114000000Y-88250000D01*
D24*
X108925000Y-100500000D02*
X109175000Y-100250000D01*
X107600000Y-100500000D02*
X108050000Y-100500000D01*
X112500000Y-100500000D02*
X112050000Y-100500000D01*
D26*
X109000000Y-89087500D02*
X109000000Y-88250000D01*
X107500000Y-95137500D02*
X107500000Y-94250000D01*
X111500000Y-89087500D02*
X111500000Y-88250000D01*
D24*
X111175000Y-100500000D02*
X110925000Y-100250000D01*
D26*
X112750000Y-95137500D02*
X112750000Y-94250000D01*
D24*
X107600000Y-100000000D02*
X108050000Y-100000000D01*
D26*
X116500000Y-89090000D02*
X116500000Y-88250000D01*
D24*
X111300000Y-102675000D02*
X111300000Y-102250000D01*
X112500000Y-100000000D02*
X112050000Y-100000000D01*
X110800000Y-102675000D02*
X110800000Y-102250000D01*
X107600000Y-101500000D02*
X108050000Y-101500000D01*
X110300000Y-102675000D02*
X110300000Y-102250000D01*
D25*
%TO.N,VCC*%
X113575000Y-94538604D02*
X113575000Y-96037500D01*
X113575000Y-96037500D02*
X112750000Y-96862500D01*
X102785000Y-83400000D02*
X102725000Y-83460000D01*
X106585000Y-83400000D02*
X105000000Y-81815000D01*
X115863604Y-92250000D02*
X113575000Y-94538604D01*
D26*
X106550000Y-83365000D02*
X106585000Y-83400000D01*
D25*
X116750000Y-92250000D02*
X115863604Y-92250000D01*
X105000000Y-73300000D02*
X106300000Y-72000000D01*
D26*
X106585000Y-83400000D02*
X106585000Y-82997500D01*
D24*
X112434314Y-99000000D02*
X112750000Y-98684314D01*
D25*
X106585000Y-83400000D02*
X102785000Y-83400000D01*
X105000000Y-81815000D02*
X105000000Y-73300000D01*
D24*
X112050000Y-99000000D02*
X112434314Y-99000000D01*
D25*
X106300000Y-72000000D02*
X115580000Y-72000000D01*
D24*
X112750000Y-98684314D02*
X112750000Y-96862500D01*
%TO.N,/P{slash}S*%
X107500000Y-99500000D02*
X106000000Y-98000000D01*
X108050000Y-99500000D02*
X107500000Y-99500000D01*
X102725000Y-88887500D02*
X102725000Y-86000000D01*
X104750000Y-90912500D02*
X102725000Y-88887500D01*
X106000000Y-98000000D02*
X106000000Y-92162500D01*
X106000000Y-92162500D02*
X104750000Y-90912500D01*
%TO.N,/D5*%
X114000000Y-90912500D02*
X114000000Y-91000000D01*
X115500000Y-89412500D02*
X114000000Y-90912500D01*
X114205000Y-80785000D02*
X113040000Y-79620000D01*
X114205000Y-84205000D02*
X115500000Y-85500000D01*
X110800000Y-94200000D02*
X110800000Y-98250000D01*
X115500000Y-85500000D02*
X115500000Y-89412500D01*
X114000000Y-91000000D02*
X110800000Y-94200000D01*
X114205000Y-83400000D02*
X114205000Y-80785000D01*
X114205000Y-83400000D02*
X114205000Y-84205000D01*
D27*
%TO.N,/RF IN*%
X102300000Y-101000000D02*
X103887500Y-101000000D01*
D24*
%TO.N,/LE {slash} D3*%
X110100000Y-90300000D02*
X109487500Y-90912500D01*
X109487500Y-90912500D02*
X109000000Y-90912500D01*
X109800000Y-98250000D02*
X109800000Y-93550000D01*
X111665000Y-83400000D02*
X107960000Y-79695000D01*
X110100000Y-87900000D02*
X110100000Y-90300000D01*
X110400000Y-84665000D02*
X110400000Y-87600000D01*
X107960000Y-79695000D02*
X107960000Y-79620000D01*
X109800000Y-93550000D02*
X109750000Y-93500000D01*
X108986091Y-92486091D02*
X108986091Y-90926409D01*
X111665000Y-83400000D02*
X110400000Y-84665000D01*
X110400000Y-87600000D02*
X110100000Y-87900000D01*
X108986091Y-90926409D02*
X109000000Y-90912500D01*
D27*
%TO.N,/RF OUT*%
X117687500Y-101000000D02*
X116100000Y-101000000D01*
D24*
%TO.N,/CLK {slash} D2*%
X111000000Y-86605000D02*
X111000000Y-87565686D01*
X109150000Y-96250000D02*
X109300000Y-96400000D01*
X109150000Y-93100000D02*
X109150000Y-96250000D01*
X111000000Y-87565686D02*
X110500000Y-88065686D01*
X110500000Y-91750000D02*
X109150000Y-93100000D01*
X110500000Y-88065686D02*
X110500000Y-91750000D01*
X111665000Y-85940000D02*
X111000000Y-86605000D01*
X109300000Y-96400000D02*
X109300000Y-98250000D01*
%TO.N,/SER OUT*%
X118500000Y-85155000D02*
X116745000Y-83400000D01*
X115500000Y-93250000D02*
X116750000Y-93250000D01*
X112050000Y-99500000D02*
X112500000Y-99500000D01*
X118500000Y-91500000D02*
X118500000Y-85155000D01*
X114250000Y-94500000D02*
X115500000Y-93250000D01*
X114250000Y-97750000D02*
X114250000Y-94500000D01*
X112500000Y-99500000D02*
X114250000Y-97750000D01*
X116750000Y-93250000D02*
X118500000Y-91500000D01*
%TO.N,/D4*%
X111500000Y-90912500D02*
X111500000Y-92500000D01*
X112900000Y-82020000D02*
X110500000Y-79620000D01*
X112750000Y-89662500D02*
X111500000Y-90912500D01*
X114205000Y-85940000D02*
X112900000Y-84635000D01*
X114205000Y-85940000D02*
X112750000Y-87395000D01*
X110300000Y-93700000D02*
X110300000Y-98250000D01*
X111500000Y-92500000D02*
X110300000Y-93700000D01*
X112900000Y-84635000D02*
X112900000Y-82020000D01*
X112750000Y-87395000D02*
X112750000Y-89662500D01*
%TO.N,/SER IN {slash} D1*%
X107975000Y-84550000D02*
X109125000Y-83400000D01*
X107975000Y-93475000D02*
X107975000Y-84550000D01*
X108800000Y-98250000D02*
X108800000Y-96800000D01*
X108800000Y-96800000D02*
X108500000Y-96500000D01*
X108500000Y-94000000D02*
X107975000Y-93475000D01*
X108500000Y-96500000D02*
X108500000Y-94000000D01*
%TO.N,/D6*%
X113500000Y-93250000D02*
X112750000Y-93250000D01*
X112750000Y-93250000D02*
X111300000Y-94700000D01*
X115500000Y-84695000D02*
X115500000Y-79700000D01*
X116745000Y-85940000D02*
X115500000Y-84695000D01*
X115500000Y-79700000D02*
X115580000Y-79620000D01*
X117750000Y-86945000D02*
X116745000Y-85940000D01*
X111300000Y-94700000D02*
X111300000Y-98250000D01*
X116500000Y-90915000D02*
X115835000Y-90915000D01*
X117750000Y-89665000D02*
X117750000Y-86945000D01*
X116500000Y-90915000D02*
X117750000Y-89665000D01*
X115835000Y-90915000D02*
X113500000Y-93250000D01*
D28*
%TO.N,/RF REF*%
X102250000Y-114765000D02*
X117850000Y-114765000D01*
D27*
%TO.N,Net-(U1-RF_IN)*%
X105612500Y-101000000D02*
X106800000Y-101000000D01*
%TO.N,Net-(U1-RF_OUT)*%
X113300000Y-101000000D02*
X114400000Y-101000000D01*
%TD*%
%TA.AperFunction,Conductor*%
%TO.N,/RF OUT*%
G36*
X117808582Y-100435065D02*
G01*
X117813260Y-100435425D01*
X117815189Y-100435737D01*
X117927849Y-100463767D01*
X117929673Y-100464384D01*
X118025023Y-100505682D01*
X118026438Y-100506413D01*
X118109336Y-100556738D01*
X118110179Y-100557302D01*
X118185318Y-100612419D01*
X118185497Y-100612553D01*
X118257355Y-100668000D01*
X118330162Y-100718999D01*
X118408462Y-100761000D01*
X118496870Y-100789500D01*
X118600000Y-100800000D01*
X119089620Y-100800000D01*
X119097893Y-100803427D01*
X119101237Y-100810306D01*
X119123832Y-100998606D01*
X119123832Y-101001394D01*
X119101237Y-101189694D01*
X119096849Y-101197500D01*
X119089620Y-101200000D01*
X118600000Y-101200000D01*
X118496867Y-101210500D01*
X118496866Y-101210501D01*
X118408460Y-101239000D01*
X118330172Y-101280993D01*
X118330167Y-101280996D01*
X118257338Y-101332012D01*
X118185545Y-101387409D01*
X118185318Y-101387580D01*
X118110175Y-101442700D01*
X118109326Y-101443267D01*
X118026444Y-101493581D01*
X118025023Y-101494316D01*
X117929674Y-101535614D01*
X117927849Y-101536232D01*
X117815189Y-101564262D01*
X117813260Y-101564574D01*
X117688538Y-101574152D01*
X117680027Y-101571368D01*
X117676044Y-101564024D01*
X117672277Y-101535614D01*
X117601453Y-101001530D01*
X117601453Y-100998469D01*
X117676044Y-100435973D01*
X117680528Y-100428224D01*
X117688536Y-100425847D01*
X117808582Y-100435065D01*
G37*
%TD.AperFunction*%
%TD*%
%TA.AperFunction,Conductor*%
%TO.N,GND*%
G36*
X119495788Y-63369454D02*
G01*
X119576570Y-63423430D01*
X119630546Y-63504212D01*
X119649500Y-63599500D01*
X119649500Y-97601000D01*
X119630546Y-97696288D01*
X119576570Y-97777070D01*
X119495788Y-97831046D01*
X119400500Y-97850000D01*
X114799500Y-97850000D01*
X114704212Y-97831046D01*
X114623430Y-97777070D01*
X114569454Y-97696288D01*
X114550500Y-97601000D01*
X114550500Y-94727611D01*
X114569454Y-94632323D01*
X114623430Y-94551541D01*
X115551541Y-93623430D01*
X115632323Y-93569454D01*
X115727611Y-93550500D01*
X116789562Y-93550500D01*
X116865985Y-93530022D01*
X116865984Y-93530022D01*
X116865989Y-93530021D01*
X116934511Y-93490460D01*
X116990460Y-93434511D01*
X118740460Y-91684511D01*
X118780022Y-91615988D01*
X118800500Y-91539562D01*
X118800500Y-91460438D01*
X118800500Y-85115438D01*
X118788798Y-85071767D01*
X118780022Y-85039014D01*
X118780021Y-85039013D01*
X118780021Y-85039011D01*
X118740460Y-84970489D01*
X118718272Y-84948301D01*
X118684511Y-84914539D01*
X118684511Y-84914540D01*
X117791711Y-84021740D01*
X117737735Y-83940958D01*
X117718781Y-83845670D01*
X117729502Y-83773393D01*
X117780300Y-83605934D01*
X117800583Y-83400000D01*
X117780300Y-83194066D01*
X117720232Y-82996046D01*
X117622685Y-82813550D01*
X117622683Y-82813547D01*
X117491416Y-82653596D01*
X117491403Y-82653583D01*
X117331452Y-82522316D01*
X117148955Y-82424768D01*
X116950934Y-82364700D01*
X116745000Y-82344417D01*
X116539065Y-82364700D01*
X116341044Y-82424768D01*
X116166879Y-82517863D01*
X116073907Y-82546066D01*
X115977220Y-82536543D01*
X115891537Y-82490745D01*
X115829902Y-82415644D01*
X115801699Y-82322672D01*
X115800500Y-82298265D01*
X115800500Y-80783215D01*
X115819454Y-80687927D01*
X115873430Y-80607145D01*
X115954212Y-80553169D01*
X115954220Y-80553166D01*
X115964720Y-80548816D01*
X115964727Y-80548814D01*
X116138538Y-80455910D01*
X116290883Y-80330883D01*
X116415910Y-80178538D01*
X116508814Y-80004727D01*
X116566024Y-79816132D01*
X116585341Y-79620000D01*
X116566024Y-79423868D01*
X116508814Y-79235273D01*
X116508812Y-79235270D01*
X116508811Y-79235266D01*
X116415911Y-79061463D01*
X116290885Y-78909120D01*
X116290883Y-78909117D01*
X116158234Y-78800254D01*
X116138536Y-78784088D01*
X115964733Y-78691188D01*
X115964725Y-78691185D01*
X115776131Y-78633975D01*
X115580000Y-78614659D01*
X115383868Y-78633975D01*
X115195274Y-78691185D01*
X115195266Y-78691188D01*
X115021463Y-78784088D01*
X114869120Y-78909114D01*
X114869114Y-78909120D01*
X114744088Y-79061463D01*
X114651188Y-79235266D01*
X114651185Y-79235274D01*
X114593975Y-79423868D01*
X114574659Y-79620000D01*
X114593975Y-79816131D01*
X114651185Y-80004725D01*
X114651188Y-80004733D01*
X114744088Y-80178536D01*
X114744090Y-80178538D01*
X114869117Y-80330883D01*
X115021462Y-80455910D01*
X115067878Y-80480720D01*
X115142979Y-80542354D01*
X115188778Y-80628037D01*
X115199500Y-80700318D01*
X115199500Y-82330726D01*
X115180546Y-82426014D01*
X115126570Y-82506796D01*
X115045788Y-82560772D01*
X114950500Y-82579726D01*
X114855212Y-82560772D01*
X114801840Y-82528783D01*
X114801622Y-82529111D01*
X114794960Y-82524659D01*
X114792543Y-82523211D01*
X114791451Y-82522315D01*
X114791452Y-82522315D01*
X114637122Y-82439824D01*
X114562020Y-82378189D01*
X114516222Y-82292506D01*
X114505500Y-82220226D01*
X114505500Y-80745438D01*
X114485022Y-80669014D01*
X114485021Y-80669013D01*
X114485021Y-80669011D01*
X114445460Y-80600489D01*
X114428064Y-80583093D01*
X114389511Y-80544539D01*
X114389511Y-80544540D01*
X114046622Y-80201651D01*
X113992646Y-80120869D01*
X113973692Y-80025581D01*
X113984413Y-79953302D01*
X114026024Y-79816132D01*
X114045341Y-79620000D01*
X114026024Y-79423868D01*
X113968814Y-79235273D01*
X113968812Y-79235270D01*
X113968811Y-79235266D01*
X113875911Y-79061463D01*
X113750885Y-78909120D01*
X113750883Y-78909117D01*
X113618234Y-78800254D01*
X113598536Y-78784088D01*
X113424733Y-78691188D01*
X113424725Y-78691185D01*
X113236131Y-78633975D01*
X113040000Y-78614659D01*
X112843868Y-78633975D01*
X112655274Y-78691185D01*
X112655266Y-78691188D01*
X112481463Y-78784088D01*
X112329120Y-78909114D01*
X112329114Y-78909120D01*
X112204088Y-79061463D01*
X112111188Y-79235266D01*
X112111185Y-79235274D01*
X112053975Y-79423868D01*
X112034659Y-79620000D01*
X112053975Y-79816131D01*
X112111185Y-80004725D01*
X112111188Y-80004733D01*
X112204088Y-80178536D01*
X112204090Y-80178538D01*
X112279585Y-80270529D01*
X112286460Y-80278905D01*
X112316789Y-80335647D01*
X112318416Y-80335971D01*
X112381089Y-80373535D01*
X112481462Y-80455910D01*
X112481464Y-80455911D01*
X112655266Y-80548811D01*
X112655270Y-80548812D01*
X112655273Y-80548814D01*
X112843868Y-80606024D01*
X113040000Y-80625341D01*
X113236132Y-80606024D01*
X113373301Y-80564413D01*
X113469986Y-80554891D01*
X113562958Y-80583093D01*
X113621651Y-80626622D01*
X113831570Y-80836541D01*
X113885546Y-80917323D01*
X113904500Y-81012611D01*
X113904500Y-82220226D01*
X113885546Y-82315514D01*
X113831570Y-82396296D01*
X113772878Y-82439824D01*
X113618549Y-82522314D01*
X113607462Y-82531414D01*
X113521778Y-82577212D01*
X113425091Y-82586734D01*
X113332120Y-82558530D01*
X113257019Y-82496895D01*
X113211221Y-82411211D01*
X113200500Y-82338933D01*
X113200500Y-81980438D01*
X113192421Y-81950288D01*
X113192420Y-81950284D01*
X113191313Y-81946153D01*
X113180022Y-81904012D01*
X113140460Y-81835489D01*
X112047058Y-80742087D01*
X111993218Y-80661508D01*
X111976604Y-80656469D01*
X111917911Y-80612940D01*
X111506622Y-80201651D01*
X111452646Y-80120869D01*
X111433692Y-80025581D01*
X111444413Y-79953302D01*
X111486024Y-79816132D01*
X111505341Y-79620000D01*
X111486024Y-79423868D01*
X111428814Y-79235273D01*
X111428812Y-79235270D01*
X111428811Y-79235266D01*
X111335911Y-79061463D01*
X111210885Y-78909120D01*
X111210883Y-78909117D01*
X111078234Y-78800254D01*
X111058536Y-78784088D01*
X110884733Y-78691188D01*
X110884725Y-78691185D01*
X110696131Y-78633975D01*
X110500000Y-78614659D01*
X110303868Y-78633975D01*
X110115274Y-78691185D01*
X110115266Y-78691188D01*
X109941463Y-78784088D01*
X109789120Y-78909114D01*
X109789114Y-78909120D01*
X109664088Y-79061463D01*
X109571188Y-79235266D01*
X109571185Y-79235274D01*
X109513975Y-79423868D01*
X109494659Y-79620000D01*
X109513975Y-79816131D01*
X109571185Y-80004725D01*
X109571188Y-80004733D01*
X109664088Y-80178536D01*
X109664090Y-80178538D01*
X109789117Y-80330883D01*
X109794922Y-80335647D01*
X109941463Y-80455911D01*
X110115266Y-80548811D01*
X110115270Y-80548812D01*
X110115273Y-80548814D01*
X110303868Y-80606024D01*
X110500000Y-80625341D01*
X110696132Y-80606024D01*
X110833301Y-80564413D01*
X110929986Y-80554891D01*
X111022958Y-80583093D01*
X111081651Y-80626622D01*
X112526570Y-82071541D01*
X112580546Y-82152323D01*
X112599500Y-82247611D01*
X112599500Y-82292919D01*
X112580546Y-82388207D01*
X112526570Y-82468989D01*
X112445788Y-82522965D01*
X112350500Y-82541919D01*
X112255212Y-82522965D01*
X112233122Y-82512517D01*
X112068960Y-82424770D01*
X112068956Y-82424769D01*
X112068955Y-82424768D01*
X112068954Y-82424768D01*
X111870934Y-82364700D01*
X111665000Y-82344417D01*
X111459067Y-82364699D01*
X111291608Y-82415497D01*
X111194921Y-82425019D01*
X111101950Y-82396816D01*
X111043259Y-82353288D01*
X109033430Y-80343459D01*
X108979454Y-80262677D01*
X108960500Y-80167389D01*
X108960500Y-78800254D01*
X108957285Y-78784090D01*
X108948867Y-78741769D01*
X108904552Y-78675448D01*
X108904548Y-78675445D01*
X108838232Y-78631133D01*
X108823610Y-78628224D01*
X108779748Y-78619500D01*
X107140252Y-78619500D01*
X107105162Y-78626479D01*
X107081767Y-78631133D01*
X107015451Y-78675445D01*
X107015445Y-78675451D01*
X106971133Y-78741767D01*
X106971133Y-78741769D01*
X106959500Y-78800252D01*
X106959500Y-80439748D01*
X106962715Y-80455909D01*
X106971133Y-80498232D01*
X107015445Y-80564548D01*
X107015448Y-80564552D01*
X107015451Y-80564554D01*
X107081767Y-80608866D01*
X107081769Y-80608867D01*
X107140252Y-80620500D01*
X108357389Y-80620500D01*
X108452677Y-80639454D01*
X108533459Y-80693430D01*
X109922784Y-82082755D01*
X109976760Y-82163537D01*
X109995714Y-82258825D01*
X109976760Y-82354113D01*
X109922784Y-82434895D01*
X109842002Y-82488871D01*
X109746714Y-82507825D01*
X109651426Y-82488871D01*
X109629336Y-82478423D01*
X109528960Y-82424770D01*
X109528956Y-82424769D01*
X109528955Y-82424768D01*
X109528954Y-82424768D01*
X109330934Y-82364700D01*
X109125000Y-82344417D01*
X108919065Y-82364700D01*
X108721044Y-82424768D01*
X108538547Y-82522316D01*
X108378596Y-82653583D01*
X108378583Y-82653596D01*
X108247316Y-82813547D01*
X108149768Y-82996044D01*
X108093278Y-83182270D01*
X108047480Y-83267953D01*
X107972378Y-83329587D01*
X107879406Y-83357790D01*
X107782719Y-83348267D01*
X107697036Y-83302469D01*
X107635402Y-83227367D01*
X107616722Y-83182270D01*
X107579500Y-83059564D01*
X107560232Y-82996046D01*
X107462685Y-82813550D01*
X107462683Y-82813547D01*
X107331416Y-82653596D01*
X107331403Y-82653583D01*
X107171452Y-82522316D01*
X106988955Y-82424768D01*
X106790934Y-82364700D01*
X106585000Y-82344417D01*
X106379063Y-82364700D01*
X106265863Y-82399039D01*
X106169176Y-82408562D01*
X106076205Y-82380359D01*
X106017513Y-82336831D01*
X105423430Y-81742748D01*
X105369454Y-81661966D01*
X105350500Y-81566678D01*
X105350500Y-73548322D01*
X105369454Y-73453034D01*
X105423430Y-73372252D01*
X106372252Y-72423430D01*
X106453034Y-72369454D01*
X106548322Y-72350500D01*
X106863647Y-72350500D01*
X106958935Y-72369454D01*
X107039717Y-72423430D01*
X107083243Y-72482119D01*
X107124090Y-72558538D01*
X107249117Y-72710883D01*
X107358870Y-72800955D01*
X107401463Y-72835911D01*
X107575266Y-72928811D01*
X107575270Y-72928812D01*
X107575273Y-72928814D01*
X107763868Y-72986024D01*
X107960000Y-73005341D01*
X108156132Y-72986024D01*
X108344727Y-72928814D01*
X108518538Y-72835910D01*
X108670883Y-72710883D01*
X108795910Y-72558538D01*
X108836756Y-72482120D01*
X108898388Y-72407021D01*
X108984071Y-72361222D01*
X109056353Y-72350500D01*
X109403647Y-72350500D01*
X109498935Y-72369454D01*
X109579717Y-72423430D01*
X109623243Y-72482119D01*
X109664090Y-72558538D01*
X109789117Y-72710883D01*
X109898870Y-72800955D01*
X109941463Y-72835911D01*
X110115266Y-72928811D01*
X110115270Y-72928812D01*
X110115273Y-72928814D01*
X110303868Y-72986024D01*
X110500000Y-73005341D01*
X110696132Y-72986024D01*
X110884727Y-72928814D01*
X111058538Y-72835910D01*
X111210883Y-72710883D01*
X111335910Y-72558538D01*
X111376756Y-72482120D01*
X111438388Y-72407021D01*
X111524071Y-72361222D01*
X111596353Y-72350500D01*
X111943647Y-72350500D01*
X112038935Y-72369454D01*
X112119717Y-72423430D01*
X112163243Y-72482119D01*
X112204090Y-72558538D01*
X112329117Y-72710883D01*
X112438870Y-72800955D01*
X112481463Y-72835911D01*
X112655266Y-72928811D01*
X112655270Y-72928812D01*
X112655273Y-72928814D01*
X112843868Y-72986024D01*
X113040000Y-73005341D01*
X113236132Y-72986024D01*
X113424727Y-72928814D01*
X113598538Y-72835910D01*
X113750883Y-72710883D01*
X113875910Y-72558538D01*
X113916756Y-72482120D01*
X113978388Y-72407021D01*
X114064071Y-72361222D01*
X114136353Y-72350500D01*
X114483647Y-72350500D01*
X114578935Y-72369454D01*
X114659717Y-72423430D01*
X114703243Y-72482119D01*
X114744090Y-72558538D01*
X114869117Y-72710883D01*
X114978870Y-72800955D01*
X115021463Y-72835911D01*
X115195266Y-72928811D01*
X115195270Y-72928812D01*
X115195273Y-72928814D01*
X115383868Y-72986024D01*
X115580000Y-73005341D01*
X115776132Y-72986024D01*
X115964727Y-72928814D01*
X116138538Y-72835910D01*
X116290883Y-72710883D01*
X116415910Y-72558538D01*
X116508814Y-72384727D01*
X116566024Y-72196132D01*
X116585341Y-72000000D01*
X116566024Y-71803868D01*
X116508814Y-71615273D01*
X116508812Y-71615270D01*
X116508811Y-71615266D01*
X116415911Y-71441463D01*
X116290885Y-71289120D01*
X116290883Y-71289117D01*
X116138538Y-71164090D01*
X116138539Y-71164090D01*
X116138536Y-71164088D01*
X115964733Y-71071188D01*
X115964725Y-71071185D01*
X115776131Y-71013975D01*
X115580000Y-70994659D01*
X115383868Y-71013975D01*
X115195274Y-71071185D01*
X115195266Y-71071188D01*
X115021463Y-71164088D01*
X114869120Y-71289114D01*
X114869114Y-71289120D01*
X114744090Y-71441461D01*
X114744089Y-71441463D01*
X114703243Y-71517879D01*
X114641612Y-71592979D01*
X114555929Y-71638778D01*
X114483647Y-71649500D01*
X114136353Y-71649500D01*
X114041065Y-71630546D01*
X113960283Y-71576570D01*
X113916756Y-71517880D01*
X113875910Y-71441462D01*
X113750883Y-71289117D01*
X113598538Y-71164090D01*
X113598539Y-71164090D01*
X113598536Y-71164088D01*
X113424733Y-71071188D01*
X113424725Y-71071185D01*
X113236131Y-71013975D01*
X113040000Y-70994659D01*
X112843868Y-71013975D01*
X112655274Y-71071185D01*
X112655266Y-71071188D01*
X112481463Y-71164088D01*
X112329120Y-71289114D01*
X112329114Y-71289120D01*
X112204090Y-71441461D01*
X112204089Y-71441463D01*
X112163243Y-71517879D01*
X112101612Y-71592979D01*
X112015929Y-71638778D01*
X111943647Y-71649500D01*
X111596353Y-71649500D01*
X111501065Y-71630546D01*
X111420283Y-71576570D01*
X111376756Y-71517880D01*
X111335910Y-71441462D01*
X111210883Y-71289117D01*
X111058538Y-71164090D01*
X111058539Y-71164090D01*
X111058536Y-71164088D01*
X110884733Y-71071188D01*
X110884725Y-71071185D01*
X110696131Y-71013975D01*
X110500000Y-70994659D01*
X110303868Y-71013975D01*
X110115274Y-71071185D01*
X110115266Y-71071188D01*
X109941463Y-71164088D01*
X109789120Y-71289114D01*
X109789114Y-71289120D01*
X109664090Y-71441461D01*
X109664089Y-71441463D01*
X109623243Y-71517879D01*
X109561612Y-71592979D01*
X109475929Y-71638778D01*
X109403647Y-71649500D01*
X109056353Y-71649500D01*
X108961065Y-71630546D01*
X108880283Y-71576570D01*
X108836756Y-71517880D01*
X108795910Y-71441462D01*
X108670883Y-71289117D01*
X108518538Y-71164090D01*
X108518539Y-71164090D01*
X108518536Y-71164088D01*
X108344733Y-71071188D01*
X108344725Y-71071185D01*
X108156131Y-71013975D01*
X107960000Y-70994659D01*
X107763868Y-71013975D01*
X107575274Y-71071185D01*
X107575266Y-71071188D01*
X107401463Y-71164088D01*
X107249120Y-71289114D01*
X107249114Y-71289120D01*
X107124090Y-71441461D01*
X107124089Y-71441463D01*
X107083243Y-71517879D01*
X107021612Y-71592979D01*
X106935929Y-71638778D01*
X106863647Y-71649500D01*
X106253856Y-71649500D01*
X106164709Y-71673386D01*
X106084791Y-71719527D01*
X104719527Y-73084791D01*
X104673386Y-73164709D01*
X104649500Y-73253855D01*
X104649500Y-81861144D01*
X104673386Y-81950290D01*
X104719527Y-82030208D01*
X104719531Y-82030213D01*
X105313748Y-82624431D01*
X105367724Y-82705212D01*
X105386678Y-82800500D01*
X105367724Y-82895788D01*
X105313747Y-82976570D01*
X105232966Y-83030546D01*
X105137678Y-83049500D01*
X103845977Y-83049500D01*
X103750689Y-83030546D01*
X103669907Y-82976570D01*
X103626378Y-82917877D01*
X103617197Y-82900701D01*
X103602685Y-82873550D01*
X103553445Y-82813550D01*
X103471416Y-82713596D01*
X103471403Y-82713583D01*
X103311452Y-82582316D01*
X103128955Y-82484768D01*
X102930934Y-82424700D01*
X102725000Y-82404417D01*
X102519065Y-82424700D01*
X102321044Y-82484768D01*
X102138547Y-82582316D01*
X101978596Y-82713583D01*
X101978583Y-82713596D01*
X101847316Y-82873547D01*
X101749768Y-83056044D01*
X101689700Y-83254065D01*
X101669417Y-83460000D01*
X101689700Y-83665934D01*
X101749768Y-83863955D01*
X101847316Y-84046452D01*
X101978583Y-84206403D01*
X101978596Y-84206416D01*
X102138547Y-84337683D01*
X102138548Y-84337683D01*
X102138550Y-84337685D01*
X102208793Y-84375231D01*
X102321044Y-84435231D01*
X102321046Y-84435232D01*
X102410021Y-84462222D01*
X102495704Y-84508020D01*
X102557339Y-84583122D01*
X102585542Y-84676093D01*
X102576019Y-84772780D01*
X102530221Y-84858463D01*
X102455119Y-84920098D01*
X102362148Y-84948301D01*
X102337741Y-84949500D01*
X101855252Y-84949500D01*
X101820162Y-84956479D01*
X101796767Y-84961133D01*
X101730451Y-85005445D01*
X101730445Y-85005451D01*
X101686133Y-85071767D01*
X101686133Y-85071769D01*
X101674500Y-85130252D01*
X101674500Y-86869748D01*
X101676736Y-86880989D01*
X101686133Y-86928232D01*
X101730445Y-86994548D01*
X101730448Y-86994552D01*
X101730451Y-86994554D01*
X101796767Y-87038866D01*
X101796769Y-87038867D01*
X101855252Y-87050500D01*
X102175500Y-87050500D01*
X102270788Y-87069454D01*
X102351570Y-87123430D01*
X102405546Y-87204212D01*
X102424500Y-87299500D01*
X102424500Y-88927061D01*
X102444977Y-89003485D01*
X102444978Y-89003487D01*
X102444979Y-89003489D01*
X102484540Y-89072011D01*
X104001572Y-90589043D01*
X104055546Y-90669822D01*
X104074500Y-90765110D01*
X104074500Y-91215264D01*
X104077274Y-91244846D01*
X104120883Y-91369474D01*
X104199287Y-91475709D01*
X104199290Y-91475712D01*
X104202675Y-91478210D01*
X104305525Y-91554116D01*
X104430151Y-91597725D01*
X104459738Y-91600499D01*
X104459742Y-91600500D01*
X104459744Y-91600500D01*
X104909889Y-91600500D01*
X105005177Y-91619454D01*
X105085959Y-91673430D01*
X105626570Y-92214041D01*
X105680546Y-92294823D01*
X105699500Y-92390111D01*
X105699500Y-97601000D01*
X105680546Y-97696288D01*
X105626570Y-97777070D01*
X105545788Y-97831046D01*
X105450500Y-97850000D01*
X100674500Y-97850000D01*
X100579212Y-97831046D01*
X100498430Y-97777070D01*
X100444454Y-97696288D01*
X100425500Y-97601000D01*
X100425500Y-95975038D01*
X100425499Y-95975033D01*
X100406394Y-95928909D01*
X100392770Y-95908520D01*
X100396677Y-95905908D01*
X100369454Y-95865165D01*
X100350500Y-95769877D01*
X100350500Y-66525000D01*
X101225000Y-66525000D01*
X101244713Y-66838335D01*
X101244715Y-66838351D01*
X101303539Y-67146715D01*
X101303543Y-67146727D01*
X101400557Y-67445307D01*
X101400559Y-67445311D01*
X101534233Y-67729384D01*
X101581830Y-67804384D01*
X101702459Y-67994465D01*
X101902577Y-68236368D01*
X102131437Y-68451281D01*
X102385432Y-68635820D01*
X102477139Y-68686236D01*
X102660552Y-68787068D01*
X102952458Y-68902641D01*
X103256547Y-68980718D01*
X103568024Y-69020067D01*
X103568029Y-69020067D01*
X103881971Y-69020067D01*
X103881976Y-69020067D01*
X104193453Y-68980718D01*
X104497542Y-68902641D01*
X104789448Y-68787068D01*
X105064567Y-68635820D01*
X105318560Y-68451283D01*
X105547422Y-68236368D01*
X105747542Y-67994463D01*
X105915767Y-67729384D01*
X106049441Y-67445311D01*
X106146458Y-67146725D01*
X106205287Y-66838333D01*
X106220281Y-66600000D01*
X113575000Y-66600000D01*
X113594713Y-66913335D01*
X113594715Y-66913351D01*
X113653539Y-67221715D01*
X113653543Y-67221727D01*
X113750557Y-67520307D01*
X113750559Y-67520311D01*
X113884233Y-67804384D01*
X114004863Y-67994465D01*
X114052459Y-68069465D01*
X114252577Y-68311368D01*
X114481437Y-68526281D01*
X114735432Y-68710820D01*
X114827139Y-68761236D01*
X115010552Y-68862068D01*
X115302458Y-68977641D01*
X115606547Y-69055718D01*
X115918024Y-69095067D01*
X115918029Y-69095067D01*
X116231971Y-69095067D01*
X116231976Y-69095067D01*
X116543453Y-69055718D01*
X116847542Y-68977641D01*
X117139448Y-68862068D01*
X117414567Y-68710820D01*
X117668560Y-68526283D01*
X117897422Y-68311368D01*
X118097542Y-68069463D01*
X118265767Y-67804384D01*
X118399441Y-67520311D01*
X118496458Y-67221725D01*
X118555287Y-66913333D01*
X118575000Y-66600000D01*
X118555287Y-66286667D01*
X118555285Y-66286657D01*
X118555284Y-66286648D01*
X118496460Y-65978284D01*
X118496459Y-65978282D01*
X118496458Y-65978275D01*
X118399441Y-65679689D01*
X118265767Y-65395616D01*
X118097542Y-65130537D01*
X118097540Y-65130534D01*
X117897422Y-64888631D01*
X117668562Y-64673718D01*
X117414567Y-64489179D01*
X117247752Y-64397472D01*
X117139448Y-64337932D01*
X116847542Y-64222359D01*
X116847536Y-64222357D01*
X116847532Y-64222356D01*
X116543454Y-64144282D01*
X116491540Y-64137723D01*
X116231976Y-64104933D01*
X115918024Y-64104933D01*
X115695540Y-64133039D01*
X115606545Y-64144282D01*
X115302467Y-64222356D01*
X115302460Y-64222358D01*
X115302458Y-64222359D01*
X115302453Y-64222361D01*
X115010554Y-64337931D01*
X114735432Y-64489179D01*
X114481437Y-64673718D01*
X114252577Y-64888631D01*
X114052459Y-65130534D01*
X113953625Y-65286271D01*
X113884233Y-65395616D01*
X113884233Y-65395617D01*
X113884230Y-65395621D01*
X113750557Y-65679692D01*
X113653543Y-65978272D01*
X113653539Y-65978284D01*
X113594715Y-66286648D01*
X113594713Y-66286664D01*
X113575000Y-66600000D01*
X106220281Y-66600000D01*
X106225000Y-66525000D01*
X106205287Y-66211667D01*
X106205285Y-66211657D01*
X106205284Y-66211648D01*
X106146460Y-65903284D01*
X106146459Y-65903282D01*
X106146458Y-65903275D01*
X106049441Y-65604689D01*
X105915767Y-65320616D01*
X105747542Y-65055537D01*
X105747540Y-65055534D01*
X105547422Y-64813631D01*
X105318562Y-64598718D01*
X105064567Y-64414179D01*
X104897752Y-64322472D01*
X104789448Y-64262932D01*
X104497542Y-64147359D01*
X104497536Y-64147357D01*
X104497532Y-64147356D01*
X104193454Y-64069282D01*
X104141540Y-64062723D01*
X103881976Y-64029933D01*
X103568024Y-64029933D01*
X103345540Y-64058039D01*
X103256545Y-64069282D01*
X102952467Y-64147356D01*
X102952460Y-64147358D01*
X102952458Y-64147359D01*
X102952453Y-64147361D01*
X102660554Y-64262931D01*
X102385432Y-64414179D01*
X102131437Y-64598718D01*
X101902577Y-64813631D01*
X101702459Y-65055534D01*
X101654863Y-65130534D01*
X101534233Y-65320616D01*
X101534233Y-65320617D01*
X101534230Y-65320621D01*
X101400557Y-65604692D01*
X101303543Y-65903272D01*
X101303539Y-65903284D01*
X101244715Y-66211648D01*
X101244713Y-66211664D01*
X101225000Y-66525000D01*
X100350500Y-66525000D01*
X100350500Y-63599500D01*
X100369454Y-63504212D01*
X100423430Y-63423430D01*
X100504212Y-63369454D01*
X100599500Y-63350500D01*
X119400500Y-63350500D01*
X119495788Y-63369454D01*
G37*
%TD.AperFunction*%
%TA.AperFunction,Conductor*%
G36*
X113561571Y-93569454D02*
G01*
X113642353Y-93623430D01*
X113696329Y-93704212D01*
X113715283Y-93799500D01*
X113696329Y-93894788D01*
X113642355Y-93975566D01*
X113390312Y-94227610D01*
X113294527Y-94323395D01*
X113259534Y-94384007D01*
X113259532Y-94384011D01*
X113252464Y-94396251D01*
X113248385Y-94403317D01*
X113224500Y-94492457D01*
X113224500Y-95789178D01*
X113205546Y-95884466D01*
X113151570Y-95965248D01*
X113065248Y-96051570D01*
X112984466Y-96105546D01*
X112889178Y-96124500D01*
X112459735Y-96124500D01*
X112430153Y-96127274D01*
X112305525Y-96170883D01*
X112199290Y-96249287D01*
X112199287Y-96249290D01*
X112120883Y-96355525D01*
X112084527Y-96459426D01*
X112035164Y-96543107D01*
X111957536Y-96601528D01*
X111863461Y-96625794D01*
X111767260Y-96612213D01*
X111683579Y-96562850D01*
X111625158Y-96485222D01*
X111600892Y-96391147D01*
X111600500Y-96377186D01*
X111600500Y-94927611D01*
X111619454Y-94832323D01*
X111673430Y-94751541D01*
X112801541Y-93623430D01*
X112882323Y-93569454D01*
X112977611Y-93550500D01*
X113466283Y-93550500D01*
X113561571Y-93569454D01*
G37*
%TD.AperFunction*%
%TA.AperFunction,Conductor*%
G36*
X105527240Y-83769454D02*
G01*
X105608022Y-83823430D01*
X105651550Y-83882122D01*
X105707315Y-83986450D01*
X105838583Y-84146403D01*
X105838596Y-84146416D01*
X105998547Y-84277683D01*
X105998548Y-84277683D01*
X105998550Y-84277685D01*
X106181046Y-84375232D01*
X106379066Y-84435300D01*
X106585000Y-84455583D01*
X106790934Y-84435300D01*
X106988954Y-84375232D01*
X107171450Y-84277685D01*
X107258292Y-84206416D01*
X107297196Y-84174489D01*
X107382879Y-84128691D01*
X107479566Y-84119168D01*
X107572537Y-84147371D01*
X107647639Y-84209006D01*
X107693437Y-84294689D01*
X107702960Y-84391376D01*
X107695674Y-84431415D01*
X107674500Y-84510436D01*
X107674500Y-88051245D01*
X107655546Y-88146533D01*
X107601570Y-88227315D01*
X107569729Y-88248589D01*
X107581739Y-88254872D01*
X107644042Y-88329420D01*
X107673073Y-88422136D01*
X107674500Y-88448754D01*
X107674500Y-93514561D01*
X107694978Y-93590987D01*
X107694979Y-93590990D01*
X107709411Y-93615986D01*
X107709411Y-93615987D01*
X107734537Y-93659507D01*
X107734538Y-93659508D01*
X107734540Y-93659511D01*
X108126572Y-94051543D01*
X108180546Y-94132322D01*
X108199500Y-94227610D01*
X108199500Y-95909187D01*
X108180546Y-96004475D01*
X108126570Y-96085257D01*
X108045788Y-96139233D01*
X107950500Y-96158187D01*
X107868263Y-96144215D01*
X107819847Y-96127274D01*
X107790264Y-96124500D01*
X107790256Y-96124500D01*
X107360822Y-96124500D01*
X107265534Y-96105546D01*
X107184752Y-96051570D01*
X107098430Y-95965248D01*
X107044454Y-95884466D01*
X107025500Y-95789178D01*
X107025500Y-88712861D01*
X107044454Y-88617573D01*
X107086318Y-88549801D01*
X107132882Y-88496063D01*
X107186697Y-88378226D01*
X107186697Y-88378224D01*
X107194095Y-88362026D01*
X107195033Y-88362454D01*
X107231618Y-88292515D01*
X107282885Y-88249668D01*
X107249430Y-88227315D01*
X107195454Y-88146533D01*
X107186796Y-88121992D01*
X107186697Y-88121775D01*
X107186697Y-88121774D01*
X107132882Y-88003937D01*
X107048049Y-87906033D01*
X107048046Y-87906031D01*
X107048043Y-87906028D01*
X106939074Y-87835998D01*
X106939063Y-87835993D01*
X106814773Y-87799500D01*
X106814772Y-87799500D01*
X106685228Y-87799500D01*
X106685227Y-87799500D01*
X106560936Y-87835993D01*
X106560925Y-87835998D01*
X106451956Y-87906028D01*
X106451952Y-87906032D01*
X106367119Y-88003935D01*
X106313303Y-88121773D01*
X106313303Y-88121774D01*
X106294867Y-88250000D01*
X106313303Y-88378225D01*
X106314412Y-88382001D01*
X106324500Y-88452159D01*
X106324500Y-91460889D01*
X106305546Y-91556177D01*
X106251570Y-91636959D01*
X106170788Y-91690935D01*
X106075500Y-91709889D01*
X105980212Y-91690935D01*
X105899430Y-91636959D01*
X105498430Y-91235959D01*
X105444454Y-91155177D01*
X105425500Y-91059889D01*
X105425500Y-90609742D01*
X105425499Y-90609735D01*
X105423793Y-90591540D01*
X105422725Y-90580151D01*
X105379116Y-90455525D01*
X105300711Y-90349289D01*
X105300709Y-90349287D01*
X105194474Y-90270883D01*
X105078706Y-90230374D01*
X105069849Y-90227275D01*
X105069848Y-90227274D01*
X105069846Y-90227274D01*
X105040264Y-90224500D01*
X105040256Y-90224500D01*
X104590111Y-90224500D01*
X104494823Y-90205546D01*
X104414041Y-90151570D01*
X103098430Y-88835959D01*
X103044454Y-88755177D01*
X103025500Y-88659889D01*
X103025500Y-87299500D01*
X103044454Y-87204212D01*
X103098430Y-87123430D01*
X103179212Y-87069454D01*
X103274500Y-87050500D01*
X103594745Y-87050500D01*
X103594748Y-87050500D01*
X103653231Y-87038867D01*
X103719552Y-86994552D01*
X103763867Y-86928231D01*
X103775500Y-86869748D01*
X103775500Y-85130252D01*
X103763867Y-85071769D01*
X103741980Y-85039014D01*
X103719554Y-85005451D01*
X103719552Y-85005448D01*
X103667235Y-84970490D01*
X103653232Y-84961133D01*
X103638610Y-84958224D01*
X103594748Y-84949500D01*
X103112259Y-84949500D01*
X103016971Y-84930546D01*
X102936189Y-84876570D01*
X102882213Y-84795788D01*
X102863259Y-84700500D01*
X102882213Y-84605212D01*
X102936189Y-84524430D01*
X103016971Y-84470454D01*
X103039979Y-84462222D01*
X103061868Y-84455582D01*
X103128954Y-84435232D01*
X103311450Y-84337685D01*
X103471410Y-84206410D01*
X103602685Y-84046450D01*
X103690521Y-83882122D01*
X103690522Y-83882121D01*
X103752157Y-83807019D01*
X103837841Y-83761221D01*
X103910120Y-83750500D01*
X105431952Y-83750500D01*
X105527240Y-83769454D01*
G37*
%TD.AperFunction*%
%TA.AperFunction,Conductor*%
G36*
X115067873Y-86789672D02*
G01*
X115142976Y-86851305D01*
X115188776Y-86936987D01*
X115199500Y-87009273D01*
X115199500Y-89184889D01*
X115180546Y-89280177D01*
X115126570Y-89360959D01*
X114335959Y-90151570D01*
X114255177Y-90205546D01*
X114159889Y-90224500D01*
X113709735Y-90224500D01*
X113680153Y-90227274D01*
X113555525Y-90270883D01*
X113449290Y-90349287D01*
X113449287Y-90349290D01*
X113370883Y-90455525D01*
X113327274Y-90580153D01*
X113324500Y-90609735D01*
X113324500Y-91147388D01*
X113305546Y-91242676D01*
X113251570Y-91323458D01*
X112225570Y-92349458D01*
X112144788Y-92403434D01*
X112049500Y-92422388D01*
X111954212Y-92403434D01*
X111873430Y-92349458D01*
X111819454Y-92268676D01*
X111800500Y-92173388D01*
X111800500Y-91780246D01*
X111819454Y-91684958D01*
X111873430Y-91604176D01*
X111933152Y-91560100D01*
X111944472Y-91554116D01*
X111944475Y-91554116D01*
X112050711Y-91475711D01*
X112129116Y-91369475D01*
X112172725Y-91244849D01*
X112175500Y-91215256D01*
X112175500Y-90765110D01*
X112194454Y-90669822D01*
X112248427Y-90589043D01*
X112990460Y-89847011D01*
X113030021Y-89778489D01*
X113050500Y-89702062D01*
X113050500Y-87622609D01*
X113069454Y-87527321D01*
X113123428Y-87446542D01*
X113583261Y-86986708D01*
X113664040Y-86932734D01*
X113759328Y-86913780D01*
X113831602Y-86924500D01*
X113999066Y-86975300D01*
X114205000Y-86995583D01*
X114410934Y-86975300D01*
X114608954Y-86915232D01*
X114791450Y-86817685D01*
X114792532Y-86816796D01*
X114793771Y-86816134D01*
X114801622Y-86810889D01*
X114802138Y-86811661D01*
X114878214Y-86770997D01*
X114974901Y-86761471D01*
X115067873Y-86789672D01*
G37*
%TD.AperFunction*%
%TA.AperFunction,Conductor*%
G36*
X116144788Y-86811688D02*
G01*
X116166871Y-86822133D01*
X116286170Y-86885900D01*
X116340574Y-86914980D01*
X116341046Y-86915232D01*
X116539066Y-86975300D01*
X116745000Y-86995583D01*
X116950934Y-86975300D01*
X117118392Y-86924502D01*
X117215076Y-86914980D01*
X117308048Y-86943183D01*
X117366740Y-86986711D01*
X117376570Y-86996541D01*
X117430546Y-87077323D01*
X117449500Y-87172611D01*
X117449500Y-89437389D01*
X117430546Y-89532677D01*
X117376570Y-89613459D01*
X116835959Y-90154070D01*
X116755177Y-90208046D01*
X116659889Y-90227000D01*
X116209735Y-90227000D01*
X116180153Y-90229774D01*
X116055525Y-90273383D01*
X115949290Y-90351787D01*
X115949287Y-90351790D01*
X115870883Y-90458025D01*
X115861011Y-90486238D01*
X115811647Y-90569918D01*
X115734018Y-90628338D01*
X115721284Y-90634037D01*
X115719014Y-90634977D01*
X115650489Y-90674539D01*
X115100569Y-91224459D01*
X115019788Y-91278435D01*
X114924500Y-91297389D01*
X114829212Y-91278435D01*
X114748430Y-91224458D01*
X114694454Y-91143677D01*
X114675500Y-91048389D01*
X114675500Y-90765110D01*
X114694454Y-90669822D01*
X114748427Y-90589043D01*
X115740460Y-89597011D01*
X115769615Y-89546512D01*
X115780021Y-89528489D01*
X115800500Y-89452062D01*
X115800500Y-87041734D01*
X115819454Y-86946446D01*
X115873430Y-86865664D01*
X115954212Y-86811688D01*
X116049500Y-86792734D01*
X116144788Y-86811688D01*
G37*
%TD.AperFunction*%
%TA.AperFunction,Conductor*%
G36*
X109988830Y-86817203D02*
G01*
X110057531Y-86885900D01*
X110094714Y-86975658D01*
X110099500Y-87024244D01*
X110099500Y-87372389D01*
X110080546Y-87467677D01*
X110026570Y-87548459D01*
X109915489Y-87659540D01*
X109915488Y-87659539D01*
X109859543Y-87715485D01*
X109859539Y-87715490D01*
X109819980Y-87784009D01*
X109819977Y-87784014D01*
X109799500Y-87860438D01*
X109799500Y-90045282D01*
X109780546Y-90140570D01*
X109726570Y-90221352D01*
X109645788Y-90275328D01*
X109550500Y-90294282D01*
X109462202Y-90276718D01*
X109462088Y-90277047D01*
X109459761Y-90276233D01*
X109455212Y-90275328D01*
X109449494Y-90272640D01*
X109337716Y-90233527D01*
X109319849Y-90227275D01*
X109319848Y-90227274D01*
X109319846Y-90227274D01*
X109290264Y-90224500D01*
X109290256Y-90224500D01*
X108709744Y-90224500D01*
X108709735Y-90224500D01*
X108680154Y-90227274D01*
X108606738Y-90252963D01*
X108510537Y-90266543D01*
X108416461Y-90242275D01*
X108338834Y-90183854D01*
X108289472Y-90100173D01*
X108275500Y-90017935D01*
X108275500Y-87092513D01*
X108294454Y-86997225D01*
X108348430Y-86916443D01*
X108429212Y-86862467D01*
X108524500Y-86843513D01*
X108619788Y-86862467D01*
X108641863Y-86872907D01*
X108702723Y-86905438D01*
X108720574Y-86914980D01*
X108721046Y-86915232D01*
X108919066Y-86975300D01*
X109125000Y-86995583D01*
X109330934Y-86975300D01*
X109528954Y-86915232D01*
X109711450Y-86817685D01*
X109711454Y-86817681D01*
X109712156Y-86817213D01*
X109712941Y-86816887D01*
X109722237Y-86811919D01*
X109722726Y-86812834D01*
X109801914Y-86780030D01*
X109899069Y-86780027D01*
X109988830Y-86817203D01*
G37*
%TD.AperFunction*%
%TA.AperFunction,Conductor*%
G36*
X112373407Y-86835191D02*
G01*
X112459091Y-86880989D01*
X112520726Y-86956091D01*
X112548929Y-87049062D01*
X112539407Y-87145749D01*
X112516769Y-87197969D01*
X112509541Y-87210487D01*
X112509540Y-87210489D01*
X112495729Y-87234411D01*
X112469979Y-87279011D01*
X112469977Y-87279014D01*
X112449500Y-87355438D01*
X112449500Y-89434889D01*
X112430546Y-89530177D01*
X112376570Y-89610959D01*
X111835959Y-90151570D01*
X111755177Y-90205546D01*
X111659889Y-90224500D01*
X111209735Y-90224500D01*
X111180153Y-90227274D01*
X111180152Y-90227274D01*
X111131737Y-90244215D01*
X111035535Y-90257795D01*
X110941460Y-90233527D01*
X110863833Y-90175105D01*
X110814472Y-90091424D01*
X110800500Y-90009187D01*
X110800500Y-88293296D01*
X110819454Y-88198008D01*
X110873427Y-88117229D01*
X111240460Y-87750197D01*
X111280022Y-87681674D01*
X111300500Y-87605248D01*
X111300500Y-87526124D01*
X111300500Y-87234411D01*
X111319454Y-87139123D01*
X111373430Y-87058341D01*
X111454212Y-87004365D01*
X111549500Y-86985411D01*
X111573884Y-86986608D01*
X111665000Y-86995583D01*
X111870934Y-86975300D01*
X112068954Y-86915232D01*
X112183750Y-86853871D01*
X112276720Y-86825669D01*
X112373407Y-86835191D01*
G37*
%TD.AperFunction*%
%TD*%
%TA.AperFunction,Conductor*%
%TO.N,GND*%
G36*
X119592539Y-104169685D02*
G01*
X119638294Y-104222489D01*
X119649500Y-104274000D01*
X119649500Y-111526000D01*
X119629815Y-111593039D01*
X119577011Y-111638794D01*
X119525500Y-111650000D01*
X100549500Y-111650000D01*
X100482461Y-111630315D01*
X100436706Y-111577511D01*
X100425500Y-111526000D01*
X100425500Y-109740037D01*
X100425499Y-109740034D01*
X100406394Y-109693910D01*
X100386817Y-109674333D01*
X100353333Y-109613009D01*
X100350500Y-109586653D01*
X100350500Y-106178346D01*
X100370185Y-106111307D01*
X100386819Y-106090665D01*
X100406394Y-106071090D01*
X100425500Y-106024964D01*
X100425500Y-104274000D01*
X100445185Y-104206961D01*
X100497989Y-104161206D01*
X100549500Y-104150000D01*
X119525500Y-104150000D01*
X119592539Y-104169685D01*
G37*
%TD.AperFunction*%
%TD*%
%TA.AperFunction,Conductor*%
%TO.N,/RF REF*%
G36*
X117953501Y-114221949D02*
G01*
X117955670Y-114222345D01*
X118048712Y-114248565D01*
X118050722Y-114249339D01*
X118128741Y-114287985D01*
X118130249Y-114288879D01*
X118197568Y-114336050D01*
X118198429Y-114336716D01*
X118259154Y-114388477D01*
X118259384Y-114388678D01*
X118317406Y-114440810D01*
X118317407Y-114440811D01*
X118376443Y-114488780D01*
X118376454Y-114488788D01*
X118412433Y-114510980D01*
X118440520Y-114528305D01*
X118466776Y-114537929D01*
X118513672Y-114555119D01*
X118513677Y-114555120D01*
X118600000Y-114565000D01*
X119089620Y-114565000D01*
X119097893Y-114568427D01*
X119101237Y-114575306D01*
X119123832Y-114763606D01*
X119123832Y-114766394D01*
X119101237Y-114954694D01*
X119096849Y-114962500D01*
X119089620Y-114965000D01*
X118599997Y-114965000D01*
X118513677Y-114974878D01*
X118513672Y-114974879D01*
X118440524Y-115001692D01*
X118440514Y-115001697D01*
X118376454Y-115041210D01*
X118376443Y-115041218D01*
X118317407Y-115089187D01*
X118317406Y-115089188D01*
X118259384Y-115141320D01*
X118259154Y-115141521D01*
X118198437Y-115193276D01*
X118197561Y-115193954D01*
X118130255Y-115241115D01*
X118128734Y-115242017D01*
X118050727Y-115280657D01*
X118048708Y-115281434D01*
X117955670Y-115307653D01*
X117953501Y-115308049D01*
X117851142Y-115316874D01*
X117842605Y-115314170D01*
X117838537Y-115306747D01*
X117835198Y-115281434D01*
X117767276Y-114766523D01*
X117767276Y-114763476D01*
X117838537Y-114223250D01*
X117843017Y-114215498D01*
X117851140Y-114213125D01*
X117953501Y-114221949D01*
G37*
%TD.AperFunction*%
%TD*%
%TA.AperFunction,Conductor*%
%TO.N,Net-(U1-RF_OUT)*%
G36*
X113305359Y-100428699D02*
G01*
X113309518Y-100436156D01*
X113386035Y-100998422D01*
X113386035Y-101001578D01*
X113309518Y-101563843D01*
X113305007Y-101571578D01*
X113296793Y-101573910D01*
X113176803Y-101562242D01*
X113174351Y-101561735D01*
X113068064Y-101527535D01*
X113065830Y-101526548D01*
X112977856Y-101476126D01*
X112976248Y-101475016D01*
X112901305Y-101413460D01*
X112900421Y-101412655D01*
X112833487Y-101345123D01*
X112833261Y-101344889D01*
X112769534Y-101276914D01*
X112704328Y-101214360D01*
X112632693Y-101162841D01*
X112632683Y-101162836D01*
X112549599Y-101127881D01*
X112549591Y-101127879D01*
X112450005Y-101115000D01*
X112450000Y-101115000D01*
X112060380Y-101115000D01*
X112052107Y-101111573D01*
X112048763Y-101104694D01*
X112036367Y-101001394D01*
X112036367Y-100998606D01*
X112048763Y-100895306D01*
X112053151Y-100887500D01*
X112060380Y-100885000D01*
X112450005Y-100885000D01*
X112512246Y-100876950D01*
X112549594Y-100872120D01*
X112632691Y-100837160D01*
X112704327Y-100785640D01*
X112769539Y-100723080D01*
X112833290Y-100655079D01*
X112833452Y-100654911D01*
X112900428Y-100587336D01*
X112901297Y-100586546D01*
X112976251Y-100524979D01*
X112977852Y-100523874D01*
X113065834Y-100473449D01*
X113068059Y-100472465D01*
X113174361Y-100438261D01*
X113176794Y-100437758D01*
X113296794Y-100426089D01*
X113305359Y-100428699D01*
G37*
%TD.AperFunction*%
%TD*%
%TA.AperFunction,Conductor*%
%TO.N,/RF IN*%
G36*
X102307404Y-100428662D02*
G01*
X102311468Y-100436076D01*
X102386046Y-100998462D01*
X102386046Y-101001538D01*
X102311468Y-101563923D01*
X102306984Y-101571674D01*
X102298868Y-101574042D01*
X102189005Y-101564594D01*
X102186847Y-101564202D01*
X102087551Y-101536291D01*
X102085545Y-101535521D01*
X102002273Y-101494389D01*
X102000755Y-101493490D01*
X101928937Y-101443320D01*
X101928061Y-101442645D01*
X101863246Y-101387574D01*
X101863065Y-101387416D01*
X101801186Y-101332000D01*
X101738222Y-101280999D01*
X101738220Y-101280998D01*
X101738218Y-101280996D01*
X101738216Y-101280995D01*
X101669933Y-101239002D01*
X101669924Y-101238998D01*
X101591964Y-101210499D01*
X101500008Y-101200000D01*
X101500000Y-101200000D01*
X101010380Y-101200000D01*
X101002107Y-101196573D01*
X100998763Y-101189694D01*
X100976185Y-101001538D01*
X100976167Y-101001391D01*
X100976167Y-100998606D01*
X100976185Y-100998462D01*
X100998763Y-100810305D01*
X101003151Y-100802500D01*
X101010380Y-100800000D01*
X101499997Y-100800000D01*
X101500000Y-100800000D01*
X101591967Y-100789500D01*
X101669929Y-100761000D01*
X101738222Y-100719000D01*
X101801186Y-100668000D01*
X101863133Y-100612522D01*
X101863191Y-100612472D01*
X101928075Y-100557342D01*
X101928922Y-100556690D01*
X102000766Y-100506501D01*
X102002268Y-100505611D01*
X102085549Y-100464476D01*
X102087553Y-100463708D01*
X102186847Y-100435797D01*
X102188999Y-100435406D01*
X102298868Y-100425957D01*
X102307404Y-100428662D01*
G37*
%TD.AperFunction*%
%TD*%
%TA.AperFunction,Conductor*%
%TO.N,GND*%
G36*
X119592539Y-117919685D02*
G01*
X119638294Y-117972489D01*
X119649500Y-118024000D01*
X119649500Y-128275500D01*
X119629815Y-128342539D01*
X119577011Y-128388294D01*
X119525500Y-128399500D01*
X100474500Y-128399500D01*
X100407461Y-128379815D01*
X100361706Y-128327011D01*
X100350500Y-128275500D01*
X100350500Y-125374994D01*
X101000000Y-125374994D01*
X101000000Y-125375005D01*
X101019711Y-125688322D01*
X101019712Y-125688326D01*
X101019712Y-125688330D01*
X101019713Y-125688333D01*
X101078542Y-125996725D01*
X101175559Y-126295311D01*
X101309233Y-126579384D01*
X101309234Y-126579385D01*
X101477460Y-126844466D01*
X101677576Y-127086366D01*
X101906438Y-127301281D01*
X101906448Y-127301290D01*
X102160421Y-127485812D01*
X102160439Y-127485824D01*
X102363001Y-127597182D01*
X102435552Y-127637068D01*
X102727458Y-127752641D01*
X103031547Y-127830718D01*
X103031549Y-127830718D01*
X103031552Y-127830719D01*
X103343012Y-127870066D01*
X103343021Y-127870066D01*
X103343024Y-127870067D01*
X103343026Y-127870067D01*
X103656974Y-127870067D01*
X103656976Y-127870067D01*
X103656979Y-127870066D01*
X103656987Y-127870066D01*
X103968447Y-127830719D01*
X103968448Y-127830718D01*
X103968453Y-127830718D01*
X104272542Y-127752641D01*
X104564448Y-127637068D01*
X104839567Y-127485820D01*
X104843919Y-127482657D01*
X105093551Y-127301290D01*
X105093553Y-127301287D01*
X105093560Y-127301283D01*
X105322422Y-127086368D01*
X105522542Y-126844463D01*
X105690767Y-126579384D01*
X105824441Y-126295311D01*
X105921458Y-125996725D01*
X105980287Y-125688333D01*
X106000000Y-125375000D01*
X106000000Y-125374994D01*
X114000000Y-125374994D01*
X114000000Y-125375005D01*
X114019711Y-125688322D01*
X114019712Y-125688326D01*
X114019712Y-125688330D01*
X114019713Y-125688333D01*
X114078542Y-125996725D01*
X114175559Y-126295311D01*
X114309233Y-126579384D01*
X114309234Y-126579385D01*
X114477460Y-126844466D01*
X114677576Y-127086366D01*
X114906438Y-127301281D01*
X114906448Y-127301290D01*
X115160421Y-127485812D01*
X115160439Y-127485824D01*
X115363001Y-127597182D01*
X115435552Y-127637068D01*
X115727458Y-127752641D01*
X116031547Y-127830718D01*
X116031549Y-127830718D01*
X116031552Y-127830719D01*
X116343012Y-127870066D01*
X116343021Y-127870066D01*
X116343024Y-127870067D01*
X116343026Y-127870067D01*
X116656974Y-127870067D01*
X116656976Y-127870067D01*
X116656979Y-127870066D01*
X116656987Y-127870066D01*
X116968447Y-127830719D01*
X116968448Y-127830718D01*
X116968453Y-127830718D01*
X117272542Y-127752641D01*
X117564448Y-127637068D01*
X117839567Y-127485820D01*
X117843919Y-127482657D01*
X118093551Y-127301290D01*
X118093553Y-127301287D01*
X118093560Y-127301283D01*
X118322422Y-127086368D01*
X118522542Y-126844463D01*
X118690767Y-126579384D01*
X118824441Y-126295311D01*
X118921458Y-125996725D01*
X118980287Y-125688333D01*
X119000000Y-125375000D01*
X118980287Y-125061667D01*
X118921458Y-124753275D01*
X118824441Y-124454689D01*
X118690767Y-124170616D01*
X118522542Y-123905537D01*
X118322422Y-123663632D01*
X118093560Y-123448717D01*
X118093559Y-123448716D01*
X118093551Y-123448709D01*
X117839578Y-123264187D01*
X117839560Y-123264175D01*
X117564452Y-123112934D01*
X117564439Y-123112928D01*
X117272546Y-122997360D01*
X116968447Y-122919280D01*
X116656987Y-122879933D01*
X116656976Y-122879933D01*
X116343024Y-122879933D01*
X116343012Y-122879933D01*
X116031552Y-122919280D01*
X115727453Y-122997360D01*
X115435560Y-123112928D01*
X115435547Y-123112934D01*
X115160439Y-123264175D01*
X115160421Y-123264187D01*
X114906448Y-123448709D01*
X114906438Y-123448718D01*
X114677576Y-123663633D01*
X114477460Y-123905533D01*
X114309234Y-124170614D01*
X114309233Y-124170616D01*
X114175559Y-124454689D01*
X114078542Y-124753275D01*
X114019713Y-125061667D01*
X114019712Y-125061673D01*
X114019711Y-125061677D01*
X114000000Y-125374994D01*
X106000000Y-125374994D01*
X105980287Y-125061667D01*
X105921458Y-124753275D01*
X105824441Y-124454689D01*
X105690767Y-124170616D01*
X105522542Y-123905537D01*
X105322422Y-123663632D01*
X105093560Y-123448717D01*
X105093559Y-123448716D01*
X105093551Y-123448709D01*
X104839578Y-123264187D01*
X104839560Y-123264175D01*
X104564452Y-123112934D01*
X104564439Y-123112928D01*
X104272546Y-122997360D01*
X103968447Y-122919280D01*
X103656987Y-122879933D01*
X103656976Y-122879933D01*
X103343024Y-122879933D01*
X103343012Y-122879933D01*
X103031552Y-122919280D01*
X102727453Y-122997360D01*
X102435560Y-123112928D01*
X102435547Y-123112934D01*
X102160439Y-123264175D01*
X102160421Y-123264187D01*
X101906448Y-123448709D01*
X101906438Y-123448718D01*
X101677576Y-123663633D01*
X101477460Y-123905533D01*
X101309234Y-124170614D01*
X101309233Y-124170616D01*
X101175559Y-124454689D01*
X101078542Y-124753275D01*
X101019713Y-125061667D01*
X101019712Y-125061673D01*
X101019711Y-125061677D01*
X101000000Y-125374994D01*
X100350500Y-125374994D01*
X100350500Y-119943346D01*
X100370185Y-119876307D01*
X100386819Y-119855665D01*
X100406394Y-119836090D01*
X100425500Y-119789964D01*
X100425500Y-118024000D01*
X100445185Y-117956961D01*
X100497989Y-117911206D01*
X100549500Y-117900000D01*
X119525500Y-117900000D01*
X119592539Y-117919685D01*
G37*
%TD.AperFunction*%
%TD*%
%TA.AperFunction,Conductor*%
%TO.N,Net-(U1-RF_IN)*%
G36*
X106923202Y-100437758D02*
G01*
X106925639Y-100438262D01*
X107031935Y-100472464D01*
X107034168Y-100473451D01*
X107122142Y-100523873D01*
X107123750Y-100524983D01*
X107198693Y-100586539D01*
X107199577Y-100587344D01*
X107266511Y-100654876D01*
X107266736Y-100655110D01*
X107330455Y-100723075D01*
X107395674Y-100785641D01*
X107467298Y-100837154D01*
X107467304Y-100837157D01*
X107467308Y-100837160D01*
X107467314Y-100837162D01*
X107467315Y-100837163D01*
X107550399Y-100872118D01*
X107550402Y-100872118D01*
X107550405Y-100872120D01*
X107578860Y-100875800D01*
X107649995Y-100885000D01*
X107650000Y-100885000D01*
X108039620Y-100885000D01*
X108047893Y-100888427D01*
X108051237Y-100895306D01*
X108063632Y-100998606D01*
X108063632Y-101001394D01*
X108051237Y-101104694D01*
X108046849Y-101112500D01*
X108039620Y-101115000D01*
X107649995Y-101115000D01*
X107550407Y-101127879D01*
X107550399Y-101127881D01*
X107467315Y-101162836D01*
X107467305Y-101162841D01*
X107395670Y-101214361D01*
X107330454Y-101276924D01*
X107266736Y-101344889D01*
X107266511Y-101345123D01*
X107199577Y-101412655D01*
X107198693Y-101413460D01*
X107123750Y-101475015D01*
X107122142Y-101476125D01*
X107034168Y-101526548D01*
X107031934Y-101527535D01*
X106925647Y-101561735D01*
X106923195Y-101562242D01*
X106803206Y-101573910D01*
X106794640Y-101571300D01*
X106790481Y-101563844D01*
X106713964Y-101001572D01*
X106713964Y-100998427D01*
X106790482Y-100436154D01*
X106794992Y-100428421D01*
X106803204Y-100426089D01*
X106923202Y-100437758D01*
G37*
%TD.AperFunction*%
%TD*%
%TA.AperFunction,Conductor*%
%TO.N,/RF REF*%
G36*
X102257394Y-114215829D02*
G01*
X102261462Y-114223252D01*
X102332723Y-114763470D01*
X102332723Y-114766530D01*
X102261462Y-115306747D01*
X102256982Y-115314501D01*
X102248857Y-115316874D01*
X102146497Y-115308049D01*
X102144328Y-115307653D01*
X102051290Y-115281434D01*
X102049271Y-115280657D01*
X101971264Y-115242017D01*
X101969743Y-115241115D01*
X101902437Y-115193954D01*
X101901561Y-115193276D01*
X101840844Y-115141521D01*
X101840614Y-115141320D01*
X101782592Y-115089188D01*
X101782591Y-115089187D01*
X101723555Y-115041218D01*
X101723544Y-115041210D01*
X101659484Y-115001697D01*
X101659483Y-115001696D01*
X101659479Y-115001694D01*
X101659474Y-115001692D01*
X101586326Y-114974879D01*
X101586321Y-114974878D01*
X101500002Y-114965000D01*
X101500000Y-114965000D01*
X101010380Y-114965000D01*
X101002107Y-114961573D01*
X100998763Y-114954694D01*
X100976184Y-114766530D01*
X100976167Y-114766391D01*
X100976167Y-114763606D01*
X100976184Y-114763470D01*
X100998763Y-114575305D01*
X101003151Y-114567500D01*
X101010380Y-114565000D01*
X101500000Y-114565000D01*
X101586322Y-114555120D01*
X101586323Y-114555119D01*
X101586326Y-114555119D01*
X101612578Y-114545495D01*
X101659479Y-114528305D01*
X101723546Y-114488787D01*
X101782602Y-114440802D01*
X101840656Y-114388641D01*
X101840797Y-114388517D01*
X101901579Y-114336708D01*
X101902419Y-114336057D01*
X101969755Y-114288875D01*
X101971251Y-114287988D01*
X102049279Y-114249337D01*
X102051282Y-114248566D01*
X102144330Y-114222344D01*
X102146495Y-114221949D01*
X102248858Y-114213125D01*
X102257394Y-114215829D01*
G37*
%TD.AperFunction*%
%TD*%
M02*
