%TF.GenerationSoftware,KiCad,Pcbnew,8.0.9*%
%TF.CreationDate,2025-09-03T00:10:18+02:00*%
%TF.ProjectId,Phase_shifter_test_board,50686173-655f-4736-9869-667465725f74,rev?*%
%TF.SameCoordinates,Original*%
%TF.FileFunction,Copper,L1,Top*%
%TF.FilePolarity,Positive*%
%FSLAX46Y46*%
G04 Gerber Fmt 4.6, Leading zero omitted, Abs format (unit mm)*
G04 Created by KiCad (PCBNEW 8.0.9) date 2025-09-03 00:10:18*
%MOMM*%
%LPD*%
G01*
G04 APERTURE LIST*
G04 Aperture macros list*
%AMRoundRect*
0 Rectangle with rounded corners*
0 $1 Rounding radius*
0 $2 $3 $4 $5 $6 $7 $8 $9 X,Y pos of 4 corners*
0 Add a 4 corners polygon primitive as box body*
4,1,4,$2,$3,$4,$5,$6,$7,$8,$9,$2,$3,0*
0 Add four circle primitives for the rounded corners*
1,1,$1+$1,$2,$3*
1,1,$1+$1,$4,$5*
1,1,$1+$1,$6,$7*
1,1,$1+$1,$8,$9*
0 Add four rect primitives between the rounded corners*
20,1,$1+$1,$2,$3,$4,$5,0*
20,1,$1+$1,$4,$5,$6,$7,0*
20,1,$1+$1,$6,$7,$8,$9,0*
20,1,$1+$1,$8,$9,$2,$3,0*%
G04 Aperture macros list end*
%TA.AperFunction,SMDPad,CuDef*%
%ADD10RoundRect,0.237500X-0.237500X0.300000X-0.237500X-0.300000X0.237500X-0.300000X0.237500X0.300000X0*%
%TD*%
%TA.AperFunction,SMDPad,CuDef*%
%ADD11R,1.000000X0.400000*%
%TD*%
%TA.AperFunction,ComponentPad*%
%ADD12C,2.500000*%
%TD*%
%TA.AperFunction,SMDPad,CuDef*%
%ADD13O,0.800000X0.230000*%
%TD*%
%TA.AperFunction,SMDPad,CuDef*%
%ADD14O,0.230000X0.800000*%
%TD*%
%TA.AperFunction,SMDPad,CuDef*%
%ADD15R,2.500000X2.500000*%
%TD*%
%TA.AperFunction,SMDPad,CuDef*%
%ADD16R,1.000000X2.510000*%
%TD*%
%TA.AperFunction,SMDPad,CuDef*%
%ADD17RoundRect,0.237500X-0.237500X0.250000X-0.237500X-0.250000X0.237500X-0.250000X0.237500X0.250000X0*%
%TD*%
%TA.AperFunction,Conductor*%
%ADD18C,0.200000*%
%TD*%
%TA.AperFunction,Conductor*%
%ADD19C,0.880000*%
%TD*%
G04 APERTURE END LIST*
D10*
%TO.P,C2,1*%
%TO.N,VCC*%
X155800000Y-88137500D03*
%TO.P,C2,2*%
%TO.N,GND*%
X155800000Y-89862500D03*
%TD*%
D11*
%TO.P,J2,1,Signal*%
%TO.N,/RF OUT*%
X164950000Y-95150000D03*
D12*
%TO.P,J2,2,Shield*%
%TO.N,GND*%
X162750000Y-90385000D03*
X162750000Y-99915000D03*
%TD*%
D10*
%TO.P,C1,1*%
%TO.N,VEE*%
X146000000Y-88337500D03*
%TO.P,C1,2*%
%TO.N,GND*%
X146000000Y-90062500D03*
%TD*%
D11*
%TO.P,J1,1,Signal*%
%TO.N,/RF IN*%
X135650000Y-95150000D03*
D12*
%TO.P,J1,2,Shield*%
%TO.N,GND*%
X137850000Y-99915000D03*
X137850000Y-90385000D03*
%TD*%
D13*
%TO.P,U1,1,VEE*%
%TO.N,VEE*%
X148300000Y-93150000D03*
%TO.P,U1,2,P/S*%
%TO.N,/P{slash}S*%
X148300000Y-93650000D03*
%TO.P,U1,3,GND*%
%TO.N,GND*%
X148300000Y-94150000D03*
%TO.P,U1,4,GND*%
X148300000Y-94650000D03*
%TO.P,U1,5,RF_IN*%
%TO.N,/RF IN*%
X148300000Y-95150000D03*
%TO.P,U1,6,GND*%
%TO.N,GND*%
X148300000Y-95650000D03*
D14*
%TO.P,U1,7,GND*%
X149050000Y-96400000D03*
%TO.P,U1,8,GND*%
X149550000Y-96400000D03*
%TO.P,U1,9,GND*%
X150050000Y-96400000D03*
D15*
%TO.P,U1,10,GND*%
X150300000Y-94400000D03*
D14*
X150550000Y-96400000D03*
%TO.P,U1,11,GND*%
X151050000Y-96400000D03*
%TO.P,U1,12,GND*%
X151550000Y-96400000D03*
D13*
%TO.P,U1,13,GND*%
X152300000Y-95650000D03*
%TO.P,U1,14,RF_OUT*%
%TO.N,/RF OUT*%
X152300000Y-95150000D03*
%TO.P,U1,15,GND*%
%TO.N,GND*%
X152300000Y-94650000D03*
%TO.P,U1,16,GND*%
X152300000Y-94150000D03*
%TO.P,U1,17,SER_OUT*%
%TO.N,/SER OUT*%
X152300000Y-93650000D03*
%TO.P,U1,18,VCC*%
%TO.N,VCC*%
X152300000Y-93150000D03*
D14*
%TO.P,U1,19,D6*%
%TO.N,/D6*%
X151550000Y-92400000D03*
%TO.P,U1,20,D5*%
%TO.N,/D5*%
X151050000Y-92400000D03*
%TO.P,U1,21,D4*%
%TO.N,/D4*%
X150550000Y-92400000D03*
%TO.P,U1,22,D3/LE*%
%TO.N,/LE*%
X150050000Y-92400000D03*
%TO.P,U1,23,D2/CLK*%
%TO.N,/CLK*%
X149550000Y-92400000D03*
%TO.P,U1,24,D1/SER_IN*%
%TO.N,/SER IN*%
X149050000Y-92400000D03*
%TD*%
D16*
%TO.P,J3,1,Pin_1*%
%TO.N,GND*%
X138570000Y-84455000D03*
%TO.P,J3,2,Pin_2*%
%TO.N,VCC*%
X141110000Y-81145000D03*
%TO.P,J3,3,Pin_3*%
%TO.N,VEE*%
X143650000Y-84455000D03*
%TO.P,J3,4,Pin_4*%
%TO.N,/SER IN*%
X146190000Y-81145000D03*
%TO.P,J3,5,Pin_5*%
%TO.N,/CLK*%
X148730000Y-84455000D03*
%TO.P,J3,6,Pin_6*%
%TO.N,/LE*%
X151270000Y-81145000D03*
%TO.P,J3,7,Pin_7*%
%TO.N,/D4*%
X153810000Y-84455000D03*
%TO.P,J3,8,Pin_8*%
%TO.N,/D5*%
X156350000Y-81145000D03*
%TO.P,J3,9,Pin_9*%
%TO.N,/D6*%
X158890000Y-84455000D03*
%TO.P,J3,10,Pin_10*%
%TO.N,/SER OUT*%
X161430000Y-81145000D03*
%TD*%
D17*
%TO.P,R1,1*%
%TO.N,VCC*%
X142800000Y-88287500D03*
%TO.P,R1,2*%
%TO.N,/P{slash}S*%
X142800000Y-90112500D03*
%TD*%
D18*
%TO.N,VEE*%
X146000000Y-88337500D02*
X147000000Y-89337500D01*
X143650000Y-85987500D02*
X146000000Y-88337500D01*
X147000000Y-92434314D02*
X147715686Y-93150000D01*
X147000000Y-89337500D02*
X147000000Y-92434314D01*
X143650000Y-84455000D02*
X143650000Y-85987500D01*
X147715686Y-93150000D02*
X148300000Y-93150000D01*
%TO.N,GND*%
X138570000Y-84455000D02*
X138570000Y-89665000D01*
X162227500Y-89862500D02*
X162750000Y-90385000D01*
X155800000Y-89862500D02*
X162227500Y-89862500D01*
X145137500Y-89200000D02*
X139035000Y-89200000D01*
X139035000Y-89200000D02*
X137850000Y-90385000D01*
X138570000Y-89665000D02*
X137850000Y-90385000D01*
X146000000Y-90062500D02*
X145137500Y-89200000D01*
%TO.N,VCC*%
X141110000Y-81145000D02*
X141110000Y-86597500D01*
X155800000Y-88137500D02*
X158362500Y-88137500D01*
X141110000Y-86597500D02*
X142800000Y-88287500D01*
X141500000Y-79000000D02*
X141110000Y-79390000D01*
X160000000Y-79500000D02*
X159500000Y-79000000D01*
X153500000Y-92500000D02*
X153500000Y-89500000D01*
X152850000Y-93150000D02*
X153500000Y-92500000D01*
X160000000Y-86500000D02*
X160000000Y-79500000D01*
X158362500Y-88137500D02*
X160000000Y-86500000D01*
X141110000Y-79390000D02*
X141110000Y-81145000D01*
X152300000Y-93150000D02*
X152850000Y-93150000D01*
X159500000Y-79000000D02*
X141500000Y-79000000D01*
X153500000Y-89500000D02*
X154862500Y-88137500D01*
X154862500Y-88137500D02*
X155800000Y-88137500D01*
%TO.N,/P{slash}S*%
X142800000Y-90112500D02*
X144187500Y-91500000D01*
X145500000Y-91500000D02*
X147650000Y-93650000D01*
X147650000Y-93650000D02*
X148300000Y-93650000D01*
X144187500Y-91500000D02*
X145500000Y-91500000D01*
%TO.N,/D5*%
X156350000Y-84270000D02*
X151050000Y-89570000D01*
X151050000Y-89570000D02*
X151050000Y-92400000D01*
X156350000Y-81145000D02*
X156350000Y-84270000D01*
D19*
%TO.N,/RF IN*%
X147050000Y-95150000D02*
X137850000Y-95150000D01*
D18*
%TO.N,/CLK*%
X148730000Y-84455000D02*
X148730000Y-87230000D01*
X149550000Y-88050000D02*
X149550000Y-92400000D01*
X148730000Y-87230000D02*
X149550000Y-88050000D01*
D19*
%TO.N,/RF OUT*%
X162700000Y-95150000D02*
X153500000Y-95150000D01*
D18*
%TO.N,/SER IN*%
X146190000Y-86190000D02*
X149050000Y-89050000D01*
X149050000Y-89050000D02*
X149050000Y-92400000D01*
X146190000Y-81145000D02*
X146190000Y-86190000D01*
%TO.N,/SER OUT*%
X152915686Y-93650000D02*
X154065686Y-92500000D01*
X154065686Y-89934314D02*
X155025000Y-88975000D01*
X154065686Y-92500000D02*
X154065686Y-89934314D01*
X155025000Y-88975000D02*
X158090686Y-88975000D01*
X158090686Y-88975000D02*
X161430000Y-85635686D01*
X152300000Y-93650000D02*
X152915686Y-93650000D01*
X161430000Y-85635686D02*
X161430000Y-81145000D01*
%TO.N,/D4*%
X150550000Y-88470000D02*
X150550000Y-92400000D01*
X153810000Y-85210000D02*
X150550000Y-88470000D01*
X153810000Y-84455000D02*
X153810000Y-85210000D01*
%TO.N,/LE*%
X151270000Y-86730000D02*
X150050000Y-87950000D01*
X150050000Y-87950000D02*
X150050000Y-92400000D01*
X151270000Y-81145000D02*
X151270000Y-86730000D01*
%TO.N,/D6*%
X151550000Y-90450000D02*
X151550000Y-92400000D01*
X157545000Y-84455000D02*
X151550000Y-90450000D01*
X158890000Y-84455000D02*
X157545000Y-84455000D01*
%TD*%
%TA.AperFunction,Conductor*%
%TO.N,/RF OUT*%
G36*
X153505468Y-94713628D02*
G01*
X153509446Y-94720976D01*
X153565798Y-95148471D01*
X153565798Y-95151529D01*
X153509446Y-95579023D01*
X153504967Y-95586777D01*
X153496958Y-95589160D01*
X153389344Y-95580973D01*
X153387434Y-95580667D01*
X153289035Y-95556429D01*
X153287225Y-95555823D01*
X153203895Y-95520114D01*
X153202482Y-95519392D01*
X153129960Y-95475861D01*
X153129114Y-95475302D01*
X153063283Y-95427578D01*
X153063056Y-95427409D01*
X153000080Y-95379391D01*
X153000064Y-95379380D01*
X152936261Y-95335203D01*
X152936260Y-95335202D01*
X152898741Y-95315299D01*
X152867639Y-95298800D01*
X152867636Y-95298799D01*
X152790232Y-95274101D01*
X152790224Y-95274099D01*
X152722796Y-95267299D01*
X152700000Y-95265000D01*
X152699998Y-95265000D01*
X152310380Y-95265000D01*
X152302107Y-95261573D01*
X152298763Y-95254694D01*
X152286367Y-95151394D01*
X152286367Y-95148606D01*
X152298763Y-95045306D01*
X152303151Y-95037500D01*
X152310380Y-95035000D01*
X152699991Y-95035000D01*
X152700000Y-95035000D01*
X152790228Y-95025900D01*
X152867639Y-95001200D01*
X152936253Y-94964800D01*
X152936259Y-94964796D01*
X152936261Y-94964795D01*
X152966040Y-94944175D01*
X153000092Y-94920600D01*
X153063096Y-94872559D01*
X153063246Y-94872447D01*
X153129117Y-94824695D01*
X153129954Y-94824143D01*
X153202485Y-94780605D01*
X153203889Y-94779886D01*
X153287236Y-94744172D01*
X153289024Y-94743573D01*
X153387440Y-94719331D01*
X153389337Y-94719026D01*
X153496960Y-94710839D01*
X153505468Y-94713628D01*
G37*
%TD.AperFunction*%
%TD*%
%TA.AperFunction,Conductor*%
%TO.N,GND*%
G36*
X140043039Y-88919685D02*
G01*
X140088794Y-88972489D01*
X140100000Y-89024000D01*
X140100000Y-91776000D01*
X140080315Y-91843039D01*
X140027511Y-91888794D01*
X139976000Y-91900000D01*
X135724000Y-91900000D01*
X135656961Y-91880315D01*
X135611206Y-91827511D01*
X135600000Y-91776000D01*
X135600000Y-89024000D01*
X135619685Y-88956961D01*
X135672489Y-88911206D01*
X135724000Y-88900000D01*
X139976000Y-88900000D01*
X140043039Y-88919685D01*
G37*
%TD.AperFunction*%
%TD*%
%TA.AperFunction,Conductor*%
%TO.N,/RF OUT*%
G36*
X162936784Y-94716711D02*
G01*
X162937465Y-94716750D01*
X163149804Y-94734931D01*
X163150477Y-94735008D01*
X163335659Y-94761799D01*
X163336184Y-94761888D01*
X163501188Y-94794446D01*
X163501528Y-94794519D01*
X163653263Y-94830000D01*
X163683843Y-94837478D01*
X163798499Y-94865519D01*
X163902905Y-94888949D01*
X163943945Y-94898159D01*
X164020190Y-94911599D01*
X164096435Y-94925040D01*
X164179635Y-94934160D01*
X164262835Y-94943280D01*
X164262834Y-94943280D01*
X164449987Y-94950000D01*
X164450000Y-94950000D01*
X164939620Y-94950000D01*
X164947893Y-94953427D01*
X164951237Y-94960306D01*
X164973832Y-95148606D01*
X164973832Y-95151394D01*
X164951237Y-95339694D01*
X164946849Y-95347500D01*
X164939620Y-95350000D01*
X164449987Y-95350000D01*
X164262835Y-95356719D01*
X164096435Y-95374959D01*
X163943946Y-95401839D01*
X163798499Y-95434480D01*
X163653366Y-95469974D01*
X163653251Y-95470002D01*
X163501558Y-95505473D01*
X163501159Y-95505559D01*
X163336215Y-95538104D01*
X163335625Y-95538204D01*
X163150479Y-95564990D01*
X163149802Y-95565068D01*
X162937464Y-95583249D01*
X162936784Y-95583288D01*
X162700586Y-95589712D01*
X162692223Y-95586511D01*
X162688662Y-95579494D01*
X162634187Y-95151469D01*
X162634187Y-95148530D01*
X162688663Y-94720504D01*
X162693106Y-94712732D01*
X162700583Y-94710287D01*
X162936784Y-94716711D01*
G37*
%TD.AperFunction*%
%TD*%
%TA.AperFunction,Conductor*%
%TO.N,GND*%
G36*
X149504169Y-93000500D02*
G01*
X149508464Y-93000500D01*
X149595831Y-93000500D01*
X149603460Y-93000000D01*
X149996540Y-93000000D01*
X150004169Y-93000500D01*
X150008464Y-93000500D01*
X150095831Y-93000500D01*
X150103460Y-93000000D01*
X150496540Y-93000000D01*
X150504169Y-93000500D01*
X150508464Y-93000500D01*
X150595831Y-93000500D01*
X150603460Y-93000000D01*
X150996540Y-93000000D01*
X151004169Y-93000500D01*
X151008464Y-93000500D01*
X151095831Y-93000500D01*
X151103460Y-93000000D01*
X151496540Y-93000000D01*
X151504169Y-93000500D01*
X151575500Y-93000500D01*
X151642539Y-93020185D01*
X151688294Y-93072989D01*
X151699500Y-93124500D01*
X151699500Y-93191536D01*
X151719450Y-93265989D01*
X151721002Y-93271781D01*
X151759234Y-93338000D01*
X151775707Y-93405900D01*
X151759234Y-93462000D01*
X151721002Y-93528218D01*
X151721001Y-93528222D01*
X151699500Y-93608464D01*
X151699500Y-93691536D01*
X151719238Y-93765201D01*
X151721002Y-93771782D01*
X151721003Y-93771783D01*
X151760676Y-93840496D01*
X151762538Y-93843721D01*
X151821279Y-93902462D01*
X151857250Y-93923230D01*
X151893216Y-93943996D01*
X151893217Y-93943997D01*
X151893219Y-93943997D01*
X151893222Y-93943999D01*
X151973464Y-93965500D01*
X151973467Y-93965500D01*
X152376000Y-93965500D01*
X152443039Y-93985185D01*
X152488794Y-94037989D01*
X152500000Y-94089500D01*
X152500000Y-94705500D01*
X152480315Y-94772539D01*
X152427511Y-94818294D01*
X152376000Y-94829500D01*
X152310380Y-94829500D01*
X152302082Y-94830894D01*
X152290823Y-94832786D01*
X152270277Y-94834500D01*
X151973464Y-94834500D01*
X151917058Y-94849613D01*
X151893217Y-94856002D01*
X151893216Y-94856003D01*
X151821285Y-94897534D01*
X151821276Y-94897540D01*
X151762540Y-94956276D01*
X151762534Y-94956285D01*
X151721003Y-95028216D01*
X151721002Y-95028217D01*
X151721001Y-95028222D01*
X151699500Y-95108464D01*
X151699500Y-95191536D01*
X151719238Y-95265201D01*
X151721002Y-95271782D01*
X151721003Y-95271783D01*
X151760676Y-95340496D01*
X151762538Y-95343721D01*
X151821279Y-95402462D01*
X151857250Y-95423230D01*
X151893216Y-95443996D01*
X151893217Y-95443997D01*
X151893219Y-95443997D01*
X151893222Y-95443999D01*
X151973464Y-95465500D01*
X152273031Y-95465500D01*
X152297222Y-95467882D01*
X152310380Y-95470500D01*
X152376000Y-95470500D01*
X152443039Y-95490185D01*
X152488794Y-95542989D01*
X152500000Y-95594500D01*
X152500000Y-96500000D01*
X148250000Y-96500000D01*
X148250000Y-95589500D01*
X148269685Y-95522461D01*
X148322489Y-95476706D01*
X148374000Y-95465500D01*
X148626533Y-95465500D01*
X148626536Y-95465500D01*
X148706778Y-95443999D01*
X148706780Y-95443997D01*
X148706782Y-95443997D01*
X148706783Y-95443996D01*
X148778721Y-95402462D01*
X148837462Y-95343721D01*
X148878999Y-95271778D01*
X148900500Y-95191536D01*
X148900500Y-95108464D01*
X148878999Y-95028222D01*
X148878997Y-95028219D01*
X148878997Y-95028217D01*
X148878996Y-95028216D01*
X148837465Y-94956285D01*
X148837462Y-94956279D01*
X148778721Y-94897538D01*
X148775496Y-94895676D01*
X148706783Y-94856003D01*
X148706782Y-94856002D01*
X148700201Y-94854238D01*
X148626536Y-94834500D01*
X148626533Y-94834500D01*
X148374000Y-94834500D01*
X148306961Y-94814815D01*
X148261206Y-94762011D01*
X148250000Y-94710500D01*
X148250000Y-94089500D01*
X148269685Y-94022461D01*
X148322489Y-93976706D01*
X148374000Y-93965500D01*
X148626533Y-93965500D01*
X148626536Y-93965500D01*
X148706778Y-93943999D01*
X148706780Y-93943997D01*
X148706782Y-93943997D01*
X148706783Y-93943996D01*
X148778721Y-93902462D01*
X148837462Y-93843721D01*
X148878999Y-93771778D01*
X148900500Y-93691536D01*
X148900500Y-93608464D01*
X148878999Y-93528222D01*
X148878997Y-93528218D01*
X148878997Y-93528217D01*
X148878996Y-93528216D01*
X148840766Y-93462001D01*
X148824292Y-93394102D01*
X148840766Y-93337999D01*
X148878996Y-93271783D01*
X148878997Y-93271782D01*
X148878997Y-93271780D01*
X148878999Y-93271778D01*
X148900500Y-93191536D01*
X148900500Y-93124500D01*
X148920185Y-93057461D01*
X148972989Y-93011706D01*
X149024500Y-93000500D01*
X149095831Y-93000500D01*
X149103460Y-93000000D01*
X149496540Y-93000000D01*
X149504169Y-93000500D01*
G37*
%TD.AperFunction*%
%TD*%
%TA.AperFunction,Conductor*%
%TO.N,GND*%
G36*
X153200000Y-98400000D02*
G01*
X164876000Y-98400000D01*
X164943039Y-98419685D01*
X164988794Y-98472489D01*
X165000000Y-98524000D01*
X165000000Y-101876000D01*
X164980315Y-101943039D01*
X164927511Y-101988794D01*
X164876000Y-102000000D01*
X135724000Y-102000000D01*
X135656961Y-101980315D01*
X135611206Y-101927511D01*
X135600000Y-101876000D01*
X135600000Y-98524000D01*
X135619685Y-98456961D01*
X135672489Y-98411206D01*
X135724000Y-98400000D01*
X147599999Y-98400000D01*
X147600000Y-98400000D01*
X148250000Y-96500000D01*
X152500000Y-96500000D01*
X153200000Y-98400000D01*
G37*
%TD.AperFunction*%
%TD*%
%TA.AperFunction,Conductor*%
%TO.N,/RF IN*%
G36*
X137857771Y-94713490D02*
G01*
X137861338Y-94720514D01*
X137915812Y-95148523D01*
X137915812Y-95151477D01*
X137861338Y-95579485D01*
X137856894Y-95587259D01*
X137849405Y-95589703D01*
X137620162Y-95583290D01*
X137619462Y-95583250D01*
X137413124Y-95565069D01*
X137412428Y-95564986D01*
X137232588Y-95538206D01*
X137231982Y-95538100D01*
X137071793Y-95505561D01*
X137071383Y-95505470D01*
X136924122Y-95470015D01*
X136924004Y-95469986D01*
X136783009Y-95434481D01*
X136641742Y-95401838D01*
X136493607Y-95374959D01*
X136331919Y-95356719D01*
X136150001Y-95350000D01*
X136150000Y-95350000D01*
X135660380Y-95350000D01*
X135652107Y-95346573D01*
X135648763Y-95339694D01*
X135626167Y-95151394D01*
X135626167Y-95148606D01*
X135648763Y-94960306D01*
X135653151Y-94952500D01*
X135660380Y-94950000D01*
X136150001Y-94950000D01*
X136331919Y-94943280D01*
X136493608Y-94925040D01*
X136641744Y-94898160D01*
X136783001Y-94865520D01*
X136924058Y-94830000D01*
X137071414Y-94794521D01*
X137071763Y-94794444D01*
X137231986Y-94761897D01*
X137232584Y-94761792D01*
X137412433Y-94735012D01*
X137413119Y-94734930D01*
X137619492Y-94716747D01*
X137620130Y-94716710D01*
X137849406Y-94710296D01*
X137857771Y-94713490D01*
G37*
%TD.AperFunction*%
%TD*%
%TA.AperFunction,Conductor*%
%TO.N,GND*%
G36*
X164943039Y-88919685D02*
G01*
X164988794Y-88972489D01*
X165000000Y-89024000D01*
X165000000Y-91776000D01*
X164980315Y-91843039D01*
X164927511Y-91888794D01*
X164876000Y-91900000D01*
X160624000Y-91900000D01*
X160556961Y-91880315D01*
X160511206Y-91827511D01*
X160500000Y-91776000D01*
X160500000Y-89024000D01*
X160519685Y-88956961D01*
X160572489Y-88911206D01*
X160624000Y-88900000D01*
X164876000Y-88900000D01*
X164943039Y-88919685D01*
G37*
%TD.AperFunction*%
%TD*%
%TA.AperFunction,Conductor*%
%TO.N,/RF IN*%
G36*
X147167301Y-94719034D02*
G01*
X147169092Y-94719305D01*
X147273487Y-94743596D01*
X147275195Y-94744136D01*
X147363910Y-94779919D01*
X147365259Y-94780567D01*
X147442687Y-94824165D01*
X147443514Y-94824678D01*
X147513899Y-94872427D01*
X147514123Y-94872583D01*
X147581459Y-94920594D01*
X147649634Y-94964793D01*
X147649637Y-94964794D01*
X147649644Y-94964799D01*
X147722688Y-95001200D01*
X147804755Y-95025900D01*
X147900000Y-95035000D01*
X148289620Y-95035000D01*
X148297893Y-95038427D01*
X148301237Y-95045306D01*
X148313632Y-95148606D01*
X148313632Y-95151394D01*
X148301237Y-95254694D01*
X148296849Y-95262500D01*
X148289620Y-95265000D01*
X147900000Y-95265000D01*
X147804755Y-95274100D01*
X147722688Y-95298800D01*
X147722685Y-95298801D01*
X147722683Y-95298802D01*
X147649637Y-95335203D01*
X147581459Y-95379405D01*
X147514123Y-95427416D01*
X147513899Y-95427572D01*
X147443509Y-95475324D01*
X147442682Y-95475837D01*
X147365273Y-95519424D01*
X147363909Y-95520080D01*
X147275201Y-95555860D01*
X147273476Y-95556405D01*
X147169102Y-95580692D01*
X147167291Y-95580966D01*
X147052999Y-95589206D01*
X147044501Y-95586383D01*
X147040558Y-95579066D01*
X146984201Y-95151524D01*
X146984201Y-95148475D01*
X147040558Y-94720932D01*
X147045037Y-94713180D01*
X147052998Y-94710793D01*
X147167301Y-94719034D01*
G37*
%TD.AperFunction*%
%TD*%
M02*
