M48
; DRILL file {KiCad 8.0.5} date 2025-09-25T11:41:51+0200
; FORMAT={-:-/ absolute / metric / decimal}
; #@! TF.CreationDate,2025-09-25T11:41:51+02:00
; #@! TF.GenerationSoftware,Kicad,Pcbnew,8.0.5
; #@! TF.FileFunction,Plated,1,2,PTH
FMAT,2
METRIC
; #@! TA.AperFunction,Plated,PTH,ViaDrill
T1C0.100
; #@! TA.AperFunction,Plated,PTH,ViaDrill
T2C0.200
; #@! TA.AperFunction,Plated,PTH,ComponentDrill
T3C0.800
; #@! TA.AperFunction,Plated,PTH,ComponentDrill
T4C1.000
; #@! TA.AperFunction,Plated,PTH,ComponentDrill
T5C2.000
%
G90
G05
T1
X107.6Y-100.0
X107.6Y-100.5
X107.6Y-101.5
X108.8Y-102.675
X109.3Y-102.675
X109.8Y-102.675
X110.3Y-102.675
X110.8Y-102.675
X111.3Y-102.675
X112.5Y-100.0
X112.5Y-100.5
X112.5Y-101.5
T2
X101.752Y-70.477
X101.752Y-71.977
X101.752Y-73.477
X101.752Y-74.977
X101.752Y-76.477
X101.752Y-77.977
X101.752Y-79.477
X101.752Y-80.977
X101.752Y-88.477
X101.752Y-89.977
X101.752Y-91.477
X101.752Y-92.977
X101.752Y-107.977
X101.752Y-121.477
X103.252Y-70.477
X103.252Y-71.977
X103.252Y-73.477
X103.252Y-74.977
X103.252Y-76.477
X103.252Y-77.977
X103.252Y-79.477
X103.252Y-80.977
X103.252Y-91.477
X103.252Y-92.977
X103.252Y-107.977
X104.75Y-88.25
X104.752Y-70.477
X104.752Y-85.477
X104.752Y-86.977
X104.752Y-92.977
X104.752Y-94.477
X104.752Y-107.977
X104.752Y-121.477
X106.252Y-70.477
X106.252Y-74.977
X106.252Y-76.477
X106.252Y-77.977
X106.252Y-79.477
X106.252Y-80.977
X106.252Y-104.977
X106.252Y-106.477
X106.252Y-107.977
X106.252Y-109.477
X106.252Y-110.977
X106.252Y-118.477
X106.252Y-119.977
X106.252Y-121.477
X106.75Y-88.25
X107.5Y-94.25
X107.752Y-64.477
X107.752Y-65.977
X107.752Y-67.477
X107.752Y-68.977
X107.752Y-74.977
X107.752Y-76.477
X107.752Y-77.977
X107.752Y-104.977
X107.752Y-106.477
X107.752Y-107.977
X107.752Y-109.477
X107.752Y-110.977
X107.752Y-118.477
X107.752Y-119.977
X107.752Y-121.477
X107.752Y-122.977
X107.752Y-124.477
X107.752Y-125.977
X107.752Y-127.477
X108.986Y-92.486
X109.0Y-88.25
X109.175Y-99.375
X109.175Y-100.25
X109.175Y-101.1
X109.252Y-64.477
X109.252Y-65.977
X109.252Y-67.477
X109.252Y-68.977
X109.252Y-70.477
X109.252Y-73.477
X109.252Y-74.977
X109.252Y-76.477
X109.252Y-77.977
X109.252Y-104.977
X109.252Y-106.477
X109.252Y-107.977
X109.252Y-109.477
X109.252Y-110.977
X109.252Y-118.477
X109.252Y-119.977
X109.252Y-121.477
X109.252Y-122.977
X109.252Y-124.477
X109.252Y-125.977
X109.252Y-127.477
X109.75Y-93.5
X110.05Y-99.375
X110.05Y-100.25
X110.05Y-101.1
X110.752Y-64.477
X110.752Y-65.977
X110.752Y-67.477
X110.752Y-68.977
X110.752Y-74.977
X110.752Y-76.477
X110.752Y-77.977
X110.752Y-104.977
X110.752Y-106.477
X110.752Y-107.977
X110.752Y-109.477
X110.752Y-110.977
X110.752Y-118.477
X110.752Y-119.977
X110.752Y-121.477
X110.752Y-122.977
X110.752Y-124.477
X110.752Y-125.977
X110.752Y-127.477
X110.925Y-99.375
X110.925Y-100.25
X110.925Y-101.1
X111.5Y-88.25
X112.252Y-64.477
X112.252Y-65.977
X112.252Y-67.477
X112.252Y-68.977
X112.252Y-74.977
X112.252Y-76.477
X112.252Y-77.977
X112.252Y-104.977
X112.252Y-106.477
X112.252Y-107.977
X112.252Y-109.477
X112.252Y-110.977
X112.252Y-118.477
X112.252Y-119.977
X112.252Y-121.477
X112.252Y-122.977
X112.252Y-124.477
X112.252Y-125.977
X112.252Y-127.477
X112.75Y-94.25
X113.752Y-74.977
X113.752Y-76.477
X113.752Y-77.977
X113.752Y-104.977
X113.752Y-106.477
X113.752Y-107.977
X113.752Y-109.477
X113.752Y-110.977
X113.752Y-118.477
X113.752Y-119.977
X113.752Y-121.477
X114.0Y-88.25
X115.252Y-74.977
X115.252Y-76.477
X115.252Y-77.977
X115.252Y-107.977
X115.252Y-121.477
X116.5Y-88.25
X116.75Y-92.25
X116.752Y-70.477
X116.752Y-73.477
X116.752Y-74.977
X116.752Y-76.477
X116.752Y-77.977
X116.752Y-107.977
X118.252Y-70.477
X118.252Y-71.977
X118.252Y-73.477
X118.252Y-74.977
X118.252Y-76.477
X118.252Y-77.977
X118.252Y-79.477
X118.252Y-107.977
X118.252Y-121.477
T3
X107.96Y-72.0
X107.96Y-79.62
X110.5Y-72.0
X110.5Y-79.62
X113.04Y-72.0
X113.04Y-79.62
X115.58Y-72.0
X115.58Y-79.62
T4
X102.725Y-83.46
X102.725Y-86.0
X106.585Y-83.4
X106.585Y-85.94
X109.125Y-83.4
X109.125Y-85.94
X111.665Y-83.4
X111.665Y-85.94
X114.205Y-83.4
X114.205Y-85.94
X116.745Y-83.4
X116.745Y-85.94
T5
X103.1Y-96.235
X103.1Y-105.765
X103.1Y-110.0
X103.1Y-119.53
X117.0Y-96.235
X117.0Y-105.765
X117.0Y-110.0
X117.0Y-119.53
M30
